<mxfile host="Electron" modified="2024-06-17T11:31:43.288Z" agent="Mozilla/5.0 (Macintosh; Intel Mac OS X 10_15_7) AppleWebKit/537.36 (KHTML, like Gecko) draw.io/24.1.0 Chrome/120.0.6099.109 Electron/28.1.0 Safari/537.36" etag="-emBdMZYuMXn3yPUGoSk" version="24.1.0" type="device">
  <diagram name="Page-1" id="9WJoy53BfCrNDg2yGrhb">
    <mxGraphModel dx="1272" dy="823" grid="1" gridSize="10" guides="1" tooltips="1" connect="1" arrows="1" fold="1" page="1" pageScale="1" pageWidth="850" pageHeight="1100" math="0" shadow="0">
      <root>
        <mxCell id="0" />
        <mxCell id="1" parent="0" />
        <mxCell id="gbtMxrxYGxtrsKbIETWU-1" value="" style="shape=image;verticalLabelPosition=bottom;labelBackgroundColor=default;verticalAlign=top;aspect=fixed;imageAspect=0;image=data:image/png,iVBORw0KGgoAAAANSUhEUgAAAfQAAAKoCAYAAACBcg2bAAAABmJLR0QA7ADsAOwdIxY2AAAACXBIWXMAAAsTAAALEwEAmpwYAAAAB3RJTUUH5wQcChIAXbk6eAAAAB1pVFh0Q29tbWVudAAAAAAAQ3JlYXRlZCB3aXRoIEdJTVBkLmUHAAAgAElEQVR4Aey9T6hlW3fdV1XvCSmSLH+SnASDniz/axiDicEgDIYECfdiGdwwbriltNJ2I2ml4ZZ7bqaVtNwIaQTypxfixBAQgUAgENKIrf/BBCLLVmRH9veqKuM3xhxrrb3vObfqve+TcSOr7tlrrjnHGHOuufc5+5xbt269ffMvafzGv/PrP6VUX+nxU+9/5OMPvvmxD3/57f/79s+9+8fvfuZSwlutPuLxQTOObziWxufzyPb24DU76d86KMA4V2zkv0WFu7Aj53berCa4Jz5gz0KVr8SlnSdJgI9r/XFgi5VMFTvyYi7a+Au7sW+sz1s+0v485nNUNb9NfXDDi2WtEfJ1ck/bJE16j2t9hgp/ALu5mj/zZ/EATbKwbpK35UDtfaFfxwkq/7VYMed81HW673Zr7nyPX9dnYSnoozYfqwVeGQ9XhY6cp/E9Ot+XrOUifPBxszzDB+SFn9g5HnEfK56sx3brdS0t7DE0BZfwDPN98DfF+Xpc2RWr45iJ3Xt6hF+Y1WpgcduH+1zgkxm9D995/6sff/jj//zun3zxX777Z2//uVy/qcdvfPXf/zTz7/tYe/j9yOSb+FvdxD+++amv/+j7v/Dxhz/87NsPb//Ehx/6+JO6kb9599tv3zB/30dPxGcInyfVFxCccTb2qEmNNcUjTGPf8/zKfqjjnru+++w6PqHVWp9pNt753gf8d+4d+yxe3Dnf9b8J99S52+3N3f9t1q3xW9Um0n4j9bx397q+1/q/V/69ntfWn8xF49rE14Qm9km9JxpN8eg8PdW81VYNUtx1Xos9KeniflrDgXqe43PYh9CY1bvv5SXy055vV8GndU/Eazlei50atbv3rj/Vg+Kf4Yh/+M6HNx9/XG8df/zDmze/9/a3dJH8/bf/7O3/9OWvfvE/Kvybus5/46v/4ffv5v6stu7xW839NP7+33z/lz78oY8/p0396bf/9O2P3m/gPQH3+VslfYXUEwHk3PDpv8cq19q6vs+nxql94j6lcWK/qd38j3I3Vs1nmPrveHjE6i+ueucMpthnuOrAe4Y5NbGre/f/q7Q+90Vdn7W3A/Rtb+ifnWua1TqP1BPJ9Kk4qG96PqoJ91leYt9kfNMaqv2slkf+0we/nxZPP/th3Rlcx+futXrfFE+ee97P1SixuavV2r/pfPbgc2po3s/Ffgr3LH/9r+2ntdx78Iz7zP8sBzf4D9zgf/TD7755//Z/e/dbb//uF//XF/+18L8vN/ZP9epZnQ/9v65vq0vwq6//+Nd//cN3Pv7Fd//o7Z9899v6JP7kU/jZzAp+XwuS6D3HqX+PUcM9fq5bY+dH/MaY4d4xr+md3Ef2XeuOuWs/wt8x1eDbkdfdJ3LfwzN+dR7NVW49zzSKq8an1sV9L3Nrums8qvHEnvHTj84Zu+t2XQ7Y2sROLv5zTbyjnEfxxsCe8Wf+u2bXJ7e+bzp/Kuddr/hvmrs89J5xn2FOf+t5qQHqufeuAfIxoxn2HG7QLzNsHNaZpzmKeMR9WMNBrN4jbnWLYV3qiW+Oc6bStw/6Vc37XO7pP/Oe/jP36a/GOTf+GgdM42fO+qrxvc65uesG/xMf/493/+Ttf/vl3//y70jz+3pj/77U3E/k3/2Zr//ahz/04d/94rfe/bHXbuRtzNm8+p4V9Aj7KQ7xO+/Ufy12ck9Oc55c4ue6mJPX+CPf5+LBVaecbzI/z43qGX2u+nmozW+98GoTfaTzufGTe3Ke6eJ/Nu58cKc+6zvmjN9j4BknJp7rsTxwtUG8xjtxp9rJOTHP/M/ynNzqnxr1MZ/YR5jGH8WqA4b4fW6cubHTd7ebq/57znsc3Im5x89YNT+94yA/RwtM9139rs+5sXO+65+xs+4Td/pP/Imp/xH2Ea74ziev+NNX3H0GC+61+c5hfWp/DvfEn3qttZrVOjHfD7t5qGPd2H/ywy+/+7/f/Tdf/uqX/5niv/HT34dvxT/b52ftgU/kAn6lbyf83Ps//v6vvv2dt3+mN/JuACGSnOv61sa+s6P3goiU/yiGFuMei/dx3saYm/kR/1OxO6d4dO8xfPdx4ol9G85d81x/vh6VXN9P32v7pron/nPtM+ej2hu/x+pvnnu8/kfzyYXH+s4/MWg0fvefMexn4+RV6xn29J+8039qnJjTX/xr8TNW/CMNYmBfi32K3zhzte7ziXnNPnnFtTZi99HY6T9xj+IvqzzZ2z518N61Gr/7wRJ75CfWUX7XzI84n6MF9673TAvsOYorv+sT8zn2p+qsfrW+bZ7y73Pzd77Hv8n67T/Wz4S98h3pu1bvfx9/7OP/+u4ffPGfv/vdd39XZ0Q39j/yrX+A7lv3Z27mf/7rP/r1L759//bn3/3O2x/gW+v3E8AmSIJ/bUA3cHxZf/Sspce9oDb61C3m9EGuP0o53jF3XOOf4p7xcj6pVZIIJ+es75EN7YKX49FP1MK94B6JydcyGn7GOXGfizk51T/nj7faT90797VYNcG8xivujqmf+cxz+muf3Dv21RhBEa41jrPigXhlrRvnyj1IBy/ercvf7/L38PUwe9ShBbrnWJjDecEMtxLOAZYTWrUDs7OvqJWBPBvd66N5cSTw7NoH05qb59k6eim42JVDnUsNz/7iaSPXPi0VvTOaVzapTehlrtScMG+iW/HeC3pVvvM3elBqDv25+lPRqXHG619JAp+s5N7o7AfA2tngNoZoPg5cffgZeHuN2jGH1rH3KGs2Y84Jln1/LSF8Ztw6IV5jyXb6gqL2x9qNl3PXb5wZDPe/t/pB7y/mr5gf3eAfafk++GMfv/vxi4//3Q/8ypf/qaR+6dv+4NxrNVLnwzHfYv/z3/1jX/+td/9I315nIweyRePqTfyNbuLv5ycA8YHX37PrBwb0U4F8Qq8A5NoIXMYteFl2wZNSl5eWvgDMb0yLw7xIP1l81CvlW12N0Bi2JPyRJ9IUasl9CLDH5utc/zFPxYfnNCEy2pS9v7heEQ7xOBYbze6g3g18xROqynmJWfyFkWfBlhHYuTzxr1CW/hYdV8Xu82bUKuLl+ow8s8vqLNy+yOp8Ud1ynLIL/fnGi+tk9DK9Lt5o5xdZj0Cv+WKOkFzXVTGvzd+c8UwNJY0HPU/gleM3KOLa529AfCX9w9BsZz21D9A9q9d354F/aX4DcKGdX4ptz4lZ9jI27rBejwr4ScAh9sj8XvmPNPF9Q11u5vzg99u5HzL3B8F7c8fX0Vf0pvrID9D9xIdf/uKXv/gP5fulb/NJ/dRsnldnPpm//6Nf/5WPP/TmP/riH777yXuB9IDRG/n7n3nvGzY/xv9eN25mbuLcDP3E4cnJOG4Q/rQht/s5gn2S2TdY22G/6P0Z20KTawVRza3ycnOrE+1lnxUQiNYK4xIYHXNYrpu+UH4RuqKrjRebd7EvhprxUYFma51X3Ohep9SxNHdwvR7SaJQPjOuP13wQhmw6nlDk8+nTvGo3YRw9kcIvk/jKh9+E8XWfZJhR/MBO7oIoRn7neNjIiJxHYD5bLpwFb9IupQFYDkw7BApFnnIpKgDjS+tcnbWOkhU5cDk397qZXsBaOIUO4H2c6/HE2a+DGoGb+oJtIGXiM+3CvSyKuBHvmIbH/yjs86uMD56zYatW8XjTvAdCDPlkWjbm2o99PgQZkOy773RNDTA2bCxPOvREALoP93V6emidalf7WCGNHq04smPi9+59aNLljeNYLpN6jr6ZvoLVkb58heXKSKIcIVCD9rW4y9i11dqhSfDCMf6XE7lfXpEvcbsjzxmXiEpwFat/rBh17Brdi0tIsTbHnNvB1OFvGYEuFdxIs/ztN2+++O0v9Mldu+Ymz6f3X9X6lW/Lc998/4c//Nbb33vzN7/8lS//i2/69+rd8eOCDm//vpyfYH/zIx//vS9+/YsfPG/mQBFzQdy850aub8n7x/bfyOcny9KkkVrwBJppbvGsdHHlsgfTJ8ClhTTXQ15L9FLR2o3POudgjgrk03bW0K19fxIrbISu8I+KGcNJx+96Ji4+OA8Zb9czIpUSdRUWAxU/sNTc/FmzZ6OWjpfH/sEfwxuFm9oaNGblDH5VxH4OEWAMXOlbcxwCBVG/yLtnWltv9oWG/rA55zgkyEHU6kBixefyRzfqqWdhZIwuPF55QHdMGyzt1ilAK4Mg2VxBzmO6XD03ik+xV1VE9EAQPmJea9aIYqz6qSM58QNmyOO8h/qhA8LLab7rrq3IutEJ5BqsGO30vgIzM7mIYNwP7c+1TXEjv1/A5XBeSwQ00MW78KlrduraswOxlTsOb8o9cm+9PPIJ2FrQ6sYQaGJrjuPQJJ6dAZ3A1L/piCTmK/OiXw65ZDe28qJyjIEjh0n+9FT20KnDHVlN2iT8HW+nOY5K5ORYG0+CET+4oRJXNmpA1NjoYNNqu5wQ/+BAz8JeCZgPbkLmG4RvRUFoiGz++LdwGcZUlTBjqbgv8ayqBOL10v0ZwqV++fZztGIA11nXtZb1ft0lx4yEUrZdCPKlqvw1gOIfzEacMOXbb6ASyPmS/+wpWt68MD5fH/NJXTd3buifurH7HvrT7/+5/qn3f/LlP8hPwn/ujX31/MF+lqt/X/7+q/d//eOXH3/h2TsMvmWgXyCjx9e5ofcf2HMFemiDOmvr/K4M+NciLwpa+sWMvmkw+QJo44T3xeG4FuosEus4jTyfIGcMPGueZLkhJhEXJRcSo3os8eRSkk0Arr1aJ5gApchfF4bzpBBHrAeuMUC+mqkF7YyVwQ1LwC8KNpUFmqEyxhoqiqtfCckTZyCy84RiiQpBWZ6y9s37yA0kXQM4ma1j6ihMl0dnKcuINgTh2agcPBEYdqEg3fYPzFmjkYKY6mxhwc85EH7qzZoi6gM1PRMtn4Q143UNWKzJuePlpHgHFKdCIhDSEXPqnRpYxn/DOgA1+2uOtW+0nYoMqsiJSOZ0ycsxDbUOOICpDGT2OuBMgqy623trkAw658Mymckn5tJ0ISg4YKD16nK51JuCx21+7J3H9UUpcQHIxFdqkCMnWjXAjibHSxyNxaFeKgajI3ujxwuDjsbU132FMRkMmXxHb6BNOZgkiI7m9Egu/UFl9REctfkQfHL2CCBSKTI1VNpyHKh38vSce1/eGPrwdh2tzR6KnpEbZOrx1k4OGKAWWzvZiCnqzAXWeVVfW+U6pePnVJJI0w6F6E3rnVxkgE9+Z2NKD1dBWjtvufRicQTXGl3jBQxWmMlHpIOdpbZ4WMPLmy1SH7VMUqTNmwbhNsfzzr+ug+lV9pR66AvPi7f/iL9r58b+7s0Xv/KlHnyC39+GH8n1He63X7/9r778jS/+jgr4pa/+3qd/Ic2XFfjE/BU387f/z9tf+ELFPBp+V8HN/M9+983XP5NP5W6EmsroBeftOSCPZ8W0UXpAjHYGm0ZxptbFN4SRhKAxIlkYS3zkHI5dHLOGQOQJYGbzOOEAtMiXUNQ11a2LNJcCIOuIQ96FY42MuVjJZtegfBUWp9knXI0wWkK2XGd03CP7Wzs5yahh/tTkQlBB06FlgzMKGhzqYk+BZw9NZAACuyZnA4uPc2Mz/UHNQ5Nf1AeDeNsGxE80+TKLgY9cmC4FARl6gKlsIMFhY7UTQgkbFTqd/CMoVJ70rTOSgpuf7FJy8qkLQQ3nSFHpE8WI6HwA3OBWH0ZcMOHvCuOxGwlFrG47NUTOPJ936bqO1A/DPanm9GZKICqtVjZ7jYCpk1kTenEZ5cLYNz7xXZadKFoz2vE5H8jiCDKUi5gFsDE98KNjguV3AUKJlD0o7hTUhz/dQ8fcEWx+pK0bA5Rr2ls209cpusmhmYXzWABxxewliDNamECz9KI9cmWOsc/2aPKhbVMH2eTNegJaTzaF06fo7niIOsIft1Qig6GhrJ5TAQ55SKaHU6rwfDjRenT8nAVH3sElCXwXlnm00XJ6dLGsie00HO1OYVMRMEcS6+sLErkGYGc4JWCGc1iRBWCX1OvAqsYqpuEc5VYoSSY4KGqWmec3XK3Aa7aSDqaDIWT/EVcd7rFPBLTEqNEm/FUvyMT9+hZBlIUR7iek/uPcH9/5Z8jkevPmV/IDdbbnwE2eh+6rv/D1V+/f6KbOT75/8qffP3lD//V/+9d/yt9mf//m4c2cG3lv5h/m0zm/+o7q2YCParJ6kjGzT71tYhg0IaP96rmpUk7srKq3miy/JRRwLIDknROCPM33CRrYVMnqpDs3cMm0Mk7J2sdo4SAT+B0sgwD+6x6zd6spCDdxtIFHykfZoH05JeC4gCT1SN2gUhs8QR3fOSCHkiNxM2VEXbOorECgEg1XqwVB2ZqIcYzGoPFPL1JHdONzMPUJDt9RCfiihxBR5yY6hpG2FfeLFel4tB7qkAO9KhMH4mHDhOElaDeaKdbUmgCjJwU5bbsZKbIviqTcub2jwYsXqOOrGPuS31W7gcnUa97XijMqr/VTTfebb7kqpmDkqI98+/zSGpyp02bOpf3FQVLuSbzyy+eKho+O85AiDFy28KQt0nTzphZzZM85At08U1i3Ex1vFFVl4Ms9hyX0nBTnFiR1phLv2Q5ouw/mu7cScA2JW9CHQS+Z1u/krpXa+zqx6snGKdCFZIlNnkxTYAt1ttmCQesNyHAAuHL42guVdaz1aFPHblyuG2NxW4fDxlgJTfNZgWJortl8AbuGQrx/+d0Ls+BVx4HUDoFlRaf3OXcrkUsDmitXhB2atqEwTsvLdvPwyeEo3RKO8648nohabp+znnfmYNxl60SJ49Qc8qpvcVsL85zzdf4ozQLRiX/OH7EkmboGa3zq8T3yzdcOfPiDH9588WuP/26dm/rXP/71L+ge/Ju/8ebX9EtoXv8nbY8/bpNYg2+169vnf+XjH/j4H+jX1X359vdU6TF6I3//p75+87Ue7/9wfgCukJwcOOtUJ2SZ0dJ0nuAzBJi1ezNPzAj0OKef2KjEStxamI5LZTkS99G+BA7zAMDvY/I1at2J2XeNn3rJAPaKQXvFDmvkRlz9I1eunUENcXxXanLcQ+RJycmYI5kG72DO1e2Muchb5UlJGXqQCz1rJont+nlSrVFbuPMFbPEN1Cpfi7YMgN3cOM3lcBlxOCa/9+Sc429AsZizQxZT+AHp5ta+XN9Rh2kcbqP9sVtxn0uqMbaEOQcC4WnflhTOC34ipZdlsrQ8l93FAkesy3tY69TWHNGjf6HsqyNWqr1wmjqZfCS+dxmA9XTg5pVdx+/N4rqIGr1CRTJPxPrHKTkhg2EveycGiOy68IvsPWGY0TlS4C57nnXzew8sxpH9ctyI01z2cA5UEvoYL8ddjVZ2MONl4NhjrQ6D6ttq3GauuBy2x6Eprzujz3rIINKH4QzF50sYnzb7Esi5B6v1qlfrDtx6dCdxt2tbw+mzHObE0gyJyK3H5fTFNbEBLDa16tHEhLGZLRSz10QrIupBLhmmj1HqiDhu3xBii/FD4v0Q/2xb50S2W6N77P0+C+3Dv/7hz3z44Y+/+Te+8zf+z7/9q3/7dyz14LDz3IL9e/Pv/qnv/sdf/MMv/J+pnJDezL8732LPO44TcdpN066dsdpgXomvsy3MJ6BV9DzYVykEGa+kD+DbHV/L/VrM2S61PUA/cKXKp4FPbOI5z5F7eK1l8Kx41EMwjEexRJ4fl/4TyMR5ovU9+In8FP3EXmwRs51D4TCLtYsDF6XfljdyzrfqqtP5hL6wPwt0sIrvvEO3KhQ4MDazPrybfLGeIW7+c+nn7ycugBN/5qtfs83ekcA0drdPvm3Ik/9RGacOovdr2fELaOe+uC+LqeLq84pDh/fDYgq7wl/keXkeRT04u9WHE/nbEtcTZ0JH3FQdPuc5cZCjL9KlnSpwfdfjUtRZ4GEfZrRxMG4n8iFOGPvP4CP+9p3I5NHRYR30HG+88xUzZTU4c85JnbvrPZf8oJx+Y9ybH/hffuDh36v7fquffv+B//3Lf18Z9E/aHv99OhleDL7Nrqr5pTF/Sz8A539nfoJyM//6zXf/rD6Z6+/L7zfzvLBSKoOm53NYt/Mwqb/t8SgSvqV8uK9xPvI98wtr+KNcTvD48CzFBf0I9Mg3pFdCT7f0CeprkqF+GrG2dEAPc4V//wxl40VunaJk/7wa7ljWjCWW5b9qx8/b3Kr6An+0xQtg0f5/4/vVAS6n9v37pfmazr/sfK/V8jD2PRY49NdVXo/u2+TDAp84H2mevtNGorfgJ3Lf0L3ffEn5M27q+iffv/xl/53633v57feXP16Xmr/SjfoXn9/M38/N/Lu5mfvC1mEucLZMGzJi5Zauog0bIICa7Gwt6gSwlVgFkjjHvnlwbB3kNWS4sv33Of0E5VwFR+uyqqt41i2jMbkaLtegu5Mb08FZ9gPNwjzf8tlXwE5obdyN019WgeZY+O5V4xMpTLUnMo7WIK/NhUuO6l7mYi6Q6p7IE1i/fHbPp+2BTHbV0Hjw91bHm6LTBzysZyOjZ9xp26HDI19jDm/AtgK47jBdPKifNPeHtHLvGa4S2VEw5spRhufdgBZ4FZgV2D7ugOrd/awfx156l8fGWi2Fq6d7f5QxvhcyB/TUuhZIJNEXmIvjyDG6D8JX0AvAC8fLBt8gj6/jVjzzjTPlaXoZOD2n/Qi7dT6V50TWljoJnCSZcmy8sb1+hDroL3dzEbws7qLXZE+gL3rwsPkneduxnl2jp39zdpGH1bDmMz0fjPmAzHe93+vn0fjgfA7/oJx+kZv+Jdkv6jXtqzNW+8UNnU/nH37kw8+9+fDm5xG4D5KQNJ/MiWojevHwi65fZahyCm3hFpmXIE37dg+goOucVZvUGELo7E/8eNqUjVIGYA2Qw7Rwk1Lacm9OFqZBRZiBwYsj8zhr5rYzK8foBQoZA3fuhHVsgpntH4p/6EVJPJfsGN0dLrMKTweUR7UBMWwM9uXXc73SV4bi7bNnzoCAjpsshGrnDz77e9B89irnmz0WaSCOSawZ1+hiJGNwaDE8nfYQcPnv7uBrYRnjVJsWoWTf3kEcCtRAYONml5NRK8GKZO5jcc6g4gxc2UMWrqlMCZ4x8DBW3ibwnAXHPbrKjHb+ThmEfHZzqF1/qmBFbF03xsd76UmEGlgrroteKc6yD8aeclMMrZK5djiajc586HLx0aVocfQuF4Fz0qskYkVeZ+ftts8TafUyLaYFXD2OdzxUUEWXkI2ML/ypTNujpyOR0NQ7Ckx3vi9QBajNucHIrhA6rR+bMRojHl/dM1tOdn7QDCT6DJEnVdanHB0fVQlEo7yi9+wSh9DyEz04p3nYVfFWvCCoxyqAZQj72g5rQxqHmR3aM8UkmtiZIv2r/Gi4kFHBJY1EpsKKzRLVAQDe9pPcpk8su9hb9f6q37kg5uZkXqkw+M2p3NTnX4qdN3R09PA9+f2bn/+g/z/F30lH7xgv79hv+e9P3//Vd7/z7gcOnM3czN/73QPvJsiRg2r0AsdUqylx4bpxOWYPE9RKN5F8esY1XONg6ymuafvxMez0zA9pcA9tZBnKmedW6swL7vAmDeI2XZ/qSDL5ouZjS1Ks68TRp76dHLXFlWao8LbexQJAneTnwUYY9IRaGA6NKi4epMQ/caZJYTM6zUqoYIhgzZTReu0M1yEX5v750LqgmuUStAC3dpzokiKrxXKsrnJXDqYlUFk1pW+L2z743EgkkqnCMdVAGRp+MzVxptzgco6qB84VWy82ZpZDtq6BEh0fRJleKu6Z0OqB6iY+BdJZ/thDIK3y7B3CHSxrc6XVN4Su0Rh8YIVG3/YyEnDWSSAhc52QsFboKMwLjSW1TA0+pjagGkZMvvwAVPybOEEcOpFZRXXSJJ/F5HHORNKGoqjBCXWYOoDzZwrGdl/AOROMPAzB5wLadStOTSaZR8+CP+M4wTiL8kQ3Ho4afh6OCU6QpRDDtdJX6nSQepCGi0+B2d2lhqiex56b7kWx5kBmoLzRRZe1Uw6GsJlOSn6tjE12eqClxjDFK3XNjgfCDw5a0UEFNMeM30oIwhleUhslMPuZgKbsKtdL6ohe/IM0B+Ul6Zqp3T2W33u3A5BykcKJa09O++b69DkIHDc5kYg1xzjsQ9RLsMZN3exoAj5b7q8t8ZLXJZFv9FFncIx1Xdjnw+bzq9C//pncZ++f0tHi3sx/hibzxaf0yw3dP9Wu/wJV/9HKn7l/OvfNXN8G0K99fcOP2VMDxXsjqt6mjtNHAi/HNBZwb57WEXL6ZCPNoAFEAfPQFw3Eo8POGAjr1JO4vGvNBeS6ApWNCgsC1YwvOecJOkRHhANZbs5XOZFrTRSZ0yN5WcViUWNYmluHAVZPnfZnPWQlAARzlFXb0jI+qkVk1hFjnOtNAq7m7v7RlY+W8OLmN0pepyMk85McHxxrYiOWmmJuGw3yeCe4AXc2xwtjFHW4L4TZm/Bo8AczZAPRJR+4DIy1CFLypHEqV2Gq1nNORGYvHeMdGWJ6wCc5Ncg22hyt0XQBspwaD3sGddRTU7MR0jNCuFFxCVxuGfE6JzrOTyTnnEKQPHM0vyuMuLVBBa2c46+PtXWsn1qcY5SzqWSC4z7QM/54j3aOhpgDTZ4RwTn1HhRruFbYgZBCGtrjFJbz4aKXNqXy8LWYkOj0hQUjejVZJpKeajkhrRVgH+dZaBxO92NNcuDQwzUQR3wG6o0h3GqSRCCSTT5j4YnivdggjGKODoPH0GCujXb2LA4LanKx4juHogITWkcF4MD07KBsi+LDm9m5ikfbOlBlOUF00MrXwSeOjuuJf9HxTfOsqcN53uwTONePCxwqvY+5zruXxahy5bW8XNYpgT0vYbqhxdSImTf90e5OmfMGD/yOuUPe1zjBOWnXSIvtfByUTXWw9muqc+O3Q1N6nhz4oBBXiN+2yi9o67feHSOuG/o/0a+R1T1aP+P21+aH183hcLmha0tFLNYAACAASURBVP0V/5/5w5s539v/t/6Fv9WuXyDvYhBoE7D4yoyRh12sxuXi3QRZbQZOmkwzqmM8PsU4zEZ9QnBpWFMhXzzCD1voXZX5LkI+zZwAJPNEHq7VcOqRq+nQjL+a5uIyVoZJ0cHnB/so8KgFH5URGhpW2iAnfp7OGUngmvGtfOTok34wIkQbZopAxTXQN+gDsA/Y2icLRrS48KZD8ZiAJhrgWt8w3E8H4hAweQfqC5onmzCzDdB9wqPoAPUgbVj0KJ3meAtTb0A6ao2faqfpoTuHvMqHnK8XbGvBI0cWq4/4rNSdi6VN8Ifh0tgUqVzM5F+iDlV8tNCI3ylDl2NyS8zXoptFFnaS/KwYIBmuearBF4p3Phjv0rZzVjOpgjERfQqJcqborGLlTBTN7MG1zV59HaGhtSVRVD5SBi+/NFLR5qNvCUjQzdNias11x27RyaA+w5dDfnH9IMZDos7l/IrZxywjJ9u23yTI7aEQOKQwNjQe+xJxzWtf8uUGFAFerFEJi73KGgk0vbBreqo44UDko3b6aCxlpkdeOgXrBLOVASK9SZTrQR+oD6ys6M3+1vNtaoDfvXiW35KabbSvUkaXFKk7hlOOU1DFhALAfrwKOtrygzEJ09VFb9I5zoGvwTlvF+NLPIvzmLzJYxGZC+vmoZvMKw5E+V07YDeOgiATkzF9Se1ZW5f9grNA+oMjZxg/D3qsWQsvs2NTrEEq5SRPtdoZvgP+3T/y9Zt/4Xvu7e/TJcY9mnu1xC+f0tcN3Z/O9Xva9R+uP/mpdn06103dP9GeM+dCUiNlZA8pn6M7leeUbMcpnsq9yRLYzLRBfnCMtCYxr50zVPfdKKFX005uzg0QnxPmlOPGRYpkuxbn9UE5PcPOvnzCB0AsTwQZBg64e2KJXw8pZT+NzcyUFwNyyPbh2Gud9MpSZhgYTbCAGK0RU87xuzS5KKcXlUyPQHR0rcMRwctBgMla+gOtJ0kUhQpQozM+vwg5FkA6AYgYeeCGz0ye1C7AbGA6pzVswrNPFQOePnhYajxoLQmutchaw0kgYrQiqXBN+g9CKKIfkeawzvKjmQj+3Igi7mu7eawxeyNjtbkQiU265E5qRxRCl7GkZCfndEWAdYMabBTgxBGkVmDhTz5wIJxjP5Hk0WhCAawz3BCqLT38YCxitW3PEy1ejls3mTlHsngoy6436YchUhSoKbUL740kRNSfjgCgQi2LvFW7b/eBouXIzS2csCddc2pJg5JOHG82GHO1R2LJxz7Akpy+ZG2AeNlna03MpRo+dUqMSCQ1x/RrFmZyTRxyfYuTElcV2mN6I6kWKhombPdqVvsSgL3PB0A8jPX67JU9bkliqlyw1I/hRdZo0AM9yIOcNbFntBbXZR+WBj0fE8P6XZtPXF77pDrz5uHgQY8zY/vyND+95/Uo0RQV7KQmoGh76dcu9uONVDOlgsOferpBZrzMsV2DqLQJjwksMPWH9fLrt8rlW+/6rvj59+kCcEPnXs0vfTs/pa8buvS+0rfS/+KzT+f8fvYPPy6UxNICJVZ+N1K+KYO6MtiZvvzQATMvAIQpGY8GpkYQyxuPr4IRIVG6VaYx4YYXxTkCJzij5Xg5gZHbLvznY4pLo7kYQkytAcaTJN6KHXSj2MTYaH1JmPhsf0D49KiT+Sg8DBAK6GuvA7MIfvUNKlfNQXe4pKOd8SvQczAOrVHp2cbbjKd97MpJg4qZOspiTpZa0fGTnlz+Qg/2VHOcJLPmCUgpfh7gLNazHdKaWVFXOI2wqmJ5UwYVOxqkfdovZ+FAbcxb/7SXdzSr1952Tf0ZJI2VT79ZpAPZxnpBBTr76guhmUctKU8a7LFYgcZUqtTvp1YTK+6sOiR7q1XnAk+B6Bgbp7EywdReDZQvOSoeiZxrdAAkT2riLKHC+Wh+cKyZTx2vjCZGL+KZOhwZG+4UgrqB9nkVpMjOqNl9Sij6Q0kjDCThmQHVWdvUAZxE0JHJGMksdFzPDAJ6uESw83AGGqsvn+vGAk/PiW0l901hI0hvrTmB5Ov1hdTagQvz4fDK9JDfOkGTC8s6KrgsGyx8HmSoiatc+ymU/IgmVjcesMdBC0X95YjtNGiqRgvOjNSlBU2c/ZpverRSEzb1C8sBOEDV63l81WUGyujeDR+vuwF3ykxV0Q0HVaN8JKEzgRcs5yNIjr1OCZKXcvqT79zYLzd1xfg/VbhnC7o+pfuGzk/Lvf833v8l/d/mf5IbejaMon5DDX9fro//zFrZRzIGs+19sP88FItv27E2bUdObgoZzwJrs0/gF+5JexT4LF8a202uvly4u5htnXsteLS6nPnk4PK6zs43jlHPYvhVaHr0DPSovrkqL7nWU+XivSz8CjieI13M2fMj6VPEYB38xcKOE3HYR6xm5wN1SrwIy3H6+oS8OK3VwvNUjfzBVPhYKfzCgcfjfLKOa8inAnYYvVoSnRWLE35dRLZxzefzhDN5DmLnqTtj20YkK9iYWba6w1lA4Aae+evubIXRPpWJ4261aLBeUACsJl8rucQnXFLe/IzIFHXWtmzxLjoXCqL3KLVcRxBgx2+HFifVS85IQQoTn0ffbJ49WnFkqcPY8Hv94nKgsnbUe38un9e0icdhBJh4kMB7jxY5zjdRl32gIjz1Fm38uSLgRxB7nyfDQjpMLRK8R0F4DGQ3cfyb4HwsTxd1+s/FWbHRgON4QBz7XFpu+qNFENiybjLBclTGAK104pJH7tOpFTdy/7fjvgcT15C+P6X/1rs/yb371/RbXXH3Ezp/d/5z/XTeWvKDcPNP1PyRP5FVDwqzjavPgRV1bAAUXWyeaF1Fy6vTVSn54t4N2bAVXDlDA9FHhWYuufPFPU5POkxDbtAWZCax85KL3AvG2vukezFdGdcV4Hr2yb9LFHGAa54hCbDcrm2dittbq/OgtKxnvXCiO05PBVT47rzHq4hfjxfh6nQ24N79gzXm4bkKN9C5uryB9XgRSE0NL9TGYfWBRW+u0a1cf+bNAmFfAaH42P4ersN8QFjZd9ELVcNzFnVV9L7Gf/Ehe3GUeZs/hZn4p2DXXC/Ry7OMXccD16drh3QnvnYSBpvpJMpu7CGf6+TE77qXtcIYenR9nxchxjXc1QbtvBNjsqnDuDY6rkDuwfu6Oif7c+0HWnfqwz6+AN0dWqfXzeD5rtXghX13nuuxl2sZo7C7bMclnMUVoZX/KZvuw/MD6T4Xw+Oe/eEnP/ycblH+lN4bOr8Z7k/3ht7a/c5AP0L/4Tvv5eKuJnEJ2dI8mobPPW/5WhTvAx0rYJQg5VML7+aqxPulAOpqhGwTbSl6p7OL8LciWeqRd0AsUDveiRquA1Xut0lknNH3XuIB0/C3RRYvPvutsddY2SLgIa/cWS+3acVMKgVd+yHJeqHGTg7lsrEB6TdoAtP9mFYsr/L0Pj44PK7jXmtQOrqnV6w7bAkpAtGj+WizQyfFvd/nZd7gHohhI6dHVoeKza41g9MhuMhcIBNwLQT0cBy/jWP90hHP4FCnu1Q/XcalEZ8mD6TPfDhdxko8OdWsdiJlCqBN73TbsjAHufzdxXEsxDKOjQ3eUJ/UZIl7CHLZGto6fzjNqXDn4JeSMfIth7PlIMq1T2jedQ/8mOU44z6Eu+AOPE7sHAt4MbLNK+BZ7WlMUtwYW9Nl+FD4mqelaz1XwYV70J0oV9apJzvLC28vYrlnFVvn7U4sa/xMemTaJzDRHMt4Nuf0R+GKGT7Tlg6koZk3D0cfeAvoXNe5lt2l5y7Cz7W0C9jRbSGQ5zScDPM2bXkbX0mXTDLt+ANrniuJlMgc+ww3Cnbfi+cN+dTle/a7j39akHxC59vt+iUxf+Ht7779UWseKvo1c76Zf/yO0kmAm9t6qbGgwAmQ08Ov1V1oznUFbpyrQdq8gjxyYy8AqOzqsyKUO9hSzt8lAgpvvZwv/cQcbY1yGWfnAlrDOayefKYA8YOTHTNvPrKmTnjM3ndKWS9s3hvqYPRgC5efIwg5PmLN7z2FEB/JyZkEzju6JgFNCK9VzmmFiHThWQdt1LtpkcbI48SAeNC16fAkMp2oISneFOqcoh1zqDpR4zpyz4YPnEe0MPRgaO6+8vdNsDQEbjcWZ/BErM0JBA1BoPJaW3GGKZr8wRXrlRaOcfBwVJb6gdgs88ZPaxVsFweWcDhQg30cjCAyvUo/WDsSGXPcdYsoYgFI0ajbM2SM2at1oNg/huJe49NAuzuuln/+wrgD6fMVholi5TqevU5T/XffJy3gdQ7JPgxvvFDmPCaqRb/t7Lo4FGxbizRz69lVfc3gei6W+shYn+Ks7ui2brmAOffec9ZiaN8OQZ7rzTrow9NwXMeu1zlMYL9WcE7Zk4CYwePDvVYRPY4Ke5jKefC1obrmnFQJkLs7hKUpSj8MNQuQnF/puM9O4UPzZZGeJFV6Ad4YHbLrORciJNJjNJ1ziWLgcVEByMZ7KcMkH4zxXr3vnYtsIc3rVjXk3sxtrbxUSUKNzdQCOZxzLrISf/zhiDHcxEuCqOFYcgZ2z3/WVjvIj/oOue/Huie7PegN/e0/ffej3MP54Tg+oX/18Yc//mw/nYeedwS8K3jP/wQDWRXT2p6kOAlozIXNpkAETzYszcQ1+eIIaCKJIWHdEFPn4GiqlSYGloGPwckE6tFuNteAzrpd3QhOClGVw77Rkg6cCDOjTkx+tJ09lUHD8v6Mib/YkI0QEqHJIcsjAtKORp3U5hdI1yFvywDgeqjCxdjhmvD74UjKZy/1k2uGJWSzH9yhxcq5AshadfFHBVUmwsTDX2UIvuogZmZ8eQEhqgeyWBJ0PzXbBq9i/Wg+axoujImaqST6zHlzZys67aXEQ0GEJHzpoGV75xotF7/Dxll4aom2NWT2bI4XylwXTqFV9pCAbAOc1myscSmWDeaMocgeFbU7MQTcV8IM9scjC9my8rXo3rilQAnriyBh9EwgkgZpKZ/wA3MVYFxena4DanNP1U4x/CkZPadfVYrHAIuujpW1035iHWCCi6fCWvkCQp1BLYPzxRRftHdXqZnnk29UluKQpFFCw4EUNvW0Pc7jvKScfPDB8RiqI8QV40EdrmLWfr1Kia6a3Masnk5Qk68NBdd2nUsH8qZoc5ufQtgDMBe1NE0sJfTyhRxzWFSLPt7JTYScnWVaUZjz9df7gDfxEEzSgV4khj4PK6ZBhub5ba+vOzOdaJVj3FmLdzwYdpKqA+seyMZIToG7F/mmitRijLCBjw88AeqXqYPpS0YGlOFEEYwcwxNbpv7gGpxf24nz8AQnWnaNH3GbSvBe3ynnnsyDWsrlh+M+/msff1aer7ih/5QCf6I3dOfTIZ/O+ct4fbudzSAsP/FcaDKw2aCNtM18OYyT301UoX4igWPnVBOSZxS8QbS8Y6sYQqx5oTPaUMjou5lyuh8zU4DX8MXhJ36zHm3KwE/cHFDoeTKHBWvyp9lCG+biA+Rop4wZyYgaQ52DH2XNyRMhuIIYqIPtPKG8pxCtYkiqGSXBKY6HJymTxw9sMdxn1Tw2uZ0CPP3QTP5dvnw4Jeq+OK7KJep68Ms2ZGLuHR4R0wfN1GBUdDApM7mwsqiPOV7wshE4BuVDdg0ukDpaa4DGmDxc4g51zo5cvzVyRjBhBCubJOPwTgngYt+awY/L+zUch4XQzB9S2+01Nnxqph6tRshV1S+fc+rYUQ3EmsY7Emc9pwZvLRGjEYK3AhEMLrvxFmW1aM9xQF6FR7/F1Wadg4Vsa+lgBWsnR57L5GI/yUVyVgxBPTojZ+9x3skFMH2aGgUEWh75qceqOnT2dcgCwEx5DsBVgLqsZZDXhlpQHJ9ruHmYK9Pb3m5r48TVXK6i+6BHjhvha4uMKY0aJj8YxBmawkmvI55QChBHX5PVM7Z73rzSGGX72Y8fkVcsbF+L7Nl4Zj0m5pklQ3765vZUOdApSXEwviZAJj9bskR10HbtAbjm0U1u8AG4HdKkVgZHqvCRBFi+RrIIUnF9rdcoCnZP4GmUt1Tj9L6o3yD4WFn1Xpf70uyN84Uceq6haNbwPeUwG6am7GV0xQsfroWyjkTKXhWJo5r4b1Z7Q0elD9+7dQ+X46e+1O9t/8GPP/jxJ5NGKA3kS/ygb7fnxCgtoCykRoEq0euUBDf9E/C2UVPBOxEZpimUlS/P9huDxOBodkzzMBmBaRXRw5daiTcf2agXx1hKkHjzWJNEs0f7EdEaOxU7TWz3QABTpsbAU6/sVZo1BRQTwq4iqo0QNYS5WPThKOi4Y4R3RbTqkoKijB4SSw92PzpnsuVEZ7J0QpgKNLluYVt/5tFDWRi/WNIvaO6npmqWOfnaiSqEnwIdc040t8biWAMAnuR6EcOfqOZEI4YXlnzoyK6cbfLZjTG7DLwBosGYyAFori7Xq7VDOjrzXC95kZAYugEMDj056FXkrDmQYLzYQVempfOOmOuGqRPWF6QUmoLy4k+K7J0XGzKTFm5WMrAoBR2W4D3rYKAPvl7i3zjnaF2jA4m+eNPeu7tCgrnmomecarKmNVzJ5JY3yex0q4RxPtfmBIJUawpmj76ODzKoWZqlQ1+4Vw7VPlVGE5lKzkxBlpk+7jJyLTRunWv6yx5yXQKgECYXNOrxOZNMfSXnJJsKxqtMKWjrg9ZX9wKAnTF4Dbc9PrjeCpmtk2zBTyZ6SUw1ntezBQXv872w5CFgK5PPOxrRorYENDmWvIljo+uUoy8fknVq0T4gabwOVslGunIeIDm7Xs41lDxwrcb+WHAkl/05ONe6roRzDoGUPNejM0NWm4hbImsdl64BWscxcdRV3fTG58N/BZ6b+peLH50PP/TxJ9/rXv7u4x/4+Jf76dxKHA5hFudyJVWi3MzTADDZYFR6QrPi2MZU8eQ5vKEsFUZj5SOBKejkEYcC8kdNM0SNVbOXWvElGy7H/oG58pgUrDXIrz98uRDHo58r3lHHHTIpcDhG9sqarKtQ1pfY6IpYC7l1caiW3UHIDgLA2OUdhSwdGe4jsWVzKQ9CU17ULTXSuZiMcOOmF5MLEB7ieRFEOzWutZXkWycx+i3W3UuCBGxPrbKzlXEiX7pnCkj+9AX0qohSrsPkcYrn3IdOTEDCzJPPPu9J/kke3dExPHuGl31Sjf7ME71ltAX+VDFxP0lJl6wrRy5+Z/chGtKdfHHuPWzt1sW5q6hkAahwR733aONZN3O5oHBwnlUVezFdARnYhsXGZ7zJo6G4oqT08DRxg1dgNIRGI3BXpbVqq2+e0859amLPuYpbBGtD1MPhIeDXF96csfEb1dwsrn73wxhYkacNC6Y8yQQo3FOB3ez+WEF4/RHIsR3M2jJJQLyjzyHnStihKBaFKJ7Nw0ofuS7NXrzUJu/oedLm/HzyJoV37xWhzwKC8SCPvnjtNL5+zfE5PHghIh7nqsMVuFyH4fqBcASZ/OlWLjupwTmRovYCNWOrTqBuAxRhCkla6s3IhzTZNID92c0xCPPsFEcuMyXMc7s9WxQMYVJTsVFCrTWgkS7uOkbcUjDzMCu8JB93qhzwmvxtd+7lb3/v7Z+739D96Vz/5o35HEcJO++04cRNPy6uTZiC3JEDcquzDdgId1TLbnhmTUixYnCyM2iIRpe2WdRx6hHckayux7I2anuuyJxEfOcF4bQ5R0RCuUiwiIPjVG9XYRe/FS5nJJrHMbzu8whYfJ5MuAVktXLiUvFcuNHI0QonKFS7fVgwaa3zYPmNuVkH7AC6oCD9ZKOeI3xokDJpKYxHVjkWeCu67tu8etCiRhz/yHbKPEkyqVeXNMNBa651d7PaS6nSIiPkuPp3aMUcPdd8PVdV2JKcu/EqN7I5VLRz3I4XwkKPnnmojGJsd1GZ4WwcjlNB62nOVHPRc2w0M4GfpJ5hYYym8+aF+6ws/QUGliHWmLgws5yFMXNAM8Hl9XIEGrZPi5WLHGVMXUS3c3QBzbntbqDlPCu4ROzloG1Y0HbeCO6eGi49y+p4IA9bVKQD9sJm3AtXDRKhs9VkmTz7OeoBu8+pSXZVNJrRcxENTMUs12lyE/YOgh8Fp07H/GFNbpBEGa71Qp3zIYAxK2ah4aChXs75SEl71wtkYw7svXgRditSifskp2EjwNkiysNnzrUEH38ic4ImkcHDzF7Xa6n4+zvn13sz93Dfy2X8jBfRcbNKen+7oU+LduJUNesU6kWuoI17ZBXe+RGmPmMeA/E+j0TgjG97rO3YSvV1XnVsx7YafEk/IinS5wDmQ3bgE3qGsL9BzXP5XlKdi3VJHZz1z6sPIOFCtvul5wpC/cos415X/dW+Xo4Pcpegmcupy/JfzgOcwBX/GQJDuPLOLM8jKa45wN2w83y4eRcs/iMq83wKHZFV0CNfgpAX7GqvwFPAEO9n79BbCBmnzAvIPbjX595C27FT5qV3PJ6mxgO0zIm/rnVGZS/yzT/LS1iLy7oUOzk8jD709gPIolorfHa47gFu2mNdKGfktC13icazODdwltu511jbH/tcj+7NtZdj1aF5mdpbbnje7SrQ8QUSfi6cw5Wa6ki3chesyootw5F1hR8pN2JbrtLL+obQ5eTJUkd9BeEdtYrs9cZJcJxHHasxAhBdbzX0bqH35vuHbe7hvpeHsPLaKOmN/kH7fmWZxCBKOovIKRkhAgd+vNszApygU2MDDvZq/SFZYOeX6ebcO/OZwpVBK/UMTp2pSQCDxwle7yRbzXp3Wc45n8mbCy3nQuOWVPiWs9/5UWLJKTcYHU3vnMT5RH0WIVu6qVMEOBE43l1u/K2iFViVrT0hooe1eJ97ZybJ2mOWQo3heUVXnqiAycN9WFzKbwxKAqu2pTKGwtmujEAdwMzjcN65x7r4uMK5+i7yBzPZF68nVeSoKLKM2nGcbvPH8SRasqE57E4ezm1eEjxSxReNTbqWu/1gD8FlzplpePk309bdf1/fQb4GBTpwh3kT38uHmAfOF9cTmAtuFhdf8jxwTQGNdN51LYuQHkV0Jl47telYxyLXeBooYGktxzcw2pudZVuWeVTYDfJaOuuPxjeg3SSHyVSRzjfkiq8PWQfgAWe7tlXG3ZM1x3skjIfeOh/1cemoS39w/2Bc859zf7HMoqzgPKddlg75e9G5oIjp4djCARr2zNTW+rjhAM2FoZdnMHbEM8yTMC6BBrdmG4T9jRPNEgODNbmDbT4jiBpD7JLVJDwVIT63ELu2vr8NJnzTOOcc7OOwZAY168AmCzkJMylOtlOVMLmAMLgxp5QitWrQAMUB4Ks2qsBaLyLVgTMD+HWokvENxeIL5huUVgNy3SuIUhaEDbV46s3uKXSP6zvv4ECEO13xIjxrrHxjMKlYa428+zc2NWHmsZwpAq5lkmsySu44V/RyNAZsUpSmhqhNmMj43USx7dIsXeyy8oMvUUqWLRROpPIcTIxaloBte0r09YJ+HwtMLR1jOjM12X8UVpxmMIkLJ4NHNpS6DV2gPC97yvp3rznPUTnxzewkDnAorqKsZSOKq9UW5oKWexuK09P5gpja3YeSCc+5DgL45LFj0pHfgolz9JfR9q29zGqJuBnSAnpwrM51y7bs33MyR9FblsN7sUiiPnrvReC5VuF8KXHn7vrARnYFLjp+4648ZDHihOHL3x0kNpr+GSFwxWqm1C5tzfrsvhjPh/fK/qJyHi8keorD51lzgJ02VBu65+6pan0GO++mLSHpNgVRp5lcnK3icPmhw3mmcOJnOO4PjVk7djSsuIk+nNYNnegLAg4loADOFxv3iw9YZ5fBGDvndAe4+JYvAhsLTVD/NKNwsNwZ8mjRH1ggkgZIDZDjRqMQXpzhoaPBi3GeJC58NBSQP3VF1QIpcmMIUYMOg0pup21FzPxhZPaJNUGHKbaVAswLGjF9kRMCkzXwY40WPscSZdn9w99IRyS1+0PQUuiDnf2BdIwc8nvQj5Vi/CYTBdRge6H1bJQ9uFpyW6wHCkB3OAqCQxY1Y/dhMuBoNHou3zhxHKK+aPqHpoTvPog7UglKkR2aRNCZidAmyoZrIIddRaxQe/S+XBNis39ngTkJrLUYMeTr34X17wIvNQ0HFYb76sJIlkeyJYffWBqVXrH3VD9w52MHRFCTw83SipkH568NLJlUxmPAs8O2n1Oy0PNAMlb0Bn2yCFea68x1DM5sXyNBWEsH55zeulQrKCsXxIh5VxDQNOeqkYAzOJ5rNsW6Dp9wyMH4XNonDLP9OkQWZ77cM9yqEhxfmoHhKzxtXZ0yzgLHHlIYNYXva1ppqHUzFcPnmpIvYlOPEu2sgrGmHsKyqce6LcwSW31pDW5pOaec+K2JQzxNlrKwzxSd8XA+sEL4zbDqoGwI8JjpPa6MWN6fHEAMs0ZWHD0sUHvvLwz8qSWzVRyaDihp4mREqpUPMs6Rr5pzlzDnPWWIXT9gNzssJ822cGSzEsLl5//arIuwTs8GodhkpkJV74aNrXWbB+LR4Kffnw5IzY8WwyfLBTtqjzcXa/DerTyaBQtnmgBOXfEGCY9MN5U0bGDnHogvhj6JUF2YpDHBelOQX4DUEDfSrZJNYoGqmYKTfeG06YF5C9jky9DKTTEirpzdheAsrRdtMyebqc2sGiypg2tk2nvyi5eqcJZFh4OI6oVM0ENrapYrmvAgGZq9JiBPxHYfhF2x8IwghwU4wFKySHpvVOp81E7dqqu5wVu/VXgTPoyEbDgRtp458kzns7XAvNdI6OgkQdl2gIRlUqaUp1YKcS12peZuJdTRmlrbC2JWmnPZWr3phJxTB+Oab52HCChGHydHmlJomEP3QraR2iNQtuozwt7ob/eoWK/V0PceKc2D/SaYEuVkD5KwpvMBnDzuU9fMGsbPbNboVTfn24IKj9CqVa5sQArsAiHqnG4cMTJl34bmMDqugoR8KZXPrfVimedwI05jDUrSVx2yLSBn6kiDO2kA7AAAIABJREFUwIgLmNmbNssapnPQAMdO8tyMNlmLNpUUFGpv8Na1p8hE3TP5rSEKrxnluibFPFKaSe0B5fY8GLsW02uI1KLJnBySeJdneerw6XB5kFrnJHYy+bVc+eeckMFvLgkwhDVrJOzmgEaqmeOsFIMZODs5NLBzQrBkptfB2KWDmCOw+oBLPq/hpSLVqVyKkavnuxy/Xo+Q4yO/ck1ukx1Di0QBpkVh5lRQwMRxU0V7QB0SYpkdG5DsO6E4irIWMHtBTw6kkXwwLjf0E2TdpNDR6aU7XiYXp3k61Gaxyb7YJHOLHb/i6FkCGewuWuC5ASOFIV+BmtO0EFJONr/VnX03Amh5MoPD54AbZBOHxLMt7NTaFq6Va4Ge3qDCsHsuUkTdMoQpn6w4WNvVKkZ1/GD8Aj7qFoGGHuTiajpJ3QKZR4LY5Eq/WDMQwM6auhjWNqcKOWdOt7SMMt686UNoqzvJoNg9I561h2q639kMMTBVQsDbQ8iFMONsjTNPDBgxsHaphuSUG87UC4xBNZw0Z8S0r1xFh6PJsWiGiePYQtScT37FwK59sEYEr76iO71wDRMDQ06WBtqwoNGuX6oS8HNO4OSaXWphLofJw9w6cO89KZG/FAVDbjg4Md14W/ZDDMQqICzGKhc+xpw7zqn9yxPdOXfba1T0jUeTpQ58oZOkSp+9Em3cSFGye/mNNXFKwoHOxBwXOm4rhWQUKcWjpgD6fF09UcwYHa3R+qTE2FFW6QXcnKulqpRRdCqgGlZYm42v11HrcmUktqEDpoky7XZg1GCNLkBIrpd5/IakllRHn7SLta/UHp1o57UJuaxTAxqITp9N6PlgoZBy9ZJSRB4cBDBliOs3NXKg5u7Jnw8via/+wtFwu4RfpUwCh9H0CLj3kKGKQw5Sy5MvLTCGt2pCxLsz3vXaAy29itDQnYB64cHUsP5U37omTpi84PK8tmPOJ6EChZnS6gF5jssNnQBAgznMhsi0Xgjld+KVBEKzOGJ+X2y2WHRbXE4cOSRILuc7Zpk4oxh7EjsSXZ9yuaPhzaLDcO1SoM4R8TTxTHjA5oLodlOM/AIN3IvaLRlhV8DJOLEGSltfvnDPxJMv2rO/EY4aqWDVOTM8DVaW85yLbEEdL35QXVLrcok35y+uKpJ6CHZRhQz2J8u5ZcdHMlkK+7sGjgKNVnlWG8lMOpazcsk319Da9+gA9guM0gkE1XO/U4GvY1lJ4Tx5YULftHVJw0n6aJq7aneUw2Cmz1rb0qZdp/C7XsOdk1yzHed1373pjXE+epnEixeinckGgH75MH6te731RoEyUfZ7VGXn3mGIURFqdOAy8kI9OXAsU0At+IPlgmpPffb52jBg9dnP82zS51E01w4+L6jt4FSZVAEJ2xuf8x/1sMfJFGt6aTrNkX6rriT47FGGITpYZu8r1bSHYiq+NccezmxrtFAnLgXiPkEwsSfN1NXwInI9iWRKClvXhW9CKXLi0hPW15frcAb1m7xKZJHuAuiAmCdPyd6lw8G7VK9Vj3TcQXI5hbtgy55JRb6kIK589WPb4e1PXdFNQOquFdC9TrjpR1SJBxdVvFOX/CsndmHWJHdwxxk1YtjGJyY39TDYA0wtnd+6ibWOVAAwVnvQK+msZFQt7fM2WdfrGvoDcj5qlm7vlb3Jk6p1W+zB4XJDPxMn+9AVcNkD8JR9xO8CYWyFWHvd3PWsC20Cpz67W7iTCGgyxp32tRmLRHA5xxYXV0/sRcddVk6Szr6sJfu45lD1SG0JRvPceSWECnDPZk8hhxYpk7cEPLJJoT/u1biABjWX6gs/CAZPiATpktEjvylYjObFnuhwG2s73fFTxza5gtxKRz+R1VjZhlNv9pd61wU/QtSdr33mwos/9lTt0lM/9NTkivcOrTt7hCzz6XVh8QOrtelT0xQWEXxKmHhEw4y9eGhmgeX8rhO6llVITE78nnTouTlweP2iok3MFXHCkgoBBhtd59WOuFfmwa19hOIChHQdLlI4tlWJGp0bY05zA3Z8eGHP0WXINmEWsomKb9osU6p8Xtc5tbWeKIiXhJN2Eud6SKrwz2P0rzVabkQy7byTaqacAUcB5sS57dVwTQJ0zjmpSivtPHm0rAek7dNxOvMEqqDPE4dVkyK9+bc/BgNYQz1yzkkyZZyJL2/+dpkubpUm/7RA/mMBXoNLw8N8H8ahyfm3b1/b2stcE4lSq6IkYqz9s+YhlGLday9H1zXy8QkxEuGZKZ7yCWy8u+gkSiMyhHzhTI/NwD3iTAwvxyfOWA655OaunrSXBvZBwGb5aFx+KO4CaIJxenn+4+GJZ9LvfL+Qv/nis/gC3TN9Fo9yBvjxQxmdj+DdFOREEd5jB/eFkOhzDvGXUTxzbUSgGFJU/AVtHC/8I+FM6zKuooObQvxcEe668+FyGH9iByIeX2Wnd0FhGnOLjldEBVwLV+sBwszyrBS16zDmvOoVroxbeHkGEMGheUBbPU+jqA9m0PaBH04wHHFM3Y4FEG+V49ucseRupPPCPHMcfm9rrpHlXsbOsZIsQ6CFqzEv/NBw1T22lzok5xEHr2E/hvE6mDBr/M/GhahFEyy/iHctr+t8Gd6enZTdwdjU8M/jEVxEx89aVjEDIQao56HYRUyGq+BwlrMVl0xAvKHmzMhF+IQA09gZuN5Yzeznk2zXJr+4KbOMUQ5l6SQ6iXwHKd7pJsckdugaN0qu7T0WMvvpk4K4WW4kBZp9+E5Xdud9DMweOEtnBCwlu7FxzxS/tziaTTtS4AjznY9weG2oyMzmh1iVYu1locfa49Au2LluwNdvbnMlkGJWv4K4H5/e0Mnr+3cPzKB7U+9sxacyjvogfCgHsWbnjT6sHdTvrlMJsz6nDbnxGmDWg+ldfPb4EEq8L+14WvuerXWSCnw638GzPtzb3FYruni84JDHhyO4vfdCDtARWt5lHMFHpnGciRnL0Hou1ob2fILw3tf6D4DGdX/DVo0yOtd/nR8U4OaI9SKknIwHghuq/90oqNC16HobAey6AW0gWotT+3DYPE/giR7cXWNK8pRaD8EGI9yV543CyuqqPS8nET24m4nzRXiQz/wJXzWGkulC1KLrOUUX7KuLV3KI9/FNBEE1xZJ7nXoQHgBHjIijF3H9u2GSPKCt3BfjQl6R9UJP+BHkqf4NfFu+0Qccux7yC9Zcc1X07Yym2XJrZyO4IziML+lMeYWdkW0bs8nbOrYD5gxstq1Ut5Nta4DjiMRzoRe815Iq9lDJIveKrgU/vRP7jYdUP/gmrtuoZyXyLBHNTgrmnn0FGsPBzZiR42l+6E22QpojyXHj3yn58g/HU2txdLgUCj6po4OUNxDVd6x5TG3R9jJ5II/TeZaWDPPgFlLsEGbacRFWCCN7mXKssiW3Bf+STCtvjQJM1nzAMfuA2ZtLu+8ajtoOquH7cICsM5Fp+OLJuCG3o/1LwYPL3ltHuBKR7kQmUSK9EnqRkT6RXWk99r8IUuCq9iDNtWFPRSGfAvrtSwfDC1+bwqxAOFmqWnLpwjpTOiYYSOxc76xGpgB75mBwMMZtU0sWqzOycy2BW+Vb04dx5QqIjPwuUCvtJyizN3/EFn7CBdg/hw8+z2gB8qGna7Fa10QXbgNiJT7eS2EbuTFYs/LEvopbRhwsx7Wey4USGmpg5XaGWjtFZVVfhIgkegjXZ/0rfhU08JXjDjvlVixoWu9BYmyvx3mdDBvX2s26Ti+Fg9LD4MkDu+RtLNgKATsX8Bi+RtQfxRI+QGMengFxbeJtJHNX27/gS3tjurHzOt9RMwtxoS8PJ/qM4m93InEKHazD3Px5zk7M08LldedhH5fAy7cIhM4KLlB/99JXvoqemRcqE3xog2ZWMdTj81a8PL5pTprW69l4tUNzXzaDpSolmN2kYSktddAI4km2LkjrUZjUIuq6rWm4AablMLWykAh5erFNBmslM0chBLjsZ3TJ6lYqPmWnZ9S4dOGz1nA+M7L2cU6wKwEzD9YSTYWBu73E0XPMUzgmbq4Lpu66ZKw6LlgBPJKPkEtoHa29MM2JR7tufE7meZPImR3qCIhNNIzDRSm3Ql4S9N4A0feAB4bLfo4MltFHa8IEmgNbAXA8fCB2iaMgh/KmhgplhkcdvLGMgJVGBG35uQbkmSwzyzN5EkulG0XO0fRMRENg1MwxH8fkkeBIGpeD4kgNxzxcNoIuB5cf2s+y61u5N5p+XMfURR2cG32l9HB8usRZNOfJtWJfAwcGF+yGlgVmHtSQ/RBV7dO3801SNkRBfI1allmlRMdzGIw3mRrJk5EYObH85kWz61znjNgCDI9pZY9vnVv5I2v/NqdIT872UsN5kosaeHgguBbX68uvhwMLZM6DKVPjKgjtzUd0yaKhcIdNBYn7nIwG537BxlhdHbxZBSEgBhMuekyrIqdaHCBy1OUgoHByTUQw14TgM6x52UV51QyveM8hSX736hLXgmrcHfdra9jay4M2zumTK08pqQ67EPS17sB9lTy+11+QZv3P6Meqpnz6rbEO+2KY7pLMD0U6I+GzqY6udhvHidADGR2YUpIdprVCn0ADDTKeRqVdUU1js0Nqit4hSX77FTGMNVLCTsr4xcnZ9zKKAGNRYy4grLjNV9g0ayaWNTyQOoqYulmn7inGkOCnTxY3iYz+c2WMl2L05V7M/vzGQh6+fNblfydxoJY1TnZzRMAV0Q8qZgSrGS5/cGgQ59xRLzXZbc0A4hmwGRBqjMlaD08StKYbW5yUXYvUCIIROCas+GpYBzwYg6g3HTNah67JCoT9uNZZsHZBnswKaLnRn3rkI1d7akH5LKDA6uJoWk0HOOTYN30lr2/TZbH/4gEsmIwJ+BzkPNgHSHI+J9TJuoPFOLgGu8iNblboFsSszaWDqQMWw8/5yWO4oPTcGZ2DPiVL5NIP85wC7cGbxYKOWYQMzsP5x3SfhfMsF4PQmKwM8nnvHnAFCdP1eDlYgt57RZhNoNZx+mTRAfg6Tr+3cs6R0cRAag4fWxEuEL5mZkLee9Ps6wkB1+0QYXPsxlbMvsEkLCHEytVs1LjmhACNtP1CTBOzNXaGTGseLF7pOaYjMytq9s1Qjm4NXJ6n6JgWrAI+31pRIiJ9vV94RdwPwiThYUFm8BzymEq98HmQ5cqoU8DuweeJPnlPBq068FE3ubJjLY6eYvPHA8yYLTLLxjVvQOon5Mdg3JDY7hfCWjq3NzwOnEOxZ2K+ZlRT0gTja0ogt6p01uaDqdCjG/ebN1/6b/0hHnH/xb/WFMbIhWtTHkR3wlxAk15ZscxaDeOkamFn2pnNIzJ+zevCX+Kjtc46Eoi0qkiu5hUnSMypZLTDC5+dYLlLdg3WRIJWTXmnLhQXnyfBpR4a7e2g1Wx22O+ixN1PmNTizC4mLCqzbmS0bHDm0JyjJiVSFvmtp2O7xPlptdRAy737kkPDaRHqC4QqsLxyv5zDQNzyczEy4SOP9V39+MpWNWD1J1jhZYwEZDu4TnwdaIV2r5uwpq5AQYgvDJu3bYo1kwSnHooHEn52heLkZHZRM8U9UWIENbuPewnHOxr60Ix1XVbojmcHzjPJhGS4Dsge5JFBwd6/sG3wNKvhKLN/iHhHy5TpdekOZ+chmDS5Qs91got+Td1uHNjUY5mYcimHQonWmSp63qg957P7pwaoR//lYGvW4mAJ8WSzi2Fc4rmphpNKhaI4tJi0gO8YpclHDscx3FvWIMIBEJyONiY+fJy4G8tlATt1pECvdCD3HGVkb8SmJguxDorZSjp0v4lmX+nXFLWKgK6FvrI3KyxFjJVXxSZKJkZIuXaUw5pFzLp9slDPn8k5cA7dY5PlGz4+YqCSxnNQigmG3WzAsmDnBJmD9vkbOyc4Oe2i6NGyhpzOa2GUwgbDcEVuFCnC5Tqimh6nauOTD+JUa44QLm3Ol5FiC5PXoV0T1/05RkWu1Mbs54lBwabU5EgtOjq/UjgY78eP/MTOpz6hEx8M93YeKVJKyqdzRAntDy77aRXJnMoncgrWhsCk1LEiMj76AFaxwbpmdD0UCRlxjcnDBYMjX0ECpKmJTFJWwFpHxRLGzwWQgY0/PscUgoGNkNnMLMm1igsKHavVjzY4C1MLnI2BRYwIPI5uDzQcATjW5MEKKWCyTh1aeD0zK2dMCRbLVvGDDJ6EqSt6iSTqqqjd+ImoMHQ9CtYMzHjU8TsW3LrQ4QloBYFcj/MLrxDrvvgbyoHhGrDDoe9O4VqgOpnjnBeWjteNxth5Adq6Of9GLx1805VFJAf78N5cJwd/ySc+NTUHWDH9hLZ/gJrs96wDwycanXQPBBEURs7b9x6lNXD7HKdpDPcIHbxhrutzhAZiuDMmUdAUPzhnxrYrTtI4FTMKTptskRkcFcRhTE6dHBj4eWhkd+HYR58mGI5ihAsRD7N7WLYcZaaHkx+vuRz04MtrxZ1rShk+qdHx0Aa8Bznpt3k+pPheYwMuRUDiwUCMWhJbW6aft2gNbG2IjVGXpkmetQuQqT/e33BTF5ypwnMW6waAnvOE66RuIHnSB/LjajnbmutRiRITyHqAp05rUYIwhClGmG0LClnuiGB0iQ0W1ug1Kg40UzkwLMRMNjtYRCxW/INnSgYMcOSYPVMjHNaa96ASQ3Pw/oLoNaOAuHpEEvTIqwfZuDXQd31Bj09a/iIae6FIg0samORg9hjDftXekZ+a72rPyb3Xvqnvez/Ch6Jw9KfDETcLFCc/2MW5cV21cVKQDuhRt+RpcxIyNNuUqk/ObHfchCbMWdJqCqy+XP0WDnquUT5zmn1OLkxqJ+b04Owczdl8SpNv3EuNuH27xpWC5AzXeJqthGRja8o1nLVFbU5toVd655yLKmER8mXZlRbf7ANATIsbP5UTOUtNCW2KEqQSNhuGL/p54vmd76pFSMunGD+xYMnpP0h03+5dtkMsN8XmAieAMd7E5NakUd3sZF6I0L1sPFrRjj3IOc/xmeM8Kcia0lmpVRs1Wyfp57QLAyiEiQQH3iHHfLAGIPeucZNbP1L8yWA7OV9NcuYD4wpJtfuEuwJHL+JqABB1ZA5BWpGb86DzTPJiVr1HixVsPyPWvUeq+sjm01G4SHIV5UsKNkGNz4Ddh7i1xg+K2VAOU3T9ABTkBdc5vGYvJlCIufC3ED7iOKntCMVlb9uJbv8EC2h1QnbHIq/9OhK4TLG9+eEr/zyltK3s33m2jMuGV4m+STVEB9fT6rS2f5UTHr5tEVSW2b/xJWmelpjh/cvhllskKijMSUzmTXLIVYlUWVfFYh7nZVYpoxXnLBo4zc+KvuEGQIe0sA0L0aDQiq1wihesdcABp8mP2D72MPmjmSN5nEUxn3EwxungkZmj5Qli6+HXwOZXDp+7iXsLoOb6pFxzfNQH7n2Ttl4PqbqrmY/vvtuDkAfotcBzLmaDC2hDhzNFBMw6qYV2vsROPjn2RV74mWNRl6Eq1SQvdVjuZe9NrdgWHkIjnQEsgauoQyfuCMM6QocJK6MX1QQzcSxa81zMpbzc3IrY6A6rsLUOWZnGne0+ZSC/iN3PR87NerFc/BCT/zwKMEWByLakOb5pxVIxeGJ2GhjtPuEDTl273pMkhJb2iDpXhh1RkknQAB8qGVdWlga/dbJYtS80SaK8cqFRooy+9J95j8yg91Dg1Gk+AKff+qQ28xKx534J2anDqqWvIPJVo5hxdFozbOrhXKzeQKaOo1BcWSswhYRBhtY6RFxkYGnVpYxjDb9AEwpw+bsk/ZKo0y+W5HPEnGDkUaxnprtBvv1Brf6Dbm+SR9UlmXdU1loCTFS+a/nhr7ZNiblhN0NmX/syYdyfM+bPu4LWAnLbV62szmML2z7nW4XJP7Vx8peuCql7M4N1nY+jgZa4cqQXDtY3ZWWpuNYr+2BcAQWti53FaJHDeXyQHUfrzweO5Q7PQeGG0s2yzH03gbxZTS6FCls8UnEd5VyxEFZT3mQEtkomkDBS+/we/3bdgTm849vs/hZ77+KdT1RtaT8cLzgbOP8Kc2jbv3VEvvDPBfaNI9ecry1RjKGf849Xzxwbf3oP8afmQ/yt3Du5nPN8lJKY6hlQsRcNnEN4GH8BBn4iT/sCDq7F7DQb9CTvh7ZQ8X1uzjyH6KWWQxruXsoS/+q4RNdCf5/EeAjFqcdZicE9ED+C1airc+FrVmCk4ypxAU7jgjwDskM8Xq5u8Syf1vEQfTh7Xuo66jzMRj2vWh4CHjoPPvEorN/fRPQpTdgVW8ZN71geXX/Rk6Q+wZdzuwJnmpX8pmatCAa+j6s/Ftz+pX8zgnilBaMD7qp9E/LN5MSMw7xieeVvxvoAvKzzpefA382bJEuyn+5Ws33bust90/UzpZf+eC61XECXxZRRdJZ9U/AIedkw8AN0tt1vVnVH7puraqZrk4c7dvkld72kVRu+8fuNQkUj8+J43c3tugaNyzefxjTblDOzALeP/0SIwWvIa/nMnruZ+QvhoA55hwFk/eq7g7a/1RD2VONk9Vjpsqi2ZtfNj/0B4NEKT+vAH+Zdsj88aP8Ei9n6IzCBZmsFLmGqSUzHAe3fpoTGVYBVYOM/J2yvi2AeQMW1XDBFM1RVYctQpD4MfVl1+RRPmkgsf504lnPA51p2l57TOURt+XxF+gYMrWkK6VxNMi57GUHdlqVW0vPkv0ALKOHRfBKe2Kd7SYzzjCXdDrRD6c9i7vbU9aTOU3v1vhzPB+IwL5BzIcwL2JmboAEvUMO7+WeZ6RabvKf8i+ylDOiqw6qAdvKqtuPnJh/YlVmhcWjqucET78QG27iX11AJC2mDF3XhCuUHo7LIHuK/v4MbzjyXz6c0mjCrx9rjhaOBc56PaQd27jknaBf7MssFd8jo9Uc1HY7DvHCyUPQBYFq18S7uAdCIe+X39ZZ5prARYwHkHe3K2/OCg2Bjg384WWTwQ/GNv1oPSX6j5dfjF5e09JDkxdC/RF8An37N+LixmqOFf60gYE5GObLm99YT8FdeWPVCrYBxPoawfsUpPoSrr0Rg/YvsnRCt5OmJJw7BdUGMQ1ONzF4rNzj/nnO/O9CC8DxWHaxn1JxbjPNDcH6JuSxvTrbB+ECndmMn7jyjGx5yoEGdg9XVu/YDbIGFGZu4M5ILt/uUYHu1qEh3lG8aKhhrt8ff14hUXja6ciOVflQ0s6XnHLbOE5H/UOLAKsFKIcunaAjsjtG+FjflJ7+LoP54ez5x+zEKrSW/AzqdNXZA1WTD5Gnm8BqN6LFyOP2rF3Ls+Ckg67iTu17Xoxr6Zm6r5Hz4ebCc7cBIshR37xPVGXDmsVhLB8wE7VuIbBxBD81jHx5jFgMI2HI6413PNxCsjbRySKe5e7Bjw4FnKr1L/w6lW83RXMoGplo/70rU3HJyfdWxc9yUnKd0YvA8NPUq5jz6OXkCNzL7gEZc2G4t8OwtojrqgpnK/ZpsDD1t4Y42kebx8x/kkIDpiLrG6CW388y12lpORrnsrnZnc8e7fNUCL2f8KxqKvKmhfnUu5U58wXaK7pe9rw0oLH9zVLOqqXmvLOblzbfSba2FmE00vXd012DNvn1eqIlK8tx1cbOeNJngWGd72xV7rCmIMeeGN77W/oSevC8bJL9fdGG4GCYpy0Y/uQTC5zMh51w5LsAnlfjwxJCpRTRSJZf/nHRyKMYTIfrYyNePTtZNlyKCdlVJYE2nQhsQEI3zVI3Le8Lu/wJnPzW4TkqSByeT98eFR83UlZA3aVDypW44wcgKxHMwSE65rrJK9joAd6FgKgNrxrZYGW5vOOlqvD62TmYkujcKlZ03bmI5hh41MidejmkEGKSaOno+RjZx2ML0fAYd3aXtLFo5MTQieVB36yHCgJ0b3sZ4LwL6zaL77cIoz/nR43x5zXHlspr9AiDuzITzZgCDL/1BdwaZDZ5NsyaanRG7DnpitpuoGJquAS/aUbSCNLsyDqzlckZH6ZoADVCScx3mDBHyOMm59tUeEA8g05xAu50ZMgPx1pao3Zh6dA9B6IhPHO/TvXWFkwO/2cLFsIxIvg7h2h2+24PDOvKZCiA9wbJ6AuKabJ/P5eDz3PWCymxYe6SnYqu6UEF47akam4Ll1hFjhYO6x/YSV0iJL5sog4TRKh6fYQvbvGEsQYTdC/HBaq9MVh4x9lRYzwvZLH3UivLsaASmKwKmhVnDDBcGlSoBmGSNUwldQ1Y+Zn31srJn3MkvH0XPNel9eUkUI6TsyZUYC8XDs2pcjrhdkWJos4Pk0hEfEA6OBz9eLWa/wwLjN0beM1iIqWO6Ks+oUyQhPfIcn9ycb/YH1WPw8MDjJ6xHO1kos89HHfCxjwe8fUM/AgZVAKKzRBCYs7vxrNIk+wfXC8gXrCotCp43HzBKjnHM1siRzfWJxz6DGr9W7Ql5rA0HFA10F2PHmbqps1rzXEdJDyaxIY9Om0nYWPlzMfRYDn7qchUkly2P6kK5J5PqnIk4NQPvA36xxB0KBlyiVksNaKvW6pkgjpHg9Ug5Rpi/bqZytVQEQAQlHnVHRjZrtI66h+A2KQaPXCs/Cz1wtX+syNe1z23X1XYeENkTfEvBYjGDvMk1vRkehZIn/Dk/SeoifR0R9Xmp2Gh1E8rjvTJTx/D9BKYO46bnzps9kTXFwkKzBVNTNGMouhqPH01xmKcPqJu1NCKHz9egcdm7Ig4imRcIGS6A4lyI167Y/vEBIu5eENDDLoTAaGA6oULK2VonZIhrSlMEdheyH+jWA0FPpnazOCQnWySd98wCt/EybcOUzcF+IbVIJrt8cA5hHKkoK9tBuwdCu1eTKrJmp38ThDbFsK0ZqoU9aV1Xqkte470teTmf0vJNZWpwr7vvUfAbGPQQJneH7LxmpAoqtKa0XA91oMEMVTxqcfm247cc8RY++r7eZK+M5GM1dRiOHngWGxkfaAcbz0y/q+l65M4qeMHIAAAgAElEQVQQuIXjIJUe1MsDUbL5HEk4c3DAiXsyDwKu2a+XA6io4r52wfsP+cDI0WsaUbia0GIAcZh9wNXB9f1/7L1tmizJjpzXfZ7exJ0vbUXclGa4A2lTHK1FFDm76Ja9ZgDcIzPr9B3OD5G3EKcyHA4YPtwiq5AemVXHVua41BqZ4CcniwI6A2oOJlYYZZWx8vEKJ1ZiXKj4EdtHxXdxKFLB1GGNgeekvI//PnUsVZQLdiEJ51ysnNUqUeqmAGSlkuiRMwulGJwCjzxnu5U5OJ8J5yNC6Gpdx2c+QEnyDLtHD+HGtA2PyM5DiFoH6ioEwV49T5asB4PnypUVB+11Oobd9eToDNQQTJ5o8pNpvgEyEQBUsN18azZPmr4WFc05Ept48q6cXUboSFyvzwoxUqV1hVm7iyK0KpFPXVvXJD9Cux5ziuSESewAidb8mh0X5VA5VcJu6slFQgyKL7z9NI3KM03aPWvJN2jq6R9+FSBcEUuPfv51PteM3mvLjJU4Ozm9tpq7APJJrwdPk7pwnuPk5TEmgpGpG1EOIs2XF4RDkamqiCIzgwBUTYYhH3zBgTgmBHl9KKpuBZAcgL3h0yHyfWq7A7AecITjJFljn9HZHgeCun5XZzhBqUManHyk2iw4kU58APKxr2wWqR99B0itfg5gr8COVOvLKshJDILxOPGIlhwI9nTdyHzvJR3+SKWTv1M5HJiaEyKwjNJnaoTiasaXawCrfKQ0KmvLGgovS5VqGNwFH5/BSj3rtEkzanRkatO8ni8MHaO/D4LrnAdgl16BYvTPIlLkyLor9HVtiKGDGmR0bZRO/QmK0ZC+ZjhDS/TU21JwMIkdCBpDkcAFkvjgKjbRCORrL2di+miHnoJ3DGEYdco/ydbXOuRP9D4Ox04jS+fKHNzkdB0o2pvQisWc2pgB9jWmVmlsO/igUhJy10mQVOWITuJ4jkuQWoalnMDHEuPnhg72rPcS5dokhjGQR5fllI4QogaXaEbvClB2rBqNRw3Sju1ZowYkkyApRDU92GSFQAbPYutvx4psP1PnePIyYWM95VFHz0h8ZhX90hALZq+xIzqGi6K2VNNxK6yuadaTHzh4+mmV7BW4KXGaLDJ+pK1AGXL2JaJEiuKsAV+OaDQnL4oyeCgd8ly/XhxYDmGaXQcATKByCLyUDhrbrN7fbNKVM/i+Jq6lCjQPMvqbJJXilMP58MOzHGSxhE/rmrgKPMgSzAv14MPEfrOgxEFNjRrtpphpLmWIsrMb5No7WnGqaR0V38mlwl+Ps04HvNbW6wnvPNmCyJmJI1Y8a9s0RXducok11tzLVIDAe2wsAGJHbx8UOFbc4d/c2Rg7YmESO8injlgAcVFM80Rsa+p6ANG6Yzam5a4ZtF04WcmJqpXTdXWVnQwPjthpUmFWo4JTdtcJKjxJKVsaC54czIX3RPZDqOI5iFTR9zhrJKPX60CO1z6OjK0XGsjE9JqoBb1ws2xNvVLWLCUvOvwzhxo0B++c2CzrxIGtfIgX39Jr4kw4c2AuvhIlVY+xcPhYdCLcSFIoanbORIhWCsUtuqRK3sMBgarOVGQMIcMHRr50SiiGSolWs1njVCdt5RHWR9VoXwevKPL1FJCEgmlS/Ejjy89oYyE0EIFT1DqPSb6WVU8EY+1vInCr2h2jHJHruDWPhj6GEdqlx8sgMcuTjUIv01Qr01MfLIsJRfc5OU6YlnrEHvzktWlmFSB4zueSnRiOoOnRAFSMS+ELT7SkQ/LRUz8R0ThOHLElqKQ7mNTt1/p42BkvH+fnAFZHOzVWgPid2vuJcDTlWsAM7RXbS2knx8NHFfQypE/6Z5w4XjqLOrWqx6rdi2xjx+65xnruGtZyh/AV7kkChUrHyTeT01TRj2/PQ6zW8Xyu3CGbl8RREhSegLLgtbWPf4B0RGGjP1jnKjdKjl2KXlxpbJMRqA/FGu6lcGTHSeysIdHKQ0MSjfZa87NoB8wPHdZ3HBLK88SywkWpgsYp7tSDc+l79QnC+YrRMT3GJ99f5XycRE0iOUv7dRLhXMcVusoLQpOpc2ImB3QQk6/jfqoOKglcW9XReIcDZOdBT14SW3tOmeN4Fe3migp9Hc2F10x8Dvn4OXzli4/O+uodvrPewXA1wIKxmM+aE1vn8zRkwvGIEw+rqv7eaABtLnHKHQNrTpBKmNxlS7AHhUl55aIIP3fJguyvqv/xXX1ySTJ35cKQn8/REp0HB9w4ihP7ZGNdvSRDXd+jFvHj+hLUR9DEcUQPE6FdCzuVlWvl9Cz+U2X/XJA6lCuD4HkRSJnU4JSkDaayMLQp/zkLgMt4yw/DhXmI4zCCzc9ZeZQyA+dDxueYaIWzQ7wa95y19oxt7xHLLQ/yTYlCDzN7jC21uufPuO/reddM5iPcwV6rdMKUdByylrfYjzg3+t3/xfqYdkqUbyFL8aavCDy5cgjxCSTdwQyynS6XT84Dq9gwwNNdRxX95OTEONIVw2JbyvNMC9iK44fG6DdTFD7r9DTfiicDN+7m/lEeGW/glPOqfJ0XsNU9jv8tXEZ+glzTmUj3UOP+UFwT/yBkHt19vrO2DCuXd6s9mrEywgMiP/DCpM4RNEaYOGB70piJXP5tv7IDHfXgX4QO/FNgjJ+el3nm1vOX0BXn83MruXvtjY1bFuZzxYimsqKrZmlxyDq0Obp9depxlPHC0JLzqpinxg5zss2YqBy2rY8cqTaJZbiAvnNgRWEa6jjJ3iEZfUnsH14RO9xbrf0cFyBhH8HH7zyBkql30wdQ+otXZ63Edw3JFINrJYinyl3XiHwWA4u55GR6ntt0PhR32c+SBNM3TIMPLQK30mMmrZpQL4oUH+vxeGQb1xHsJAxrbWUJvIJ5U5ZisIKcDBWgjDcmlndNeZS57cVJTx+ge3IAR7rtP5fx6ccgpUisnM/6C1HqxlNp42/+sVs/eAk3YPQd6a8f+7ctnx4JyJnH4w+PPIGZNfCynW/sxHoH3vrLkYyfTLVeTGMuIcNoJ9VT8xFlbFP5CT/B7rxR1vnpNaZSH2tf20YcSzSv88ax3i9sD/VjMs631s+vWzGo4tREfAG4sIiggtTZX5m92VD0EajwLcjQ5DemRqJ9Mp0sT4c3jr7+FeWn409nz6jJXRVchVziT6Md4yOS1e8xbs2Rj3Si/dXSJ+dPuq+eb0oUeDtd/LSqihnLi/611on36WK/gpW9wx2/N9BUMJZ2GkULZfjSLtyXdb385PzTH5Kd84w/yPuae14kqBX6JoVBOg1QgrskI8rXV5gFbExNk/aeAMicczde5NH2K3wpYi/BpHAxckH6dXpypKwTp7QJ6gleHe+oqwIpji7x7dS1yNNIrx3LccAPG2NnkCiagnG0kgskoLR24HQO4lRFhnLi2uSFTHHegCDmBd4dxRA5+n2vSsEw7zsZTOAJ5iTPagS6fHEZe69HmmaLSLZzGqDCauqHTuFCCh8HZC4aWBHB5oN/Yygv5q+HYjlvxSzSToYqqVzndTyJL13eU0/sfn8xZlUjKPFclwuumMAfccrfgzLdRUjneB0s0NZWwHK4hipxcHmhg/OxMOP5R33+13lrrGfwXbRwbyHQ5MA4vog1UY77adNwxvn2uOp6LjUxOhI+kbWOfKHycVZWEkCDy1uBu6ZnjgrwaQDYx0PsSXINTAtqS7ud8cVSTmjHv1f3AiWGMQ/9NXEQozjVUXYNF7KNF6acPTQy41mN5m26PDvYw6RC7VfK2/ZRHqW4ZJHvC+00VcO50tfT5pTneBPUvg4pqSq73UrXePIbWLmS2t//DelMPa/g7RaP+yyLseOQaX5IVzLwbZdoKq45Zh1HU9JFRRAH9MkEZnboAM4jAT2X6Jkm/Fw0aRbQWhG7pv7x4Sc9nomHMX5lZy6SgkAmBko5lA3hiuBImDkycvZlsA7uclGit9InxVFstH4QFEGn8K1JF9cgrMIFGl+wluybyojy8PW6289W2e0QX/3U8+1BB08CRBfC1HJc4mam7VsmEjpw+/WLhNZjBNtH0BXTC5bFi6n1v/wkdkY54ddXoNfgsYIzgO38rsdJaRPTKlKLwLGfysyl/XEioTQVxDYn6OoJAE78QQxymZhy3aehKQb+hjidA5VD1SWj+WUkrCcIXB87JUbVkwhaqwTj7SN0hfbAqQ/idpwkiKXkGzoROxiZO0kJflHhCFlX0gI6cxMd1fjHqjql98rn+rdnFVz6yVur7DJSo4MkmO1c+1Tis3P7JLhGxDouMTbl4yrlCBs+t2psQfQ6XJ9OgRVYsZBS+7m+/R6zI1z1GIuyBK5TfKVSEW0/z2BHCL3OjQVUjkgTTMrLVs8B47NM2StJXwuHqTWhKzNqpim99I5RgbBVJdSN9oUZl5LvKSpoRPzbN9fQRSRIiSRuD1T5PldS1se6EDk8krkVUXN+LlEIIPial2ax/TQCkJM1TAW3D8F0xCOYzIwMMMsS5tRWVoU8zwvzAbYfEhsXV2YdrCyuN3zI+KgJxMTE6KPzVRzFG5zsFVU0yK5JzxHy7IoS/fBqUPTW3sQk6ZynoSdAEgTfFyFLpHA/5/wMcgYthpSlnytIofHND9os0Oa6oNY4YWdFk/Jjg4zKX8WbV2nzwRLZFdCkmJf4uqrKbbujGBpaBUhG/CV3UOfuGI5i3LCUdPaZtWH0ouKHsaaETiJyqB7mHsUd9BHc3Ew9VuGVQ4H6KWRmek2y+pvLAeLjajsOuLI5UBtdWJ5YTu/rIIT95AGOOo1nJVYkl9dAYiDRG8ZacJOemL14V+A6MNYjiZyDELnaMdtZ9Zy7B+GR9Sef8E5AjgrJ3HF08nhiETsZNMgosw9Gcj/rVY4ObmDQjiAy3Bjw9lrRJmLHojB/XzinK1ZqkoRLGCInXujtx2gdavxjdx0UNxUnH+URhxSph9iaRIWzTAYp3ASOLkZB0eOjEb+C9XMw5uYdJ46rTvnahZNrrHyWHVmGXkvZCKFE8ZRj5WREO4dq6n/Ul9oC7uvfruSwXXntU7VUdSR0TnLAm5d7Xd/GdbxTRTTYo8vc53OqkgnMV7CYDaEw6mqO0besMf8IUTg0dqwAqPUgP2qeDy7dMdFbK0sO0oENXxlBuH4JUGMOjFGumhPGvoB9FJjB9WJopgAEiD8rzqxGJ+NkY3KXS3Dxxq89Mec4eRxXxeZ7SXoV6BoJC6yCuXlWlokI1oAAs+b49/dDEDoTtGMh6MtLQOdHV5lrwzXDYH+wPBwDfXztz8TXKXr7gOtatQj8fH2l9prwITITPeA3c5194dtbavsKYMxk9PTM8P/q99BlSFKSOY2d/SRDoVmWSQgOiq3QsxBo0KETWB+F8byKNhHywa3p5JlIfmchiCYeHJA5lr6ktsjfaGeypHngykZwlyCvCdT+ykM+R8zZ+YQzB8bbuWIkLk/+qkoFyd81Coyf/pWQwbWglYdLIUZyAnUKGfyEZsTbpzuuHYkAAXpwkC96tLU4q88alMmxL0/P445bH0lJvFojhuLeOifBTizq76PXUrV50Do86uSQnBzQYyGlij1FJx9+tkswGwmUnBiAcdJ1C0+lIJRqwztnKzy/14GTny8y+xuKJ4W/5OfAntYpkWIQiIO8VFZYgLl25PfMvm23DlfZchWCs8K+xLSjh/YjVTk5Xk/9Q4WCvcqOBST12d9rbETVW3z5+7iKMl8dSmNiFD+PNdbzUphIwjqdnVwap+bfKF03Y8wT66sKa4F9ndu5f5DhmxeucrGvNORFJmf5g5tDQLjtnwNFpyG5M3b8+4erg1VcP2MotkMSoJ534B5ppyhZ7GJvyfhQYzEko38ueN3SqW6Hl48jGodkp6wRufL2c4WgLNk/pxygLMJ5CglVO3NEl+h6hCG/DG3rFHibMxQ4UYnF0hIfNSg7U4diacJ4njuADLCOOhO7woL1ioUxTHgC84XKwclDTGLV4essnexA8rzvTFlTkPiopgxZComcN2P/jAfndMKyer5cLUrhY0sgqxTZ1DhDTuB9yKUW4Nx57iUedsxaEIocCmgX1CgJLLvNXmvhQLn2ggiRtYN0VI8ttRfj49fWjsEpUgiL7CDkMej93BYTIlQnm4t++bUYYoRt4mXI4ozwLLk5k1xWvkp8cDAZAzNcJ+KFU0su07WVM1oDGPRIJp3jNLlmXRUmge1QmPKBL2HyJCydIjs2+iSXnYn8nZHx5MbAP1JZ2wv2KKd8pYSHXOsFwGG+KpJ8baUA9Mw0BimbVJ5bUf4O4nSUIbv0KSoWy/IFXnKeLeVf+pSdq41j0jfmgIwzoDAonBgndOVTOqrvugGEWzwk24Wi+xo4xNjODwdhnCY+uXhRUUoWVnmVPxwVNgDndU4VAw1BO2i5H7zzypQrFbQ5U/HRyYhaRzc15q8/6E5EI7OuSu4hRUjfbBCEL5/qGpRvX1eb5GHoBCA51VCQY5yYiUc+H0AQvBYLcbW2UYlLDodDXeEtSHb+FJF6q+aUwHp0dLh2rxhen2x8/xLC4DzhNLchCWSAX8fqGB6j6fC5JjLo6GuHExxwNDUdyHorwSRWTZ1/+JfNEURCnsOOpoBoY/Pz3fOU7J9JnVcoxxe8Lsusl3xFn9HhREAMfJUPGTkyp1auPaMOD3BUogJmHYomB3JXaQbn51n5YqskrkVzVkXMChsftBhQGqDRYuJErTNfyt+lge1aXEn5VlVlewksh8D6nPods6B5eoCTwuutOlxI6ki+6JMPrIpW/ObAEdCpcHOUE4pA62yFZaTCRhSwckvvepxeJ4r8yTG33J+wBDORcmZmDaAn0KGPisucB4aKcjkbnhgqmH8ceJRQTxLNFdQIiY1zIIgDzBV1YjLaovNVieKH8Kgda3COMOjMZOQ4IZKugnNNktf0ZnKRXs8iBVAmgHqcuhPYesQ6iJS1q9ZeVxyNCN6BgnMBmCiqCjNSucaGSTbMVyzEA9KEJ2yUAGWrea0JlZ87EycJOo19/URNqnaLvp2Ji0brFKD/OW0KJI0ORc0XyFEZJ/9pbH0RKIK4NU9N5ZdoicHZxLzYyOUYBgBSDmH8wHDV4CKoX1rZWUOb8c6BFp8JatHX9gpnzh2j3O7nz/grF8W5wAyEIKCvh0bK5KhBkquy7sjOPpZG2KdLlZWjl915KrUsJwNx89WR2tx5wg8uru92tUz0xCCuZ+gR7BTZKhttwDhlQBfZJ1wnk8JoFw5/9SwyPknwoiGCK5jqxJZr66AyWEO8BAR9Ho6HpteMDQ+Oil3j0SLJwzFvvJ1yUr1YOB2/l7kBARlzTvENnEyOkfoL3xfYGArx1zyPeo7Wa6tiikWCxMFWEmet/p6xERVO2OAZpU8IVrsEagskegF5rud5nbhSxMZUBzMevvY6xaqzZHNqg+YYSGw/ndAzYY6fwF6bzrxQwsrJo852o5aoscbXMaJ3PvQsxgfeBNHDjsxhjfjoSZ25ixWGSHW14+Pa8NPBwMOxDEZbapRMAiiP6K7zNPRL9yJerojXtIFH1YCjaczD0bAU2B7G3ZMh7UTwQjUdQipNDbIg9cKZac70ADQ5B+pXk/m6tQ3oUbZLfA9wwj+kqbm1SpR/UcxyJ3gDy/6YAkodtdqx+qnHIu44WdRgLLzpyuHyA+Lvi/K0qe1OrEm+HukCbyAz1XpPNX/jY3IcYK9tNBQj5fEdi3NUiGtoe4+X6UUMm43r8YCoPxjp3sxUGuVtQnatCH6U0NxJ7aPmHjqLJqB9IDBvEsswdoNuB/CxJqYBOmkFKMaxJjMP7vjI0DYr2xJlymmAox/8UUvHRL6j0/VH/vCkH4hLqRmD3XV6hHGQKy5OpSuJuVxmZhEduV1XPTflNp4IH46oidYxC9TX5fJJA5GirsOErJxAR3cySzraYO55raQ6i7E2R28+lS/Vsb6TI1FSO3F9WBlLFPhkzplIbW3JY6e7EpTKXr5IkmrpKYJA1ObAHVU6jltn3JQhI5H5LirD4AtzhbLYT/BMErwxXRBzPaCR6NRUKo+etVIa3DwF1MjyKYeoMesILIxQ9+32BsRogF1Vj/zaQQWeF00vzzlXHp/7PA39iil7igF462+5g3zSxSbLZbzEcu1f6ny3jH8hG+Eng3Q9L/PLIGu+ojf49iiCP0S5URP0oXxMJsKtveWOMRe1FZ/GpuPF1mu2muB3Asm9muN2A472f0x6jX7FHnGEZ4ov1tMLsNcXrqj78QhayuPWUo8P9Jl8MH9QHfyb9Gfotvd4ArxrZGvly9hTez8mH3xOipJefoe1/J9hNGuFx548g33UvuI/gir8R9tTmdlTd1fxZrFCpzfD7RUZyA275Ua/PrNbz/gJf+yxHv8v0P2N2+YeT6BIX+lfcZ4XuGMPpoNotMipdUgt9ziOL8Kf2Qv+ARYVZ7dIA/v12sBHOGlRWX1aTr+mKNAgBLzkE+JFcrSj6ym+LXfkd1Usrzhpr/JO7I8SzuHgGebMjvQeoK8VEXLXVui63scP6czuKNPQb2XkOHkhEpn1CxzPHC+vGix2AiZ62HKxcHZViXUWLUsCOMIjVmvKfsI5gcvE9PPrDKI9b7l0E6ADUR9K5nrcrvXqr6yGcBpeZGh4jInkV10obsdbxvZ0RKPjJaAw9zdJZBwrGEOTibsOW6zP/D7H65xfXAU91yZ+V5Fx68xJVDpjC2oGRo/Qr7YRmetx2akB1wul2XXcWCNv/wuH2KarbCMqR6P7+TOh49rmM96AU/TY7/e5GxpONeskhR77eL8IFyAxyj5rgdkbxHLJ84zD9KjGOSQb2tYey1/TaJLFMqco59q9LKucPw0VTUOH+IRqnSv9GfCD7YOqw03SwbwLwozyvcZjOjFvqe09doSZ3+DI76Zo3vW378+tN7JLeOiY/FmIsdczTPNRvQV7VVzgcRrhQ/KyvbrdLj/JHtgD/EBjOd8nr7Xe6zoxjnTst85RRiFh5F7em+KZ+DY/LTMDEthfAR6v6/fQL12F4kcq31YK2D8HakRPM4n9mB2jMO1yCsMh1N42fPrDJq3viHmPVO0QV/9zBk2kUDPwUinPjhJaUTB7CZvvU+zJwMpiK2ASdKDqM8JUXuDnA1n44N8HuJrX6JnXyi0TzfpBPIw8HLtkh7LXQBuUig2wqmtHzyNesXt5ISOGzgXuqs0+OiVWF5J5xwsGUDSumzhei4RxK0G4otfF4NU+p1CuxTyrXPtzprCVz0EKkYB1vb1oovfLJCnwSZnHDQmTBpva3iN6yUyds7ANxs9HLcLDKPHTZGIhSNO1t16jn1o8B40ngJRwwKBZNEh91Do1bS1xWzbqnkgmdr8ffCPnWnVoRwmCEA7ji4YuzwaUtnmtwSJ6adRhAZC1rr/DO16i5hyFA3r90jpsYdrvMTXRrqArNKxDMWnrq1QrqHCp3c74UHcHYUwhGALB7O+d268c2k8BIvZIyDIShtodLtp+zjSGudGXizUGukjXYootlUPhrSJBzYmL6EcLAb2fnVwgvmrJdszp4IkjXcLxPdaS1UmGSBygOnq0XPpZsxFB5S0jRbwd5kLwHMOg5wiDTvn3Eh9E+RsWD53PMc+DKjI/KYTOV4Bj07TieZSMf6tS04XBIl84bIyX0EXB7RiS6qkoY+F7jQ4LvM2jqCvQ8RvQoV/Gn+7Q8z3Q9CiXgyqjvrBl4ZlPHmH6n4HGotFM3zCO5gknzYkpdkyQZF/MoPFIIvSggUYbX836uclPTj9RLwyhfRjUTFOLo/mHbSHiywQnf2MLg0gMiX4vwwWwhsTqtUwVYP3AMaiOZYxjYyMRBzIOSIpmt9h5MYMl1gj5YRpnsLYNqKpoB2B+5Go8wDhX5Me1ktZFyEz2XC8FAa46+TfUKEaVnjyGJC5nH+TvSYO5Tlob0y6RoF6/s+Ijo58Q0TtG80lg44ObpVDf5CItMWpEqGWk6AayhsijuWpOGThm3YYWMPxQDGZmTqdR/1icwPlHuVkdcx+qn3pIxcEzpbGBVDQSAvJQ3tYljv2JU4U1pzjkhZONySOXVJGQYbbjcz0SE3DHYQw6Q6VJiU5eVSODLXx+TmgqvREOhKSslsOXOfJ68JXznQ+5/CXhyaCDKJoT58Kj81w6Y3mOoTCGUQj5GKdT1qKaSu5rZkWcHmcc7S3Hfv46RiKSfVIhk6dr7vfrWxdeQCVW0JqpPsc0RxQujzgBrnqiZj6mFCKFF2tk4sTHWsD26LO00mVN2HS0O89PJhXXL3RGBiQvQRxSM9bJv6MvnuWTpQjB9XBc4Su84ztuJbb+BGaaRzNZc5TkS0rLPOcIlUgCSKh0BUuVeDYqcs/kYzdWQoIER3ZMqyRx8aRD2yji5MVguXEdUeoISkgXh3/0dvaEWPgHjZnHrYPDMpcF7OfjJw0dB0Uy4RHrW0TRyYAtegvK6GWIxfzDnyOLS0Hx8RP3ss03kzznSc0TgGXgYmc71HM2iZtSX8yk0hkfWbpu61VDzXliuSbNb8hMeBZgm4tSeMfJxU32ljseUfVgykhw5wg61hhhpHN7DYIkWnx9hl8v3mFcD/pex+wGiWV925jFR2fLnPJNpPxdICJ6n6hLD38h65AeDl3npadeZ0xA48C4qeFKfPtWkFoZaaidfKa4zI7vE+ljjxSAs3VJSZT4TiJM0jFTXOpNzTx36lJLcmFZK0AO1yG9TRXE+eVvXQGrNvOO3oTZvcL4CmJwKJzzj3ocyLX1N3zz5zptIYyr9+AXUZUa77kA1Mu0yKuyXmID0rrtLzRfkq9pcsCRQwuAPQPZoreteIi3bZwEbQqcx7/f6wQ6wb/+FRMO1myYNiclQlggHoe5QO1cDpZEVRjrMcsRAMrHlSBkjk6q/r7tUZpgsakyo/GhIF8fObo4RhfheDz3UceHGKjjY5T9wWArO/52Ik+ef/ilrhorDLEckrrswwx/zfEhG0KNiPMzTZM8f8Apk/KSsX+2OaEj2J0WcBAAACAASURBVLtipB7Hd0xOThd4UESxZFvVgqIuxeHEtVUddqk1Uxt4Tl4bY8WUyIEtGmoqUDk4T9nhEGCw9rSzM6D0NSCgcEw1+HqgKsdUhdXREBB1xKfrtFJ6YmAPo4wGHx/Zu0aU/Vx3NEFzLYlfLrgrSb7/Qemhup23QZXCNNlcdvyMJy6uzAuM74fji99DB0lkf11BpHC8WaYIQKG5BnLeCZnDEOjYE9B6sOM0Gl8j3BKn9IrNghwHo/Ox1MoGzHX55EIInSMXkmmePJKYlI8jaF5VxuQnmT00F9D4rMExjS+1Lw7FCaki801YTwdy2J8AHBotgs901mA91chXxXusC2go9jxjTwyCTa2EJBqHq1YtScK5DL5eYJqf4FvR1RBJRzkG6wlAxZAsx/FFQoeVgfqN8aTDGO8nvJH4K0/zV9FaVxe8AyauYlJLpSih58lPVD9m7bWmLtZ1akKcJkEefh6jVhjHrxFcheISO7pZdrpReEWayZdrlwOIfRywrwmYC+UQxQNuzCt3l2eOqEo2h/JJUyfihEIPffmZ45Fgdmmg4oK7Dj+/AKc2e5PDMNXo+MGbg+If3M0dCF834e/rizZfrFhB84UqsZ3HzoTwMSklsO5w3vU5XID2re+TwpLA7DMv2XU7o9yMwx1nITXPMehC9vURDpDWnfVm7utzxQLteM6ZWM7h+Kmd70WX3NfAQVySfBXhXquB2EpwkV7ZxPDPiCqkG7+NypmmkqpwJQqlWBOhrrH0Xl8BwAicTJqMJ9chNXodRdzNXxIIh7/XnZzoPfVSmnNPonc9cehS6qJrHZRQLDh/1WT4qcnMdl6NuM1z3cXIwXlyDYiYdRKvcjt0ZAJMLYY05jJYTJwKkVguGjFcdCzncWGBJX8UWWFy5PnOGnL9QJz4knH00WNNa/jJDr3JP+5+0nmq5JWJhfOkYPp4IlgfXzAc2MH60VWaAACm2dpwooj+qpF4QpGnT8lq1zrVk7hJBauj0o9gTqQ0ugIaw0mPXo+dj7ccqhZgTaxyEad/8BzCiQNQ640bKIfMOTPnRVsY4mSBsJWU4+eAeJNRVtUwP1itrmga4pt5ae2TmshRB+uQEvcqr6MbcNdjDFrWpH+mwHmjC7bCOGmtUTKS8ZCheWIpiq+VrMY4JeFLEEqGYJOjnWGdOGeIk/U2ac6IMyKjCwyunZnlB+DBNkeM8ZczsapwV2RHOeM/Drouk0+y9M7mE/4xOp8dOyaJHMp5WINDlirhAxhf2YjGiWcDD2egAItwi94AIwiKDzqo6FvBKG3BF1m2rJVAHBXfhRiSdQrciLzoAEoG4SsXnmj6ON9bJJJWj7Ej8HBQODjxR7Y9jpTjxmadTincqUAkM3pUgCJ7bYqNJsagPdWJrFj9goK5100953o6pE6lSQoCWMcoQU86chhrZIz42M9x24GshURlUZoIRPbhGqQrpGorQxZjfXRlgMOKEQ6LA3MLphwJc4p17QRDxSqSsdZjpU585ZvaOPCVNcHKn9BYZikJGh8Vix7GfWiYa42+HiByMMpHeef7lrmNgFMr0YJk/eUpIVyAB9sGko5DwEaQIxyg5PnALCzEkMwVj6QTqMJXilFXqpk7okD5ir8x5Wh9no93LWT6dKihu4pPNumKjE7WI2iTUb53AY6UYmwVLqjobEYTJYGislSyB52G8EJxEUG3vnwnFDZPEuehx2Z81oSt00SKj2Ft6wkjZvLmKzIqLrKCQbZzu7ZcZmmkw+gvmSXoyJOJEac6CpOnBrjj19+19jbOUn6Ytb/G0BJfIg9NyBfuFvPNH/t84xeglhvvlNNlZXRQnfTlfJXU66onf/La4Hr8TdGxyNP8IQeMFL0UXUPXienJEU5hdvSup5IUCQ6ti+Q4lQc8lXFE1bPojkFWffln12WKWD4OAI459VhR8Ttu5YvJ7rbIZ1SEcM3t0yNwjBnQ2geVJi0jWQauIz/0Bi1bagPTyHCr2UuqBAqqaLQ3cf1iAIANj4xY7Rot/skWrGw26FT5gnNBFFUHQiaBIUsqe5fqmquGMtkfu/N24TYG0b4GzunylghvuIbbcDbQS6hvb2vuVVuhAKkvSw22ngMsxUXSHkiEHkVVV0N5ftBHRQw/Lym/1uq4mD3HwGFAjUQlZ+nlYCsq4lGDa68rV3F5npwmii+HlMD1L/V7ar3UsV9DVATCgxGNA7hh+rlvR06JjR1YnqfgdVRNlguazInpOMY4gWE5Cez4pbLZ0SdUeDsuvXlLJFVN3Mp/1qwaRd4JHelElgsqn3oIZ1aVo3MkkVcdXsFHmZ8NyAU6ZVrSLffPhuB+ZgNR9i9grfaFm6W2D+NZfvK9nuM52vsidm4ZO4+lMxn9M1MAF2zC/5nwjHMS/zTWVfM7Lpq3uC6k0G9OR3GkU0vW8MJblB/Pf4okiZ+I5d5JX0ZPWwfzD8UY+vvg1HJMzwQv+sd0Ji30eId90Xn6vtpSx/G6VqU4ASUd8x37loHX/DEczJES+nUe7RWn4x2DpYeff5BkbWkXl1UiPw6P5kgdcjRngW16GweriI+nhQ1trbG/vTVtyy1dSquNuYNW9uN7yulS3WSkfsXcK45XEKkazRNx+1suReJn4oZsMUXeOEcsnycxV/ay5wd7f1udOo4Unz7P9XvlpuM1kLEwr9AbgtylRq9ZO0ikDk+foDDWOi6AQH0dEtPOE3ueIR17kiRrn2d9d+w2WteGUna8VvfYmc+F6ijXKLC+OgQGZA6uy70eAx27rszkEbgCxJJJqRzLvi21wamfye1PXDBfHE7rUwO+Bv/klns5d6D3qFlv2wV/QmLIOQWcxRP7vagOdcZ3TF8zIjQO+Tl5Kk6Uy4Mrd025kkxHZWFm1p84xNchRXx0fjwTmAPwCeE63nVvcS/05xgBPFO8x331/YT4KlVj+5UhuOSLhXNjEuM5G3yMcx6UhZmV/cy5Gmc27pfwhbWuw1yOL2AdCLMhf4ID/1dAOuyM8bnPY4pgk05T8Cf7i+6tkpur5Lo93v7GT0GeSGqQ11N5h7F8m2/5Bk41n+JdTs8ll+Gy3zEjvxvfNbeXrG8AFG/K2+nBw4089d7ap6tnY5Zwyw0t3fDU+tv58rtEIWb2IleQiV3zxyDj7d42dC+ms9YGvY9/jqlkk/OnK/5Y2p31CnOr3+WrsPF5Qd16ZFd2K41/U0yUpGh7Rs6tGSDCKEuY+YX6YLqWcQEfAV/0X/4eetWgiOTxuZqXLVI6mXR5XyHV8ErrvHJJm/Kdgqqsb+VMjESuaWIwiQ+h6gmAqWJYJA+4Xo6meXUFHpsOvwy2EJ3V5YF8OwM39IrpIgAlXsODMzg2KWzzfa+giZJbU2YEcIeR0JGiJF4e11oxpWpL7ZzcOkcwpgDSKa71Gnp85OrMMRozcQil/B1CeqoMsurtoPXqN9phW+jC2SueqU0y01I1Krbn7FwzovXtq8u5amDw+2wV02rriKqYpbfgFKOQ6cipIefRjiB9yeMztggzJQSTrs/zWLNCzpqPQwsay/R6P98Infw0bjhxOeZCIb8Y2xFTPfxUluwD5SiCsAuFUAsPH1p1DAlUxc8zekhv/D1OkEtZwTBZ1HdJwZKnvts7pz2vGq5IX4kVthNoVAJ9dan2A6SHr+kjV+nRURcPY19AQ4rs19GoHmNK/gQi4Msh8BOP/QPu4Sae2ul+HoBpvfFM6pk7+tSD9sSQfKds7K17xG6AKm3RY0+c/JxINMneV3dM+HeMjD2709+6kySS1/WiPLfP5Xk5j2h1zVrJ2DLiyCPMVTqaJJ7vD4f42toWar6P0C4d6tdrcAHtNa4H+MPFYuhHOQ1EVw0ZXN43U8lcST24n4/eDQx/IT2XA0RGBVYKz6WLCFRf+oe/ZCvkgU/iE5dJTJ3DLyDqiWw0/saByD+mrk8W6vFBoiArVa2j/anBtaUGoPFAmRAMfoJUvWam5AEZKgs18uUgiumFylixgKXiiql5x6aC2DQOnph4JajtyjFmGZF7zrVxvFLGKnsDQLr2OBEvzgXAn2yN1zVMPPzAxoDuxJRDvGynOqMcqPMkDXzkHz4vB071sH+eIFJVXvne78W7HJkYXTAjx+XXIV1fghrSHLVLaDBgoDyrOBzfpot3CkUnSBgz1LKhnPxQFIcpsJSx6wzJ+WpnhQs7U5ct9vCyWJoRCepYtvYF6+tnVNVADAIWL0x4YdTJuY59La0vk+1ZoPMQhrV6vWA8zzgAdC6IoNgKWLCuISatpOotsFHE5zrzD32f8z7iBGphMjgm6HwV7wVTGbFLQPaEk+Kjsr1yIddFH146W/l1Va3286knlck8tzx+V2zbiCQjX52Mqkoelf3R66H6vOjSJW3F8QTA8zDUC5U/Jq2vn81Bn2BHumLINzF0xoFJpWn81IwR/obDQZRjmRxeOC/Ik9YoQnw+11hWQUBRhn8e2bt4cG4U1FHAxpVTf3/3Ohgx4WMIcwTWHsHWYNAznZltnBLXjuX/Fabc6yIb5VrL945dIVjr1Itcxw8rsRoRbcWdOpmzNPOtSQrV2X5x5GxcF9JE1hPA3/x9wcaW6hzGOYisf5KT865HEWw4eZ2T0qVPFcTDGX/igNVD/0DYqsDEtkPV5izUxoPasAPQmJQSrDt6Liw2Dj+tKpa8dBDHQodJOqm6kTkgtViXk0uQxnEpEmPFcc1kkpG1RC3A2CXIZl/E5hiF9VJSs/R+UuJHfK8ZfR7SOEfzAMSESfAPN8Kgs79O+UqoWo8nld8vbPDFRg5cCaC8fWU6vg0OrhNAHV4pMirryss4QxzbMQ0TCJsULM1+nPBHrQcTIJwNta7n1Ohnu23Ulm9iO0RX+F4HQYnTIz9UUmsltU2yQRpKhBuyWa0YJZknP3+tUf4UXf7lXLE6JkH9w8xgRSofrwZZD6+2/agJH1fAJAd1g/P3mlVysK7seKCSTl86QHfQIzk2BGHiWsgJPxApMXOHAGJhggpYMQXG5hmnmhteescEgd0hdGoCAJKbIBwdyGPlbblqzHWNrXOHF3TEJh71a0ZgB1cQahaQwc8Z4jomQo7UgY/mspHrxKjrVjHscRKndLnqy48E6YkD2WUWSyE6zI/zkUuPiWGLENSDjJj68SIPIRyGCQh8UYBDgyv/JKDhn3/GaDQYNx1Ec4iSbQNi3BlmahuoyjPYxHVdjqiMLAq1BwpKPcnfthqBuf6yjp8M2OoMR3OAx4LOhoexYOQldh4o7eULrlXYpTCEMTAgcL4wnnqGpi5jeAuzjpjARvTp+PzWpXmNPSFYsqgQCXxhM4ghl6fPjE2q/bjYnUP+fsJqbJ0vkQICidzxf/nlH//576pKWV1PFYWzWenAwGR7TDWhUGr2kTqcI4yWngEM/jWi8lrxP+bBYeeYOt4sHxRPvAGdrkqkSbrcO7fzcNJBiQyNR676vFQwZbOAsefgOBwgoidwL1vHtGWwAjdX4yfBcoMqJo6u24LkS1+qSY6/dTw1e82l81DJzK+BcpVOMX2J8LnSnzWWX4e6/QckIwu+jwffrzEAJncK0LTdgcrmFzcNQcVhQim45CL5sd67PuOEbTwx5sIQhwQVDxs1gK3DL5C8rsKNEaAOqR0us/j2utE5HmuhdH+XHI6dh7jEAcCI0zmY5udD28EDrMMAyRqn1jbb1oDLwaoC9foxI7sITzjlcD7ZqF9ry48/mYB/dRC+7XPNpBh95a/BWOHctFpXsXM521fGsUtHjuaj12JdF1YToON6dA4w6ysf5kDm0KRzWHf5Ty0FtkknknWQ2xc7h58jwPJ9ajfHshTXCvGo2xPiE8OBJGvimntEP4DCodNR13hi1hz8XFnHBZp4vnzxdqxBdooeG+O5TpPk5CVPuHy1X869lrrQ//X/+u8xqp7mK/zxTCQZR31vjZT0NrEO1eKfJ1qM16M12tN67E+a8LPdASRjL17mD8u0AsyReRIzT3EE4Uk9GaSAaJ8xWhIemaJYJKIUxEFX3ppw1JJl/8f/Q40co47yUhw5lY6i0OfFQXBVHImkANgBatSQtbS+ICmKRAUof68t4ezh/JImvnAYDJ+n2MydrGx5wiRuzvLDGXKKQz8BUBMQ0BzHA0N+SEVnFuSfHZSrjJdFnQzTqa8TIzZUGhIrqtactEJAmN2VFz87VwymBKnB9o5f0Q1vufnDoWqgLtfu2BgU0roGaHShPllOHY0tPvpJloRVV/kEKp1idVh0w73khjIOqPBWdR1lRjfPg3igmpjkIY7iTfOqJG3KlBmg+PbVxdv+NhemFm4o5vLxqFy5lv6ucBl97YB6SQxP5xgqvAMqR74L63qD9wFogKVqo/QS7dccg+gLNTmls0tfs4SJzg4BEMOHxhbtlzyYnjxJ0Tj75dQrGROC4rjEvnZt9FiFeihwB25cx1eQ26XVVnb9DqFg5uE1gI12889QTSuidb5OFIsv9UQruSaX3uvB7u+vIB8+pKowiMfGRFdNSufuPIzniWIM/v5ZA1I289+JCVo+s4a22QtfDoMyXvXPGieOwTrF65SiuVXK4rXGDtpS1z8K6asOD50eO0c/BzD6EMBAzR2r9G1/jW+9lL6+ifAP//J3ruW//p//XSMOieUeRjh8rE6whK71yBAtOEmOG64xVDUJMcAqVXMvJ2VMnGnopf8wdIGuruwqvRJ2SRSaJ6UgPAFSubP3N2M3+JPkj1+aEFdPkbj74iPVUXov+C6jyBuCL5eOF1bagHPlKBVDnpSluJ94Fb/rB+nDg05x9nrb5svRZBQHh5e421F55ol756wynKqfgLgJE86pViDFThkpYi6ugvpJfQrtpF19l+qYWYQgrjXrS/mSPa1F1mCd5NuUZ1PjSWdr4rdfVXGaXSlwAw7ucVzxHEMnfXnVDq+T9XKasXyYc4B7yHa0qUv0xLjyRXHBbO/4GBorXdQF7jx27wAaz4W56mmfGj2AdbZHDjTzg8Jm4cCDdQH1PMLmecYynZjY24+RwxcaSD2Xoj24xhB4nh+S8XcsVaax6/Pzc2J3MLClpCgOTytm26TD3O6vM/THflCE63VE9vlxyvcZCSonVod4iXNldwASkrVrlOwXny7Ep/kezgw8eRh1EP4hS8H3J7bjYJ2vAWS2vv0+1DTltM0+OtX1JDxrfbmqVhPf/hM/ahfb9drGqSIobuf0NW4X8t1HxTzrazvPkKqnc7yOdxzkpI+2ZY89UYA7xosPplwcjV0ni2h3xubroSvIHdtYAsoGFwhlt6xp31meHfsA5KwvnoOEyWkGNDps8YhkthR4crn+PG8aSd77mmjq47cBjECgNjNyKe7jzI5kWHiTMv639TUGBPxlSLmjmyC5/uVf/7G5us0rLwPLwDKwDCwD/78y8G//6f99dtiq5h+1Y6dhurG7BdLGTv/Ly4Ezt5s6s5t4tcy8aMrL5Kj6nFj4oHl7cSXz2++hV8yrid/J2+oy3k9jLmHmQDXxXLfXtWiz0a+QOpIK+su//sOvPFq14zKwDCwDy8Ay8D8TA+5T/+VDn6LHqXv1jp2mdzczumna4qVVZ84m+KwwqO6ZpfetpoPpCIyWBf+tohuVRHHI6wPkusVgdYXwS4MgDi6l5/ZWYjxWoolfvRBCifw+Kgl5SPeXT+RUmB2WgWVgGVgGloH/2Rjozee//af/pk5GMzuHm7p62//j99dbXw1vsDVvdcNmPIb+MHqbjgUNM+3Qq0V74gZsvU7aPfuThLYwD8RD37y3KhF4HWKpOnrB5ZfXGiwO3dGD/jU78m3mIXfPy8AysAwsA//LMfCXf/37c2d5mpyWIfmf/Jtb1f3oq6hrSz77d7XD5y69g2AIHeezUTXP8Dj/aLcnxK05DboAHnSinKhUigRkb9iRaN5+A184y1Ip1D/98987PC0//Z74f6iZ/30SJfmel4FlYBlYBpaB/2UZ6B17GjXtLY9//Od/UMdLM4+mOqm7ePdUwatvVjsND26adMwcdgH68iDXfMq9wc4vKJ9Gto7sdOUKSshuykGoScucJOBAYEEgQo/Rc/7Lf9lGDg97LAPLwDKwDPxtMdBN/d/+9/+m/a16oL78m1taptujxtM7q89CgYz0Tbd6fAqXflt2NdrY6a33kcj1oTgmjubkhrqJS+tOrSBSRp9i+pZBZgROIfMKw6s4u/OUl1vsdxkrLwPLwDKwDCwDf2sM/OX//vv8yY16i5o71W7faqT9q9lu4PTaa9uNzv2yOrnN6b7zwsC76CEMfI5q6LTqfihU78ilQgvcIyeO8aeJn6PNhsjwT7rNUHUEdAOO20rLwDKwDCwDy8DfIAPVIel9etAT09RRyKZGzj9QbJ7p/dlEY0Lrlj92+j6e8wIAeY4/Xn9tzWHLIaiEVBIJBEqwjqBSXpTgOayPqEmi8IqlVTsuA8vAMrAMLAN/yww8e56aZXXAtPCe6ya6O3mM7rHdbdU7uRvuRl6+DLXpR3rQ9/Z76A+rJgn+0qAH1NZRDP4f/0W785nl98sPaqVlYBlYBpaBZeBvnwE+/O09rbvwH7/807/wIfHqnR50ctOmcb/21GteWGIdWNszvjT0NjbJ3Az4+uCWAPbBSBjZel55SPN8EfF1wLUsA8vAMrAMLAN/Ywz47XCaYzr7f2x1p5tXnNN1Xxo69mNEnF7sYnTqYLahFAZ1CbR4v3eO3jY+CLe32qFnj2VgGVgGloHvx8Dz1nt9vuzqtd1W3Uk1SWd98nR005WfAM3U0L8wuknL1sHvT9x15L6RL5jfyEfvVyBp8q7qi/BvlaxiGVgGloFlYBn4G2Xgao9aIe+Ns/11o602XI2VfgoHmMrMFHTDmX861NAryJu19fV7cU6Bzt3baN/vJ4ebPiX8qvcH+BRfHVLt7rzJ2HEZWAaWgWXguzLwd/VrbNn0/vHL//af+ZxZ+qlbO72UeW2KPfPtb9p+du3TW78g8cMt9yDtSDA9eJXgDbpNmpBQX11MTTyMKWH2vAwsA8vAMrAMLAMwQL/Wv/zaGE1UMudSuX9bhx6wG61h+WSd9IC/OL5s6A7TvsT1PwsKlSbvLE5Igm78VYA0uzv/gvVVLwPLwDKwDHw7BuiJ6a1pym7g6qH5QzPqojIi28pmWgwZX29vYzsd9p2+Lxp6BWrP5H56z5Zdxkrmpn5KeOJ3tgwsA8vAMrAMfHsGaKx5/zx/Nib9tmnpX13LRrx6sSaWPDbyffyioVfCt0Z+KS7xZ7cA3lOuZhlYBpaBZWAZ+K4M0Dx50GermXejdheXXmbv2mezHPhpu/hy8MKgdvSavTX043Ak+/3u84i//9KKjD0/NwQ64fFbaRlYBpaBZWAZ+N4M0Bu/7o/dnvOh8/Rhn19acnOYaIn3I2+6Z5I/R9ey4L9X0/bQDZxXAb/PK4Ej5bWBX2DwqiNC59xxGVgGloFlYBlYBqo7p9OGDjbE3WH/QOqJe3BPbupeu3vms0NPM88G3rfQ1ZB//zHmiZ+Q6NXWlQeJdEH+rtsECezbBQHveRlYBpaBZWAZWAbMAD2Sds6YRv6DDuq+rdPvkpm6wdb2uTfXAnWvdijHQMrLA/9/6GnBZdbH7JyuXj6Qzs268iEndnVz3FyIUU52v/JI1D0vA8vAMrAMLAPLgD9E7qb7q1tnOmf1WXppFL/80IY6/VcKy2X6yd3vH/6ts+bYSThxyxylkvgFgwLyqiEqRU1W26qZY0b0Bt2+ge95GVgGloFlYBlYBg4D7rva+bIzPzfb07jppP6nhuqdu9zYrbvtutuzZc6H4XpnTmTarnfoTHx4ax2w5wro1w1u2vUKwgalcQPXaIxPtvj36CztaRlYBpaBZWAZWAZeGXCrldJ31RnVUNkyu3FbqDmONPNYAWqDr9vuH3bpxPyNPk9nzx94xZtZbbEJrJbOVweU6ATesGNycpQ55tfT74/bt3HHZWAZWAaWgWXgOzOg9uqeSwfWjthNXSd6K7fZabjs23140EzqbrXVnW12HKRq8D/6k+3123AG3Sdv8xWpbwGMLdkxzEHCHKr0wyuItu64DCwDy8AysAx8SwbUHunl7urdP2nYvE+uuR9u382OGnzjNPInYPFn83ze4s4t+B/5CFz1/LsJoyI4MTsY8n2Q+Tp61nv+y7TiMrAMLAPLwDKwDFS7dVuvXXAaOR20u2h27E2WZzbxKff8yyuCBPNZXV479JejFX4JEZdBtO2huJXdyst5cCssA8vAMrAMLAPLAI08XVPn7t9/BS2G2vHuufRozavl6vXBp85d0Q9u7qAnXho3KOb9IFb+XF1bGPdYBpaBZWAZWAaWARigX85fVD3N8yIHJUeNL9Pp2QdR0h/9KffXHTVzRbnU8wdjbFE5lcQNnFv1xuo0t+0vZ/nssQwsA8vAMrAMfHcG6Ixumf3BcdpmNW8a/R/1q2LT9G2nxdJ07f1OYfVj/elXSTVpFB+Jd9BOw5xA9ctz1NEFxJ0knajljrbjMrAMLAPLwDKwDIQBdVPaJI1XY9ovQiZsnttsa/VocO67hXtp245Vb8m/mSrgvEZIqNqWE9+Hsjqx00hZ+m72hdphGVgGloFlYBlYBsRAtWuPbJ5/7Uf3V3fVaaa9j3az9WZauD96d38zKpfnH5bpjpwXCk6NyhvznKKrIGnsSUxjrxJUDjcHelbgHZaBZWAZWAaWgW/OgDfBtEcEd+jqluqx3p27155+mlbKrp7b8fLRI7ff34nUr631cTVgi0mC6N97m1cP4MvLBcU/zV2yHPC89/ZB7HkZWAaWgWVgGVgGYKCbcu/Y3Tmrf4YhTdRjp0dXN8+G+TOHdcv91TghbKCpT8MeDcp6WJdTN3NMeywDy8AysAwsA8vAYSC9lA6pPvtsrNO8a5PuHuteCrRCZLx7NHIe+sOwJ9HX0h2q5Ve09Prq2wK1oX8F7XwZWAaWgWVgGfi2DNBy00W7lzKmEVtqwN2bG9qsa4K6NQAAIABJREFUed4ATdxw//jwh2UeDi9ReNmgx9HWvX8KxIYZ/8A60o7LwDKwDCwDy8AycDHA5vzqoGOZHbztUp+G+5TtoWbLURj92lopoj5nmnLbnAEPpe/30p1Md/MZZefN/AOr6CfaSsvAMrAMLAPLwLdnYLqjemw+azYamukLP5rTi6W1iT77grinX7yHHid/Ml5R/Ka9o6T5c46UZC5Kzd97dzq8P7l3p1l5GVgGloFlYBlYBsJAdVG1S2+c3V+xSN9NPe1VOjpwNs0PewLVOfE+NPQYOBM4m/Q0+GrzUiMpAcWAq1cNqQlPKskM8x7LwDKwDCwDy8AyAAPpje7b3gBHQ1/tw5to4dCknWfE7o12Az26W1uq30M/igo9LxKIWC3a4zT5zt0j4WZn3h7OsadlYBlYBpaBZWAZMAPptz67f3YTZR+eVp4GLISbvHQWq8GPD0JiNbFq6CfYkWOOJUnQeI4/23Z25d6+t7/GEpM2Mfa8DCwDy8AysAwsA2Ggd+L+jbDupzZ142Zv3H23PqfW5D3ufD+bOZC65f5uaP/p0lKASrxu3nRwEl+HJsa9vHK4ECsuA8vAMrAMLAPfkwG22zw43Dw5pYvmrrt6au7Hq9+yPZZNX+Vht5zi077oqqFjaGOgn86fUU8/Nu19z/9TjNUtA8vAMrAMLAPflQFvgdU26ZzvTRpl9VQ380acxv7krfsvo34PvY1R49wBbLe5XZjcso0vp96v9/hi3ukysAwsA8vAMvCNGUiP5dz9tEeT4klrevzr6JqGnt+He3GqjE5fcXnxUK8Vphi8MAeSSPXW/kvAnS4Dy8AysAwsA9+Ygeqlub1ek6Ej877L7RmngB+oV08249PQBzmC4P5K+87n33w3X3cE0rSzC+9bAQlPXh55DTLBVlgGloFlYBlYBpaBbo7eMKeLcnYHTRv1e+c0UkO1i+a/S8376gX4gsVq6J3hHcWn7V537504ryLki0JDoiThz9O+51nNMrAMLAPLwDLwt86AN9vVctkoR1SXVdPsvsmYz81ZKgNtv9H4IWcOisdvAKLS7O3QKwOhggDOUSNOI/LqYaZGtS2TPS8Dy8AysAwsA8uAGaiu7k+x3w1YMnv1+U/OBKbN8qfVEZD7bNGnbsbXh+KO8UgO5HYviUSVuD9xjy6hQIJh1NFjZnteBpaBZWAZWAaWgWIgO21upVe75G3sNNMg1PD9/6O4hauvyu7uyqnabJOZKc76tTUPLwBbSserhTG3TqNfYNQ8ofBC0mMcHGlPy8AysAwsA8vAMmAGaNbVJuml0tE53TbL4IbffdRYTQC9HIFwjqT30D8DX/wa/1GdUMrnLv8l9M13FcvAMrAMLAPLwHdi4LTf7tDsvquLVg+li/Yd8TZ5xKXdPpBWH4o7KV4x3axf9QR/tU2UuSf/5rWKZWAZWAaWgWXg2zLAZ9J4V7puoouH6qSfGuorS8LcsNf+/oOtvbf3V/iOwYsFHAiQIHVmUEUuKCoDrCaahFZ3rB2XgWVgGVgGloFl4N/XH717p6FeTfVlql6c1j6/h95bfgN18pv11ZkZfKCUPDcIDJKq31A3jsAc7ZTZnpeBZWAZWAaWge/OAJ3RG2UJ9F13yumhzGzIaKzQasJzC166PnDLw1F++c3R3IO7ERfUcQmkubE6FSQ7eumn05dBA1BmecUgYY9lYBlYBpaBZWAZCAPVJPPONJ2SZk3zpMfmdjwQOrgxnpR8c2g9iuq/mv+GOPobbL0stQu3SXJeT0xLP74KdH8orlK8RNzpMrAMLAPLwDLwfRlw767O2Xti90uf1HNp6tDjrbdGzem76OjV9pmmXYI7f/9va21kbFmiD7ytV7jOLgPhAyW50in57XrLFWmHZWAZWAaWgWXgWzPg3sjp3izTQ2GlGmdmbuvVf8uET4M8Mi+cpB+2n7lU56Dpp4c7u18wHGtlFsCSY3wR6DittAwsA8vAMrAMfG8GakftTTg78J7DCkqG2kDTYW1Ws/bmubDp48JebTe/h94d/zI4oLDn5rpzvJ+Su1401MRDG95dVrMMLAPLwDKwDHxLBmiN0x7VYd3VS6Ee7J5L85aKDTdtGYhHCBtfjGjPoYZeinpVcEztlfHV3NaDv6TJfOlWXAaWgWVgGVgGvj0D3T01qlf2zIInnM4t+LaX5qfs/ThBwCXQlWKc+4VAB53XBZWtG77tXcF4r7AMLAPLwDKwDCwDzUB24j370HUfffRMRkKYSeLU76H3Lr2C+411YatLZ4hnkJF9toLSaOVokDim5Xu2p2VgGVgGloFlYBm4eqOaq/ulTqe3oomirJofazos9sKBLXH+sIzvxVce3ozHnrfgO5SMKDnU8GNHxT/ZypcciA01fk/LwDKwDCwDy8Ay4N6Y/qjemU+7XU2zGqm6aHps5unI02bTYLvJetRJzfe34dfKONPIiWYV58qR5Ezcwu1KA5+mbotOhTdgT8vAMrAMLAPLwDJgBtJBaZPutGqg0nTPZMfuabrvGNhEFyYbaCbjFGblcho6Kuw06LrV7tcIbtgy9SsJu+bVQ3+83rbK7xDyr1KN3tMysAwsA8vAMrAMuMWKBrbB6qPqm7TWjNmH0ztpp94s52Q8SrDVpi8qj+bZ0KuR28Mh8FYUotOkNQ0ExTm6DIC24ILfHsvAMrAMLAPLwDLwwsBpwnTKX9Uvu/3SR2nb7qESQXJMRzVwZjF6w91/Ke4JD6B15cfwh/b89ptaKpXvBQTo1xYDukKtuAwsA8vAMrAMLAMXA+qbNGi3T/ppducDkKq2yVbldjuo6r0DjPDcobcxvbln13i/ikDdwB7RkIj554R47bEMLAPLwDKwDHxLBtwudapddXNAKz+dVNqZHAt/hMb9f2zlXfPzKfc/bcCvEbqMeywMb+D/NfDbdeVlYBlYBpaBZeA7MMDO+2qStMtny7xnR35KzI4G2q6GzpRdde2snzi5tf4O0nKB62N4nhWcqHssA8vAMrAMLAPLgFowvdGnz02yu+pwJUV12FEd4RnjpaEfmKV6BcGNALsRdd4fJ0uC2WobusfLgpeAO10GloFlYBlYBr4vA/158dOKaZ4cp3/2tLS1ncYejO29yc7E5y8bulOQUQH8BjwKza3nRDOvinxfn0/ptYLQBiLssQwsA8vAMrAMLAMwkHfK1SCnn/YH4aqhYtIjuLRZ2qn7qzbUtY92i0V/Hz8muM3HxEb80aDb3RHkRe6KViorXhOciCstA8vAMrAMLAPLwGnmdGC6Zs7WsznWYzbSstHg3eTZYL802Uxz/lGvCd4Z9u32SiLZ8DrlFUJ0wPIR+j6nzyf8e9jVLAPLwDKwDCwD35eB2pHTO2nAetA9/d+optOaGv8Jdtmm37qrzz4atzm632qHfgBjLaFfCTR4IpDByliqtTvzG/Y16M6XgWVgGVgGloHvzAA91G00vdSfeK+5+67sGdVR+ZLtHNNlj6qas3bo/MsB7Dz6vv7x8aa9wUd9+SeRIZ9yXj4rLgPLwDKwDCwD34+B6rI01KupWtQpb3XXXfHqrt3ks5E+ffrmjqj+wzIJcJuQv+jIVj9tz1l7vmpf4+98GVgGloFlYBn4bgy87op/0ivp5GOO8OrdAPRffsr9UJwgE7MNoxihLK/zdthxGVgGloFlYBlYBl4ZeHbNa4aohzXewnf7fkboJv9lQ6848gq0HSb4vGyI5fzVG+ZUMB7PzDtbBpaBZWAZWAa+LQNuz159S+6WPXlYNOlW6k/QBdSqUMjb49H4Q3FRPs/t4EbtGH1Pv3ACnCYugOfYAGvSAQq+wzKwDCwDy8Ay8O0ZYLPLe+XVV80H87xRXvRUAwVjXNTduC9V4YH9+vL/oV8mxHyMflq0hdSgM68WVABNPR+sw9JpXpr/xF1hGVgGloFlYBn4xgy4cbP+057/yB9+qY1w91EhpM/b6NLxQqB8q92HRL8yiCa33I9/sZxPuPuFBDg37oxu2tI5hvx+VcJu35THf7FKVVNzRdxhGVgGloFlYBn49gy439JE6ZV1WMcGmQ5b/dcm6QT71VhZsBsrY4/gMOhx3kO/jQ5UDuh5OHcKcLP2CRuBNPoUmQbfrz2w7LEMLAPLwDKwDCwDtFM1zOqpbIB5pIVrVF91O8XOQSOv3TN6W8vdTZxAdvDpq1vuDvU8dQKCIVccq3Wihfvw0AU+Q+xsGVgGloFlYBn4zgzQemmT04fVUNPGNbp/Vi81SVjSrNNjZQuoKIwt7ffXa4de+kJ9MRDsmC7xKEvyHYI37SqWgWVgGVgGloHvy4B7o/ptb4zDRLpp2rDOCKjAWby7bVDjdzX4H3eDDoDz7dza31v45UhSXZOI5bsdffhaYRlYBpaBZWAZGAbcJjk9e21mOrfaY0/GO4Jvxz915z30h547+mnPV78OAkUpLRLB899ru1+vHu4XEY/YO1kGloFlYBlYBr4pA+yo3R+fTfL3r3ruK012qxjI/ZDoP/36is/rgR+//F6N+5cfSvX7jzTsDy8Bfpf9l7Lj2/le4+58GVgGloFlYBn43gyoQ6bJhga3TzbE6rnS3C3WLViN+MePS4sSf8dwt02ch++VwL9/LifHUBwnoWnrSJOXjJ0AjCUjsLe/QtlnT8vAMrAMLAPLwDLwFQN0UzVuNdj8A8dcg3s5Qo68m/1s5G177tCrE3tQpN/PFt1JHF078cfhOnSqMZ/JI8LnhA/fnSwDy8AysAwsA9+JAd9yP/2RO9zZnbuJVhPPXXHvnNPR1YN1zOnztvnZ0Gtv7V8xl2OSIOjhQNIoJ7ffPfWpsiBTj46k+pwwiD0vA8vAMrAMLAPfkYH81jkfc2c3TuP0yNvW6elqshLcd0vRc6Hpz/kDbu/cXQ29G3AlEzbJ7rjVwSsHAwevLzjz5UOh+nfnSrPDMrAMLAPLwDLw7Rmg07I/59b5Dxq1jvRQje7vVz+VmP00/ZVJb5jtltPZ7D/31Bfkccfcfbqa9ascdRknwHlRMKoVloFlYBlYBpaBZUAMZAPtD5SbD1p6N9ncgked99QN0En2eRu8N+Bty8hLgeu4Wv1n/IUV4BXDXLcR+PN1+xb6RdWKy8AysAwsA8uAGMj/w0Kv1cM9XCd14mrn5qg/v3br/hry6r9PreCXx+O/Rn3t3LypTzH6sth+1cjR7R69SdlxGVgGloFlYBkIA3TPu6V2T7f+f4SkdtT4g1b+6eBVBIf/xqxu9vPLaPO3ZGnkMatzl+QBgx78D2z5bH2jdlwGloFlYBlYBpYB7XjdS+mZ3hGnh6bldp9tmqq/4vHYPbe9xoLNLXfHvjE05ALxH6/nv29rQNsCIFH+c3bZqar8Gr3jMrAMLAPLwDKwDLDn7Y+Mq1G6lV73s70Rpolex/TT6HvK2HKjp6GjeIQhkR78kRk24XdTJ4j37ALYpwrMq47XFJ1qx2VgGVgGloFl4Hsz4N7JLXAe9FBaph/Znbunskk2TZ5J7jH9GFM0Bs3J76F/asHe3ftUrx6U2LvwG6xKfGvdOoVnnCw3cPKtsAwsA8vAMrAMfF8GeiPcTZs74PRSNU/+ua33Lr57arXT+075pw772/TfF3qjT/BOAsRB3OhrQjE0+/aXDGrmrd9xGVgGloFlYBn45gw8eqjaJZvi6aDqp961dw9NO5XdajP3s97qPyzTAJz6iK7OTiJLAy8xJhnKdiB3tI664zKwDCwDy8Ay8N0ZoInrqM1x+mZthNVUe8+cvqp2Xz3YuC9b6x+/1K+thdzTjF/I/tIwfXwceKVRpY5uhWVgGVgGloFlYBkoBtRTT1s9HZq+fRk+gW0/voG329cfinuJ2g7JcIernJOalk5T32MZWAaWgWVgGVgGPjLw3IYb8nVnfUb43F9/zZ9+xfgOQFO3ACrLwZTkLl8YvwDoctTUW3zWsbNlYBlYBpaBZeAbM6Dm6K346ahul26aHxqnVK/a13mT+eUflukQbutKzq+v3U06v3ueMOzJObwvF+iUGfuel4FlYBlYBpaBZUAM+IPjp0vSPbuHYntr1m7++NXD+GzCTxQpdTxuuUfVZwILXtGpwb82h0Jfv3pioSB659wdX3728amD7bgMLAPLwDKwDHx7BtIZtUGmUU+vpMGKmhpQBwddGGooMYr38+NT7m1OoD4zpln75roCMhKXR/85Ojd8B+gy/iSzsXtaBpaBZWAZWAa+EwPc7U5/9OAWW31zZNm1M47WnVYvAPrj5oUVZUcKf49PuR9KO1DBs+WuDk7w3oW3x2tyMHssA8vAMrAMLAPLwM2A23LdRvdfYlWjPm9UV++l53IXfFopgnTVi0G9NnNyeId+J2vZcS4Pi+ekPCpi7u3LMIkVofUdbMdlYBlYBpaBZWAZMAP5i2+nebufykIbTfukyXPIIkW3XsbT/A14nL5s6L0pf6B7oqy+1U70auQU4aSeA2jwjsvAMrAMLAPLwDIwDNCkfb9dvbIatnsoU4OqgT76aLf9h3JC0nO//lBcoh7wLclxGn7FnhQt/Mz/jrXyMrAMLAPLwDLwTRhwi1Qzn8aNQg01+uyFz/+Rovn00sL8hKevG7pzdHcmguRryu39PlBfJs+m4Tdox2VgGVgGloFl4JszwM30/PuCCDfTq6Ne4hceo/5JQz936hNPHZwmzoRu7UfmfmPfJWLG1q8+Js8Ky8AysAwsA8vAt2dg+qmbaeiI7pWa1mZnnnNhMPUDVUE/v4dexnxMnkm24w7orXnm/bY9rZ/7/3Wq2BWEZHssA8vAMrAMLAPLgDe83StNh1qlO6pP6ZvuqdKmraq/1hvsvv3OZjotOGwaFPG5Q0+sA/Zcnr0bx4dY9w6dZm5lbAl7ZYhiz8vAMrAMLAPLwDKQ3a956JabBq0ZX3pMb/cEFBpGjqubI/ZU5mdDN/ic3KgdQx4qwr4a2blz8GrBfwIWWf+i9QTzHsvAMrAMLAPLwDLwYIDOqsaqr0jI1UH7Dng3cvfY6rd0WPdjBWOchnuCv99yb4fC8Lvm+BGfw/k8SfAqzQmAGCZT/gysXfa0DCwDy8AysAwsA2LArbs+ut7t1m9va2I1rbUM/L46ol8AaKy99JPHDiLts6HTuTkSQUMiD97T3GJ3gisxbrjzsB/CHsvAMrAMLAPLwDLwYGD+jrs7uDpsd/BqtjRufnXNzV+TMTc+jfbErH77bOjTuRv3ovC0XysI0+YaGZJYmG3oTeKOy8AysAwsA8tAGFBzzE7bHfMjK91H2SLztvbp3/Lp3tpj9V8C/XBTbkUDKoVb91vOAntox1OTP42njPzbYxlYBpaBZWAZWAYuBtQaadivm973bopPtA8bk4ei5tKdD8XdIMl5hXCa8vEvnYfc3wccO+dq5cdBuj2WgWVgGVgGloFl4L0bX5z8ad9Mr/0Kdhr6FRNxbgnwqXbmKP2yAqHFcytAMB2514/HVwlB7bEMLAPLwDKwDHxLBvp98E9NUo026ss4YoTaUqcdl42BxzT00pvflmnS3ql3BKwlZ29e9/dvuyOg6ChW7GkZWAaWgWVgGVgGYMA9M/0zrbJ23nfb5M4385d2ekNsw+54V0Mnh4/L6N83dzCFqMD5X9Z6B57Q/al2J59GXhk67o7LwDKwDCwDy8C3Z4BG7cbqO+HuonxQTrx018y97+jotnm/va0XgWnBUcg8O/SBFiBJauL774RVAgE7Rv5PV2JJ426OhUiNwLbHMrAMLAPLwDKwDDQD3SVnM6yemX/qoG6f6aH9d2CikzdqPfDvR+sYf8OO4e3AwOGRVEnUatv6JOWtd+Nv247LwDKwDCwDy8AyYAay+07H9Nva0qbBsyN/6aTamqPhPLffBUYX/bP3+vfQO0SCFnKSSKgjbb1nBGpP6eTcryKeRR38SsvAMrAMLAPLwHdngF6b++jpobkDf3VUqbF0L40dn+tRooY53m+521RJBpY41/QhGq1T53J3p8PvsQwsA8vAMrAMLAMXA9W4tQNOp5VphIalf456hLZ/Hn902wV/fO5g0TYOUJdx8O3MzQQAQuQTcp+zrnYZWAaWgWVgGfiODGi7nVvtd599JeJ01yO9Ys6cSDx+NLgVJ4Wasxvz0didKU7tKNEI32/PDQLfHsgvsttlT8vAMrAMLAPLwDIgBtQw/T569dC+rR5ursb6gazeTH8wWTW33N8BScOfciWFmzaCHv1h+rxLL5V0/Sjke7jVLAPLwDKwDCwD350BmqU3wLRTmurZJfvX2VC5oWawFR1H2zKbc5unoRtXeFDzB+FlqNynV5NBj1/9O2x6rSHAafI4d4FE2mMZWAaWgWVgGVgGzADtsZv43aC5FV8tPne5vY8XNqNfB8jXfx/GgZ4nQj3/t7WynzCdVlDQddDgTwsnA0Y9KJSHpwh7LAPLwDKwDCwDy8AwQH90e6yGaZm9OgZsGktsmQbffXdsQT/Os0N/aMuj3wZ3vguQVw/kJGtnLvG6nXC5rLgMLAPLwDKwDHx7BtIxT9/MX189XdZ3u2uaO+9M0mv5XFuOHp90ftyhJ5Y2/28+sjh2gj9D1axfBXw0rnIZWAaWgWVgGfi+DPRb1b0hTrump9JfpfWmmBYei5u5zN2O+7b8JwY/NvQAu2kTtI8raqtex876qt/5MrAMLAPLwDLwzRnojXJ31tMyr/5qZb/5nWZ+tXcx2N5PMn/a0Pt9clyI/whxKS7RSNeC0x7LwDKwDCwDy8Ay8MJAfovsRfk2vXvpLZ/9+tPl43vocdSdfAnPIGfu99EVqz8NT1heeeRFAK3/0f4x77EMLAPLwDKwDHx7BtLO52Nw6pt9A/5JzbP/9qzHJ5bZx4Ye2HFCormnXXOP/7Rrv2WuuTFxrNJqssMysAwsA8vAMrAMmIHzHnh+2Zvm2Vvg9FnBaKgcjxEUjf/rzfKXDd1xvEWXOxPH6LR5PYHaj46vsW8knE/jCbTHMrAMLAPLwDKwDKQhu8H69Py/zt1LpXfvTdstlHvtrflE5ZcN3a2ZSJWAW+sOXNtzN/ncY1dXlwU7Aw4eP6Vb3TKwDCwDy8Ay8N0ZSJ+spnqRQfMsm5rsvLVtBD02b2pfDkeU65cNnT7OY5qzJ57mVHNHs6xTunw8b7tBe1oGloFlYBlYBr45A2q8bq7VIz2wIYaWseletxs7d8hbKTeBjftEoWxfNnTc7FhJ86rB+2/X4hwV1H0cNA4UgcLOn7KubhlYBpaBZWAZ+L4M+HfN1UndZWmX6tT+z9Bo2G7uUqqPdvs1U+qtd999sEe/1ePLho7dx4tQfrFVtmdaIXyf4FFKBdthGVgGloFlYBn4vgzUVlkEpLm6XbqJZy8MM+6e1UpB8f+lgE9XjR+4OTDo8VvFHP1fLVwxKTCJkjKffL8Af3XQBS4Dy8AysAwsA3+7DNRn29Us6Zvsuk+vbGlUpei5p5wa2DTV/OzQqyMbWw412LcD4l++DjX6EnwT4QZ0wh2XgWVgGVgGloFlwAzQzs9u/Z2UP22jHwCnoZexdu6OTrra6fvN+O7k8ytp9unduTw992sO+fee/b3Q1SwDy8AysAwsA9+XATXL2USn+eZ8NszuvUWQbQ34CWmnoX8A5RVE379Xouru/v9Y3fnJwC2DOPdb5/n/Wv+K7B9yrmoZWAaWgWVgGfhbZcC7cvXP3hj3LXg20By9FX68t24D9g999VJNQ790uMZNSoLTsOdTeQZS0uXRzV1A6z06zJ6WgWVgGVgGloFl4GLAPZV5t1GP1+ZYAO+f+fT74NxoE8XKyz/aX34jzgUrdb1KwEBgj0lmeVDCKat38grk1F1gyriQKy4Dy8AysAwsA8tAdVgTQXOns9M//Wn2aspppdVQ3djVa2s6LwSaymrw/t/WGtO2hHeO+GXvb7OxnUMFeEde0Q1zIwfwKapD7GkZWAaWgWVgGfieDKg15u3rvsmeXnk6Jq0dEBpJtbE+9idtRpXxB9hq7oM6jiUVwINUB3+QdqYAqw5igq6wDCwDy8AysAx8dwa4zT19lIbZ/bL759kmW3JPPaT1lLHlts576B2yDY+x9vnt/Do+sJ5ctwbejatZBpaBZWAZWAa+KQPqoG64dFKE6qi5xR1dN1kz9Jh81DRiGrpRdWpjpr97yPlG/fLL0UnqieqrdwOe4J0tA8vAMrAMLAPfnAH6I/fRPXYzNyfdeXv89xP1A9dXd79mqAb9u/46bMTfM3oSDa8GfpfIo/+I7PmrN69R//3FrccysAwsA8vAMvC3xAD9Ne+e0yPTS2d9L1Pb3WAH8aVAtNmh3+2XO+y/2tLRaetu37/8roEZ5987UabW8ZF4/37d68fhvyxjDcvAMrAMLAPLwPdgIJ91yy797JK7175yoOb6gwab1m/UV1Bh/Cl3o19Ov5JJ3TuhMKqNOzCN/GjZv2eHniy88sj/HPMScKfLwDKwDCwDy8A3Z8B3wL1rRjrN+nTV9FT6raRii16cnvyHgfcW/BD6m4OfuSWacsIoHM4dk1FJOo0TSteJnDyfsReQyHssA8vAMrAMLAPLQDOQz7CrP6onu6Xq/KN7LN20mm5s7q7SClu9ls123n/viGc8LwqOjjzO5BzXbtxZFbVVfcudW/B5JfEjvnL//PrhSrLiMrAMLAPLwDLw7Rjoze4fadQ+03KrHau7973x9FWd6+1teu8f3YA/8Oa/FPdBf1S8dHBnl2rGfh2AQg+mtnFSK/e2f1u6yNhjGVgGloFlYBm4GOg9Ontt9Uz3zjTRtFHJvWW34nJVs/1Vtv478LcFuTvzq/7MCfiGQnllusT+SP7ecj8UrrQMLAPLwDKwDIQB/hJcHzTvdNPTZrMvp8V6p14firNdO/U/pP9qu/zlh+I6HSMBTgG35V3Ox/G/TvjusZplYBlYBpaBZeA7MqDmqi9OvpNu2VOTcXbwjy20bZ9O50XBJ2u9DDi/M1eNuvTcOEC8Xy2wQ7/nn8KubhlYBpY/Ic4dAAAgAElEQVSBZWAZ+J4M0CH9vnQtvzpmN/P/ACk/behp1zRsmnT26L1Td0n6RDvz/o/Yu0zqadx/oLZ1XQaWgWVgGVgG/qYYSPt+6Zaadr/NFhlFIRki3sJHTq6G/qEF64/D8Jff0rRJUDGkoMXzP8Y4l+b5C3GZg/9j/i7tx7yrXAaWgWVgGVgGvh8D/rOv9Egt3W1VJ/dUT6Wkg6rD+o+zqf9manA21xK/OM7vmU23Psjsy92e07iTXQCqkN4Ppaimj3o+fdfb9hNupWVgGVgGloFl4FszQEdNB08jdx9F1dPamXcLZaov91t68s8OfQb+sxk3dtn+f1uZ1J9y7dsCHdbtnt5+hfGe/lZcthWXgWVgGVgGloHvyoB7qPpj/a/n7IJ9h7tb5q/cGRc5nvfpGr9o2abzuuX+iV5ac7n3qwaSVfA083TzoCik8DV8irq6ZWAZWAaWgWXg+zJAE+/Vq8uqX3aDt14nWqghCN1Pe2xXxonzk7/l3vjzv6cl5j3v3TqWyIrs+wTKeiXpWDsuA8vAMrAMLAPfngE6OJ27unraJfOLGXppv61Nhy2fG3KhLf7JDv0JT6CXcJ5eOgqgKpLvsQwsA8vAMrAMLAMXA9XML81TTO/MB8vTW9Nmrz57OxCu5p8bOlY9GmRs6bxPH1shXoGeP5R3+pWXgWVgGVgGloFvyYD3vD/d8HbvZGz551T19nk+5f5wK2t/ys4x0fmVAFt/i1E4z0nsO//gXPXPi1jrMrAMLAPLwDLwrRjQbXbfbX8sOm9aW+VmrJNHGq+FB/qeNBzYfModt3MkQHpyGjgaiuCNe2MlW4femnxYrm15L/1EXGkZWAaWgWVgGfjuDKTX0jUlVR9NZw0zbu1n1ywluAE2yP13mjBawb6+5a7tud+TJzCdW6d+H585SbGfz7UbZH0KkN8ey8AysAwsA8vAMvDCAJ1Tx/TZtNns02WrHt5OfCAOfLosfvek5ho+NvTp4XLvtpzmrnASsNPdPTqDTpgKj6r9JO6xDCwDy8AysAwsA2LALbPOJsTNMr02979P36XB919h/ZXmj0MCuMm22KPfQ2c3PyCJv1ZHz6sCGWni3aLtWQ5yRG8VIZRt5JFk2GMZWAaWgWVgGVgGxABtmdadbum3sn37W2pU9NEa2UgHHx3T0+TH5IggfxhvUGLZ2S8DUMpaiTo5TiR1ImxdVOkZcnSQnu+4DCwDy8AysAwsAzDg3qtdMDtvZP/fKGqb3lCjYcNMG6XZgrOTvdKXmfvoXvvrLz9atD4xnGn0fqlg1cPVYcuWoDq3U4yjXmEZWAaWgWVgGVgGxED3R/qtGzc6TzymvUtHP5U6u/Rq7lK6zTYe2NV39R46s35IdLYJieJxuJaHRpNW9pgKXlE7XwaWgWVgGVgGvjkDapT0yurE3TZNilpx9+fuq2O38OzNwTqY3dXQ+13wcUtcpno8tTadk3fo9cqhgfbTDXrfKzjQlZaBZWAZWAaWgWWgGHi9w426e+5lSwvvBvsFe4Wf99DPy4Ju4h3gvCJozYTUKwzi+P113geQTB/3/9D285cCE2KFZWAZWAaWgWXguzDgLTR98l4wvVPzW+e5FezDeXQvlrKA7uMlo/Svrc28E1hBAA7ds9e8Q1mF3TpZ5wY+ctKCv9R22dMysAwsA8vAMvDtGajW6sG9lIaZ3gk3VqmBslF2H5Uiv7pGL8b6PG7NbwS14tZWJjdxbblz9zyNnVDoJ5HmyLzqyFvndga2xzKwDCwDy8AysAw8GFCz5YtWmd0yUymqCaOn79LldXR/nYmFczK8pr8d9VMi9AGSPXYnUYaaSqn23mDLp9k/I+5sGVgGloFlYBn43gzwa2nZLHcPT+M2K+7ep7tO48XoVwDTbD+S+GVDt3+3dMevIrwN7wJOYm4F9CxjYz7mXeUysAwsA8vAMvDtGEinrP7IcHbEvqXuvq1umjveaeneyNtFp97JF3Pdd5meD8WV0cMgRvCtAccjGwGvoOhzewAJ+x1s5WVgGVgGloFlYBk4DNBDNePhBpqmSXtlmh6qTbRtNXXfxWgEwtvx8W+5H1SSeC6xUrYwsNFXhWc+kBWWgWVgGVgGloFlwA2Zzq1OWQ17mrRUvVfu2/K2TQ9Pdw0e5f346j9nGconyrOJqxDCdmLgnYaRz+clEZY9loFlYBlYBpaBZSAM0D+rY3bj7PlHigQaHAAm/WiHAH6+Q58tfkWbDp5PtPP+fWdCzEfrSzPYTrjjMrAMLAPLwDLwvRngj65l09s8VH/tKaNU0/RrfpuP/PS9GvrZVbtP41Eq/9U378qlwL+btca8dw64JMd/lIJxj2VgGVgGloFlYBkQA2x+p3eqwVfbzMhZrZambz2MdVOWYnTD5NFcDX2sl6CASuz/DcavKtKo4y6ZpNXcJ6QLuUKsuAwsA8vAMrAMLANhgPfOfdSoOSr3U7VrN3r6qntrem45tPVDUw/i+rW1TlKuHU/TF4tfLCQpRRTQryDyMsK2rmDHZWAZWAaWgWVgGQgDapnefU/TlrqbOpa00dowZ4fsjbW92GTfRBa4uvSXO3ReLXQrp2ez+adR5/9uJQlKPfKywhn8WsLJynbnXXkZWAaWgWVgGfjuDKh95v87STP+w39MRqTQVumz1Vbp0fRU/v1/7L3Nkm3LcR527gkELhAgCXpkh+e2wnoBP4D1UBY5dsjvZIU4Jj13BIGZB3ZQE5OiKAIQdeHvJ7+qrFpr7e6+F4gQ0bXO2avy58svs3Kv3rnX7u5zhGQcZeFokXXp5u1AHzO53ipQl43nOLFynsugtdFzyJdtyXaU04HTgdOB04HTgc/cgZqNHtVohG65fedtF84Uxq26VcI0+wXiqT/c0NuBbhfzKNKq3gzw/cM8ukyHdQB9Sz+BRzodOB04HTgdOB04HXAHcNM77q91/5tpOqwcwMA2HCZsmbwmpPW0fQ+9WTdR7wyWUb4Busp6kOh8H7035cinA6cDpwOnA6cD6UCbxk3MbXFQ1Bc3HTG02R/8VzkJCCgerc2IdxSC4SSrlGtYbur5vfZznA6cDpwOnA6cDpwO9A6sn3TH0ydml+Nf1pthTv9X3ffTuQBM57vs9V7b35CvQZ4YwDPIScpvod+/QaD3HKcDpwOnA6cDpwOftwPLiOS4xSPjlMqUoXG+GvLGWP0GA52hDGhBtOmn6XgmU7Hrpls4JGQYZNkg+/v3BAvA8zlOB04HTgdOB04HTgeWDtxMR87YMmucNwg/7aa7PiP34CVfw1DlcftDcR7m9bEAmRRJKxg4wf1XSfJ76Br8hFZqied0OnA6cDpwOnA6cDowOsA5zBGtGU4FAhcdGKSyQ+FM1QMWzVeBIOtuOvhauQB0+0NxmuGa2pCSTLfiDLI3/0JczXc6nDSlFY55znE6cDpwOnA6cDpwOlAdwPBdRySmtWZtzVcuxGCRyKE+hvHeRQZq2mOgl0CIqQwe7xPqXYGtJE0Ky/qeOiqzHSjI1OqX1B12zqcDpwOnA6cDpwOnA7z3xXycQzi/Hu67dk5Sj3DDME01o23llPbNNL3k8RLvj2KwuZ9FBwPXCm7rsERgqKd7vUfobw/oPMfpwOnA6cDpwOnAJ+/AMhozvtmT3BZnpWkOWEvlGxwl1KJfW6s3AGNcq92KnmSytdPqqVQiIjMeK6BFHvF04HTgdOB04HTgk3aAs5Gzso3KmseXhtyOUYFbcAPNX1srKv1XqeuH+8w+3jskYwpoXGHY1kSc9XTgdOB04HTgdOB0QMOcc7YG6HWO9h699g4kYF8XaCnDVrf7/FBAP5MHBz/Pp18rBH2/nIwyUuCoJyYjn7ZznA6cDpwOnA6cDpwOaDbqppkDtfqRdVFj9CyNRghl32bjnFGLdf5LcUV0XW5GM9i+4ffLezVFqnEvuae/sh7L6cDpwOnA6cDpwGfrgG+C66ZXvz3GgYouZGTiptm/PVZDVaO7ukRMHqNxZUDcza+t2anfL9dP4iWq3gnQzQR8W1B+mVgBTVj8FkDWBJ/1dOB04HTgdOB04NN3IPNR47ru1LVoeNan4ZC/0YxFuzhKqeMPTcKqi2KAYc7a239YhliRcXAr0OtIQD89+vgdq5ILOPDWzvl04HTgdOB04HTgdCAdyLepPVVx5o0wJqe+rc0ZzaGNRcObMxY3zjR7FmvchqpZbbq5Q7eDyTz4KeWAVIreJZTMZOvR06+eo50OnA6cDpwOnA581g7MeYo5yWHNQYuVkzaT0zMVlvjVLEfO+L2D+rfcYySFaWLRR+qlgLfSTRRt1FiP3l8oE43PKYvuLKcDpwOnA6cDpwOfsANzznp2YmJK4CzlgEdLOFN1i46Vg3aG2BnQ0j19D31BLm5N6rIwn7LkzITy+ez3FxOzVSDkOZ0OnA6cDpwOnA585g7kTtw98Pwct+aYqmXBCIVERQvn9PBApJ7ZHbvu0Csikc7ic+H8T881R+IX027c9QY+4unA6cDpwOnA6cBn7YDGY5uRu86+NDeVjG+3jM4OsPfxh+IUhHcICtFn65DCodhGZlDxm7h5nf+cTwdOB04HTgdOBz55B/Rp+TqdW0fWyUktlqwNfBHvB/pg8ef5md8xc8zn2/dOAn1ks+Cfkr/kO4bTgdOB04HTgdOBT9sBfk98zlIObGhl8PScreHsHbfIcu6IVb8f6GHBlNYfrfzReQTDR8llNBtMKowewPR77LOuI50OnA6cDpwOnA6cDmBS8oY3Y1bfD+dtu2ar5yjH9Bj0nLvlpCRZ0VKWE35tjbQ8DLVcav+ovUg11AF1OUYrEgURbpn28BpzzqcDpwOnA6cDpwOfvgMakjx5YHpS8owRDrPHbgmGjF9t63P3ro/tDp2Epg5w/jCc7XnHoJ+mZ6J8j50BKpICHTsT7ec4HTgdOB04HTgdOB3guByfaFPmp+B1167u6O4YqMxSjlVOex2OLmVZ2kBvduI5w/kIR7mlig8n/eg8HfW+IXaGjeQVeJbTgdOB04HTgdOBz94BzlUec5hq1PKkn03THbPHvb51LRyc9Et2+Hq2owY6lTwKtqgGrwTUbM/voEtLsS7xGnIspwOnA6cDpwOnA5+0A/oHY7R3/3DcaAOntYZ67t3hgUnzXQJ0fq+dg5aPmxl7f4duNCPedYg7yIdEcZ/1dOB04HTgdOB04LN2IPe8bWzPiauhDgQ+cjdOE74GODrG+UqHnZcWYqAv43gBfPfdom4KnPwbDASLyMR3Eec4HTgdOB04HTgdOB1YO/AwHzNK9bk6Brun6M0speli9oSvO/R13PNzfJJ/bffvToahDWEkpp8P2gAO3J/zXzICeI7TgdOB04HTgdOBz9sBzsfLdMQMzfxcOjOG7bR6vlKfLBz//FMc05Gwr7/1HbcH+HcFxND+OmXmShFfMdWpk5RvD66MYT7r6cDpwOnA6cDpwOftAD9Qz220ZiwGqWa3lDbFa8DSbABmawKrfX3WFpyIjiKELgxvITCuk0jEZjciyTHsIZKFI32WC8M5TgdOB04HTgdOB04H0AHPWn8SjqFZU3h+/xoQzFv/oQwIMN/xwZms2+b7Rtb/h84B3oe6P3KfIRzaI6vMnO9M8hVZ6NUhCEc57tP724b4z3o6cDpwOnA6cDrwyTugX+vWXOfQxJDmHNXU5mCVRTfIPHGQ82aZh9G5XfYbA54zbuG3keAYKTuJ3xGIUe8NnEgJBGGWPBzjT/IhT1o6znE6cDpwOnA6cDpwOsBJ26awf/qMd968//ZEzd265jgHbt1QS+cNs7rI8zq1f8RbaZqu85ckOMwoMffi+vS93ivIUSdFhP9K2KFHPh04HTgdOB04HficHeA3wvHT7l85THG0MTv68R1/Xk137v6gnaCvvIvXjM2gHXDNcH3k7tnr73zTrY/L64fiJrySDoMLmarfXeitwcOP5Q/sEU4HTgdOB04HTgc+Ywcwiz3P67fJ1APeDnOmYq0hT1VTtY1a/Sxbzdc50qc0bqpp8sfl01lvBZRuWIegAPmMiyNruc5yOnA6cDpwOnA6cDpQHcAttO+apXte8yN3HtAsSONp2GPRj7nnB895O+4HJy+wUPgPwdNWh36oTXr+aTrcvWdOy14K5P6Bva00Ik5Jw3jW04HTgdOB04HTgdMBdkD/9wqGbr4bTtt3mbG5I69vh0clRpDgaBiHjV/nIOekxkNDGgv8hKwpPcD54bwOAErSEHcMowbCuHM+HTgdOB04HTgdOB3QENcNuubkmKA1TDk/5yEvTLE29ARR8tj98jVAeYXGqaKWYQ4bf9TeN/r1vgIT3IUhmjIeFToKEO85nQ6cDpwOnA6cDpwOoAOckv7VM87UmsU1lDVoYeM8rWZprmZSZ22NrCFMOD5yB4CGDRf1G7KWwo8JeGisJ6Tc+og9tkJpOafTgdOB04HTgdOB04HqAAeqB/k3/E9YMH/5mAPcw96Dv4ZvbpWpYsDfHbTi19ZuXGDW7MbqtMb4/hwB/jsHfYorqjvKmyzHdDpwOnA6cDpwOvAJO8AJO6crNVu41gTlIuPE8g0AD0bOaJl0aj9PV1NaXIbqP1f3aNfH7aKBP+8fQrPkjfGspwOnA6cDpwOnA6cDNx3QoPVNMYa0vlldH53rA/PM4RquXnyDXTDEYrjrtt5DnknaQJ/GNXsx0qgkXJR+hTFc5Kv5aKcDpwOnA6cDpwOnA9WBmqOep1Cke6rq7nwbxfpnYit0fNoeDgVH+aZ+bc339dd+B+eMi3+4UqMM/AF7VLM7l8ijnA6cDpwOnA6cDnzSDtSInGMyUn2I3u+69RG7JzxRQc7OrdPfPxQnGB0FX5cZW5KIcRJs3P/T2TguUcdwOnA6cDpwOnA68Mk7gMHJSenvh2uabg1ptvn5OzCauDfYmMb/h05DwFhr6Hvhu4Z65yAYP27HA07d/lNQKDBY9dD3BJLkrKcDpwOnA6cDpwOnA+qA5qO/H16jHWYOz96fUrhwEC++rntKJ/Lhe+iO9pkBDpLOAb5ngIm/tiZXmM96OnA6cDpwOnA6cDqwdIC3x5qoy5CGhXfI3ca7YwERDh9VHVx1N01Biu041/+HTj1oTmeyIGkF6qfaR1wJwDiiimNmuYgeJZP4HKcDpwOnA6cDpwOnA+yABqen55A1cjE5MXQp0q4xTBmH/j0YChryFUt9TnxpbaB3J2QSOpuAPoUIq7IGh7XeQWiY1xuCFnjE04HTgdOB04HTgdOBuuXlEJ2jEgOVw5wGzlJ+3M1xqzlrneL4P1IUKGf107MZH7l3Y+t1zMQJi5NIrMtNu4SAmZA2BUA4x+nA6cDpwOnA6cDpwNKBDFAMTIsc5hy1OgHKGWpbpr5uzheSrpBFv7ZGo5XuFt8wgDwFDJsFFsG7cv4d30OHbPwGPurpwOnA6cDpwOnAp+6A52WGpEY65ivHJg+tuHnmyPU/7ma8Pv0eAArXo/1Q3NW5WJZsSFQ6l+GCEHkKC8tRTgdOB04HTgdOBz51Bzwn6+6cnZBBd82+F+bH7mW3FRAJY8Le9u92oDPkddgzICW9GX9bzjGeDpwOnA6cDpwO/GF3YAxpbTPT0qvOMcE/xCE89+ZmoPtdQxKKLRmKUAsAfA/BO/UytyztnUezHvF04HTgdOB04HTgdOBubnqmpjfXuRrP3Uq0/mGZPcyjvFt5q6+fruPHAHL44wB/yu/vBASf9S7lsZ0OnA6cDpwOnA585g5wRnqO6qfPpMy5qTtltceTmODqFtaIZbkslzt0BihIwRjcYGVa/8CblPlD7MDIzrWoM+TfzHwp5RhOB04HTgdOB04H/rA7oFmZucqtYojq/0OnqEnvG+aa+nOU4oba/uf+YKBnFG8gmv1deBHqf3zRpLeZP93On8Ark98F+G2H6hj2jfaopwOnA6cDpwOnA5+1A57ZdXeeCcoBTwdW/g66BzcVTtLMWYKuXfOspeOb/i/FTaBiQKSUQOuX3EOqBLTJMZIxxh/NizcnrOc4HTgdOB04HTgdOB1QB9pQ1gzX8PT8pJ+jlcOZC13+1DtDHTj5ifHR6DjQ4zWrz7b5R9sgS7WHGfiv2fj/aDWOH7vPJLSxBPuS9KynA6cDpwOnA6cDn74DGY36fjVnKToyx2uN25q+8HGWzvlK4Jzauzy+hz7nPwPySGauJWOZWNK1YU6ICtsRgp3T6cDpwOnA6cDpwOmAPuFOGzRUpWiEambPQc/RXrNfw71FZSrDxMjf9o/cfU8tLvp+yLHesv8QphN7OnA6cDpwOnA68IfTAQ1ZbsdDOLfnuhemdd6O157nHfrzaDZp3aGPDOPWft5jF8UzU9U1cYx9Ba8qz3I6cDpwOnA6cDrwuTqgb1nPmZuhezszL0YaLsbRP/1va92dW3sh6EjerBzWsEsFuMuM6SHiOKfTgdOB04HTgdOB04HqQAYo1D4wu7wM7TF8MW8jEzzHszX9f+gByF80djuWfn+DXj/GrolfTCoAJ66Si6tMZjzn04HTgdOB04HTgdOB0QHOSx4Ymfw8W5Nz+1a1fn2NGM1WCoD7R+CttLOn9JcvX8Ub8gLom/AMhl2J6iMCwvL5vj9WdyH+tTYGb0Q0neN04HTgdOB04HTgdEAd0JTEKat/a0yTVvfMnLoe5gRh0mpa18RVEA2Fr56G60d3M7jiKyGgjp3zGpNebxT4kbtQTAoQkvsX1kR/nr7TgdOB04HTgdOB04G9A5qpOHFswqd5yu9f0+Dhqgh/Su6hLjP8mrnE1pj1wFdk/yn3NaM/WUeEEjcf9XCRUIPci1HOsoc1hiOeDpwOnA6cDpwOfPIOYDR7XHpI1zDn98k1P2vWahZ3nOQ2YYcPH7n7c/Vmgch3ALZUEBUZoNuhJ4LvFVIRP4rnOwW5af7kT9XZ/unA6cDpwOnA6cDegczGDHNOS07afH9c98i8HSeQMzVriAAwh88xE/uVRD6ac4gQhkzUojSt7HFP0uI+y+nA6cDpwOnA6cDpAMcjh7TuvNto1uCGXT+nhrtjjVPhMsDZO0QD2C2jo8D+SEHDUoIGsj08j4/0AyYn7YTPyqi1IS/1nE4HTgdOB04HTgdOB0YHMDk5QzNPh70L05kfRLfXdn3fnAYN4Rn3VRNYmOahXu8Q9E4grlrptsiP5iHBIAraIdDnb+BDOMfpwOnA6cDpwOnA6YA7wDtsPvKxevUlM/TapgePb/Eb/Lf4HrrHb5vI8HNG48HB7IENwnDSyKP0DPyYFUv4MBh+zqcDpwOnA6cDpwOfvQOcjZqPGrIepPqgm3Oz5mpZPWcNbm0jEGphm+Pmp9wDrBgHcWy3aImc2LBzUTVOEBR/t+4cpwOnA6cDpwOnA6cDswPjW9icqpiTvNH23Xr9JyyA5v9D5zzViMVZN8/A6yZ70i3S+N/WFqsUhjk0s9kjmkk5yFmMMZfY8l/sx3A6cDpwOnA6cDrwiTugm16ccvNriTOVTaHDHp05ZznwYbd5m7mTBLHf8CP3+yPvCoDxuwUlwwmsHuSMR5oi5LsOvtNwlVDyLuCe/lhPB04HTgdOB04HPl8HOEbbrin7J9u3uYmhqrFbYM5XjtWyTgYRkIS/h74cFWkfsyiRZjNO46ftapDrYwFldCJXWYal5CXJUU4HTgdOB04HTgc+Zwc0UNuc5NiVyhNmLhRBaNRI5hwueWDvW7cNdLFekLz7Xn5snbflI1fFwESYCrIg7ZxOB04HTgdOB04HTgfSAQ5IDu558GfOOEnHv+FOF2+oZZUy5R5IVzu2gd48TVT8PNkzSIcwIu7fFgz3EU4HTgdOB04HTgc+ZQcyMfucpE0jXkO8tyVo2izz++lPx/NAT0xWMaAE6ovtRse7Ct7En+N04HTgdOB04HTgdOChA2NODsHATe3RL1z799BbWL19yEf3Y5LTLh9oObX5t7D+iIAmGGNrlEc8HTgdOB04HTgd+OwdwIT0ffFlTtITp8VCTnNB4u3r8x06UP6UP6mZGQ+o/OG4fLZv7pyNUY1jyvd0Rz4dOB04HTgdOB34xB3AuNTPpaEFnpyetZyq+oE42T193SVNVImSeKrAxBu3/VvuM6zcROMn2vnT7IMeIP2jMY0pxY07d4U3QLKd9XTgdOB04HTgdOCTdyD3u/p+eCn+tW9MWg7iPoxrlNI+vn/e/a2Xyx064xSLEz9NN29GuRk8vOeAz+/GKVIfwVdKVdcyHfF04HTgdOB04HTgs3eAo1SD1rMyw52/miZzm+aevjXk2TeCDVIXPZUlyrwMdJsnnnH5z9aZSv/43OCrYkiTQsie23UO93OcDpwOnA6cDpwOnA7MDmQ01g2wJjE/CZfQ7sKFs1VjNXfZZArHZJV0O9BXDN8jtOE93j0UoxbLTso3AWDAcP8//+X/U6CV8WinA6cDpwOnA6cDn60Dy0xcbq8zKjFrKUrFSStsL26UBalG/qg3tPN3+/J2QNlWb7ROHNtZTwdOB04HTgdOB04H3AHOyTlr96kZnQjKeJQYS4KDNKvPyx16AAzk4/kIckf89ssv/vwvHAsIUcs7kh1+9NOB04HTgdOB04FP0IG/+pf/b3147U+8f/Fnf7Hsep2qTSsxFpJEDkH0ZaDHyTWAKZR3IwtOK33lpz7eUVToWU4HTgdOB04HTgc+Zwf4zWsempajBZmZ9jRfExnS1REMod98Pw50k4Mkn92LAZSI1rfvmYCqqmGq8sH/y7pLp5XHX53vpbsR53w6cDpwOnA68Ok6kBlYk1IzUk2gQTPVvzmmXwmHSbiavRyxwnC9Obp5+R66saLStCYf/7F4Tm4HKbOzwSIXM+UgyPDCx3HW04HTgdOB04HTgdMBdqBG5RjmtGmSYujmN8v8/5HDLseIIPTxuLlD5+f7HtK6O9ckh14/Vs87cns55yHJj5PeRnCBDPMv/uzfLUnzDmUxHuV04HTgdOB04HTgD7gD++zjbPTNt+dm5qhW9PtKFQsAACAASURBVOEbDnWs46HZ6u+720jP/XEz0Amsoc04Tm8+INMqKlWT35ub5CpDWCC5Lsc3X/7yfPS+dOQopwOnA6cDpwN/uB3gMK97XW0yI5X3whysY55mYM5xqpnrwU+RDp6xBivG9XQZ6OHjypzL98hBRi4XWEiCEkTuCuS7jV/8ed2lw8ZCUhxh5zgdOB04HTgdOB34g+4A5qBmJjbJ0fhL3J1zmHsW1rCkD0M1d+YCVlMGAoLmMe0awPRcj68KvvcJTVd393cbA7DzKgAn/NVH79kRcH/1P51/bGZv19FPB04HTgdOB/6wOuCP2jkHeRfMYf4Xmsoc5vg7b4ypjBvjumtXK4QCls5BI/npNH8oLqQNSdPT8R0cl9v7J7DefZQTpBzq3OP//H/99670Ke7YTwdOB04HTgdOB/4ZdUA3rZlsWjNJsfovdhNbbWzYs9Huj0wyyLUE2df7maz4kHz58h3+7IcDu90yzxNvmz56Bx3v7vlug8x8l/KX5259b+vRTwdOB04HTgf+mXZAPyeGgTs/yfa8++Wf/VvvqI/M2z1yOj4cIdUALUzgXPGYA13vJCbRd3Wbz/H8VbBZyXffQaZaDw7wqBQmqfkI11BXjnyAAB90vps5g332/UinA6cDpwOnA/+8OsAZpjvzDFiU7xvY3375a3zfnFNUx1dOSh5zHZKEaBNh/HpuaTTI7f3tF3/kvg3zAQb3d1/neKbEdF9hS1pKGvic2iiWGkUeDA2OOn8ggJb/8X/7V7pT546VC/nzE/DnY3h26hynA6cDpwOnA/+1d+Av8c+5anJjhvkGmnfknqC//PN/i1no22HtA4OR83RMVA7HrsehWTpvo/UewCfTeHq6NZzdSocT5FDYmTMdqM7jmUZkRmHKT41CP1QoDLBziJOVi+rC6Wt7V8LQX/zrf+fP3CHr4DfUeaAmDvYMdxvP+XTgdOB04HTgdOC/ng7wjlxzylPcQ1VjDEMMf3/JGecpqKI59zBCcc/LqUqthqRk2zgmdUMMFxE8cY5K0PyVFTYkQo7xEIbJv6k7dBnqBCBdChUbpBBncBf0qyuEm0CD9HE8C0J1KZA+y4C5Qt2tc+D/i3/zv8DoJoiWheJYPoZnQYRg1Y/7l65CC7/IYrg5JY6u/P6dbHHUGvWG4tZ0h7+z3QaXMfVQpdx7UhAvKzG3T4uOJa5wKxywaVhim73Y3l4mlbG7TuuNbeS98Q2i/CioDcOsi7jb7uTGy2/w8NdB9rhRwx6v2EYA/8AOM4TBOYxmospDb1IR2d2S/Q5esPiyOvL+vGCKY9iGMGNvTMPZr7Uyjj1SZywPGBc7bd0HHv1aa+wb/jaWxsLztTB0ZdWiuFH/EDrkRk5fr3ilhHk8ZYgmil9n+nUhanAqr07wXdYrr1k6sMLuoMzHQ4ktKkeJXu4Cp23NNKliX6haipESQnrumOLW9cAAWl8dwKuJtRLaQ0hHk2z8d0qkjVZKzYnOvKB3DprxKKqgp01xw9yERDSyHdsgygFd/Ri4ITRe10NDwoezCk1PWaQHOQa07myJrNlIkfOSc7LOvEXm7NStMs1yc44Gx5V2rByWOrzmHriMY/nRpcrapOxJUnBRFS8HNIsTBArzlQuCi8yg5+DngBeAMoUC//Wf/x8a9v/D/46P4dEQN82Ndb9SEK+lsgeH1RiUQmFsRgoN6xGzaKzoBd/BuL6g0SyXc5kzH6LMDCTOP4uraxw6I8YBDtLEljzdJufA1QuKCGxcsJ245PizsoGRufLQfizW2Z7g4mLkXmvqG+sUtLH5fNVeQWre9A7sTpc0WuN1bUNr4CJaonYlcbvdNEnLl/mlhgrj0g/iZVNgRQdb69xv5yws4inNfqOjiOvXBuOXYhJa13W8qoOKjiSnYtnPMlTEK6dw7VQhtSMDm7tecUdbCB8hlFMXrOqfGEoePhqtqAadHFuiOH0ClofhFrFnj2CpkGcFlLQ3COMNQ/M7os4jDNfvkBeEIpNb3MHVE6qhjtrkY2jq1Aqr9llfW6UauwBnWJkHH5jznOV6YJrpp8YjfJaSI9bgszrm/rzHCAXjiKWQ5w+rVJiG/0JbCBHjlASkKey8bsCTjSLM9mQoMIOCKZOzywELOzavvxENd3+eg25VVGzyDvIBGTEUuOPqg3O6Cp8FWHri2FHN4OQg51zT5NMAJncmoESdNOg1nDMtswIte4a3hzq9Gp015PkR/nf1fMG1Hihu/tpaXDCy3DxLJKhJHARWvacoOwuRyTChylBDXCWHJ4NduCoW8l//r/4pwH/xb/4VNDeSkPm08umtLyo66lCtQ4E/9cs2G59Ltu9NWRCQbLm+fMHE6rXnoYU6X2yC6n6mDoYyj7wwBic/TgMHIT4aaZ8HPbbwHFys0YmPnC+ogS9w9LycDrwinaOgSikZ5v6CyzwsJ7FUI3s1D8+KJ0AMs1+0GBWMnyHa+xEO2aBM3VzJ22Mo7/bx/CfpFpA6l7jC8praD9fhqHDvmLHBcpg7mSaaO9mfj3jtmxqlzmN59kKl1huEXHPp8MoSnlhdV6/O3PbH3tfuF2r0KSg8X8O25kttk8PA2QkwViyX4Bqdbd0g2b1gPblmWUNuQsVTMVzyNU/8euTVxmDGJTa1rHhr9PU9GOsrZMXDw9ePRtbEZb/dTg7VXas5iZjXAG2yBGjQeva2ZOv8Cck6g9JXX6nTXn1pBvGFPyur5l84k0/XBv2y0Tr3YDPPCtNqBHSbxTO4CpFnLViadR3oIhCo8huZ69Ae15asncM8qX3Wye+T8+bUo5yrlKLzzesceRzWnJ62ay6WzABN2oxbMRnvBAoEym8S0oNKNJYfsck6WvUx2eG0PheWVeWImLXs68aas4mEbuqXv/7X9eP94b9Zx55vfB81rU38aPT78L/Let+XMahXmV/5Ev+0rrGr9hRzb/8hsfUlsBEX4xvEy6dYG8OivsGzYBflVWDzNTHhN6a4PrZ+gEjQ3pQ99i3dL0fX+va4K+JNCyn4XOs1pdCi/QHcM3RKygJVNyiV53lJXFZF47S/oj0zyMNw9u56V3R/eS90M3eGRH8KF6iUib/6VstETsmIkQlq9mrMQA6hcTYbGRjL6GZu4DiSK/oKuWrFhkVSlXeboxmb6MA8H2oms4TISH3iHFtaUPu51jSizQNO34lDFZ0J3JOWSiJ9vO6rwso1UsK7H0T6WKc4bDFwjUxol6mvx/TiXUyUrA06TBAsD8tE7abSv0PE7ppBV+mCbYb/Qng61Oypaq5XXlqWkAEpazUg9HH3GMrSu7EBF/OiEERDN1qelmTecYziztc+WpvR4obaLdbCyxpm+6z5rK1XoJaVZEA70wNkYK8Co2cUJe5LlhCzEBl0MgXEuxfthhisvw3PsKSKjo6tryOwG0tuviYGeGOK6811fM0RGaK91F0PtDclscn4lj6SIaDzf9eVkL21thiITN2HOaNVzl7TW7TNP0OnJN5VbRG7GGBWRe8g6207KyCbC0fWQm3qGkttAtKf/hSueBZB/FMxq70zrzwjUzMbPWKGcIHIQIZAsjakxXphHv4hXJDNUCAsvQ+3oc3YRLcowVqbl7r+NpuGbSthETuuHOGm2tzuCQ02Tte0FcPLZQ70Cwy37HyO22dCy4uF8DUQ2rXAG/3E6aNr6jJSmMc0IVh56OsDBsaAwl+fj/kjLXPpX75vhRnazqKhbpuyhBfK/pGLWQkPqNYZDt9UWJK5IZSZ9WknoaCDPsRxcQzjvEVti9iKHytsqk+xBWaQDhhV40gCq2WdwyUsLRNHF38eQX0UjlxBTBxDjaXUD1odo0UibfPQR5y1UTEWbUVOYNHQIMigKcfwDwdSN7nti/H+eA2CIOg3C6FjPJ9OxGdislgSrDaU55U2H5ESFb1SBdZWlVlwLQltmBkdZ9YFZGXZ9+533PiaG27Y+wVH2Cy9oyCbg2dLw71aFueMGVELP5Xe64Eqoci08MSHYyCMWgslk+WVc7LGK6hPNHWC5oq9Rwn+gJdPQQVYcPYO+viwnYhdGpsbAfYa2/aX4Kxhi5618dyKwI3XpgIklPaXRwGDH1hxrruyrxwD2IULS3Y0Qb2cDqe86zNqlTpu9Zhi+NFrfm2Vni+z8Qw0nGmGATFz9MaadUsZepk7pst7zCiqHK+x9QFDSAjOY9h4MfLFEA5/X9Yy/fMiqDQKJtDRbJI95VeMI8uhF1yNP7wSEaXvSwsuq4nwgkST6uCLk//S4FTLqxiRVS+jhWdB4aO/Dj1zVSxNEu3PmRA92aJkHfjDfGX3fzFrXWlhX3+Qx8TiS515gaWRD9WoQKnW7WI0D8UPSUGoI1asEYXJaTe6j9zmjGUoLOKSp7IQ6++XaRYWlVomg58vhSI2P7DozARXtAJoNQHTOAv4IZubQiHGnhACWT+oyHAcgIRFuggkVTwIyak2e5PeVkWNUhDjeouQxHXoDUGeJxTHLvhvQCTmQY9tschaMC3aLCT8FUYnA3xmhKPZLdmYU41BGPdTfyYJY+iTRYL3BZ4i5aLapJPfORhH0bB5psRSVQNWVpKvQ3HLBxCBy8Esk3vUREywMApDPY9wKLQKcgEVN3lDU92BH5bisU07hZlkdLieiS/KSpPUghYRKZOefj1tBhTCUWQnm66R7Dtp4XQvnF9IEikiVVFHZTYv3ALSC+eonUaHaGFK73bmECBq8RLc2iQSv3a6jgFXIQQzUS2Sy1A2avP1wr4g9PVZihacrCKLEsVgq/PAMVXJy54J0iYksCnWaUvxZYkehCKyr2Bs1DknUYYL1843+Jr3HtH/Ks83PYgILsG81tLgsRE/+/PKNXhsUzXBBgPFSVkILsEIVnbRTIz71H0CjNNyh84kfjjAL6a5wFAqN5KLFBAXBTsEXWjwKZInyGwSMbbZpxjxVP3YBAdkhqBkg2BD+QhWA7Cm0aqeduZVggLRAXEERHd1Kl1tZ05XRYRk6YxFxXwhZS7tkKsSw4ZkUhmv/cHH1IRWN1QOTnNgrLnYPu5HD4WZQPlINBzMR51kLoFwmnQCjtWYSwkhIxcfBMBExDgIxJH8kmUhFD41EgthOjHWPPQPMznFbZ/xQBQ8Og2U9YWiPNbJY1oG1FGbl4Vxsat+6rBUfcIoF6x+koR3hczH8oknCzFcdIKP9uQEtmRTF96LnH6xQn4AyTBiKSLIX/DIgZiKLhzxeABDO42jJiZDgHJXLtZu3fWyZzn4HFsDl8iYD3gYYy+hDOQSUHtIZeRjHh6Kg2i98OSDbaQukBbtnxLjCSILpdRGybETRXbifbATip4AOViqUFrh1BPoGO2TogAMbCJwlRW5LakwEDoTrcTHp3AYRAaoEirExVOsHGqEc2nAmkgE+rpWDlLVnoqaWLNXDtojKq83n17ER9eAaV+l06iSuAcqbS8VE89koFQ4ECcjBTHwZFKc6QUzFvHTp74QDBboQigwVdNiu58fBQ8bA3z9KUgc/PphknRHuRhhSOWk7pwxM445nI1+RJIKIo8wkpcpBuG4iI1hgGhGQhhUU/gZzF6heGLJzRUn7xayIOWHnarglUtIgIgXlH4I5NEhXCmkgWgNWalUItq0n8FE3ft2URWngoq7LfopdxPbKl4ZQINVTzYvMhVLA21VOGQ2AYs3R4GbJZbNz24U48KFTRSS9Rc9JQOFaJiTvNa0OquMPglIBLjVJEhaJ0b1cVOoyXCcaz8IU63U9cWofcFY+EnGWsSEAMrFpKYSzBqAULOIpF4nFqQDFsVCUZFcaaMZGPV3IKsG6wUS3lXUPpkTf5hW+bgPSTYwc2qlrAOC7UzpeIe4FpUrQjI6ys+3MohCHsMHZ9KOi1O9YI5BA8EcHsRVe2zI5RcCrqStPrNe5qqVHrtrF1DcTgLoiwFSxaQHCpSNGDLhyMp8JEYyrRKLQCA6xw5KZjDqFQfjKJhbAx9crj17ZZh57KCOmCqUWB1Y9bVDvWzcgwY9i9OGucKPB591Au2SAfTQgdMqEImqp+IETquYIZPPNrKJmJyScaJ7yeO9xa390E8eHcwdr2vpPhLKXTkpjzdcrHtkdn3S0ad4hK8Tu6sCmc7FIxWc5CE/c0kFC21SCE65rsWhjLHPnFBEAQLkz/PCevR0B8p6K84t4POlEJspA8KDe6DC1V+DtsstmsqDBnpvk1gST/ApXqHen1kml99Mm4HlMTPrp8jnRitsPrBSFI57g4IacxPnNzLGcB96rhLA56Vii52ZTEU7caxX3JXCVEqtOqCLl3FsbD0J4R0J4GLjiaVNnIx1tlEvMYTqIB05uZ9RC70uqDo0sGUGknmAYR4ZSaS/wuq5Ew38WMVjygIhH/0MYjyV9GHYHZfXPtbo543QjicxqmA8KesssZ0ud+jDl8JA6k2pJG9LNiMDc0GqVw41mE4BUIKfAW2cBUmFT24o0qHRN/z2ioQeNxWqcIykjWdlcyNESAg85CWHyYXlxeIvIq4MDs4xZmIGh5FfVw1htOnsnDzHSphSqhrSEu1QrdJsU2IRMxp7gFlMrIUCF5JRpBOyNIq1F5ZBDOtRPHQe5PPzRU8ZuZqOBPJXeYpgjA+sgCoOonIrf/EK7ZPqFj/5il6xTMG6WB/tlGYltPBaGfujG4e/IIBUYcA7uOFoo59gxitMJ+ZLnjIgo8HJTH4ezO0XKyqsFatIqSoKq8GM1YsLIcCJK3gQOiedeOigAKt0G00NG2tO0aDn/pNFBICrLpFRAYb1gZEPHqonRumVSyCyOcDPf8kMRCS9g6mgspMvdbFwyM5HWUFYKCiJ+qF9o35ZEG88EfhTMQOPSMbLXDSMUAxONOkhnuJkWgEUZQW6+In3k0EUjOAWlrIspdPe84ALenJbcm2qoAph/fKBS1WzH+GRBwDWSj/zCQcM46XzZDLyeEd2KUD8xNCmYJyLj/h6PshgPgo4mBB+/h2vAbKYy29cCqdgh6dG1UxCpxQ1YaxBf6o3MMnnDVb9Cps4YgRib1hQ6X7uoYsYJz43Vqp8Ocqf3FDJj4eghIicBiVWb+mnhSf2VH2FUa8TciATfZWCXKyOwYpVrU4hBuUhIeIqJ+NlkaBoG0hQfOIirT21EuuaSKWnEOvoB1HsBXlpVD7XJZqqTawIVjqcnMN45S0eyr74FK0TTXwsv4cu3MAoa8EcHz9XHazc7JU8RcDLcAD5hKbpWZ3aFF12xsYRkgEtUlOT2enpVx0BytCiEZdnCzjVVBXPF3g/IaYpPOqn1fvodTFfy1VlmYupas8AGcZKzRmMHIzDQZTE6qUtcPCJ7nmEnqf0k5A1HgwwFr1S8fRIVRdaqtUVWeBhUzQZXSvtk6/kcT0EU7XqyjbaDKzNMaPGbBSwBleOYJzQPDyLCzmXntqqOpndzzX7MeNor46XhFqUlCojZOYZBwuypLN6ZXNVsLjndYYwxalKBOSaqNji0QsxgN4ze+Ldpj9rcrGojNxpMi6tI9Y8iIYx7/RVIGsZzw9lZiKu7LULljWy0AmDFuahizkk0JfkrNmVDyzcglW8QnVyH9RlgPlnHKRUTbbR53rA5RT0jghf/4pg4DiIZRxZdG3QA4NsIUJu9Uc54S98RYku1wzDbSCOrD604ySKsfWEuRmYr9PhktU7YbhywqmdDXp1aNoquCj9nNBbfel1i3HURV73gXZtBAYOl2xlvF7Brj0ZiPPsNeOqQnmJkw6S9FuJmEE8zCEKWkomFkYm1sYtzz2AsYrSG37GhxQc/EsVf8k4fNSpas2mRpx3pJQAaUcA9mj5aGCMSCqHg6BUXcCM1xrCwaLnGHvynpkLGcgvPiKUcXCLvvzBiorINI5FkJNRJMtBc/ko3R26Q++uGT4lBkbzWtpIFm9LEciIpI+ZnK3nTBRDHBZc52Vjuh5sGKfe+SwjjqEVbp7koN0OXVgKKPwI2jObtREmSiahRYkcTCN+c9Ksa5ncwugEkUAe1rPaSsbYAYGRmnmUoLzhIA8xevpL1jJOjU1kgx8UfiEiYkENfbESH9ZxPeyRidAlbPQIGrRhcfDwpzIazGMX7FLjh3vEdCqCkj+QspEAMfUlX0Hk2/GTLy5Xg8iCJrXeGMzwmVvAoJCTLxL04iT4iJHVCSH6y9qqKILDKnGc7HAayxrqFvWim9rFBjv3qSrG85brJVeOmmM4efIFwm3wMeLARL7kUkSdYNOu6wWKWfW3sJR1aJ3XR8x2ug6+SC52KcitWpQFgHpxrSeGEHkg6E2QGIzViyVw/lPxBXaesoGBdNRsd1XUaJdtrBNBidwjloaipJ1H0KolimCuSiDqaG6qSZDgFeOnBjEA6XmwAVAAaAuRLMlOV3qe555AxlQEkypxxZRMzKgI0MkfGXzDCGyUsTJNAbSwyMEodsbQ5VIgFdz7KSU2OIVTfd6CcZC9AXHKzVQ0l50SS6mWjTTC0B6LDL4WGMMgmlynnNCZofbOWAGcKQhCej5S6QBAz4L85HZE3FzFX5yxd9TykXsAWQUMOmuc2/rSHWftjmpMF0mOFbGl6iFyrejJ3OM6xghbgtYapQc+yDvU+o11N4FvN6ktmzUXwnxSW1SJXppdHLv+sIEyd7RMMMSW9SVDw7/EhbxA3vPMRfOSb1Hom4YptSAa8eg4cu6HYjvBxTAj6OrQ6Zn2+LOf6enoIpqgxhyGFR9r3w9teTzlUVyCWxZvpDkq3WqxxvOUCqgF1jgN6M4pbz6p2Ptq7jpfBHmsiGmxfWlfxzpBhRdvoxriqGFYHKP0NUyaK/XwRZbmxcXicNzZFg9fnP0ybTPO2W0MK4e9q815dlvitcaZVZUl0zDOEJjovQza7Igh/ZFIURWvnpDkKMBQBQybnLYMQBhrveIDsAdaQochCKywydx9JfcrbcV0cOMq8fIGUmn69ZWCWqzeVVx5F0sVkfdMjqaRfHgEjHXPwGvRtoBabohfY+6BtMWuaD5xBRh2CJZ93uOVZoCTtLBchi+RVajUcuoLcABD4lCY4+EalkjxKQhKp10bGdolooyrbWi6kK3F5vw40xBjqLXakYsrEK68cPZj2sgpVNHuDFtkiJs5JkVOZZYZW4tZRQAK8y7oE1b7WJm7trRhJBpCgz7bFo4WsYuDAYLlsgyHr5l0e4/vOkMU1mJ3veOvcgtcnE/2BaTkRr4Tv4VPteJ3mqE/dEP+AUpDTdvMMw+kxV7KYiP6YnimEHbiLU19CYwSN9bcDd7lFOyNazeUfXUcLUkEEb+2PO0dHblhY3r3useWvpuL7/1b2p93EA7OIZh1/lr2rHpAyDOU6e8S3EYMYXrliH2gpv8tySENtVXT/ZD9byJ1YwuVuPugl2n3rJH2rhj3ZqsodA5HAGN2TH/N0x26QWvKirRxThfPd5KChUT56JB4XSAk48F1mZwyyMXAfLzhIJpptNvMtpliOAIoCOx0tcRC4qSPLuqKlY0wkElWKkj8G6fyD8W0ZhFOwLjRj7xPmgVRMj/3Rmi4s3qPdnJffBHR/gSuGNHQSQEHxeo/InHwbH9/YiPr+zDCAVWJHYdIPWlFDKNqENa2WWcROBPOBA+lnMVT2lgIJRaH7mxYaqBxRDesnQmmitNtvuyyhZTI54N5hLAwPKIcIdZUG22sV0lTtP0684SepY+DggJyBDM+DhXFrFHXgela6DS4VrpSu2HmLZwVtWR6YYybK/egPUPo9oLRNYot0SaDFWrRKaoVVnAeF8r8gHb4JLRgiU3vQJgfPEChG9W/QWmDYhLn1T3W86biGcHguX9vwc9sYvWcSSmLQUrHnfHI13XyjIJz7Qrl08BcbDboazsEycsSKdsJr1l6Z2hZHlCCMnPXLIuz7Z+4PK9C8LSFLf02cSU2eMLrY+YYSMx9hDB2WthG6TbqnOsHirscTJJSJ9IAP2tB2h43GZhDX++IEAoQou4Pe8Sy9xxEPcvOQp+uh42c+5YJRa2usGWf8A4AsJR1mjjWbJbUMgLo0pEsfr5iKyeWHvHGR+6qYEZWKMvxZu3Siwma5Z+K7hn81DglZfCFUhuDunyh2E+XHqRv/oTSRH9+mGP88A/I1Sr5cQKQMbIhIC2jUTIhUPSCDb8vFNevF2nGiIABZKFCfImQ6xopz8wFRIEYy52rCgEYTjU1iJP9k9l1mFhIb5YxzK0VkuJtYT3k8j7I0nAqFpZQKQsROFI8QqwHh3ga8KhnTX6ayE6nqoVBmbTSoZA6k2N0vBxkwMG8JVK1aHxq8hAtD4sB1+RTFaqROD48VIkj1H4B+n5Jx8YpJ2qjrgM27alU2HNNM9zXl8GpixoxpBOl3NARwAx6CARFNWZNR6ELRTtz4MS/3AtN2gOwVHhgJR29ehMNvLIpTgSDTnDa8VA4T+EZLEThICl8dBe6EPahHDgMoFzVwZiDeUouLvUk7sFGXDLACTm9dBEJAJl4eOLBmMpKChtrZX/oJdb9oEN1KrzFEpPrgozl1yIfJWtavdmRcOAqP91ssZ4LkynM9cmhWPp1sC4KOlGgHfXB7z7YZTfPVTtEXhvcpf9ynfXT5mMIUlUSU1R6FRswnCxL1y8gjHQPRc2E4kgoFbHzOZOHBtcudQD1KiTusW8HVpR2MbgmFUCDgwGlaOHJvNyDW+0q6FFF1R9a84CoGtk5Hn59cH7yjf5URKEmvw1um2QwO62qkQl9KljFMVMqGGD5VIeDCBpchOtGq9uSaFAgkP1eAmcmmev0YqCTjRsnGf/6yWQjSoLAJM6qBkmDjgYzOz3y1wWo7cvn4nQhI1B8WhnAqOKQB7JqcMxwAyUcfTjSFHLyD69J1wQNQaYgV+lKYzur5Iu2/hBiRphZvTXyMhM1ZxRIimzyGxE/+RilLSvSXDIUkepFgGJYm/iLAQprJ0+qUlbt2Ridyx3Zz1lyIRJinifxlCvMSqpKyc4aTEgYYxMjK/TECYlaWI74FWA4QDDGQA4ffs5VKbhFJnri1X7XxwAAIABJREFUNdSUGzsmRAlpJwRZuVaPEkRb3tBpCCqQZER41xAZqF6WqHB/YkNm1snnifUIrYWqgPJSdA2Ch1sg90B9EYeghlFnjdYkk5W8lQkS/wg0/PSVlYL27XaqKNQKBHtPKoqWXD5yik97SR4DeW34ehqpVIcimMd0fup04cJDfu1zxigv81DQg7Xwj/OolxKrzsIQIBRW1wE/JNWl4OJgUuaXzfn11MpATpKXkypFF0o2XBMwyG2nVOi0y4xzvk7cq4onLY5Rm8BAYHULHK3Og1pYFEYfmbUSwmKhaIEqk0O1L4k4+RM1EzEHpdJGkOpTohAFBGTl5teAkhCHQ/UxP2UVJQu0KoI2hgtLjPfAGlg3I3keB+mBkV9GRsLPvwXzQozz8poplLj8lBLFPk2PS6fOGpxXXPMEF+3grjAuTOzXfccm72CAOfsRnCccYoKP+3PNlOtAAPPIR6N0+ooMNpr9iAQvcfSxfu2BINZlNuVkVOXlyoMMsiGYcHLQyPzCSKZurqwMuzuWX1tbAIzHQw2hbFWJTM1LntmV36uqsd17UVnjSVC1CGZR3iBkPEN8IsjkJ1ZURjA5/6oIJkokwcbJz7zRYyahg2VRrYVRU1RHgYNjHmKUEyLV0oN0SWCIXbVVJ7R/UpicPdDegiUJZRzesVWGqV+VPNtxD81dYarNdGSABLB90NXAKhpLVTKzAaj6vQkl9xeWeRxiNu2PVaIIWpjNNVJpNYHLfqWrWog3p2pIj0ggM2vUX10SLkpbgZFV8JqonkIjm84Kgx17FmqkQLYuy0kbOaBUXtUNnJNy5d4I5sH9kYTZHSOoZGOCpJ0PHYhxO1sfGMM9wOE+BEtePEyMfI6hV5WmP4qHMT0AXjmy0kVm1ktZ6Sx7x9xXHeSgorwQXKxq0HOrGuGHS0ObJVY0wxyqBIqlzxTqrJIIX7z+WlYHSaTnRSCcyMJgQnVIKCwM2lOl8qZgYwGuwvHiLAI69VdVKn5gO4/dyu3ruZ4X2rkfRqqX5h19cXIVwedSXVUfg3M27Uw5gBCn9yJuQCuN68c5+3eJyo7tVqyeTNbl/mpggUDYeg7LYxv5kHSEcUdRFOdaycjanLNqGi4I5TQ30awTvCqee/cRSfukk5sRjxFLvEKKh3JwSsc47531u2byEWcuBjBEPicc+zQVcNyrQA4dABKRRvVRTuWKBMw6NW2DK7lSC6n5EBx1KD9ATAYHqd2z2jFT2OtcjGM8TsKaCLpzSGVNclascjlGaZSijOEuHqi3x/NAdzWoHUmrwaFOMYMRRalvMnDzLLCagCA1ShYC4ARBuCRzV2ULDxGwCkcbDy6JHC/4FeDFEeFgLn4hMlBbKB4Tu9WzVmZgPBcHKBdEW33xiZNVkKvgU3GCWaNrFqd4cVJgWZimRKakVlWhXpATiyWZDS72tiG94YlecSyNyJmu+JyG50ruCoJXHVTakedvqacKN78vWuVDnAaN/KwcR2Ep5AWKT4hK7n7k9dNFpijgHnvjfuoLZHQFOPD7TZ8TOafjcVZ6rpRmP6AiWfT4jeLZcVpDUkaXgyyyq1J6lEdCTiwEmJQvpWIUBb9q5VlCrXgO+/VgOtqqLwQDkxcgB7s3xnacy6R9PI+IVzruXw7RVZ3Iw5qZi07WUvg8D+PaZGx6gE2KDbqfQ/pocXyRMsI51RiGu3+uh3mNYM/cg4pPZPZNXbnJ158DEKjmyjOKAX48ERXI2rhPqqoqdu1EtTEHa0pd1I3yeVCSghyqvzCExDbsibPBzwlxOFgL2PXmAcS8puVnEu67MMJqX0pQKd1p5uPzo74igDFQxaM9UNYORCYfGzCvDXO6Ftc4Wkhe1shaioyZ9MaVOkNrocLd8PBrsGuSZdRgP7lYI3PmyJvVwVM+Vad4Ir0TReEkDcUyE1OnRnESVBthrvBQyjUgG/LkOeUOlJ8Oijq8D9llU5TzQcyuDUct7G0F642L5LIANHbg5DBUslq0bcry48Q9WHE52/lH//mfNgvV/+/bLz/+v3/+5Y/+840PJnHrDHIr98BHK4NSWF9nQBDTskkFuMXdGGlyscyXYwNGxTouYkJjj7wYYMwW6Oexp7B1i+qkBdBiuy5K6SbzZcoLIf753BNG6zh4xaomnHCBjAtzAFqBFfi43xFjwdmbMYk75bDNi5kRMdcWpiGxA9D4Ky6Q6QEYRfe6GR7ckJsQca1qT1Ao9dDdTk5y+3lJlniyJkPpoYLqCBp4lAZ1YaKiGJy4MR1rTBnH4md3BA77VRDxqN8R7kQyOKblTgl0OLxoCyP/rGDBLHgT+IV/kvkyBZCvWtVvJyA/pHo1M84V20+3i8vXQ1hH/NrZhGG9FDZDKJnWNp2DZ01Vg+pdsUYFyyyocFyfFXvhdhpGDUkKgMJOvuGnI+b0rHT3KVx9zVWbApREgPm1MEhhT1djm1zvsRSx94AAvxGk1YPM1VhfsFJwqn39+me/+vLrP8bjj36D0LlvXRZuUJ0Zgwcd+tv3yTg4y6TnxQQKYUq5cCrIENSFvMCMjWc8D3TK5TPuS5akPMhZ8SyBzmtnYWF5wKq2VFH0vjnaclb9yrGdfvRP/8RM6/H1b3/65VvYv/7dT9yn1T0aMYUN8DtUr9V9jHyJX5SP8Sxo8YRsPrEDkyEaSDkm0k/dwN8IDp0EeUqnhRIZ95VksVG+OXR1wa7wWVWQM8duuWLH1Rgo1z099Nzdddj99ZPsN7mW4K7cxcQ26xkWfZFBo0FptlwBwuwXHwkjIdGBDOOt0FF7jpH8JvKV7wrvWdbKtpwMHdSO8jk76vjOuvnl4gn2HkLyEdYd7uKs3L4gRo8nYJVGvmlOmnDQE9tE3Uk9wv7lq5EkBZliYmDhX6i0rH5qNsZuS4s1YjuHyea8UVl3s2IGQaUcegnJP6tcEQlLZavXWjB3vqvtvr6XHBdnqpkODvT/8N/+7Ze/++/+9stvfvZrbSco1QBovpTznPXaxpuVDEAE53WUOA9RM3Z7rlbZ4GZFQiVfT1I8NClNpjMNFehlsOAlE5WlphGXeBoY7KPjJkO81xV36Cl/Or/+3U+//ISPzkCZR21QYtnikv+Nk2ZJK/gCfyB7MF/Ch4EBVSvTZYYN/0uhgh8wFy4lKHDfG2h63XF1222KAHpA5YjrGkdPAq55L3Er3HQbaFOvKZ8sd9zAhk9VQom+0twHL9hFQXT1pm2/yFegtdkj56V1t8HUzIOlhKRz/FvnjCvnGFwJS57FEWNAz+sS1mH5QutbuwPDf7mexfNGDeFiPPBMMz8m7UlT1DI2ZQwqVEFe1gEYgiDW8lLcX8deMcdXWUSyxgYxrdNyqW25dlwRz47AGcq0XqPnxUtf8jDGUWsE/c3eROJWNVyrdeV71kbUEJ6wyUP/PZjWoBbEolwRHOjf/sNPlJiD/dd/hKHeD4QoKqHdB3kxU1nyGbxgKj5XVKlLjjt8cFrboE4Bihl2sN+RGLQVvTCHbjVu2v330PvGu8zg6CiA4l1tW45VvQsIUbjXiJFyMz+rxZPXNKnM+8B/JborsqHu3A/83fyD0iP4Pv7e2vO2yqf4tAciivKO4842STepl1b59C2iDbaqd4WtiKm1BArbY63zxdHS7p9MryRGOVPy+YtS2jjdcRu/v0AsuZYw4mNw7NSXqEWZ9TXz7avG9I+BwVuc2+PJvoGrzFSr8oeyYs3oZ2OyB2wLz7HMaFg2x8TMZ3fiIyXLRE/2+IKtFWahe8gGiZo7QEL9UWo8WW9Itn3MehLjldeMo3eORtBERlGdR57hgLo3nLFFn9FkSwW03iGMfvaELVmiX9d7BIf5H//Nnw74333xUHdGxkDidc4XeqmTJz/YOCpfyqzYwQzhxkR3GJfwHrfIVxJbYs8a5snqbk99r2c+Gw2z5LbydXFTWQxrxHC3ugactjeOge24GLN2X8nvoL6Jmk+GnC/4b4M/YiR359/1j3A9YdmE20bEcXXG0kt7on+v/aNcoxUQ3vcC8Y5KsjE1JErWii/V9TLz5h9pnuwAXDYbLF8sa2cxDb474UJUoOIYid5FpthEUslLd5HW8pQz20quHdeZw3hjS3ggWmHc6dKn1n9fBwb6fEu27kPAiaPEFzkfSWprGdsSXExTZ+S8NqZd1ONNkVGJzhp01tjHmrJieAQG4PY52x48MZLiJmd4I2P1nuLYYr253bjo+sFH5EiaxfkDlLWirt1n+imG+p9gqPPxk//ou3VvOPh69vTGlDY/8qlTnkJmouyMxMhSOuTQDUwhvfRgxAREyVdhYKM1MtQrXn7QbSQhygkTl58zUL00yh0v1RQIH839ATXHeoc+45MvuE538QnU8o2gG+FFihv0NCkOp/FmbLquUpKgJopLb95ZZ0gDD2XsL9eR9CXqY84U8rEo7Z8hCucptfUNdW7ag1lFaO88int8jSUMhp4q5lfrI77V6PhsDtpj0LK1V2lXIPjywhDq2uKLVP4SNC7onjJMqZd6cFkbpode5OC7487W/T0f7T3XHrvrE++o7qfcubuPcfNYXqTKbL5ey8RbCj81v5i/Qu/RXc8neCyXL8vi4SklZyr0IMmpoWWOmFjgYhrhF8PwSLj2owVQDHc+VUl9sZOlQrib+UalOSjq6EGxcYU9vGVuVXTg95JvuTjw5Ni9rPEbfez+x//ed+q0/PqP/vHLr3/2G5TJWquMfPQXHfsYvwrIPcHvbZFhxgSusQwAddLqaogCW35zwH1NFNOjy3hx8LebaCc/bHqO4JVaVxdk1sDXktQiJoeMesWn/cA7AIyTUjakuTnWgd4BTMKDHJVQq4x1Kv5uepIDzRr6BZ88i7EpCL6Na5CL2GKS+4J5h4Gx78p9A0zc987/gwlqg+HJuu/7wU7zrH1KsyPZdFYTK6444+E1qS8bXdV7AVd9zb35i1t1MMHv42i83kNVpH0k4Sgkhra+8hVM7xZC6Cz2PMdWFYARvx8VF9ctjY2TJyAG9Rp27uh4EVPwE/49HOHqK+PasahdmfV6D9EZ23HU6Yt/+tR2uvdDkIlb3eFZraFPqKOJpZQ1Mbtue2e+z17WFB7q0F7We5bZi0vALAShen5puaXZq82ebHeIz/HctuKhBJvnWxLfnf/8y68wzP8ezt9goGvAsU70VwN5SYBXGfhqlIpOLzm0oSANYJcHAwWO6qAp04Qz/kqrngtjM+zOTawiYSCWOj36rY7oBOMQDRqrNxvUZRV61itCeLAB8tobpGOmViROuv5/6MV9XQrMSmtfwsR8DbhalgLgvsQGkJUUF9CV9/dpuUt/Z2vPirsNEHF9K6yT+m08nXdHI/lQ3B3Xe2zJd5OsLvGqf9/JvlMnu9CUQRf/i1x7qXu23f9R/d18Hdg2ky+z18+mvxT32tIp0aUHASlfEDG+tfYiiW3xEluSHfoW9Xv8eEFYbxxao27i2Tv2LVVaS409tooNcLhiIPkwbpl2zI6jjisaS0dSnshV2xLcqjOW7jBn7bbIjuB5vVrSJeLqCM2SBEYFL8ZEPKwh2t22pxYP8+Kla0x3xtH+lDP2mzwx1RDR8AuctC8Ofj/dPyDngF/97B+//OaPOdSrczDz98l5Mc5fF4SNQxHm/MokS8gNxbjr5oXgRrZdTR4aGcNMhPbfLa+t6Oke20Ov2C7uj3/HF0jtz60sNP11aCepn/kEyRuEScWQUXKCa33xT79uSKqpGGKr4wb42jRih/BA2PK9ZnzwpmdYe6oH9KP5UgbJOmHXuz2MqSP6e9adh/qlkPcQfRCz5x3hTJ4CnkDwN1ePEE2F+xIFUFflSPBSSOaXIDqVtBUxAmgbmYf1QwK487p2l+F9XIkE2Xg1YGTtsJbXXPOLXDhvbXIMPbkmW+qn5T7VvbUxTLGkkU76W/EEGXOPpLU8LDaP2JRjP90zGRW+K0YvuLpg1x1M9muMfa2vS2jL1cRZB6RBOTlsWogKGBIz6CzwjLXHuN3aokp0pmnfc6Y8Dq+wmdtnRsY+WaYUVN6eWB8REWoaSSXkjYO4PHin/u1/xK9V/8NPR5R9rNlA6qzfLy+uIV9qvJxSHQN0l08nHlrKqzepDDWZrSCkyR+nKwlOOIgZhzuXNwv+ekOUBa3kYIzWCEi+/movdMW4WmN5dp1KZ6PEnJ4HOotshSZ2mIYQqg+ud/G0dXuXG/2DuSGaiMJTe7O+KSZHj43tEtxBFycMCHyMvcN3GwN7MHONfN3Rgz4oD77XcW9mewCMOzj4DVk28TqpvA/Ej5HXDTljt7/Bubk3tTJ3vsdimiMsWekCR1cbehUJyoOeJtcLkvDhUmk8rTUO88qg0PUUotXa+cK+ZiA+nj22e65RQmdbe3rB72N+4Nu0rcgqYKQaQsOttr3UBrTILwCGjLA1ojKOZ7SP0yK4UM7nH9GDbiRY8NO6ZwpsIhpZOYtckJEogW0NN03B1QCEheEjC6/XxbLrcI8jA83RvEv/k7/5+Zc/+fc///Ljv/+xUnGE6vvOjAG36DEMPaxhq9JSFXW9JgEzbCUNvYoVVyqnkudS9dUb68LKBB7lRYzgXOnASd2gwvy16lMF+pk4D+Sg2zy0G6wzToS5Lgjb8TzQO1Ds00DC73Oo3hQdAnLvRxJsvj10D7vTRYVTtrBR3oXIFvwj4A1Hz5PtvBGyulNAEWkZDQhjz7KG/660pExGd/KGfQIuzuG6lHsxXGKnIZVMyyKRKnQj4Xze4wwk+sLRlQmUdVM78gPyA8uDeRK3DS1X8puBpkA471Z8xzJZnyXyhpu5e35rwzKExpbQZrK4gwPMCpReabfAuLMONw18wYyD/HuOAV6Fm2YskYvSQ7ccSD1fXKcvFS31DPf0knnVBmgmpYkovbBXAIPyoBuHeGYx0ybpvSexTLBy4+S/Zd8wE938CtSz4fEEF8IUSVe/IAWV8cI0DYPly09wd/7zv/lvMNT/9Mu3f/+ties8KqPAoU4CnvCoZQqy0crDa7To9vXzRBBjzXtVk5Klwyp8vH2ID+sQKfO5k2FYEQnuZqMYr2hjqPX1D8X1OkmEoJhE9sETc9abDVf1REYgjye/vc9nxhVHqAL+vpSJ16qNLJZV2fyp4WO5axMtaKN93cO1IrWjUW1eqBdyQ1I7tbfjt5oTnPUlgfPdn0Nw712s78hBtnfAjNJFn33VuiR8W5m5+KL0Yi8TOEifMr7cw4sUJI77Jt3IO4WgX1mmT9IgHkIDzB3ZO/kpycahPl4oaJyYRjRE8wyVAXj0mK6PLDOgmSTqFFYq+7Hbtm+BML9SFu6N+smulEvNLado+h6aL+IoKTiuOXjV7TXGxzUxsYFM4WXH8J1sScR1WhPZbUYyVvfQE9JDex4hOmdyzVBKP8Fd+pf2++n/Ab+f/iv8ozO+ZBo5RGnztBItWotb7KXcuYeNAo+s1nIesN0/HYFOitGGe84ZsErPA524JMyaJNRjW/ketYQOQAxZh+N3ILC23/HRKVVyNzBX78fDnhLy4N4qDvrOXL5HojgeOEJJ2BuQQK/rTWBMSY9VYuxXkndbQvnugN8JcC1cL4s0fc9irsO8Ed2+6Df/9kR1z7LVtWS5brEf2kcYTC6tTDfpcE3BmZBR3Ezol/g9cgtY7tSbT+KMnZ7JP1IO4epj3MUKw+RL8NVi1CU6ASKev1JFXD+SOXZ3YyJ8J+qsEyPSqBMMqYz6xIHyCpr3tUvQjZK6dlff/8q9I+/1PabzVQQhN5+Y3PElOkP91/jhuF/jn4XlQL87hPekb24lHLq1Yu6uIQ9hxPjisT1vl6ThJL3tx8xBTYqbi21cgOTiMd6k9K8pEuZRwODf/sg9SNG3U+2/WV6KCw2VPO6iUuzmWzg23+9Tvd3qQ41LHTd7vOVagppyB35P3ofmXvp3MbTcN+IKvyuuEFzqMWIAb2YA3rWRaxV3aa+oG8sbgS/L8S7E8AbNTWLt23bf6UyKdAdrxIWALwJ03DoX5K1SifQpLFM0mlnDbWQZieJjrUH/6EiZ+IJz4boYkjjrNWZ6tnpSwsJpZTEpjCx5bDxLD40Z8V2gPPRwcc0RG/XI5R9x5UrIIAwgSbg6NkwMCcpStMQMUsfGPfYXg6+claPH3snJkTWY2l/UsT7ZB2AIfX8yXgwDugjZTYz964FD3f/ozM/xj858i/eR9CIC3MK18nztw0ofhqNc8WdlEiYUCIuS0wn8KAQ6/P5Tb77k9AfqxrEGxhWxZLHANo9R44CZNQh+bYVPkNQVwM365kDnPvIY8WNzw/L9hdrM9yd4EXkp/AX2xuXwN0heuTcf1ZdH8FkJZn/qoXdr37NfnfJlDS+cs/4U9QyeWF+UjIjN69scYU/cvBKnJZjrRTo8Evill6isC+JVOfThqMXK7fmWWUjH6kt443lglZl8fkypJ77LV8h2h8AI08HHvwXpTFeZoBwJSDD5yvY+shBhTScsZfdmo3b3YHiQWWmpF2a633v0vkwqR7MIHakh+nDAUPvWSr/fpAXptRP32BXlHUzbHXIy7TUhrgfwlb8GCxnpcncmA+2zj9bGuXOx13vYAlzAw3MnrG9h97jsqfJdct49v96Zc/1WP+3OH5T7MX7yPQ1hG5yJvP6aI95z1VcNmT0srSu14DjhGolPXgTqv1gVgcm9Lwa4EnWbOFahNxZMWL7xNQJe2nDyyjwwIEg/1AecfiWu4rQP4QUBllVbltBwTvzly5sDvfhGbcVRlX5sCdcl6tExkWrUVN8tjbgq/FL/xTCpXda8IOgh3+3x6LhF3xudcF4IRO28XQ/+nu39VnJ23i2yu160a0R1fL/wCJDvZd1LtDgX+G0BFdN8K8vUpjTKvRdeAJWm5ZoEt0a4+eXvP8HeIruR+f1VTyFhTaJp2gcgglzbJmBjFX4W4suawKzh5ppHfFgTxhpVZ/O9IYY5MOu7NV6u5dM72m7/qEyemY1f2frqfpVaKWacM3Y9rw+wjT6kx0R3rKPn2S/QRPDIau2qx+61oTV9PEzoY3Z7ye8cr+tIAKMaL7Qc4Yv+ntWXSCK7luj0yb5Yr2vqMpfPRv3kH77FD8j96Zef46fe/QNy3D+eE4ASlcy69sdwBQ4gYSo9NblHAf5qkQoMYcSMp5nBMMpGUTzlrzyE+LA9zwajCPEAr7wAG19RrI+cxauFCLmZ1Ue9JxDszYFeMclk7mH8PQmptNHfmJr3hchAPNyMF7iXLmf/YRwvE7x2VuLaysTS/s6ivIMZ+vuU0q1e3vJanJpvi7o1Vrn0vfLPXa2oefFPxC6lKNul9Q0UnLwrcue502c1S+zOP5zlqBcFZ7TNbwv2wJ5z5rpc+HgS3AliOq7HUx6FNEe3JX6yNeA7xc7HkF1/RfNU+xNHsycUK63N8yJhkNn3Cr3luDVWXGoYNOZv42N4/Dy1gMEbYV/nM5uoIBrpg0jkRGtwgYRvCmgP38zwQHMxO3JlX1JBIWZmmBSznl6b/fbxDl2/n87fTecQLBp/+aRurHwRol9/aHe8BiJjECBbCAjHHx40SdLJXPpaFBaSALDDn/910PiZj+w19RdOViEaW91tBpdD1Oq/B39qEjwn4vF4/0Av/sTXPof6OxFYFA/32fIPOYfvh3C02IWuK5GztpguvuHu0Lp6ytQDu7xGfExjj/N4IzIps74Bv7jHXOoe5X5nAT1O8lbJ8m7hAobBefIFfEXQvx5bhuEcyCEM18eEET+ELf6ugv6lfOcPRfm4XGB+0WIv7LoAQlIr60uNwPrVBS9gDRZ3M71X7Ox5nhxbpMyjXEZeU4UhnuhbBboIVxvvfryNvhlido5RxEogLXkT1yHdV/akGq/gEzNcjWJ6iz8gVk45PDWViPcbgx45guQlUwXXGp0rj8TO68289q5nFQHT00p0+NZIaSmNz8/Nc+SIxAc8s5Gbv8amoc6ffm/H0hrYfc3WTuQEn/9ioYCvCjyYJV8lg0710c6DWCCg6A5aEWWnlzyykYkGAsGrpXpqIhXlfIDgD83UZWNAcOTBQURMWe3x+V0DnYGXXt+xdeYb+WWIklRQ9eGG4sOmUGUdBDG8LGqg1cQLlBzh4XoBzPjvJYFTlJ0XclJ+lJNxejxxDICBPW1y3dni6ysvTl3AzAVeUvPIOrXVYvvz+YK+XJh3sYxK5N0Ouq/8MXG9C7lLM66Sa4C/jE1K7xXRShzcxPuL3CZ/MU+WAbwKy8R1Pr3mqw/mvQZ1y1ZhFd2tqgOGbusMll3t1b7HpSauT4zwBbYR0vzyEIC8K7e0x2toxd7x522RfVsVyckvBOaVzhMeb1O/hqRmUYvY9CrE+rx2Kv9gjN9Vu7C9oGCydmzkvu7xHonZ6M4yIlPaMBB5h57AKU3kt/+J/zTst3qMbZKzBrRej6C6KvOr4t7HZIZjvGYJOg2zMnxdDpDr0NOc5ACKnzVkPwwuo788YSgbFx5ZKek1Qwae8NDiVxLylHVZX//amlKsJ5LMQlffe7R3xW6gqMzNg/pH6kgcg/T8xfABkg9AVePT6cM8COj7j/zE/8r+GMui9uMRvAPfr9+leX/0RK49bKyPNdNh3Bo7OeOfFsTwC7aOR+oAxjpjhgnPoOPxxViljHk7hInueR04OafU8HeigLNqq35zUCWM62qGT7xtjCp0hlLr44zrUud4Va1fmDp6siRvvND5XETNWgGvssygyT5spNV+0Je8sHfYrczkPWOKiY0rbF0NT6DRb9cEdueeE75cm54iY0uJcqokrJrizHM6dAorJhndlviy9kDa7o9k796FYVE6CvIrX7l7xLf4J2F/jn9o5tc/+9UX/b/pWO+OXq3k0ceJ7pearT2q4abYYMbeRwBWjsW/KDvpg/4Q876Bvj0z4drMD5lt3rHkWGwXAwB3tsqyxNIWQ4or3Fji79jhfFvo4bfoB0DML7ZySzeMJMieiuz7cKUO8s74WJNgZIXA97KrPeiOepQ4+6iGAAAgAElEQVR3cCXdzY/xN46lmg8RJTLrDfliCnnWm7iYAlF8jAtZKTXAdsiikwyGcJaPS0xZe1hs16wtcgNt6jV0WHqmYVyElgX2t/AvMndXXmiXTGAvDJc103veIGxkYODAyj+xmX1k3dG7rlLyhqyKcWxjqHr32Kk3rIx881dkEwRpJ4q+xjvS5yAWGinP/EsMlDHcsk/ErxkTceU0zva8pb3UspA1jtBeAubz3iH82P3L33z58isM8jzkD2UHjx7QCAAvquHnm96hGAnI7fs9NWfDIiIWpo4sopweHQDs5SRmWx++PN73PXTmz6Pzxsb11XG3qTubknSiBnorRw+7yMXT6C6Q35chPfpe/ChY+2bheKT+rN+L01QV2qqrHEqiBGvHX+fcvJuq2nfbB4tneH98MPyD8PTF623pKeadzOlm1vFkKr7I9kRNT0V7ugaZF8gOal+9TzwzJIhR6XRJWjLe+F75N/iiIq5Sjxcrvor2V9IqKRm4Wp6fPCyUi7LvBzq4h5WClGFZoqcSf8Xmk4uqM7UV2QwbUqrmGq6s0zLg64UyzbtEiknTvMnXTO/gzBsnQeem7lMs1jUfn5mUlvKy9opWuSUcjhm1ZhiALz/5T/N76WJgiMC5NYGhaFSXVAJoLEfvDS5EWvXUCmJMrs/8GhlBtvk6ZJTiApTGFCJRTcUEY+wWrU9bQiqBmMStDbaYEt/1PfTBUkHVo/FcP3CPbLWNob8UvNMJ2fXpWaV3JHkv1Ursa2K3LfobDVC/loCPKR+r+yFb1SiuvVdv1M9qX9eweTf17fj39WMve0Td5Bu+TXjHVtcIBIheyaOskLc1f6ELxwL6kLoEv66w9+CCpFP8tYpb1b/1BFYVhS1tXfpL8/SsNfTqJmaVnjAz98qJ6G1PYXBE6y2gkyVZuwUyuMSvU2Lzgs+Y/f4sPPua7Fj5qqtX3hQarDHRrquKKHPHdjvcm3rlKcuGMyPPnTvRG7jMQsrFkzFhuGNx2M7VI9YosYY6a0oa6xrTc8xMdxj/s7A/ru+l51nVJzAqab65kFSfOujNC04ZxMrH57MmuTPBC32YR0+Jw3WERz7pcY3Eg0nXBVf8JR/zwCYXE5FcAc5Ck/+VQRlVguqySveMlbaengd6I+ghwzyE7r2XCX0X/A4I29zqPf8rq/KCQM/dTkR9t70i23wjdAgF2HSq0/SuTmyZHD85Lu4ykHvNFiSvq0v8PTQhb6xv7GNLRvQbEY/5EmeOYur8AdxkiMtrxT5munFUj/glyC9QfVHewN4ykUY1FN8F7wIv5o8ZNhKq3dRyU+SR1RrPPWBau+SRxzOwIHgd8dp7zZ9Mr+OC2rOvUdRWC+tVztQ9CqCAx9CTIRwbj3jtc8juv6a+kidZciRn7E1/fAEjpuPzJoX28KY24jo2fmLbAQjTJap5JD7ZJ66ujUv+ibiXUs/bGW6rQ838XvpP+N+r/v1Pkd08OnPgIqlkCpq21NkvWmnkYpzd8MFMDCHh0ZAuu/7LUw5pxhY5X2spysc3AaRVvFAY0oUHSsPagUT5UQtVVaNYy/5BPPMAfDmu30NnJXd42r/nsdBVcaJaHO8j/75lKNVd8J2tlfLKPXxDqMBNpzq3OqWW5l4MtPHR1NSm0ZOAe7pYrxzxfGR9X66PMN5h170S8ar6a02xeJ3nK+9N9gXEWH7ph7HjCXy2d5qBBNw/iMW4iuXSwT3Fu2UQiK44X8Tdp3uOi4clfqzMHR2mh+J4J5MjRWaNXesrnsYxYmCLmaEKp8E8csU/Yt4WHLLV8kgWHAF8ROcapn6dwR7IbSmIcVh59yv0ZfAto4zFmWFnFmv3QUsRReHhyALlvULuqR6sc2c70dyjfoWNP/GOB60cyFlNa6zf9oCHA7yK07CUDBuHNINZuzDEUhVg+mAijlbeefsNP+NhYIBWcDAcsu6+4dGwh9N37VyJZ58IMpcFMcPqlUSSxcuY9bjeoQeYlXglWwM/oi3hnbeTLKDumHKHPNFM9DukTvgAf50HBP3F5w2O11wPwWW+L/XeGiZ67x7y99B3FNbh4X/v+v7YK5KlXcu7Wt5by7sjU4oK6MqWSYQ7K/F82O5zbP6i9WWzxSXNluJtNdwPyOIdl+qW9iHq1jw4kvKx5jiYLAmzxneTYiQon6A49ZBOeUPxpqnK8Ivk/BpxXGp8k2UAzNMLpGvXB3wTOi4bwws8ULeVaMhs3gKSyS/39pvZ1n2XaxG9hp535uFVu6JWhnvtVdTkvo/drbXJ3Sy97REi/413/146/n13+PNPsbKrZqmdaOpC1qS1Z3w8T6RMjCkMuYAts+Po5fD3RAairipcx8yiTApnFHEVVg7ySYSXTqKI0aHnmhIRMA6eAIRaTteBTvfIUNgWH3FfF9ZNCTZmFbwb43yxMiSPF7DFNdL0PX2Q5Bk+2JecUZIyK+2vIxJ5v5Kncxl1zxjcnVe+O0elTWwvlvA8Cvb2UgEvUm0cEzlquNnxDCKqkB8ubrLcS8XNAUMR/JXJ8FlqC68YWVbAqgG3Gl5wNvpNNMVSVUO0WgDMnBzou/wteorhqUjE5WVxrhM9pT1B9Kwr0i9ro7rpvLvqUhJQVzaG3vE0yhHF6MbwVlinGHJekBuPfLs+AkrY/dlUGwRAErUjtb1R68XbEiW6YxjYdcI33OCmL3VRfv9hRl4hLVdPE3Om1xgKcey5+FYlx5Ri6WXqY3f9++78h2ZQgeDtDQkHZe1x1AeTWYdlUGNiQ0Y81mDonJ2k1R4uHTNl5i+M0OQyn63pc6tTDlxfyKuv3xnO9DfHN1++vom5Cesx1Zcb1LPpNoaknfg5XI285XiKuQPf2Z7in+zieC46Hq6E5vFEd7EngAT9cQEmkx0qqzBTntIlfDOIrVGmjKwbfFODWvOl/A38qM70U7qC4fsoMUjWynZWeMdXzxvkl9JiyLpyT2tJXKZxK+xa5W6xvpMUIZ17AMuBrZv36NXLgCuCVh7myQtQWLMac3+uGu+c3dXlO2zZdlhedmcIa+IDyBogsch8URhJ1p2Zdh4MmIeRISmfjMUxaNa4ybBLxm2MO2jRNXOaZTLQ2POOYi5oG1zz6CH7dRfSot8jmvV1V11nr3Vn5kjMg75WWBPHT7vjY/d5jB1VES1AoMr7mD7xV9zOlJzDDqEPc/mHs9DtDc10OZeegmlcns3kynp/h96CA+y9k+0OM8DPwmO/GPLS+cz50rNxjrKH8DJ6ODca219xvPIN1hdCTwh50HV5WhciYvvDzsGwYIeyu5m/1RC+gf+IsHNX7IN5YU4Jz1h6glpCZd228YBc49y8jTMq06WY3L0v4XHGmAoSuPsbX0K0XnHdknJmSPF3UJw7uErazU99DA39pFfceKFPwqwTfS/lDcDMVuVM+HupKmLuw0zW70iCbC+vhN1BZzUvJe7GWQl7IEvaC1PwawHWJusl7MbQmfKZwdxY53/ivSlSHyOXvVPc5L83rbmimRHn8A/u7OKebbUmCKsJF7f+bXf8gBw/er8/EKchGi91yHzsh2zxF6DUGVD2xN6oq2nVErau361qac+Rv/3y9aYXVxKC8Fiwi3INubO8GfJc6R3dD7O9Wcw76F9xvPK9g3q5sKovWnDa342vdHvivHjFnnWNGlp7Dojs6C4P/EUgQR7NybqbSnHXp9ueZ38hR60lbAHDXbk290x3kRiJRy35opVKkkFEy6sjQOBKHJQ9LLBuU8Cdg7Y7ew9OljVvR3TZbJ2zyw1ZZrL7oMHGaYtvXydnsFnDMSPgGXcssBLIF//6PqWzrqP0yjHzTd4u8evCj2nlXZiSTdNFp2tWvqNnYOUXdEfd1TY5J8crCRz6JOmOy3Er46q9Yh6+Z+oB+YhwWwFz5CGyp6SM7gx+XZOlm6ug/Mtx/J/Y9qEeuH8grQK48IXVf2cmghVQdRVmRpW9rk3Zi2OtVyQzLF83w5xrj5DI9dpNvv710Fh20T/lzpoG8Q4p31Ofb+BPJqZIqlu6G2PwT5xv2pF0oaWyGN5kECC1L+gYufJ4wRuogW73C/jkCjfpXwZ05shz5SXicBB2nsa/XwPdNZk+IDFPkShlJ+w1XCg7cDppfQx7dLwzfsDucw83hFkHkz7hU1D5Gyye580wW7IEHYI8j8TsR6sn4Q0SBqJyn2z2eAjucgumvbkoXmNfxdPnCErzoG2yTTukwAWZyS31mAATveuxc73zwVZ3a/bifHnXnHyzjrBORkrBJdeODzprWOZ68YSWkE4/Q5p0ia6Qq/2eDDj1AitD+gDj0KLtcmSPt86BrvFU+s71OtZBuWqt8SthcG7hP/lH3Jnjn4LlvxrHfw72Vz/7R5WuGJSrryLG5HlWX8G2lHXXbGLyNeiks11+ldX3vFlZhjzxzFncxBPDg6/pqUkFbk+wYIxjsMpxnIJvTv4e+muMwkA3V+Cjl/ndy22qN8jecK+5Cc6jxBXw/bVL7R8qbM37ZiiT9YQI6OrK9krbonrizeW+rV80Ye5hsb253vJXFH27fyPcId+nhp7i+8RvJW1qZ++uZLr35+VA+88msw6acAyDhHtrMC3fAA7BIEBqdlVQYrKGK+sWX+ZhVdj9NSNo+cN2fdL5IsiD5zxkuJ5GUgpDKZxZrkHfwyLqnT88sb+qNb7vW1OPQz6pzFuPDIqUdLumTkZN2dDwx049tlrjGrHDcJPtlW/Ck+H63E3Ms/SOHDMBtoP/hQ3/cly+nx7e8VPqpAPeIRzSeOCPzMWjX10jDEaa+HVTrmHMnbOqC5AsBeTAzu+jswZd7QJT49C3dX7aUnXQrsmfFZGMGzkYdz3uv4fOwJHUQeFfXwyuhLslNFl3/8jzAFDeS9D7DO+7o30f1y1KT0bz7HpzUXzDvaE39VUwfa/8O9WObb3n5bQfzb27nnUGtcCUKPbYsz6zDM8HoCMmgnc0Ga47DBKrYDxNPFtSb6htfUnQuEoM21yfCIBYXFG4up5YepaLTVDjO27IdOkLeY/cdUZM22Ck0JVAsjIsx8DFcL8uoYO/BTdxZeBL5BK9uuWj/wYjzh49EhfHY9KWo3Pf5BBy523hL8WNmxfhhapytlIjeo22J3qqtXBwT8QTR+d8DyacYL6Dz4SN2EbC95BFTyzXyIyIjEFo0W9vpKGf+brm14M9I0AzNjmIHzIguWr4b0lkziiSIPlZrwXa+XAuZpEGC2widZDEAntuy0IUIiCjRuWNWQzr6fo99A6mnAfjSs4GVBcLeOMIZaiii6/H1ma6aZdH7O6gHmeagjWUWuO/i32wJSTrgMVA4hyxlU51MwX58bWIerpB8pCom3sdkkVUVsoUsd7x39lG7lfCHtj1XtArjpe+95PkC5B0b0YRML7SZwGKwx7u4xV0y963PdnupCDvMzDizuMXosYXmqBbzeNr945I+FuHyENrBM4dylegQd5qWUAOYVhCI0dfEkkJonNSZjWpaPf9/+y9CbhtV1UmOs+55/bpblqSkBASmhAghABJRAnUE5/o80N9UKVlqY/PJ5Zl2VVhg31Xn70+rfrKsix9dk/FBgqkUaSQRjoxhDYQAqSHhIT0N7n9uW/8/xhjzjHXWrs5uTeK3LHuXWuOOdq5/r3P/tdca+21h/0uuxQHIPiIjPHBJ6qHqboYNyK2D2q9kNfdu7Z5Qt3G1OuJ2HB2tnB21bJ1JWsHNYZ1YLQxi8k9vK2hk3HNOpSQsSIhglbV7dA39vHeRpzXH0fUrDFMZXGO30nnnzRqQ7CEfBcAR3nv8sEw0IsdKvaRibIL6Pqo4GN2afRUu37S4E+BuVkUTuiLRgI0t2qw5f5ZHnS4x+hjHNIwmoWgY2IRppcj+9oaRoJ1wcIBLfCheUGuBWbd86liYZxT5qmhhZBqrvVdcCfvh+SuQvDQrSaslqaZlGIy1Ah1Jv2D0l1rmCvo03Vq1JR2SlcD5ghx3yk/3ESjGhGUkfHIFWGc5Klhua7vnRAURuDWphpr6h8STcgjKz7Al3qxp+t29SSXPp2qaTcqYTQ+PBthUyyZzEfq7TjMq7BSb7Yg0NSEtfdlz6vE1mRp8BnZPpo9HHYzjrCHrV90HKrXrY6OH8q965weIn11t4gDZM3e7TjfmO4/q7W4SbOj6O2Uk2LN0dDN882P8UyMC/vmUdpab7jrHiwtKE1pLSjnibGAyLghDjfIYSXBkhjDgY6QJmHkbkkA/tsuaqp+cBppRGtk7X+m9Zo5Rswc7X3qOe0Ppu4BY+ArxbinfFOGmpaH4+KARKEDsxytA9fxDL2WmhY8XAc87TOlDUOcMvc67kSvQm+Geuw41GyoeB88WdPzxbYP28BYJytoNgd7kHvZ7pzMfYol6wzzDfvdoKMR+WONaOtHsoEeksjqea3LBC6j3ejCWAuU3PUz03Min9dcMncMnRmCv/hRXhsHg9qHwzjHMDD0LQUbUwerpYJmrFVjs7XRKF3p55lp2yfWYHiwx3WY1dxZPoyhfsC0qsMx+sg0KsQyZYyzGoNmGNF9woyNg+g4Gv2YdxJH6HR1x2GUiorFJSUeuFRsJAxv0JmB+p7pCXE4Mg9G6/LE+OaYeu9hflhj7iiLie7YWNwovPefHkaI93JoJec2+S46VjwKttUIRURUOC0H+oxtrXWpdxut0uF4qMRGVsqIUMFfKn0N8D6pDlIX0aLB305Tt5eXOjPAF6KvKMHF7CIjG2foTSWaGNAZGM3N5GdPM3fSjBTqM2UkQmIWm4tdwiPpbCAnhhaHF+XREDBQH+xcx2HkbOeY0gdCXWcY5lvcn10x7ENI47sFVZSn+hrWKsC/9SzBMIkGHd0tavjaZd5gcRm8/0F2aUYd7KXvqcr4052uNqHtVOiYotP3FdoOwslr+8D6vqbRcamHa9Cq3OdwnedrLT+DOrN1mL6v26J6yUfSeXed3r+NbegUBzKZdZjI+k69A7OTY0xLF1d4O4hDV2Lj6HpPH9tEnKl6/6FfzIxaZu/SNp8mtTxKJFOW5qOSJ5eeiESKqlhsmCf2Q/wwtWSjp6eqnZHjpGJe5smAJZTT3/ReItBc4p5Ddbhoxum80dtBYFCxMMs61cRDAYuZcOMMfRKoWHsYOBkwdNK+u6J1uXqOFNVCYTiEBe598ESP8cOkE36zVP4SeDvy8wEeQQ3mlDz84IwFJOfDSetD8lTDvuu7dkEhmBe41Nea9YbOUA513QDGHa/pLQuMdmak6BL5n8QGS+tQ56e2Os1pWKO3DK3dMOd2NLJlm3QemH2/m69q9OPVxzIIqs6wu4+L3vdW9B4+cK9pqgBHXRutuq46mRDyU6NFcKjULLNiXa8xXWY5SvNhjrGZ8A+1Yx49ZItjiVaTa7oqmKHtgePh0T62iqkbvPXZGvrDtO7D1o3axoqd24zO6P3hdRcm8rrdO8eqzAlGWAudMap5asmN9F7CPkT1ue7TD5nBXeGNfJsUlF1BeASvams6vc98lV7rI1/385YJuk5NWStNmSs/1H0Vd5Gn73KPOSFHkIY273ti71vr6skUbhzE8EU9ohd2mHDQn1V34Ba7U8NhmqEh9Cf3OSZdILdhatKQekHktHmpeBQNjm0M7e8E2YPLdDHR+t//Us4zs6gB9WJNzpwjwNUherWkalbbtEfznSl5YARlpnPDy8Oqq88Eq8IE7s+s5MiimXoKmfD3PAMT1ZLF1dr66KLVPYYD1H70rB7DkGG/vnpq8KrYp5GrJ62fWq7w1iPQ+uq2ea1jqK0fUDBDG5AlcIW3U3lxOGD17Q1Z+75XMNd9l1x1n2Letg90t1LTZ4dinI8pRqmuaXwv2yg8anHrtWx87MoG799uGfY7oyNRW1oREsOi3Id3vbZfUe3JLInnYitfX3tQfk5V1m0PbDGCdYpUwiUJrkNWGqaTKKGpnmLHAl8nTWpkoxbdwgfS+rp6ImO0r0oHfeZQAztwR9fKiIS+VtItVXWjl7tqt2I55Ru8RIwIiow3GVRRzQAHsY+e3YP/BmO87qj2sMogN8vIpotfmGSYVPujIU/lGTh1dafTjrUx70aucQwyeZrBkAZe0vVBji1V4zm8rYYJodad5TxLP8ilbnGugA8o/Vdda67pnajm8bu2ppgWENmi6UPVhH46AeMdi+oyHOawP3ecS9R2F3/foI9F6rgJXVdDHvZUN2PLHeJGHLyd4WtqvIJeO76aMPfjiHk8t0UOHN0aI5oMq6/QDoLNkXQnOPVjcl9vPQ9a6OJqiWo+M/dq60n8jE9ir6COWrcfEyw+HktXm1n66jAROSvGR+Jty0FpVhiNHqOvdYyEBQvxVnGwnZu4+i70ig5WFHe6b3twa9myZ3sBoWJR8lyt5FxWRSabisWc0IAgleotiD3RuE0c6EdGVvJGTCVWErtmYM1K05LXnZAMRsQFHQ8v3KTB6jTcOuyIH9qW6vurs4Qz8PXV3Rnug9hALo9fqg15g1hDp3TVOEPw94rvj/eX/EybkXVC7YOLLWTvT4Q8bJXvhO8UEg1qRdPSdSzv4iEvzu4e2i7OOByjRwx2a+g26NsOQFtnVb2L0oCPjo69A3tava9tIwolJgIHKs8QW7gsSOJH4J5N9gWqBVHuba17W4vGdmHgqF13D8bhqINJxGGy0K9iFWrosIx6DLXVvQniEr2UZFwzrtMCZ0kea3a+X6BzPXJa3iCOs3mMH2AMPTw4tu4zpMpw9oAunhsdH5fHTrdepVmjBjIW13kf2ZF/TOqTVXm2Klo8H5PXTfSoyqFAJ4v34YR2ZV0cKlkLQwr7rduU2KmYFA8SBYHKQj36zrTCwqtYYWEKaY1F1QcR0LUkLIl8WCUPRdkgzNXo4IBCx4N42KDEf2asvojRM0EiDBZxn1iG6KHvq7kPXSayUOV4orNsTPTdSAwL+sbHK+3DzuG5pLW3SdBMiHFng/mI64d9CWkfGfGIBzse1gxYzHEpZIk/A4iFxHCmI5pF47Xi88cwHPMgKbssHAr6uD3zIGaYcqm+5BidztTAYfWl0sFpNCwZ70jn2WZVsRg3W14OdZjL+9566rnt0Nn6rvaDErRh8Z62oBEEoOcWOEPnidC3xVT0ZN4Y4zJalz1w2HruQZ3alfiYoupjHlW6aUjNzdM9oBG5e69MfcRHf88C3bzF7dLGcY9C4Dd08Fg4RzkEQ+0mhA9TBFcX3V37c4JoEu/RAbg+NW773h1lx56dwqmby+raWtm0aVPZvHmTwLhS1oQ2ebe5DAiEqfwN8gahgiaNpFWCByUwr1K0avR4QeP0lLmSszi3hTmVpJGFJCw61GVP2ZwKeJmHjEmdVg+rJ90HG32W+0C5COQKMACsnWGS2f1lQvx19hYxLs/ObJbBuLwb45cZQ6zj9T1XtQ0TDRzcPDO+JhoIHgC15fTxe85BRNeNPh7XOSzqxAR8kTeYxca8qMzYHgt7TW2Z0lXuRuU4i2M2tHjYUN/3Y1KVOav1gwhzbrl8UH0Wt09a3diFjD0n3SRGR4VWZ0LeZzr/QOOpZPGRJBj6ODu8u0iGT27ETflDTwQjzGtX/26w6Myu6B8cXQgTDWLcIaid8FBf1e5URzJXGLyMM3xDwc4D+ol6UDFkYHP9KGyk6Kpox3MxsReQVvRuqlFeqCooLFOlRWgd4Ktx0zmb/5Rk748JE3NqCR3/aB88aGzQ8bR3q/f795jFdcNWz20P7SjbZd2x57hy8MT7WEjfPUK+m6Qrf+Ar6+IrsavS8qEya9IeEjSQAgu5VcnUZ/ZOw5yRg5rJ807DTrxNzzzS5RkAIW73VL0aNAqJPB0Lt9m7jBFD8mHZXtN/mtBpahsPYAJ0pjI195EEd88xMkKxwGEYO+xP5hwoeRAexr6g5CB6yV0O+WMChwu6pccuQe7LeEvSHZTHIgMZ7h4/MC3ujgKt+OLI3oOD8GTL5pjv16Xsq0nPavHFli5TqQ5bzTw/f0tpfgwX2VI3+2IJGcZhrpkYh5tC6ukcnldz9D4hSTCQ460fPEKlKGreqIky4v2YgQc60djJU5XCoDrfGTUn1E7jjoJWmXBk/nE917Q8bSCeZWrkzWuGxE9+J8Pgwz9azxz0gw9S99DacQSe00cec7js0d53dFp/vtTim4QIjCNq+nE1W9S3SjXazTFVcwuSOzZVHzI8YBj7d8NFGnHBne7b5Ro6ZukPrT3I5Pocdq0DeXWTVMJ/+TI3CZ1vbrxLRHlI9PL6roP0ZQHdgmYxma6n4DmDVovb4avsLW2nDB2IyKZMHvyE7k3nZwHYPbzaPldk3zAiP+hYitAZgSBgp/ujr7N0uTCjd45+6+lj+YVVfJzuiODB4nkH6lHXQ+FfY1w59A76IA69Hn4/7teCAnWsw3HHHHEkrl+QN4bMk5mGOWUzNyeMXtwz9joP93Tu1bewimd0drl3DD04DGsHs6eMLgtztvgYBq2lG5eck9NjYi5391YrWg+NO3swHEQfuxoz3HrgUC99P1CSD4JaYqmcMRcisehI2la1+vqJNg6DIS1Opdb3yNbCppm1jcnUyzXtADkShVJ9XwdxHuWtj0FzciumlhMa9/HWY0PMTBG+w1E0XR/W8g8jer/le22k8zLC1jznZo9us3ZjToIYPsfNTIu9cardlyhD54Tu7crKOnWYmXP1vwXysLGuNYgPIrq6dMrQMdYOFC/+wT4RXveuCuq0FKH7KbuZr1vDxUqPG9QducX3gjvEAZo94D7OMSzlRWI+1wXfCVWw9qKn6mJ8nJ1yHOeaOW7u0rXu72VgdF3nuKAT4yddfedgfDgFppIiz7BwrDMVw+IxSOVh2OQQh04MjYPAB7SfqJ0srsoY4m5e0G3ed/vDbj2R7ifxclXNOVKIZXyzUXWH4CE4ZNf/+lq4ns6xg/o2BtpmbyqGcJf8yEJxdsgMy7x6YnNzbW281rgayX1PXOf9ZglDgNEdLVi78b3hGo+LAa6baM0Njc+W6NUGNBl/8SgAACAASURBVBHkKkZ5R9pYc2gLbkuJy8bLQIf4DPLPzuQ76eP2ftgTMfl5hprW3aFoIdV8ZIIkHOTcsnurPAJW7naXdf9x++am1x9d0QScvctFdbSV0I3YSfg2fMVHiFiFuflh5AmAMMZK4RMpqo1ZrYdYw9Ch5GSfPvM24u0BdAuDmBcWbUuFdEUkWvoeB9PQHPOP5LCzDBwm8MSjwLFiA67j4Iep4SlNFJ5VfJZ+Rr257guAXWCeURGvl/4JV+hnJnLDeJTxo3Zmoc7guaRlutCn37CG28UYxJrSdFOm6tMJw/ydMSDievFHyPwwcXA0PW5GO2+gvi/ySaJz0KHzwkFYHIajg9YIlfudQG7P7+1wzOozy9q853n0Yx57Bvvwjwp9WUnAEqh7odtWe0pqniOrJ/N9x4B87ZyHdaITbFOL6+EbFobGeLe5n7eun2qDj5cRNxfRutyivaa3zdJLi+y993QvjE8c+rG4zduRA1+DLQ8ImT+wTdat0yVmaEHuq0LouIluTW6mi+umTXINHoOR0vWl98GJjhP5MCyWYF/+numHjq2mh48eFFLRQiiFTTNX5XKE7u4YgA/WdUfSTgyI6UKNocuwPyofHUKe6Bdn/FE/S44pRz4wznXQiIUuEVsbN2OGgTP2aTSuWYphvll+G9IPBlVrQKgdckDrdSbrdFYbQdM1yUxoIm5BTXEQME1iMWiwH26SPDMs7iHtcCDTEW1IlpRusnGDt8yMTk/kfda+V5NoWBgb07CPCF97B/QQOMw57UVfflp53FRRtw1z+AiG7dBv2X477Js9+t6CiFmfA+rZ+7eRzLFKwllRii0wwjL0av124h+6pmcYN6LrBj7GXTVeyyOHfdcP2mFJCetUTIPNrHzRW/2gadoZcfNScojIoH8LLRcMCFQberPGBQ/9kRaZpct30h/uAnKPxL5pbbP018oKWN0Ghj8L/mmAlaFTdtahwSb99kMu8orLQSX2THfDJkGM0YS+hxxz/ZvzPWAB78jd+lMLfJBlsHSJB7aj1tV9qOB4N+ZfOI45Dsw3xx7rRHlhyEIHhXRqf1gH8csuM5NMJ1jKPdZfKmBYy4NiIvgE/RIYDbNO9Zlm9KE24emlJ0wzVYjpdsE/pE05dx+6QEnUJxsNx/84sS++P9XJC2lO780cdzUMx1ANKtBci5hxQYx4aYT7eSta7IOPndncZqlHDeyKKQ6wNK+Px1sETeWJOs2j21Zk2FcL8g4sVqobektjkseNDMNs6iAlBlUsENq4uFev1yHZwKr7sC+GLnw4Ru07wjUNhb6e2kJ8fD/COCot8SOdZll+GxIEkfu0MEkMgLPvj7chAVTR3eQJzxC0vOizdrTrsqI9ePBQWcdXyqQWaJlDkM1he5NxCELU/NVD6fgQYdZT9wjE34SSvI5G+ozXvxbIug/IhjUs0p0mdI0IniZicBBRd2ydq/GUjMPGFXOjwk4vH7Igo5m9/kZ3ZFb2JfIs4dJn9zGK1t4TvX3Jnqfp6seOOyyZb+TGo0nRIg/yektH6QzyV3McA30Xb/pUfa+LZu5YYI5vDRSfzk3jqeLpWnG0lP5nVUNHAqJa/SaNHKWmFYVTF2Z6C/HezFweP1GCqpmBMcCrRN1gWGLSYapvI+Y+pvWGhadrNP8JiSnm7+CwSsvi9XTU4WXp4a4v/uxMvufIrR/ZXsVj4hitHgr634i717bF6Sj1A72aZwm+S7Qjf3N00V28P/Jwgzu6g/XdDLXvK3cjGjxm1A6TNgf8KdUUcPOOt821k4bmHilPNDF4y4L4I/kc7QbDXErkIFkl3ZVyaP1gWT8kN9DBjh1zgpY+ZuYka38vEAgdr+8berYHPKMJ8ufHA2qIwW31M0P8g3YGodPp6GwwUB+ED3ojmWNMzLUwhxd1RwmuuQIwVed+c1qk3Ih/TLWhuEGhDcXGokFGjggJc0ZF8B2KC+vHPFG2REfjjyimXTiebgda5MbigncQexS7QhOdVrsZkWygj/mjbEED75aqyyOBdJzytppi0uMSfLDExexRNSFrrBhqCY3zz6f2aVkdxLmv5Gndw9vmBY30mBqt9RHIswGegYrYMbllakYms65WjAhoBdmGUi12nhTzqp9WH+hVOS9RRSmOa27AXKPW91EojcwKUDxgdf8Oc4bZqJrrIJlHotWFxGVyhLW+h9zR2xYaonpjzAPLKITuooUhODe/mTvAyIe7AZnjGrtcXi8r8vW2Q/gnpF7sATA8GLIx8eE1Mgx+Jtofjh/PY9BK2jZO3wd2MYUwhZl1J/tRL76G3tDQyGG/zzezNwobKaZD69jNjLAlQ2tCgNfFWKfTVe9eWManjzhKPdtx1j8KgxjiWN9EyB3XieEPYydcllY9nFwxpkERtYPyzakaJlTVNi1Ifv7BSUuwUG9OzZpkUaVlctRkk8L0h/6c8WFIvlrG3nvemCTQj8j6IP2A6fIO88Doiwd3ATSqV4wVmd2oE1cZR8yI4L7f95h8cjP08/mnO6Our65b1IZXBen5oSNCLVUFSzTYt0Xpl7HbkLE3np1DmRU72kUfo7ceKH0ysWcbtvAbxnistn0pH928sFijzzXdG9S3btSi6pbdW+qd7tN5Hp62kbreNLdpTah1Re6Md1xsl308+EjRa+eo51p727OvOv2cFln89SyAja+FtAGLz2JCt4GEGkzg6pZtWop+UR55xwEGx6gexRyBwj+jFqUIQ5nvCse4zvf+R7ECu4X4Dcc8I2BpHHzPPK/3rZ2RfuB1tLr9qL3n7dwqdaBjEunjqqOoowyvvj+qC3Pn4opOiUS2uN37S7b8VPDYPvdoTEulVEy6TOjUZF5rmKyLoLFpXAqx/CN1vebSD8jgMywx2a8DsySDvr8IfSnL5LW8hRrxvpobG9NNmWiPOTwOzv3Sa6aSic5Teesp0Pf9oY4Ktw7aWMkvIjX/aO3qDbJMdbtYc9DMUxbPMLSh3+v6nscNWg+z1rvAxe9y3+id7oMKk10QLlbeNCc3yuEO+CHPKEEjHGjIyHighBHGpY24+okvrrNXPIYhFj6f0FHT10ECfXHiIBbLtgttwuMhMdmgjrscSTszZaw7pwDcfB25uSHmirLFetzMsbhDiHURMQvjPH5Bi5y+LnAdmX0M3o4cZiiOZPxea3LMbpxRdxiDPpZFFE0nyY3rVx5DHWMVP++PXxkMqo+KPVjrsLtOyxg8otIiNWhm6CCivdi1avXAuOLYqmEoDEL50e+B+EDih5Inc2cfofc9AMld54Xc1/pwpftA72q6DXPE/JYn+nXmrkOvdogSbVGG27AmQ+umjdb85rvXOAgtNqpjAvcwnXej+1x5AwHiipNTfoJquNvItPyi3o4kWpdHOfx9VA1zvavXTEHCPaXXxBPjtsh6JHe6z6wnhkjqIHacip9eHEVvp70WveeGUbOqNb9hPek7OM1peWnuS+RGK3DU6siYuRsT+7L8yJfw9AGHOq6K0cHc1HAcOMPP35DNcXmJ8cu6D2oPwyaGN3SZ7k/u7LTrLO2CofVhoV7cf5e97YPGPa1p3tKZv/+wwne49DrPgZZLFdCzTh+ifrYdxXfWJTq2O/qmitlcnpdDx6db8Zs5zuoxLxltY8+YdGxFUPOYsjfrZHGEMEz8MNuBu69dwFTu6FATReX0e2QyfxdWO7FqO2lezRMCko+XfnTzBtBXHGcSTXQxh6by3N4OM+j4mr/bx5rwwrpTbSe8q00Fr6/1qtHVohhYqssjIUyTehuBztJbP44uajG22I+yjhvI9OhM3+Wu3n22Uag7SYtKfd5gXCDOifMdgMuRlKgjkESeh+2c2h6zhIu7ahsCgtj7TPV8Z6dspnOXDeUN+R5uXEhBccN5jnDgk+GuRLvkgGa7ucWT4n3is/OmG+LQ+u7jbbN0EspElyhHg+t9WJYkqntT7LkXglxvV/JkyqVS2ztNHWOs2KhRHxxgtqziZKH6VRx0pnJN6dTTc7Vy4luLjK3ND1K7UUg93R/1XEZr/aimDoq4eAx0Ia66RLv7uFGx1RPXg9hhWB0bYjGGbmBW2YPiGKd0Xl9amtuhgHsHjwWijqPGueAtovuhDvL5WBHgsodY4HCG4rm9HWR0tbcta3SEddrSQR1DHmEZpK43yq3ZqXK5WU6eLof3Bz5ZuAWz45x8fb9L12Dy4fme6f6LscNvvM/zCd2zotWMUdPkeTbz8tL9AMUYDS1jJ7kL2iVKMTb6MsaT2ACG1za6gtZZqlYs5DUQL8HetZK1xFJ5q3cTmEeShte/GT/PpbrPEa+jMeaaWJI54BN5o1szT2vVLh+Mbpa8FL3fEkxIcOoHEnfZLV2q6NAZJtJb9t7Nsw79RR9zi1kJB36zYjxHX0ER0HxdJNxUzUsU7Q/UvTyP95F/fLAEq3vCY/4Sc8FT+32O2JPMMYSfmjWMpXTWJGMYDSLmoeuMje1TjYfQFbX+UI90NShIGq1Z4xg857BFnqml5daMHhf1Fmc77x4+foVrwn+qHHWeocV0h5BQu0v1b74xbXSDx7QXIjwpImZ7oXD7G0DcI7c0Ut9EUj8sP+yCh7auCKD+XXTgwK+zoZWRTb3/2t6I5Ls5Y9iLT7kPA1v2oWVjfeTxdcnIpUoHp/hm8Fo0B58lS892i7kg+zoREV0nzNOqbic0/8PKM519ae1wGMsETkJxNAcfc/kA+RcRDfqS9ON1Z7Quw6OPizH0clcP83507PI1Aw4O6G4lNBQdWU3XvKekpZw015Kuk8OfKk1d8AbGvooNH1C6D/DxdWaiYNCBeuYW2aSWz3XujTSI73OE5EEMMZ7GrZ6CbfDrXsdhkAf3evbkhebZfHYkKVosfsTATleUmrjxkKaD/7wl5pvnN2ULuTlm8amt2ETW8cjWD4S6NB7vbWesnc6qCa2Qu1SlK0YtPIZefb+rMorXefFI/YgqlNQ38Ua5lU1C2HxzaEkQuP2X/fKxy0RCdkr3ywS8pxDienedGPniGfqc4Il8i1XIp6NVX5e9PRr1BjV8plVTey2MoCp1OHG7pFsMGcme3tuRwwYVzIOBbTDhUu4L8i4wj/ZE8UNlldgsNZCYygMsRzRNqFqNUDfEIMQzNvVEorGTRsYP5lk+TDzIOei22stKmmCy5FSKgSOjZRNnAAOXqSxBB2/bCccgJOBHTuiHQBNDfH2RFu2T1RsnM828eB+M52i+rpmZloZhPJSIHOq9rxb/rIGreovd8WLeYfUWr/7to73VYqDVD0NwtaliZs3acqvrsO8JoLdokDZF98U5Aiik7/thXY2msyXyGOuGpgvxfBXL2XGzLUjeZw3lBqL7eTZvB26PUBekjhvkDssp9wP4aVb83jrG7kSN4WDWLg2+yqYtBqPjrDN4+GBXsOoGQresbcJvwPqi8WXfjj3yazR7uQ5M3p1ukcpyuIMeocgg5W6/gcldlmqXjnXHsFte2E214MR4q20ZYZTQFVrce8ukWsbnqOTzJI4P+9i4Yv5IPHzaq8/jvS5msuO1PSJm9wD3ibahrH8M0Dbv+AGpes84jNY3b4ukX+csHZj5VzWOVk0MaLkak5qOjfhWd/etCkkHHfrN1qyu06rzt55Do+14fxDSMg8M0vVxBAvdlxlDzNv8ozZkbeJCB3W1j78W1wA1XavpEW1/pmwhVRXhhwF5Ww2dEIfsmauuCl3IoONR/rYYBpl9qO722XOMnAa1hl2Pc32Lb5LbYutx872qFYKHeJpqdMWc1n2ZAxtTeN5op9yK+afDA4+6r+zbOf/X1uaMYMMmcOCKfCcdHIjr6gcPH2xvJTtIwkeKHgyS6rlffAgNqjnx131u+zQczNpaJHSz7jlxT9lzxj1l9xn3Dv0n+47l0LgqD6xfXcUv1My7fX8Y9cj1/bU+ahViQmAc+8Mii+xD/4n+vPQT7v/0KgzY3nt17FX4px/esiN4xIccC/j7xNtlBznHD+ntZei8YtnO8PnQWWJwS7h8PuzJhscwd7/mGjdc6h81IA79Yb+9PcnUG3rW3iAm+OOnU/cf/49H6BgWuBCz9HWZnW+SmfohDAhkbmPDtAOn4+swK8ObxicR1WF6Z/FLcKNlXQh971n3lPsuuE1tSOJAQsO+bHBIUfXByexr8ks0KLB582Y5QqmOmjO3iUAikAgkAonAMYIAZucg9nVpyyGZpYM8/TKGkCposy7suEZaE11T/QbCnJviQqhxsWpki34lcwwElkDYIsrcXH4nVn9DNsl8gHp2E4FEIBFIBI4pBMCD/rCZeqko0OxsMOY7RSsJHYqobLJJ0kDCtTf+jms9VWBUbuf44aMRh3mtYIWPvgtEP3vEaUkEEoFEIBFIBL6gEQCpc6bO57wLf/JUuvIoyNM5FBSrMgThUHRkMU/t2DYyrBC6HitEJWVPgkRQIC98OQBRsI5GWS0SPklfpFUh81XeDKA+3QiykwgkAolAIpAIHGMIgNCd1JV7wY/gYCN3IVNqZKM3rzp/OpWr1jk3wgedELqaegcJsqzQ04Y+LtrbbJxV7fw/XdVMXydyHIlg8LkkAolAIpAIJALHOgJO5iu4YRzcSHLFRkhdGp0wu1q5E7N48jHsxtcjVkUKWfH7blw48VbRVULemJPr1374hXizg8wRhqSIYwojd2h5i37Ozh2tbBOBRCARSAQSASJQZ+k47W5cCq4Fj5JGTagkLn3M4UG25FrZatsA9f4ag0QPcm6LmEHmKAZPesPDOmgsQE0oAGe4iIQT+UnoAkYuiUAikAgkAolAQ4CzdJCrzNLl+2t1cb7V6+o6Y1dSV26V7cyFsWLlNXQl7LFv4G0eHcCjJpVKJHMojcghYsHRRBK6YpHbRCARSAQSgUTAEQA3YraMR635KXYQ65BPOQ8XJelVttpKFhEqD1tS2LAIoeviM3XvM0K81FG28oV4LLrtJRq4wTw9ybzhkVIikAgkAolAItAjoBNeELNRMIhV1krUVTBDDDfyb1xsRlHISXxV1/gYGGVzgPsoUfDDxf6cnQdAUkwEEoFEIBFIBAICPktvDK7Gyq1VCEEuuk1aiOyars3QzWB6Dw2tnGLH9XEhdpxs1xMAng1JLdJOJ3DAITrFRCARSAQSgUQgERAOFZ70s9lOnT33oqeauHUd5/JxFm5yJXTGWo42C680TTLH0QQ1cn4e/+heb3PHy8Rb43itP1+0RCARSAQSgUQgEZhAABNjnM0GqdpXzMjJyt5CpSBbaMCpkdLRo6fZ+9wTT3In93sNJgTB44gCLQqgDsaghawoi8OOvgwTM/VcEoFEIBFIBBKBRKBDgEQuGqVN5Ur9mjjchFlFxbmyCLSiD3/ldjipAm3VrZQ19YK2X+BDIkcLp5ipGRjEfFKdJM/qfa7sJQKJQCKQCCQCiUCPgJK0MKgIOgcG16rsP5/q/FvtmFTDKXIy08oj12t6ZLaVBG2Gw5IF6nYkgdk3FOYAIrdA+mjVnKEbPNkkAolAIpAIJAIRAT2DLURKzpWNkCf5GTyNrrSYIGPhmXDhVTylFTJDnH/NQxMVmaHTjCyMpBkbBHGRzCiAPo8KoDR3D+0Uo6MGZslNIpAIJAKJQCKQCFQEjEiFM8mvslH69L4QuPOvtQgFVWPtF9XIDD2YgmfQ0kULaYpqEwEDaUu1NFVKiUAikAgkAolAItAhoGe2oTIWNfokuUMNEodVNjhTjk7kYbhw8am8dOqz3M204cbGsOG4DEgEEoFEIBFIBI5VBOoZb2HqxqMitw6h0e5AGUELpnYNPTpYGtx11y3DvhirRxW6iOwkAolAIpAIJAKJwAYQcDpli40rFuSYJnRP0J0JEKX3a3Kc67ejC54XWL7wgnGlORFIBBKBRCAR+MJGoHJpz9mkWqdcPdtuOISACWSmCd0dJZaTcmxwZ5wspG+IUJHh9UoAy6gL/XKTCCQCiUAikAgkAosQAKvq5Bi8aizrIvtGudTZFHoy6eSDZcDTeme7zL9F1sm3kjoTiwJ1VQ8NFm85IlXlNhFIBBKBRCARSASmERDa9K+j8fvgIFUs0th9cMKzZF2lWMrOtXA0G0RZpgmd03J3BKmLzDpeTPogdXQhijFM4pk4N4lAIpAIJAKJQCIwBwEhTvyEKvizcbl+3xxRvQ407DN542KmBldjiQ+WUY1tQeASSt6WBKgmC8KQDgSO/1A4mcOmdhFySQQSgUQgEUgEEoG5CIBjSebmVWkaZEp2pUCrkrmIxr1U1o1Ghhn6gI6li6MDL0DirmlrFg4GPfq5czOnlAgkAolAIpAIJAJzEMBEuS6cscvEGQQsarWJjP/uVrnWBTVM3BRnERpfa3hYVUCwmXuny04ikAgkAolAIpAILEagEisE67DR0/BMEEyN1MHTzu7w0lgh9GkDE8EtJqtKFyRW87gi20QgEUgEEoFEIBE4GgiQXwckO+hGDl+FTe0jLx1O4PvqEXmcsmWpDkdjTzJHIpAIJAKJQCLwBY4AebORZ5N0v93sbdAKd4Og21JPuQ+TkOVtes4nxomMUH96HO++q9N3XGEXa5+7VUkpEUgEEoFEIBFIBMYIkFiD2skYray8f81vaCPHNgenXNwwh39G6OrgbkxNxtaHxui31rQqNeKI32rlHXpwJtkjusvANLlJBBKBRCARSAQSgRkIYGJcSd3n3KYzxq7fRWcKp3F0es4VQu8VtaSoSdo27da73GULImceS8qO6OFPuWZIIRFIBBKBRCARSATmIKDPeVFu5Xzc+VoIFZSKB89g8hzUo2xuW+VE3EhZJ/dukrk49ZJUWhXl6AECXahhYnYxjc8lEUgEEoFEIBFIBJZGoHJq/E4aSRycajwrDcy45D1kWniodqWsqbu6hHA9MhBHTPUxK/e8HOVgKm5zdppykwgkAolAIpAIJAJLImD82vGv6GJfMylPOxkrd3sN5Wh7sAw6Oq2HOTqSrIMiiENHz5xtIpAIJAKJQCKQCCyBQJsfC2ELwQoTk4Oda/3RsErMRuowYnWOhyD/V5tiWNnTDfWNx5uHSOhQkfP1MWKpSQQSgUQgEUgE5iFQSbRzaoQPNUlWyBsEDjbH2uL0LnfohgtO2Mvi9KxpNJApROS5fzqJRv5riN4Zz+DcJAKJQCKQCCQCicASCDSWnXeHefNSSUld+dpOuWvHyZ+Vha3hrtfQ0Uov3PiGCBC4nx5gBgR4DSbJTSKQCCQCiUAikAiMEDCudMqsHIqZcuBaJWKlVvqQdSFhbUnQqw+W6YuJE3Jyru93tou79C0cRg0hq1tyGQRn6f05gj519hKBRCARSAQSgWMdAdCmLMaeKoFmqZWNC1UH/hUl+LWucNZEcA+/tgYDFstiSXgCHbN1qIWwweNK656ECtFJn0axxqML5sxNIpAIJAKJQCKQCEQEyKvkVmjBpeBRkC94FJSKSbJyLPkXbqLvFiZRjc7Qa1ZkbotfDaeZScSO5MwoFE4dqqoG/tSFAi1bSolAIpAIJAKJQCIABPidcuHT+rC2ESzGrTztHSfTI0dViPuqT8irJviCunl0AMZmB43IdVuVjMLMPbk8AJhiIpAIJAKJQCIwAwGdSyu/KncGhoUCKyhXFrBtXaDztSp5Dd28qbQQNBRlg5azcrSuHySnmgEi5ZIIJAKJQCKQCCQC8xBozAvudCJHhPYp0cn70kKsixjZt0wi27PcoTAlnIPIWE/C1jtiCWLnx05uEoFEIBFIBBKBRGAKAdBnR7Xeibwqss7cJzLQz4PUbne5Wwbaege4rdNXt51IVdOvU4yjoXduEoFEIBFIBBKBRGCAQGRLJ+6oG7hrFw7VKXZWhl9bMzIHMdcATOOVtEHYlFZVgLy+Hr75Bn1/zCH9XBKBRCARSAQSgURgGoF1Y9hoJdOqQukWZBsdRA4kbZbAxmLkIQJubZMlcDvPzAtxr8KbSUWwyKqTWuIxVcNKZZMIJAKJQCKQCCQCDQFhW+NpbeLWvEC34F2Sregqjw/Pph/G99ChrB7MQLfDdtQgiVBC+dtYHLoqopoW5FD8Bjpmyk0ikAgkAolAIpAITCOgpMyT2+RU2Qi/UkQABJC5COvWgrKVsZ23NYe7S9sUUOJrbyRn2a7KUQFzYotCaCiLo07PEaL+EoQfY88lEUgEEoFEIBFIBOYjgJPi6+BRpVc6c7JMnUyclYjFxwT4OY/Tu+dbMfsCg66YZPNn2CQzjwoicSOvJ0c1ZKAOAtaumvRzSQQSgUQgEUgEEoExAsqXlbghgE+xkF7bGXIla0ynxeB30Kln3apP7aqAEuskZs3MlOLpder5dhA4lUhjhQa5spsIJAKJQCKQCCQCYwT8aaycJBsbY/6sp9eVXsmu4FkaQOeYbvsEvM9pKXrlqIdkftGcRqd2bVcxY9f/o9BUJAKJQCKQCCQCicAYAd6CbrNy3vgmLjzxLeTdsywo1ifNmG5j2j0+G77q6t400ZOb5GYtfrpglj31iUAikAgkAolAIjAbgcqwYYbezbjrpBnz8+EMXZm882+lxJk3tymxI5RSz/MTxwctQ0qJQCKQCCQCiUAiMA+BAanCtTJ7EAdufbf1hNDR8dULS59fP5OfbnOVtd7HNflmxQkAPQlg1D+Iym4ikAgkAolAIpAIOALOpei7rK1s9X8zYI5NZe/ZHDRrmKFjHu6Lygy1xK5Zsbvr+JOt4q5F9BSA+mDrRT1ftolAIpAIJAKJQCLQIYAz4UKXOjl23hSdTKgxp3aNxkDv0RB6K4zyYJng475wlP8aokH6WzDqzOJQe04vgjAhfI2oyVJIBBKBRCARSAQSgYCAnQQXHlUy9d9HV2JVUq0cTFJFT9ZKsOoTUpY1VY0NcOJk3EwgceaRDcgdaszW9QCDSualnlJuEoFEIBFIBBKBRGAKAeVTnwCzZ9wqOnSFTP32N/Cs8r4YREaUumgclRIip9xBwVML9OIMf2vca0Uyk8jNBXbPQndsF7JCVAAAIABJREFUckkEEoFEIBFIBBKBSQR4ppvEqRNkkijPcBubGpmC3JVqoZCojl+debUET7l3dtGj7/wPidfL6WRpRa4zds3DGBOzSQQSgUQgEUgEEoE5CJBnbUN6dd/K2E7WwsYygybnig1aXbsocjC/h+55xq0G4Nw+FpK85ehTjSNTkwgkAolAIpAIJALzEXDaHnrxTHidKoN9zZPn3jnVVquQsfNxvcvdWb9P6m6aiHe4UzS9mz1o2Hd9tolAIpAIJAKJQCIwQqBOyAcW1UdSVbn5Wx9Eb27he+jIplqlbz0CwLYm8HPvcMM6JHf0q7PIuSQCiUAikAgkAonAbASccEGqSsGt9Vm56yVLdackPShMyRm6yi1CJZngg5zDuXvqQeryn6ffsYULhkqdCWhySQQSgUQgEUgEEoGZCJA7nUOFRHGzORboybGVYE3ZGpEGiwTZ19aMlDs7iFtvfWMNrVCJG7yOqnp/HkqbgkPpEmUnEUgEEoFEIBFIBCYQcBKHyS6P80Z0ki2V2CjHkovZg26wiHENBwB0IkNHBzGIEWpwufI1JSpMEjWPI3Q2734xTcqJQCKQCCQCiUAiMIGAnQknk5pZWB2crHe2G/82woVlnMdUaz4L7zzMyKbGskR/iRxkL3ZYsAW1YxC5JAKJQCKQCCQCicB8BFaEL5W+lUHhrRyKybROlsHfOrEWAfxKjq3ErAWMdlfh7JSslnFX9ZrAvgJPlZ8eQA4rHY8zaroUEoFEIBFIBBKBRKBHQHlTCNTI2+bmpGVMlpWfpTGZXB6JN6YTn/q1taifJztxwwc1sHg7lGnMTSKQCCQCiUAikAhMI4DZNUiUs2zMzJubTqCDopItdEGPECH6mYTucd6yone8bXV1QFP66JNyIpAIJAKJQCKQCDQEnDet5WzcrHUGX73duSpUgFqm73INfWCAXoxQa6hsIdgBAcVhDJXY5JIIJAKJQCKQCCQCR4oAeZhc69waiBcqV4dC4xl6PVlvAQjycwBi0++mq4356K+5J/KHUikmAolAIpAIJAKJwCQClUCrIG4yR9cL532ITbB9ou1G/jhLz/Q4a69HArj/DmTOIwXTeSDO18OLtcSP1+md+KtTColAIpAIJAKJQCIwEwGhWedsvd+NzKpnxQe8y1Pw4Htflapr6rWezFUPXy4kc1yk16+kaQWzygg0F4id1K+zd4/NNhFIBBKBRCARSAQWIKAcqjNnYVWh2MPCuSB3sC3Zl7TrjMtOn9OIXWfovYlEjRA7m65Zq9YiUbeebjfS1+n6IFt2E4FEIBFIBBKBRGAKAZI3qBtnuI1TwbKgedIugjCBFobXs+Ww2VIF7U8SevOB5LNzzU3ORlZ30sqV3L1OtolAIpAIJAKJQCKwAAFjab2jPZA4SFYpmORrXC8qkO70sjrHphF6cVwTQmPFa0on9un8qU0EEoFEIBFIBBKBmQjIpBkzZedSMrd1QLQQ3YZZ/JzFnhQ3x4OJdKpfvUTn+V037Ls+20QgEUgEEoFEIBGYhQDYE6uzd/ATtXKrbGmeNz/vnhSnYTWVJ5KjBViGpXz67+XiccMgU02ZQiKQCCQCiUAikAgYAh1Zhk4j2AaVmYNXs5k0+h66OstWTrWTpHm3HUjd+iB4FBNjTRwFNY0KpSIRSAQSgUQgEUgEAgI2U+75uxKqOS7qt3xG6DoL78PA2KoHeVtd0jq+xsYHzIDm5dw/T/9LMCjf5VYipUQgEUgEEoFEIBHoEBjwq8+QdeoMxsUCYjX2JUE7S6N1mY7c2F3u+CZ5NEtPfOGuxI073UXGbfPwQwELQANP3HoPI/rqTUNuEoFEIBFIBBKBRGCAADnTdeRTIVBwaLjxjTN3kqxs9L+4iAAiJtt6Am1Hp9yrGXe3S2IGM6EW0ySiJaljRq6zdMzmuaAJA6r5UkgEEoFEIBFIBBIBIkCKBV+SOnVSrKJsMXuXxqnUfamTAPjRd4BlJXQYydtwsGQaIhbNIgngIX0n+FFKKwT/XBKBRCARSAQSgURgBgIgcXAlOFafDFdJ2JgcnIuz5Jg/0xctKZgkPMq7Nkm97mtGEjnlqmCBIZ9r2GTGUeFUJAKJQCKQCCQCxyoCfpka+8+pMAgU9Cmt33hOlWzA+zRBIQ46da7utMFSZ+joYKH/iJOhGCi7rnY6FbPlJhFIBBKBRCARSARGCNQz32bBLF1E/XU1CMa63orRT36Tpz3MWnivuoGJNMeQuqv7LIFEnmw+C57UJwKJQCKQCCQCPQJOvjqNFlucd5tr5VVndejdz3xqs9Jm6DWuGk3DPG7V1n+UxV15V7sfEbgy20QgEUgEEoFEIBGYRgB0SkqdRdAtzBm4aaYkmaHPcnQ9b2bHEQTn+npIoScGLCEcecVeBF7gnyqUukQgEUgEEoFEIBGICCjPOtsazfo58qrGXWzSEQ6uKksCRtZVLZO/tkZfkLSEcyu+IHHndCaHxU7o0xVBVWCG3CQCiUAikAgkAonATARAxLiTXR3wrBf02RWKBf8OedVcGRBlKGb+OIs/RMZSMph30oPEWcXqiBLfSVeV2IzkGZCbRCARSAQSgUQgEZhGAJNg0CatmIEbmUu/SiR5nZ1X3WS2laIzdGQzkq5+0LGKbFCzErWmxBZEXk8CqJuG1CQpJAKJQCKQCCQCicA0AiBOWcGlOmMWuhW58q1GiYc8ZAZ+ImDF4i25Ww8M1pTI3QIvZXbXsJUNtFpDOvq/ZcRAxAhfjRYhl0QgEUgEEoFEIBGYjQCo01mTBItJsixGpP599Ma5MNLDSBl9WyRGv4du037XT7WWIpgCdYejibFfCEkxEUgEEoFEIBFIBBQBEiY2RusyC9eZOGbpdilbzGRbJ9dAvUyi4eT50YNlpnH2TM16uKy3TkqJQCKQCCQCiUAisHEEIr2KXM+EC8m7ia0TuStRCTrXi3e4Ka5q+wHFTJYIDX+cRdpWsg/LXiKQCCQCiUAikAgsh0Dk6cmI6AA5rgwID5bRBD2pMx4qBmo0tvQyV54UECWIHbZcEoFEIBFIBBKBRGA5BDreRIcK11rb6QZ5wcVcMUOPi+cwHX/lxWSe4efNb6pQAkeAB/HePPPOJhFIBBKBRCARSAQWIcDb4CqNVqEyq56DB+OO737vcss1d7vLvVP3HZzQNyLXUj4TxyEBNDZVF9Eu6/fx2UsEEoFEIBFIBBKBSQTIq6RTZVClbmFWcKpwr9737q2kYIClMvp1XbiGbg7ubMmgVQqXYkLujOdd8ZClBz/LpoUtTzaJQCKQCCQCiUAisAABsrn6gMBlBQ2TbX1CDQ3/iy/cfVXHmn8V3Dxa4AS93m7HRO4Df5SjmUojeXfINhFIBBKBRCARSASWQkApWLcgbWVum5FXchetyFycxOmrKt+uYVo/WixuqNdaoHMLEsJv4VEeRmY/EUgEEoFEIBFIBEYI2JlvcqkQcv09dDjapJqULA6HQdjozODo/qY4r9RY2jWhdeOMjMEzxUQgEUgEEoFEIBGYjQAYlWfKhVLJ35xlO89qXO3RGQHjfFBNE/okVw8zSN+OHvrUQ7/emr1EIBFIBBKBRCARCAiANp06rfWue+Ec+CQ1h9Du99BrAhA1O3Ya3YlbWoru6Of0kdB1M0v6sLJNBBKBRCARSAQSgSEC4NFKpcFoTBxsvZcT/WiGzhvYcSHeL64jDsTthRDp0aEgdRxNXyi6pJwIJAKJQCKQCCQCioBPhMGapFppSa9uEK3qI+m6Z48iaHpE6Iy2wwRM8P130VWWvhVCGXOzgjYSztpRMJdEIBFIBBKBRCARmEKAVI2b4OQfv6hGnpZNx9d2tzsTNM7Fl9ThhrUu0qmEHnP4sQAm6TUACayDFjZ+fU06+kQ5GCXSnWqVFBKBRCARSAQSgUQgIoDfQ/F/Rq3Cn6R2urXfRHdGhlo9cQjgS40VBQk9KuCkzhYAI0iaTnoswQ5Oy9MXESBydUMvFkM/l0QgEUgEEoFEIBFoCPCytnAr58DCn2BUXPIms6IPjgWvklyVV5WVlW9bJth0qTN0dF2pEtIwK/na/KsXjh6YPOTG2Xbm4AhbREqJQCKQCCQCiUAi0BDgL5byEjV0OkEGg4NZdQX/iiQNiZ4tWBcsi7VfoFmFGevMRQ8RghknCXRhyraRsYyLhMAUE4FEIBFIBBKBRMAQqBNjELQTK2XpG53q1Fkn2HoPmzpW94Dm5Cn3YJ8QkXi96YPYlCklAolAIpAIJAKJwCwEeAZcjNoKPQ84XeNA25Hc+2xDUu9OuVdXOzKovC2k3fO2hq2vi3Y6Q02VQiKQCCQCiUAikAjMQ0CnyU691ZNnvXv29QOB6hOE7sEyrsf5eizrJOs5pL3qbC4+IHf5n6fdFbvcJgKJQCKQCCQC8xAggQtvdsugv26z5qZW2sd2eADgjNzlw0X4Fiwm6awKYYOzscE/LtJwlo4uyH11nc+gUWNuE4FEIBFIBBKBRGAmApiBC2/qAkIViX2TpXEzyBrmlXW7gU6Duu0kocNjdd1YnXmFwoWwfUJeg6TSqiud8NuV/a5QdhKBRCARSAQSgURggICcCgdRC8NiI6ytDAudiQzARJoWbIZTc3qUsmZt38gpdyTDocG6Z9SKqhcdhgAuxwwd+dVNpLzTvccye4lAIpAIJAKJwAQC+K65snQ9721ewqWYMMNIHjY3sa7PYnOxgYtHi5O/5JEFSUVAUrRYICPSumhYWMjdY+GWSyKQCCQCiUAikAjMQAAnwoU3nUtBrErK0IF55Z/OlpVzhXsnSdvST9vAymJRorZa6FSFGq0OyZyDYtLhjfRWKZtEIBFIBBKBRCARqAhwAozL2dAIvyqFSx9cKwolaHZoB7mD/2ct6j9lbTl6qxWisvrECjlH7wHLXiKQCCQCiUAiMEZAb2+r576NwpVPneQZVZlabbOmzdPX0Md19SL8rCwD/6T0ASDZTQQSgUQgEUgEBgiQK+N8mKfB9WR4dRUyx4w9us3i2Mr7NbgTEOZfY1d58iJ5zC43xS3J+12l7CQCiUAikAgkAscmAsavUzsv3ziLZD7l4ro5hA4i1xMCTtCH8dNu0iHFd/wuHd7dbsyed7o7vtkmAolAIpAIJAKTCOh0GbxJYp2cL7eHvBu/TmZSpZ5yj35kb1fgl17Cl9jFhh6JHXQvt9zrw+JB8gjUOJXnVE1TIpAIJAKJQCJwDCMAttSfOlMy51PZVKlM6jRsvAulTqYpKN022iXvz5ihwwtL88bX5ZTMVcuBeHEQu1aTGbzIeNRcLolAIpAIJAKJQCIwAwHwpK3GmeBZPcHt02JpRcEeaZkbIWHj2AHVKqGbD6syv2z4QHdJRJsl9BySDP/A916c3C8bLT5j/KlOBBKBRCARSAQSAUFApsHGqYADovMpaJesKwwPMgd/wwbCt40I46Xd5a4ZggcyxK6kdx/T1x9iqa4iuE8ITTERSAQSgUQgEUgEGgI8qw3CNj7FmW2dQMNHz3pXjm1hJlmQ68G7sqyRtK1DMobW+5DjMsgRTS774LyfbSKQCCQCiUAikAgMEACfklOdvN0Oqo9k632QvwVFs4dJq6fcB0btDpQhSMVF9lFAKhKBRCARSAQSgURAEGg8q1KdR+P8eu0AqnY9ncBF6oVf8J28KQ75old/tOAD8SwxO8vlJhFIBBKBRCARSASWRAAsWpk0dFw383vowRelGqF7ZDcAVeKEABYQOzToVZJvJ/3DiOCdSyKQCCQCiUAikAhsBAHlaOdejdRJduBdkLCvcNGgQOgapwbyt1N34GlRIbFbSPD0teAoe75sE4FEIBFIBBKBRGACASNUkKotSqOyrToRqOT97u422dYZOmL9hjZtNSFIm5fkzXhYGJ1fTYszc6YmvYt3HcVkwVQmAolAIpAIJAKJADgXTA3Cdt5UBiV/AyDyrnMxWuNZd4dPdcZd7ojBJiywMy3JG3SuMU7WeHhMZX94WgLmHSYLeVNMBBKBRCARSAQSAUWgfq88kCi53Uhab4dTBq6cb+AhRLm6oblW2X2CiOvRg/hXM4Xa0wML43cebNhAWomUEoFEIBFIBBKBRGCMQJwQ65RZz4iDrIVM8V/oFmfGlfNBsI1kGxNr5jU/MPBCcGhOLtn35NzJWhaC7G4MbsUG7tlNBBKBRCARSAQSAUNA+VcJVM98wxAJtfXArEr5brck0jjr1mvozTQlaZqhZZwWHtPaYWz2E4FEIBFIBBKBYxkBJ2JiQOr0WboxqdOptHr6vYuo0LlbJXS4TbvWmBlc7angF+UQl2IikAgkAolAIpAIdAj0jNl6LvWcDK1bNE20w1IJvasyCrMkHi1daFRrSnbcYZgt+4lAIpAIJAKJQCIwRkCZdKwHx0Yb5NafYttK6M1NQ/SOOknnOSDUC+76VbY6APjgon1VpJAIJAKJQCKQCCQCixGIk2IlceVSEmvjcCrF14gWjYm1RCV0aKpRBNyxjj7vuNN766XPnv3qmg4CPk7lehCATLkkAolAIpAIJAKJwGIEwKDCpMbrK0K+5FLwsAXrXFpJ2b+6PpW3/XxqtCKxZxIRyZ20WRXZxYffUKefSFSxEzOlnAgkAolAIpAIJAIzECBZ27NdeKc7/MivIHZwqn3LjLysZE9Sn8jXzdCr3XlZotoX2zWtnnZXAocbVxQyWaXcJgKJQCKQCCQCicAiBHgCXIhbqVvJl9yts2SGtzvcxQ9kr26j1JMzdPIzNxrlsW2WLhpWtIZHESqPKqQiEUgEEoFEIBFIBCYR0Em4Eiq4lpJxKh7utkL2Fq3pyPyTmWbc5U4CdxZHICpgjYvZo1uUo2vKiUAikAgkAolAIjBGIFIrZEycVzhtl44o+MTWSK7QjdNQM33KfeiMH2OdkWGGepgh+4lAIpAIJAKJQCIwQIAcitk3/huh1rPhauwjRBcPAqJxAaFr9vEFeKuKI4mYjbLbRoZUJAKJQCKQCCQCiQAQcKr0NqJSdS54q059rwXOJnQ5VPAfZ6mkjSzM5HN+3DRXjyWYFRQ/q1grm1IikAgkAolAInAMI+A0OglBz6vucphT+NkMO5vQ5Ry+n8bXcE8iLUUQvupA+F4+6dyhzzYRSAQSgUQgEZiBgNBnmyyDS5VPwaWQqs0t8Acpj0+Z1wKTd7kzMcia/y0tG2TU7CIp4UtylMc35RDAu/IQmEsikAgkAolAIpAITCMgd68rUxqBg0tFV29qZxSZVqhVWpthe9RU0hmETi4Xf71GzqI4KkAldsQkyTFD11vqUc8N3k6VS10ikAgkAolAIpAIYKbNM9qcdSu14ilxYFCSuko+h5ae8nG9Az5CaLQ7g9B9vo3MGtUIG32JBsH7Il2dn6MVyZK7OdtEIBFIBBKBRCARaAiQJkGlEIQ2yajGnZip+8IZOfjWZ+l18uwere0J3RKDkfVYQBxrXktosTiOgMkH4zWgrSGtTkqJQCKQCCQCiUAiYAjg7Da5kme+nVHVyLm7kCpIvvpwsmwxJN8xlD2h8xDBnYa03Pe7Xtfx+GwTgUQgEUgEEoFEYAoB/RaZWMifPYn6GfE6PQ4+pGkcBDhfh9DZd7nXETTvKlWhOqWQCCQCiUAikAgkAksjsHEiRUSNcgHEbusqrW6oAwnUbxfpYaraKiC5HkOMUtRcKSQCiUAikAgkAonAYgQCkwbR41yFNt7G5vY2Q6cHvLAaSUMW8m7X50UBnS1ISG5nDMPclG0ikAgkAolAIpAILIOAcW6dNqPv19ht0ow0jYulAzo27mUJkRuhq516bPg7rMLWPJcP1kYw2V1LQs8b7JEQC5ldxdwmAolAIpAIJAKJwLIIyG1wzqUSoiJvjWOnTpzByWJH39dYYRVGz8Mgt9p34/Q7bzhakATiCCJ3f6Sss3QrwCMGz5FtIpAIJAKJQCKQCEwjQAJWfgWzkl8rwSrXHvYHyigBT8+dLaa/y70rKR5C4pyJ1y++WxRm59RpH1vM6M3aZclOIpAIJAKJQCLwzwWB/fv3l3vuuafcf//9Zffu3Vz37NlT9u7dWw4cOFB3Axy4adOmsra2VrZt21Z27NjB9cQTTyy7du0qxx9/fFld7U6C11gXlDV1Kk3eFhL1a+M+Y/fvpHO+TlcQv03EMdH2ZNIOCB0mpWXOtI2hQepYqpUZjMCpdDKvHvTPTSKQCCQCiUAisAwCINI77riDZApCfeihhwp0kURBkFu2bCnbt28vJ5xwQjn55JPLmWeeyf4yNaZ8Dh48WO68887y2c9+lvXvvvtujuG+++4rDzzwQHnwwQeLEzp84wIyB6k7oWNcJ510EgkdpH7WWWeVc845pzzqUY+aSe5kT7I4zniDa414UUgolRNziqK3yTVMXOAaaHeNRwWwMEdLBJ+6WEC1ihDl5le1VZVCIpAIJAKJQCIwCwGQ6fXXX19uuummctttt22I0J00zz///PLkJz+5YHa87HLXXXeVG2+8kSvqOqGDxI/fdFx52gkXl8uOe0a5YNf55byzzytnbT2znLbl1HLc2nHkvz2HHioPyfrZfXeUz+y9rdy699Plo7s/Vj5w+wfL+x98f1nZtEIiP/fccwtWjA/j7GbtIGwZMEhdZ+bSkwk0dULO9cy3qmmbx7J1hu5OSKQLMogExbq1api99SSzPdKSCCQCiUAikAhwBv7BD36wfOADHyg33HBD+cxnPlN2ruwoV578nHLJiU8rT3v0xeXsbWeVXZtPKsevHV8OHD5Q7j1wb7lt3+3l47uvK++//4PljR/9G8Zjln7dddeVK6+8kqQ5D17MuK+++urysY99jGR+6623lk2HNpUvOfnZ5SVnflO58slfUh6384KyujL/dPmW1RPLiZtPLGduO5PjjTUfPPhgedPn3lxedfury1ve/dbyvve9j/Uuvvji8oxnPKOcccYZ6i6c2dGmnQ2nTmS0oGCo2cYiJlsIeyv/8ORP1z4CsNx+zo2y3lBuP/cGVfjWs1tfu71y586d5bjjjuPqYdkmAolAIpAIJAKOAGbEb3nLW0isIPIvOuny8o1nf0P5itO/vGzftN3dFraH1g+Vv/nc/yo//8lfKp/Y88lyySWXlBe96EUzSR1k/rrXva68+93v5un1S0+4pPzrs76+vPCMryonbD5+Yb2H4/C5fZ8rv3bDfym/f+sflq07t5VLL720vOAFLyinnXYar88/+OBuSevsO1Wh59gzbj6vPOqWx3Ideq/B1RcP0+OCoBUD7rTT0/NilXMD+MpaPV0vrjwq8Kv4HpptIpAIJAKJQCIQEMCpdZDqe97znnLG2unlt5/6m+X/OOMrgsfy4qbVTTwI+NJT/7fyw9f+WPmj9/8Jr2m/+MUv5mnumAnX5F//+teXv/7rvy6nrZxa/uSSPyjPO/W50eURkU/demr5Txf+VPmWc15SXn7tj5R3vOMdvC7//Oc/n6fku7k3CVnInfzujKxk7715g6yn3IdOSurMLiZJKCJ0uLMPZM5b6cHiqGWVYDFHIXi7E36YOPuJQCKQCCQCxyQCIPNXvvKVPAX9vF1Xlv9x8X8rO9d2HjEWW1Y3l1++6OfLnvU95a+ueWN50pOe1BE6+Ohd73oXzwqcUk4ur3/Wa8rpW0874robSXD+zseWP3r675PU//jqPy0P7XmoPP/5X1bOOB3jAKvKltxNphWN6YxfUYsTZwgzltFFAsT6gmCuMvPGL8P4d9Kd4EnuNlvnaCRwXa63Azy/M95zZZsIJAKJQCJw7CKAm98wO77qqqvKi8742vL7l/zOUSHziOjLL/h+3pGOG95wZ7ovuNHtlltuKbhz/fee9tv/6GTu49gsBx6/ctEvlu8499+Waz92bfn7v3+P3AR4H4mWXO6zYwkgrYODnVw9yZyWhK6Jxl56tBCsIGorVO+lZ1+OJXi6Hfb1sn54PQl9DGdqEoFEIBE4JhHA18/e+c53lve+973l8pMuK7920S8XkNvRXs7Z/uhy+pbTZGLZcxBOt2N9/I7Hlaee8JSjXXbD+X74cT9YnnXiM8snP/HJcsON19sd7iBv8K1shWhXcNu7/jc+1Yn1vGIkdJD05GIJweIo5H4oSf6WlhSPDv7Lun5IgFwXWsdUPZdEIBFIBBKBYx6Ba665pvzDP/xD2Xxgc/mvT/61gmvfj9SytjLzSnI5S+6a/3xYsP8/cMHL+BW9O++4s+zft1+GpSQqW/IqW5CqLJxcq4H9WZvZey4ROh8HfaODbDITt1k6dRiALeB+dEHkuPMwCd2RyTYRSAQSgWMXgX379pWPf/zj/IrYzz7hp8vZ289+xMC4d/+95fZ9ny0Xz6hw1/67ZliWU9/w0I0FX0m77+D9Bbn2re8DK5ZTtpxcLjr+onLG1tOXSyRez951RTlp7aRy/wPyRDq5032r5MBiVCpS4FdaosYUg2YuodPXjhA0Til+kKOrAiL3deSXikQgEUgEEoFjCgF8Re3Tn/50OXHTifIVsa97RPf9Dz79R2XT5k18wAye3ubL1q1bC9aP7L6mgJQfu+M8N22o/Yr3vrAc3HqQj3vdvHkzc+JJdrg2jwOX5+z64vILT/rZpfLje+4Xn/DU8rkDd5UD+w9U+q6U25i949h5A54mdBwY1KwtHGqbr8PBDL3GyTxn6A23lBKBRCAROFYRwKNUsf7vpz2/bN20dSkY3njHm8pr73h9uere95W7D9xdDh4+xIe9fIMcEHyDfG98y6Ytozxv/dzbyi9d/6vlgidcMHoiGx7HevbZZxc8J+U/fvQHyiueLt8JX3IsXujAuhD3wfvKV73gq8rpp59enNDxOFg8qhY33V39/veXb/3Qt5c3X/HXHja3PXnzrvK5MjxrYExuFOtMOzeRGacJHWStd8SJG9IpafNSuYjeVj18cLe72HBDnJN6fnVtmZcgfRKBRCAR+MJFwH/g5BmnPH2pnfyxj/9U+e1b/l9+R/vRT3l0ufDUdiGvAAAgAElEQVSUJ/F57nia3A9f9+Plv9z4G+V7H/td5V+c8rxy6pZTyicfvL684jN/Wn731j8op55+annuc5/Lx6zGYvhG1jOf+UyS7tve9rbyte/7V+XHH//D5bKTnsUnwt2z/56ybdO2uQ+1ufvAPcJxK5yVf+mXfillrwGuu/nmm/kDLte+/2OuXtjiIMEnxzj/rTfCgU8tlDerCbGShrmppqnk04Qug+bJdRmk/3RbDGZhKDS/NErm2l0phw4eKocO6YqH1+eSCCQCiUAicGwigFPSWM/bft5SAOBxqXhEKh7jiln1Kaecwvgb5bnruLkOj2z9iZt+prz8uh+t+fB00qdc/JTy7Gc/u3zJl3xJ/7x088KT2b72a7+WD57B42ZB6sdt2ll2ynrH/jvL1V/y93MJHdfM8cMwOHWvX+Gu5UnkuIP/wx/+cPmq076yGRZId+7/nOSSe9N1zjxoycI08R41ydVuTZ9OPMm2JGzJAKLmqXcUsxk4SBwkT/Lm0YOOgU+PswOJA4cOFJyGwJqEPg18ahOBRCAROJYQOEGex77M8hWnfXl5xTV/xuvgOEWO57SDsPFDLE984hNJ6PghFVyz9gU/VXreeeeNTrW73VuQ+td8zdeUCy64oNx+++3kKNje8IY38MY295tqPyeE7tfiox1fyfu7v/u7gpn/iYdPKD8mM/9lFpzNvvbBj5cLtlxQtm7eImwLopUFl7uFY53dfQINjoULLBNXxBE5/PlU6sSb/9lBEX1IjKZlHbGQ0kn6KuN76Cwi1dYPrldCz9Puhmk2iUAikAgcwwjgjvBllp9+wo+XW/bcUt4uJAnSxWwdT3573OMex98bx4+bHMmCGf/znvc8zvrx3XQ8uW7X2q6F34u/S25eGxI6rp2//e1vL29605vK3nv3lj+59A+XvtP9A/LjMvfL3fI4aNkpByzKuzKNBskamerzXdA3zsWOiw2kPrVMztBxdKABIPG28Np564pNrdiqPwpDe5hgYYaOU+85Sw+gpZgIJAKJwDGEAH4vHCtubltm2bG2g49IxXX0X73+1wtOteM0+4UXXsgZOogdvzt+pAtuatu7dy9n+ss8BjbO0MFtGBNOs+OHXjbt20Qyv+ykZy49rD+/7ZUFZxZ2nSwHE3JpWifgOoEmnyqpSj5hVJI8p9d2hjwycys5Tegk5eZEiVzdkjRJydwOKHgkAULHDh+QNU+7D3DMbiKQCCQCxxACft0ZN68tu6ytrpVvf8y3la8781+W37r5d8rvfPz3+F12nCp/whOeQGLHrH3Hjh3Lppz0w2l7kDp+53zRgmvoPkPHj7y8X+5o/8QnPlGeetxTym9d/hvlMTvOXZSi2m+T309/xWf+vJxzwTly89+Zqg+8q5e7RV2ZXWflvLRNsq2pmiCkzCfFNU2UQNn1EIFEHa1RruROQWMwMz8g1xZwfQFyLolAIpAIJALHHgKYheIa+NvufvuGd37Xll3lBx/3feV9z3lPefljv7/ce+M9/MW0V73qVeXVr341b0IDxzzcxWfoyxC6z9Bxvf01r3lNueWTt5QfOv8Hymuf+aoNkTnG+vJrf7Ssr62XxzzmMeXMRz1KpsDKm9jq+XFlVd6mNiBwzORnLdMzdHgzH57MPof1R0ajdtFjlg6gcXcjZuk45ZJLIpAIJAKJwLGFwBlnnFGwvuu6d5WbHrp5w+QHtI5fO65853n/rrz0nG8pf3bbX8ip+P9c3nDTG8p1113H30DH3e34bvhGF5+hnyrPf1+0gNDxxLsdZXt5ydnfVL7t3G8tZ2571KKwkf3Vt/8lf8P9KU95Cu8NUG5U7rR5uMWARatosmhmMboQ/ewZuh0FrIK0ZUUTFzyqfX0YDSUW6CUQRL5n3x5eo8hZOpHJTSKQCCQCxxQCp556KmeiW3dsLf/PDf/5iPYdD4P5pkf/m/LuL34bZ8e3feq28trXvpY3tn3kIx+RW7gqBS5VBzN0rMtcQ3/eKc8p/+PJ/628/znvLT/xhB99WGT+ofs/XL7voz9YcLf9RRddVIBN41fw52D8zqnd3qjPwJMeQ0quYYqLErQ8KkY4GrIRtjSrQtg1WPpqUQ1krAD34P6DNlPfv2Gw62BSSAQSgUQgEfhnicDq6irJC9e8//S2Py//686/PeL9wENgMGN/yxVvLE/f+jR+bcx/Z30jpI4ZOtZlTrm/5JxvLl9x+pc/7J98vf7BG8o3vP+by8qO1fKMZ1zK+wDIlKBNJVDFRWRwLv7p7BitO3gbLoiD2Y3dKydrprbl19IkFrNwvCCkdOaVjZD5uhj84IGF6UsHmK3+upD5QTkCeqjs3bOPM/ZWIaVEIBFIBBKBYwEBXCu+/PLL+fS377zme8sH7/vQUdlt/NDLn136xwW/g47T4bi2jl91W5bUfYa+DKEfyYAxM3/R+76+PLS2p1x22bOE0J+p3/4Cj1ay1mkzZsrgUJKzbJxrlW+hHczNwzV1xvhAnejRrovTuhA5EuNRrl7A5+qYobcFaWCxdGhkheawXNXfty9PvTesUkoEEoFE4NhCAN+tvuyyy8rzn//8snLcSnnx1V9f8Lz2o7Hgp0i/57HfWX7pwp8vN914E0n9qquuWiq1X0M/fcvGr78vVUCc/vL215WvvurFZfeW3eXyKy7ngc3a2hbS+Lrw6CpnzToLJt9KDLgX/IlFRGzln1K/30AHLRfnd2mFcUXlq9nRkK+FyFEQbvivjRI5jha0nJWVDspBzx9mkUHq8QaupR+SGfr+8tCeh3j6PX+4BQjnkggkAonAsYMAvr4GQn/hC19Yjjvt+PKSD31reZlcT/7cvs8dFRC+8dH/uvzaRb/MZ6q/9a1vLddff/3cvOChPXv0Hq9Tl/ja2txkE0b8lOt/uOb7yr/9yL8vx596QnmOPJL2iy6/omzZhh+oAZELh4IvZUOa5WwdOvRh4H805FrnfZ2QyzbyNpSyrvFueRiwWBsfIMOjByNqS6u+OIJAJSwcjbTSx9EE1WLUFg7r5cChfUX4nD9sj1P4eHGHz8OFZy6JQCKQCCQCX5gI4HMfP2xywgknlHe9613lLz7yqvKXn32tXA//Drlr/P+e+yz1ZRD5V2e9uLz33qvKKz70Z7yzHjedodbU4rNzTD3xIy9Ha8EjXf/n7a8pP3ndz5R7D9/HO9mf8pSnlic98QllBd/2AjMLJ+pkuZE164M3adbz3Tw7Tm8odYosv4AmcrgDXnr8ehsJvd4C3ybyzu/ih7I8OoCMXmuirGpsleR1wDz6MNPhQ/I1tsP7y1551N6mtU0kczypJ0m9YZdSIpAIJAJf6Ajgcx9fM3uUfP/6/PPP53fJf/ETv1J+75Y/LN/92O/gb6bjpreHu+DRse++5z3l6quvZn78WMvUguvnmKHj+jkeZHM0Ftzw93Of+sXy0d0fK2eddVa58sIr+SCcM87Aw2OUM3G5uvJknfUKZ4qezGlTcfWRKFV6uM67haQxKXeudhrf9NLTXvaTtIjVjbtPuKc8cOI9ZfcJeFQfb4/b4L5qJs/nwbhR4ZCMEq0/DhCz9SR1RyjbRCARSASODQTwYyt4jCu+P45Z9L377i2vuv7V5Y9u/RNy0ZOOu7BsWR3/7vkidDavbi7n7ziv/MGn/oh58XS5bdvGBwh4Djt+HW3L3Vvkq3DfsCjtTPuh9UPljXf+Tfmea15WfuPm/15Wd20ql156qdz49gz5GdenlhNOkh+l0a+NSQ7hO5HJjdT5TFs0/K/EDu4Hjx/GtsbqEI6/f1c5/gFZpR0ucliitMstKB+LtxBgqH1apzf001w1wGO9lUh8Hx1HRkrihwXo7fyh+CT1aVhTmwgkAonAFyoCmK3jASuYqeNrbddeey3Xn73+F8p/vek3y3947HeXbz7735QtmzZG7P/i1OeVJ+28sHz6058ut956K3+5bYghZudYH7X1jKFpQ/3fueV3y0984mf4q3BXXnIlf8ntnHPOIa/hWSx+YluT4pz3vEWs5qDNhLfzsbTx8jh4etNLT3/ZTw5ouDyIGbqsmKHjofB+fn7o1w3LnSQrZuB4ljw2NcYGgeMRnH7HtQEc2YDIMUvPmXqHZnYSgUQgEThmEACx42dSH//4x/Pa98knn1we2PdAedWnXl1eedv/LKfLk9wuPO6JG8LjLvkxmHfd8+5y3nnncR0G33bbbZyhP/HQE8qXnfalQ/PS/WecdGm5aOeTyuvkyXU333YzOQ0/HoPH3c6dqIaJ7rhYZc6R6bj7TyrH3X+yrOMZ+ip/Y3UUIgrJxwfBGyVrervOjo6vJjIFTg3If3A3zeZDWncZrVgPHDwg19P3lAceeKDs3r1bvtq2N5/5ThBzkwgkAonAsYkATo3j51K/+qu/urzoRS8qL3jBC8qhU9bLt3/kO8t3fPi7ywMHdy8NzOUnXVbuv/9+rlNBR2uGjtxfecYLyt9e8dfladsu5vfg3/zmN5cPfvCD8nsmB8RK0pPGWgRArETpHjLZNR9l2uggAcavLRCJdIGnzI3t99DlinqbS7e6TAebCD61x/fKqaeOElLZilHqNQH1l74EM8J2YIVX70UjLa6n75VTHmhxKn779nU5Bb+VX7ife2QjVXJJBBKBRCAR+OeBAM7I4rnrN998c3nwwQfroHEvFa6f4wa5c889t/56Goj9kksu4TV2zNrxE6V/efXryrX/8PHyikv/v6Ue1frEnY/n16Rn/XiLP1TmjJOP7JS778xZ284qf3Hpn/DxtnjE7X333Vful/WSpz9d77QXmjQalBCQNyIbv7pMvROuJ6ersbQ6VAvYl4vkq7f2Mbfpt+3ZUbY9tLNslXbvDvmuGYobd1tTCZ4jtGyaQzxkMJDdl7uBjmnUJltJilv898uj99aF0PF99YMyc8eLia835A+6ENjcJAKJQCLwzxYBXEd++9vfTlIGoeOMrC9r8jvgJ554YiV0PFEOK+4Qhw2nra+44gr2cRr+rfL98hfLE9fecNlrynHygy3zll2b9ZQ0JotYh3zSZuhH76EyuFv++y/4j+Wyk55V/t2Hv6u8U76ad5+cJXjms57FfcQNceBBbjFTlr5qwJLaxz4pXXKrxG8Ev33PzrJtz3HkZ+47QiBwI4S+Z/vuG6V7Hhx92faQBEh/u7QkdHN2e2vFMBwUC+uMnz/KTuc2UKbCOEXAbB/LYSF1nJrAURwI/aD8QtuWrVvLVpmtb17bPHohGJSbRCARSAQSgc9rBEDmIGH83Oh9d99Xvv3cl5YXP/n/FMJ5THno0EPl2t0fL2++6y3llde9uuDHVXDHOwgds3WsuK4OIof+K7/yK4VuVsqb3vSm8ts3/2753vO/a+6+4wlyW1Zm30znX1t71NaN/2La3MJifK78kMubLn99eemHv4O/m46zElfIo2/PO++xQn1C3bIfbEnixsfCh6RwmejyPjR4iB/pElQrebfKRBuTbfAzF1CoGITH0b1x7eDmfVcdXNvfEfp2OQLQIwEEaVkraUcL1iMfKykjm8/i3ZetmTkoyaWj051B1xSsghcfR1Ig9S32W+qYqWPF0RrWPBUPzHJJBBKBRODzH4GPfexj5R3veEfZfffu8ufyzPUrdl1eB41fTvuik6/g+kMX/ED5u7vfIT+N+sryV+97I79DfvbZZ1dCx+wa18Nx1zonfofl7vEFy8F1+WEwefbJ1IIcmKHj570X3eV+YP1A+dvPvbV8+elfNpVqpg7PmX/1M/68fP+1P1T+7ON/wW93PUfq4o5+TtQlUie1yo4gUHDoCoidshAk/4PolTPBy9v36mRbHGvtvTseLGsHNl+1tnXvjtfsPv2eFxd85XxqIely06yxOyHb8Bqvt0jVYWZe46ogXnpksl9m6wcO6K+0OaHjLkgQurd+Z3xMnXIikAgkAonA5w8CN910U8H6svO/tyPz4Qgxm37eqc/lultufHv9HX9V3nTnm8vVH/hAed/+93HGeuLmE8vjdz6u/F+P/8bykkd/0zDFqP+ZvbdRh4OBqdPtmKGvrayVk7ecPIqNigcOPlC+5UPfVn7yCT9WXnrut0TTQhlft/v1J/9KefS2s8uv3vDrPBhBEEi98WTkQOXGOjkmV9oE2Ku5O1v13ysz9FMeePRr1rbs375v7cCWu8S3e/Ydp/U2vQf7GxNbSmSyowOK9eSB8nQ1o5j4yX+o6tJ1XNsrccoBNzPgCAqP6ItkDnkTVvu6G8gdL5h/9Q2z+JzJO67ZJgKJQCLwj48AzrjqN5j2la87618uPQBcG4f/RmKmkn/g/g/yJrsdO3aMzDgFjnXR7ByB9wuhr66tlh+/7qd4ieDnLvxP8sCbzaOc8xS4rr5tdVv52U/9QnnnO99JPsMlhUiMpG2nwTqFl6w2AVZOxvVzv3fAneXauXD4lv1b9+FZ7rfKtP+Tcg7+FJxq94UX3nHxXab4e3fg/LwROB3A0JLMpvz1620gUlF7GZ79tzDo7GBDMrFXc1jPtTYEzYLH1u4/YMS+dx8fG7smj47dtEkIfRO+v65Ezhk7SD3J3PDLJhFIBBKBfzoEQOiYlO1Y3bHUXelHe6Svu+MNvOEON1njdH1c7rjjjnLvvfeWc7edE9WTMs4YYBKJWfUfX/eK8skHP1V+++LfLKdtPXXSf5byu+SxtvceuLf8xg3/vezcuZPrKadgHq0MqIyntOh0S4sZlJP1prhYA9fPweGiu3VNct2yef+2v5cp++WR0ON1dD2Dr3Vtwq35hNTtMr70jbnRgOw5EtVRtEF3pG4HBHwUnh0MOOv7DXXMwPMPeICOfL3twCGZtTsEmJmH2Tlm6rJiLDxoQH4DA8PTcWDoNiIZp87kmwVWLlUlgsk8cNFdqrqRr1b23aC5nTDBIOx6iADB6yTigWsm1KKOLBFjQEmYMAwJR3kbDgXqqhPDq51qywcLhx7ywNFzehByY4l1tF7b+j5gAFp/1sCQqcXxDs+aWAQxIX64VJWG1hx8X+leMKSaGYAeFouWndd9q9mkmPhIF1gHT1GLxt6LNGBDX3nlEII3rec1B9egxdK5SFCr7Z7qF3t41TVWx6MxojEnbdSHjuJQfaqbZBFlHX6MpdyyOBKoa38h3CvbVZbQOrKFs5f2QCg4AM3pAbUX/ZnUPTyBV667aEUUZ9TE3wqL16TiK7L/DegfFlwsp9giJl6xaz1XbTXhaDRuR7CNv6mkXut06ekuG4wIOSGpDIvq0aolJAmiW90PbfeeggIZ4s528XSgj6v1VY56e9VrDkPAA+BK2RXeeg5tXdvw80C09rqIhHuhcHb1ofWHyp5De474h1eQfdnlU0K6OG3/5Kc+uRwvX4u7X5530kZWyp133slnoDx1x0ULU95/8H6eAcZjajHbf/81Hyhf/t6vKr978W+Vp5148cL46PAjj395+djua8u7PvEe3vV+hfycKial3VIHKq+gvFb+cvG+NpmdN57GK1EKTreDw0W8Ze3yj551699f9Jl3fPbMG+XiwIpM0dUJjjrFP57tPs7SoZWFLvqnZ+8AKeovs9jrXx+squebCz4YHRdpmUc84O9/tZZG0zV/DUMWW2gSgj+o32HXXLCJQfIhDXLWD2rLz/EYQpVgPCt8sDAeBSDLfxaXjg9ZBP/g8f3TgxK4BIvEkaw9HlbsgNRxPOLZDRYUX2Cp+4mCio+O1QbAHGJiy0w6VPSxtKFrB/ujw299jAC1RMMw2fChBhyg6Vhb9ykk0MKsjWBkQKzuKwbFcZmJ+ZEbfTjagvFA4W+JaGs+4iTjgU1xRoj0uDMYe9h3VEBhmJnaCiAZTNB1NhhksRh1gJeouAMaXw+2aNFNHLvuANLoOH1szOOFMWp9Q1sCL6t7AKUMDYVbHvQlXt8Jup9Mp7tIXw3CaytjZX0dM7fYIIPV9Ve6Yaa+qIH/9e8EHQ0kNBAxNsYJLrRKTo4XW3M3BT0ZCBNs0navsehMrTnpYGmqQfKjAF8HNLr/MCNYbe6sNdSkOoaauo7BB4p94Jg8kUaaUsaM10rKwGwjjfUNTgSpk41fFRweNBYJF+yLJwwW0es4ECl6B8m6uif+akEpCwclo+LYpI90XOCNxRUWhxqiI15iZQ9FOTq4i6yF+lZMvtDMtO5orjYIaiVntcp+6KslfqgvK/b/7Xe9Y8M3lfkYNtruP7S//PuPfG/Zun1rOevMs0jCeICZDxK7c/c9d/OU+2NOeMzC9HjiHGboWK+88sqyU75K90G5tv/Cq15UfulJP1fwC2/LLqsrq+UXJeaL3/W8wrME8j31XbtO5svPHAFrYMq3hgx824N6d3v8NprX3L9l3+4zbj/vHeByTGex3Crvrmvs1nfVyHbbnuPlq2t6i7x+yMmbw6rwfYHi8mLxw0r0sFEF5OxFRks9VK5jBbzwGg+kEYf3CHW2pZvI+qGkbxP4YOF+c29FYpxsVIkIqQlHZpUWOfCH4MGwixahVGHDKGmh01qIxz+6WG7uP2JrnCdRB42FUXEhbmLyTAyjDTmgldbGpjaMQBfU0IMd88FIUE7M0Rf7YaMUPf5ZvPsiDDIHH3CAZ+ejHdnKojYmk4GgBp1RSfIQS7gTREOJA1Hsia8Ec1wYEHJoMsutfsjKWrblPsNfFnwQ6Fi8su6lY8IDrThMjkcUTCIJhjXNF7n5XoSrj8r2T18TjBv14Skt/VRGBBR+MIhScIQP63kQ1PaPMTRrNcVSFLKwDmJlIXzI731p3a54q0Fx1BhsiRL3Wbyl5cGl7Rcw0rEpdiqjmOZmLYTVdOjgNYYdWlnhC4UI0KGeSnRlpHpiCz+GsEU9jFf/HlWvedUz7otGQg9J6zGJ18a+SS5faiz3HYWwryzIQhDx2cQYsTGSaSVSXifEw4eLlxN/qPxADuDBBKXui3XQIIfFMY9uNJ5uCBIHLxJalpUN4vl36eNDHDLQQWNrGC0yHtTEYOjn+2D7h1AOSlr4MRGT2fjFv45b9PBRsw1TdfwbFwNrMQ2T0ZU4IIcE+/tCx4PaVlMEvI4nC1nhR1h+5pM/W+470J/2hucjsfzEJ366fGj3h/ls+CdddKFehjUQ9W9DZrVyQxzWx2yX69gLlrv231VvxsZ35p/97C+S3zZ/Ttl1+q7yPR99WfmRa3+87Jc74ZddHi13v1920jMFKwHL8RJ4+Xq5iugiI96PK2XrXkys9RK4BjFQvq72IHC+RhxvhbcT+i07HzzhbzF1jwuOBnbdfUbZddcZ+r03eSWRBqu9fdjBuPDCK2HgDWbvEgMRUVDFNwdN9heCNwVzIgyZpcMYKKWveyoNC6G1NxOjUJzRMIir+rOeZhW9pDGXJosCOsvvH+SIw1JrodONC29T6NxR7Riv1+C+YSzVjXuDKFmg9T4HIPnwhyP5mEJktG0gun/qil30vx1p0dGUcIcLoUA+9mDX8bY41BJHLNK6P2Tus6i1hZOuyMZF0mHkJAlJAj/UiXuj4xZtDYGs42Qt5HAj04sCCwYombBAjZzcir6NC+NFfbOLQC/ESk7abKzEg4kwQiTV1nMhg72SISccNSfSMC1roa73YdD981z0Y5yOgTlEqf9QW2PREgOx6P5KHvdDEjjI2iIRqGpYfB+pQxc6bmVf4Ao8PIQBDBEP1dNVE2kkE1gAfKTPlWkRhfHavrISxqY+kPj+47g9ULTSxz/aKCGJxHCDcSIDFm+RCVat52r2+EbVGI7LXsMWLVHI5/k9h+VjDQOE+SCzgLb++uP9yHEriOpjvtw9FAS2bCWD+1Oheh4AcLwIF10N1IoYJPcSseanTR2FvoYaju3/3963xmx2XWe944znZs94ZnzBdjwliR3HIRWIEJS4ThpaKAIJKApSQcAv+gP4E4lSIEioVEUqqIhKSKhAG0KrpihNBVJbVAUSgipFagJVfzRxEnDiOnF8mdiecT3x3G3zXNazzzrnPe83YyeW+oNtz9lrr/U8z1p7n9t7//Qf50amGm2a0reLcf5TvqrHHLoZRINfcSWkD5WwDsUkaBA9Q4s4YNo8FDaJTNWi2UOXdXHJzLLN2Jvf8ubN/filt8cufW3zV3/nb2yeuPCEuK/HhjfVv/fwj25+/hu/qD+Qwl+a48vtWi9UlnVkjZfweSy+HXDq8D3XLOXrFx7XDZ3fuGI7jPfk3/kn3qln6/fde9/mI9/4hc0P/u+/svn6+cevqRVA9g171qPGNYQhT2ws6uEXj+AefAfuxXe0l9tNuXj43OYI7t0YKblu6HyqfvO5E79+/si5R7afpeM7b7ix8+V3JvMuc7actLlYsjDv/5QFD/a0C64KpWIlC/rA5SR88DjmiUqxXQSYgBXo1FAu3Rx4JMGnAyoHYFKgl6kzwdXzuBZPhTl/oQKGHiVJJjsYOTWmKCOUkAxDzVIMBU0nmvHmsQCgk5+FM88kBJMKbi7dJyGJ/I9tQhQuPggrxg10+Z+fcWDs1CYzXutCnNOXKnnyecyYdDCUYuETFbf2tX3W076iQ7zMSgP4yJoOaF5krI6OFsZeI9vy0U8xQFGCRtxSmUNv7VZN8nLsKCyCzKdBnWL7eBZCcN18KEKM1snrOAQMnY5PYKRV+gxTQ1QXo9ROi4qJI0b/wYBDxwuwXguFpckamLcoDsjjapRSQa+njm+ik6Tmz04wKjDPUKLBiKOqSSY2xU2MvXSwc8gnjH32LkyNxlYA1578dHGtIqAUVNIaqhtrQawOBIPkd92I8H8BtImctasi5SkJ4pWZPA3oMIL7fxxvTmA9HZcuVftSPMydA/yvY696hZircpcM3KmCHIK9/60ngt0WVF7FAFUjp84XuSDM3tc/GEqELNwnwGpunI/ZJWGxKts+6kjLSKZR45BAxezyA0YpM7HyE8Zj1k+kqFXHda3ZTXjP+d3veXDzx/Hzp1+69OXN9332z27+3dd+dvPi1ennX63+7W2/dO7Lmx/6nb+++dhTv7Tu4G8AACAASURBVKK/P/5+vDT+xnveOER1/ePO5XwwrasvXcV7/Fc3dx3k3ynfuz3y4lf0V0H54To1zO0GfHbrgbc/sPne93+v/lTqly5/efNnPvfnN79x+hN7iyH6+1d+f/O/nv9tS3lPqSifP9wBWWOY2AcH+bswenaOP8PaGp+dn7/p3CO8d/MezlCeocN85fFDF498cvtZ+s16hs5n6nwdn8nYnFYmBhjxf4W4i9lYlP019JiDQIRSdIp5qHEpSFsHd8V0MsCmDP/V9GF4SURAROWQY5Dc9LnOEZ1OYmLVpliGusBW3Y7iZIGhGgdcjtJgx4Aves1pP7S0bOhHpaXDzmbfOpd1MiGevPRgw94Tg888Y2tLV+UscXcFlaJqmZZrypIVHpVaSwtL/RJBZ6SMulBUfnWFK5fXDlvDi8tgOar3CpLb+M1sKyhl4VM8PDT5z63mQD6cjs3EAvNyMlQ7itiBHGsMveEktQbiOSaPxr0OO1ir1oFUNNWJEKMjHxKoBHgUR4zxpKKpxVZPNRnjuA5H7hqoo25ETBoFKAJQ3OLWJnq+cdjpmwJsBDUnHpi8uEehhMyNAvCcGC+01USbWA6T2/hE1zC00Y9bmE8MI8vWg6VCClc3HdacFAPDusz2lkPoeD6uwAjO0c0UzF56xS8d5xjVed5ShiKghlHdxZAtO7UxpbIjAltTUv2lSQIS0y+TvdbfY7IlIQ3aQjlIU2P2knEvP0wU58qsoCBxpcWxrzmoJfMVyPhjx45uHnrvQ5uHHnpoc+zOWzb/7Kv/fPPOz7xn8/e/+I82n3rm07rBCf4aNp9/4QubH/3ih3Qz/fzlL+j333mTvRs/SuM1sqjK4qbm9Aq+PsUfl7llP57BX6N9/tzDeB/+sN6L186FsLSxAvzxm/e97314Gf57NgeOH9j88Of/9uZHHv4He7698BOP/OTm6g1XN7fiF/COHbtFNdVeVCXdPoh7rl4lx/13+jCcC+azc3wL7ZOY0nhpYPyW+7u/+EZ8OO6Jj37j1P/9c/h4/Fs6mR+X58vuvNmf3ZzG19j2enSVo2BapS3PlmPCrllLeE46+3t0zYavu5WADhxs5Z8dg2sFwMcDOvhAtmQTqN5xMRcRngAll34LYQdPie089DjSY7HTd0n5VgJx1bVhlmvEKBRARBeCwSasvpyrsRlw98DcaynM49lX8ea67cnFi5ww22hmzwesr5CdoLLpqL20GhNobHKy5qhIH8AkMUWkrs3kCz5lsb6J62jGzlmjWee6q/o5iaO2z3WTrgyTrinaygklnEyqROMgJ5w98VevE9BVJCJGFdY5Pc6wTuPuzCrIx41rEpQmjWnDUY1tTmMn97ZTypMAxIZZ5FxP5n7rK/WC0TLDNEK+cZGYuwkxqm+NyVGgiMPI5ltvr3Riukpu2eh3/aVUGlzHzEvAwtpGzHe4hunZNptbjh7Tb7Lzp1z5e+6nT5/efOK5/7755S/8in4d9P4jb928C3+G9H78QZVT+CoZXwr/Q/g75UfxnfSDNxzcXHr5km6Sz1x+Rp8S503208/+z82jF35PX/+696336mV2/iGX48eP+0HVqB1V1s6Y5u3KD9yw+6dhieBP056+fHrzppvfhN+VPzpdtylYC8I/LvMgfm+enxXgz9d+/Kv/WT9n+0/u+8ebD9z5l/HNK3+KnX8p7sf+z4/rVQTWeR/+8Vta89qQtHT5qviJM3fi3nsnbtzTV8pZF19Jf/GmFx695/H7P5pn5/SPGzoHmCzeS7/lv+LG/cF+Q5fdfknON3V/N50LlIOBGrM2gl5GHRQAaG1RtN43LoIPHyspXrjoDak4Wj9iMHgN0nnAfmAGQpPk3o5HfXjCJ4KBFnYmNHhDehgzkeGl0RTHiD7K89H8sgXPXmT2wMXP4RRY8/pk8grM4xNvkRiwINmnBcX9Ezux2QRCEihKQA4ThnYO2cNZVhvD3FqTKTzjUmm7dbBtrXO51XWIBJqjma3MgVrP12fU7S4W5sswtlbSJCbcmvwU2lJbOLyPqF0W4oZwm9ZJ9vdoUO6niM/PeTQjK07Y+HtvTPcs7fAbcsUVluvBXHOOJrDVlwi6PeS2WEGHMwEmPfq241tIOzpQB+SEmwCL46JzAOJwhlh1dF0LTPuuBAevxqXdmUvbR9TSmzF0Jik5Z0OGUTg/JX7vvffqN9qfffbZDf/pL5LVnzj9zfOf2fy3M5/Sh9X4/XW+JJ4nbxTl/YIafC+bf7Tlprtu2rzr5Lv0O+/8Yy78i225p+iwqPJUy6ygCqA7fen0hj/Ruqv9xjc/oWfm/D35gwcPYJoRSm8mf+jsHe94h353/vbbb9888sgjmw9+8Uf0l9e+79b363frP/XspzdnXjqrtwT4aXk+uFFbKTA387u+ca+eoft+POXkk2veq8Efz86pNbuhv0fP0p/82FN3P/qn8Pr8H+0fkc9NnY8MLhx6sT1LR5JcqHWgzg45xFgEfHTLnPAVUYCPIgtQ94mKds1BsJHhuD3jTu5Ho5UOAF4ffSuqG5IumJNHXPim7CzDRL0f5aLhpN96YzBY9EBBj1KplJk0C1wv05RJSPjNI8mPdPPyfj3oNS+5VRt1wRY3+TAn8DU91eUwcXpp1AGOmIgCbtDLPBVTHglXHB0oylLusP1BPhEAcu8D3lkowDmzyZPUVQs5E7JwlWgWKY1CoEMuL6ZmUpRZmAVPexkhgSrb2E+cCQMKSjamBqjTFzLGg4VJuybmtaMPjRBsfFEpvLpJZeSa6ZGHpnUp7SqJ7pIYYdVY8l2G+9/LMq3qvPIihVvkaQir7ZvUyovqUOTa1dqztim/Cx5aik16bTrmkKjisKmguR5MOmVNDqUlyRd78lt9imK9UWOWU6VUGspMNQu85lj4evJuj9IlNEUmywGMqxhVilpmCA08b+GzyXUIY0Z92AJc6z92w0ws5KnX/qNACCO/nFRGrEToqmYPt86fbYXR9eN6XsSoldpNk1z+fDdvZvzH2s6fP68ffmHvP5hyEb814hs6XxZP44+H5YbOH2a5+eabcAO91S+Fc0U5P7RRd+Y7X20B8pPi/+nJX9ZfR0uO3vMZ9c99/SOb2+6+bXPbbbdNoZrqyKMJesQ58ebPBxiPPfbY5syZM5vf3HxG3BNvunXztjse0Kfvx808qqCPcuHLq+J8ud33Yeq78R588dD5373ryXs/1p+dMzq7oQuOH5o5+exdHz9/0wtvx00cv283CfGmzgQX8JI7Rf3d9NpbLMj5xv7jOI+YGNR6V9VkBe/TkQBiMNLBX7o5K0WuBMwArD6Uomy88LLxskM1hIHXByHKx+TSTow4ypQusc6Irfwc25Y4j1DVwtTMRlBlJKxcCCjumzKcrIPOkhJJ7qYvElHwsR78P51fFE7jHKCnE33yZw7kK1R1UpHNksR7nVyRx1NdTCoIqyBN24nF8FCERS3PIRd8XziiU1EI6MM06LXeZFIUXMtx4Lro9ToWZkrHkIOaDNfBdL9nx3GtnUUNZ45YldMPQlzTNAfPzfVZd6K6CK0rtJy3kmPsyqmkwfB4elgD7i/G4MhNxjOO1/kyH40cUgmc33QOUY8IbaSqBYOg8sjNAUKwtXfIJ7KOCZrjPKAbWMbjE1lJxIpU5SUbTdqVhFmYkvOkFjfOOHFVCdwVMlYiM92spWDcgJB5cdSbamYe5ON6JCsYGjOuZmBGA0kc6xQui8+dTE+RcyNMhqGsg6GEQZG/aKmDJ6Jk5UBQHJfhGs2jx9WXDsakuDzXx3hypL5xrhE4O3BJriahmo7qaAGMtbacbGz2zgRgEdRxrtvN6xF/YYpGr+JaBx8b0tRxaJByYXyEv5p2BJ/PyrGDMNeOa8ZjX0vnMrNrkrT1AARTa+1jmqtX+5noqo/P5nlT/de/9282D514cPM9Jx9sWjb/5Vd/evPCyy9svvu7vlvvlctbxUzrlL3nHJQ/iFcQHnjgbZtT+GnX58+ctRjmxh+Q4c3+AJ7ps1UpFa/9hJGfnePbZfpUOz+3psUwDlvczK/wHg2F2bNzAvzi/oBuNh9+9l+98HdOfujqhSPf4hf07rvx6sERTQGUf+kAfo51/+XNSzdeweJ7yTQlr6uKJVEnOIjzE16R2jlW1Y2MC1+1y8udSSXsXfkR881DwhRR8xqTiAZ4lpZ9KaBni47r1UGjSsvvo0geEpSTkiJzk1qipiopKyxHAgcfAR6oFMkBC5jnYx0npLoxhIXq5FUfeSOFuZIlTUNuiGU+p9SYHDEx4mJxDMJ0MySKSUUrohlATVMikTwCaSY2ipUbEHAoRz+hTKkeDFNVj0PYal3IpW38wLksBlUzxZQfHEK9sSGq/NTxKccIQcsHbMJq8QiVkrVYKxsKEEdjxpVVPi+IjkyXLnqONLHNV16JTTjk0lrDnXMi50+/gYiFRdQslR4WerHh1/rUzlenDTSpr3qIRRuDclIBGO0SuKjPUbD2G+sZUoIc1kvB0k0Pn/Yza5JKgagJs5Qd4xg6wiPCXARVNVGkF418K9YqwAekBGBxnvQAYyWMXbz83BCqRiBa5sC6mJy96kOvmFHe0ieg6xOuBO0XbGzkK80IiCltr7Dzum7qIeRaSSBujCiE/7XgnISC2MLOvoOXxw8bt5kHLXoU4cYQ7TvpjQBCM5s5TeB2HEcaILMWFwG0HD+yFWctGFGCTrSM42BFvV5irIPKvTCuHAI6LyQmVtVFbc9fiSLMXPjP+loFSlchqQZj7DuViA2xx/B9ch5LT59+evNLj31ML4n/YfxJ1yM3HN589fyjm5/8yk9tfuGJX9y8+c1v1qfYTxw/gbpqbanBCVJQucuUsj0MHbjxAPIc2xw7ehRfn7tF78Hvx0+WE80pFx1GjvBX9Gl2fl7t9tOnNkfP3bqZ7r9C64n0lRsvffLot078PD739kVW0Nv2M3RFX3n85Jk7P3Lm5FP3Y/iW8bdXMchL74btw4fknt5cuMkfkvOJpbXT1Dj9WgI5pzXwbDKNcazQ0P8ufrCHX1mtyZMrMOWpHQYnczKYHU0d+9KXh06srJEydRGQp05eH+TUA1h4aFhsysFQ1eKDzvgcXtr5rKH43Jk6Yaoq5lBlAGQtjKWokxGvJoAEwh5ahaw8mA84odEpNWzYq05aHERJ9SmLECqGhUgHPbFKwmq9blJKTZwYIq4dVhk8YWVWHlVSE3Ud1pWq6sHYrspZKIhIq4K6QFAYnDw4ETE1YFAVyWLpGmM+TlOzQC1VjukCccO8ZGnSjsHkmkbBgpp1+YzVFrgqT1rMQb/rtqz1bas6AJjZTYmqNteSByZVOWBMUnUqqXNkPn6wAJh3QOkyCXmms+ec3OZ+7WWuT6DF0VzgzDr4okxJi0VO+6UkGZJfiwIme/yzJIOYhzr4aCviHD6WUIfqZhwFAWw9bKcJMyA+FQwQSrYtbhHD/+LRhG55HXIC+OBVwFpBKTNdDFOHGuhck2s31wDZ1JQWO87Og2h68qXH+Y9FJpJY8mGPXBgSp8SM1opxrKJYDnkcWk+9HHJr47onbSrxOFNWaUWOGaCpAozX/iK+cBb0QBowVTvh5AogEY/opFXxAFS2JpaAua6AvijB5tygMbvecUxdHSOcO3FeOwZuwOaP4XvqbA8//PDmw0/+x83PfP3fa8wNv6LGD66996H3bu7BJ9mTnZq9qYoqRSlQifeJkdyO3MiZBwXeU1wZkFE/ufwW2XG8An7XE3nfnM/Op6a3uw9/61Hem+HdenZO5LK+wcbPwd6DVA8+c8fX/u3N506OP9wSAsXPnjy9eeqNX0X/tN5T105hfVGG4ZJlDO0RJhCC1MwNzjuyEDpwaAMjkDalD1t8bCaSsdh6EUlknDm4dCIw6qQM4x/5imGgDNKjDa8Sw66DyzjmtobkyVvUwEwWp77NmY/xtMFldrQcrPSPNWCMQuglxE350Mvda5pFQfECFpdBcIB3auahvIRrrTGGk/P1AarTWzjDplpmK0udai59WvkIjykRV1MQKgGWg8LGhcMTjixnC1t7QgL94hOvIGIYG2m65LFbA1/kPPcRJIFtmqZtuUBOHGNroyoYZiGuRSLOGpMQBenjhm0+9jHniI4pwKRq4QrQWY6mtbyAEuIwjNj0VO2K6Riji1noYbP2dLMYZADFKlj2hDkKFVtrIijXheXyOGIwRwtsjKuUykgdNOK0cUWqhpvie8E1KBTxaE5Ew6ZmhHytfHOFcE4VKvasPkt5n6pm1gqYaqEuDNl0MsIkymsEvXKJpRE3Y5RaJ3QFu8MLhlw5F6zgFXQ13APObKJ3J+fs9eYKel+wZnPoU/XoxrGftaue+54TsCrxrN1js5mZKkDAGDryEuyqvE7GCKi6QNDiQNHFSQmb0qRy2oKbrK1OP9gzXm6YSo+eVaQk7sfUbLrrePzxxzdPPf2UfmiGcDbe0E+dOrW5Cy/Np0kLA3IlCkct6ZRCGZHH0uixQjUF75tSI7dkaORDcHfnZo7vnY8GLd5vzx0989wd3/yuvwv8b737S2/8xog3Q6W18cz87B954p4zJ57+wOVDF37q+PO3H+wfnSeRX2znzfwM/vHmzk/e5SttjKtg9E6SnVcpBHBkQvZY2eyyOrKx4Y4BVQfTWBUGFxlrMRlRa+nMh3dQKIiBMLZpJmyBaTuP8UCpg51UiuiAJd7IvpUKHWyVknl0uInqrH3awpaWOwAtahEDVmE9R0imUgO5nG7IZtwlw5slGICo1SpUXeoyCQ7QfFGh5fWipRZcxuijOi1SW2dEqbBNmzCRqnIynJbNBUYJce+FsSBhANeWaSUngDMMaiABbRwGGmEjXI6WODNXjlVU68tkqPbTagGhEZfGxSEpvPjZsw5GW2xItEWVSXyuXKbSM1+twVnMfRIVYwwxGjYNtqpFfmy0J1Ggcd5OJODpYmtziKpCRaGPN46xD2frMkCTXOnWLiz54FaOL+j1m4pqChwDPTBSnVOhVGHh8lS++TykUpsSa5qmT8SEJk8tT+2XkWcqwdogaJ7oFVqNG5RjJSvAXNw7dSZqVAWrvPm6A4dE0SDOfPTMjbwcs2mPj51VuICIEpGFylCfM8oeYpb7m8ITZzDL0M0WYSIs2/YQMWwICh4yXJPpdaBD9Y9cRSSWYDblMf6gfrTtqN4v11fU8DW1I/i6mloReDN//vjpSwcvHfmHeHb+X/gVcwO2t1vvoXfIh5/56Rc+ePM/feIysl7df+VP8uV21pS6brx6YLMf77HTn9f6r+J99at4X31qQU+e19V6teleLf7bLX4136pzZ6Z1tA/AbVKh10nb8C3P9RDXMJNvsiCOgzQn31aqcWTNGFswRnXiLSJ7s+bgGXY2mONU0lqyBWw23FXgDPQqBq9Wr+azOi05sWFf8wou/bUrK/4MeP3s6QoyE5gGlFJt1uQRw2NGbZFmMZw0Vqw5dtf5UtXNweslC8ONa9ut6GIU77q0a5ybqq/hdg5oDPQxpVhjr44jthl1NXmFUXix7fd48q7PINnSS9ZFNFfXWrWFbYQaTx5bvfb5RKlKTGqfjgV7swcGrDnINbtrRon8UhvqIoTT+jk/qOrH3Tpj95kZR7anfHwrmzfxO54+tbnjm3zP/KTf0gZQ2NL81rEzmxte3v+ztz5398/temZeWbc/FJdA+g8/y5v6j5+9dPDC7XjU8zbexHvbjzFv6Hz2TvsKbua6qe/HTT0z0JL5lByuLlI2F3YNZX8ndE+3O2ayg0g/Ra7fEjcC6fekXwO0CC+GeyrvGWxCMtt4ydsjtIRe//h1EW3pX2/9lmqn+QehhpXi/oCWtVLp/3d9p1dgr+vqXrnI43Gjdk2RawKidJ167RZRzJ6h2xFe8yX2net3Zdnlf/WZ+0vst9fN3E+K/VBDL4jhbshn5y+94aVfO3n2zp9595fu3voQ3DLzjg/FLWD4Ktvxs7d/9PnjzzDBX8oNvKPo2+ANfTZ+b+7sCf6i3PQSPP16FQVrkkej9KnpSpTLURYt47WbvDFG0C7soNBgMy6K87xzTKjq9fpPWKUUeHLRDZ/wKgFWf5QWfJMR1nIurTkEa+PpNShERj0A6LWhEhG+k+An3J1n34UH3QiFUk/6kDEepvJzbPE+zQlUAluiVtHL47U/iBxezMcvT5tIvzNNQvbV3sxBRNgE4WjWrE9XMq3AJ9CMm8HOMPPuDJLdgs2kn2s4ysa68hlU5MhUjBxqcKE7H7ZeOo6CYpPm0DW7tEqHkq+h9fTb9Hm0H6bC9oK2yfJMCrHSM9ztuUCPdHuGYkDryG1b9wVod2xXBZVxZ+KWYCxK89HcyV0LTL4uN+15y+0UFX3SmCqhAlvtKA96eITkVPIpfE2r6Sm7NnNWIJlLxkR1OyyWkHLj21pLYKbL5BphMJvRcV6X2eGrMDevoTVp3sh5fzyOZ+Z4+VwfguPvtGtOmRzOe759zZv5vpff8Gt4u/ujqGj1Q3DLamY1L4N9/Lm3P3kPkp567tYn/+blAxd++JazdxzUTZygpsIi+O95vKfOnu+xs+d769Olqx1AuEDrk5hytVMrC1h7xmtSK4NO7loAfbCi1FMzkTwkmLMfLHkFQHFslJYbHazG1uoqSb95zXcztFkEW3XULJOp0cqziAenfjYgIzVDSzVRBgL90Qg5dBOLAi0RIccMKOBsEs3XKbKTfVRe2tZUtPaH9Y3jpEd5pVnLWUQ4R50z13qiiFN41BjhcvG4Qdx5GUNDJ98oxj7FsqEkcFqS0Fg/4xyTO5sjwQx6nW0VFANLMGtFROcGDCYhoMRVm3DcMJA234eur8Vhel6FlybnT2ln1qRg54bvWPTZl4cdG2lIlAcU8o0N/FiDftiM0JZO7Yf4Cew5JmIFqt74NVkO4FeJ2NT6axic+njSt+DMNQ1UXfbn5O7VWoQxtiwnbfgWu5DeKq8I0JZ8tHsPgbX1XaspNCfAdrZMYNQccmhXdsBghVwYDQXABhPIB+QE1U7tR2LIluHW10xQE5LWvCaFRryMtnY0E5Y1Fmny54PQnqvJXBtO3rltT1uEBIan5kqPm30+/uFJvvROwgD+IVddBGo03NYqGDtAPRcjXaXpDHj9C0SyysAaqjeaW93IceM+cZZ/uZTvmbPHH13BzT0lMRmxun+e+OalGy8f+g94mf2jcD3+nvrjK7D3bM64J2Qe/Cw+/X7m5JMfuPqGKz+G1/zr0++UwQyamm7ivKHjmTq+045HHP4xGj3yqN+Czydr8wzNS0YpWlT0BG1DHvr9ZBB+uWNYR/YC0Vqk0lN984OlFLVjfBGrQwo8y7RalBCMyslUdX6o3pwBKh97VNWbXmuDAUXTgClJeOjvccTGyccQ4oNKXg2QTBaw9ronfsCZD4ORCxzbRJSXtZBTPSmZj3RGacRTrtQ1xIb5WYsksdHcgrL2pDdVyvRakspNZUo6J3WVDr5h2EEPkw0+oG09jbcS3F4+zhscf7q/agufqrCZhSwblYNjOqsEDg0qw5PGIPsgYdeneVNbOHPm82Ee+onn2tByMq+NyFInig0wYRgX0iRGFLe3nCPmsC56InK/AOm0oz77TPI+JQBcLiSrEMd2BDgiSA9yB86YcX4XxQ9Us1aqXmxL1D6SmrLB6hiLKJ9MriTjmYvtcCplrUqrDwExuzRRWBdx4M88RwYGzKrjKaUVDxzJkUiLGqVZJXo/C16qTqJcJpPW9ApbyiygYMzB5nVkQT6GmFFVeHdRi2OeGzAVmTaI0W+umDwu2HTSsMe4avBuZVyOEiPYraaigbO6Fq8o3HJihF7HhEFFrryE1fHjEjAblTD2so4xlqlKpGVpCiVXrmUpkpUUQ/2UbclNhHg2jEPFSOcDfXFzMsxKF8waKc6vofHmffgi35I+gpv60c1J3tBxY6dPYKZojR80x3vmz+2/cuNPnDx7Fz4A57+i1iB7mijj1bfPvv0J/hHZB8/c+tS/OHz+KP6QS/+zbphSU71wiM/Y8VOxuLn7mXq9lAABjvnvEuI+jrjTeICxJovkYsDZ288Yogh7LYdRFK4qfKRXKZSTLoloOjSw+tzp3Av6yoX2BklwtZgcwMlHpuSdQwcPCmEdtplS6qBFXykIYDngc0vDuUhOuTRop0lTDjHFTwZx4FaE2tDxmrhWJ0Q0aVgX8dokPTOwYrQh5OyuY7422ReaAnTIm9YQg7FTLEdApZeosfBpzl4n5ncz0prUIq7q5ZA2e/iV3xBtrVF6EQiwer+SYREipYWtZkHxVKp1TBKK1VxoaMg1YV1KVE452i6lqrnqKI/mfYacI1QG6a7EQJKQJBcl1QhMoa2F7TTFSsAcivYZkmd18bl4ERKYg4lf9Cq2QiYahqTjWKOQqJOml5L+yjkgmoVy6zgAUVWCoLUiHtriqwhvUqL9HNW+g6OYhcYYC+s1cT0sW/zhJ1Qe1aH8BmCsKhwHnm5q2UAPw8cvsiqOXoCKeRactitETBrkwUM+t3TSGtcT+qqRKwC7Sq4aOQ6fFvKXpPqsGd1sOr9keE6uw8qqRIlqvoPsDNOcVQzLRYD1Mi9GAtDJ1KXsSXsE16gDmJq18YkVXk7NpaPCsbYf/BGpykUZNiH0e1LVoyq5mIxhDMqUsrCVA3P3+qIHSXBQxrN8ykeDNpqWDk6vkxKNAD/kphs4335G88vr/nwZn4n7GbljJs23uh8e4ffM7/oQSsNX017dzZxqnN5rauOmfvLpv3XDK/v+9MGLN9+ol+CXilyQalWwbu508WZ/8cg5/Ta8FlbcWmTwctDXKkrFF2YWbuEmX1nQlVNy2HgncERRT5oQecqgzVZUx+zSNjveLo8CtgQrgoU9LUvOsKCug9hZcsIlak7VqYPMhXAlfIUrPtw+Pic956p6dJRlDp4JM9pi5cRxHA9H9PJi5aifvQHjkMkR8VEsjjaUKV+uC/TXOcqgT45KwPAPkQAACV1JREFU5xONkqgDCUUnARqGeDudXIVAfqJTrUciYmOOR71o53HYxxQF/AgbPaHesExWxKDgCiE8pssQx8CLQhseVeSFU8z7itgoMAf+aczeteoYFq/2W6kRIUjRlb/Fosq1Zh2sRwSun6SxgS0vHF3dk1GG2lhEOvQUP+NpDlCTVtE0xEb/e70yP7jUJFUT8QWZ9bm2KtQUuSbWdENm2CoBjtkALht66msxtBTMzlopGYfsqlNrk5qnqu0RUGtXpUufth7ISs9z0FQQiEuTxoZ5XfV8H/C4SM3ECiMw9fA/hOyrKIXBmSqCXb7MK89iySCbNUmLDjTpdR2mUn1WJcZVGksvLckUzxrGeQZT7crJhJVYfG3Ekrolwax1tziYtY+8jiQpK3BaJdHkojVSAIO6vGzGc43c4FcdNSSJTeuOnjwKglwznOqWBpMQxo1gHJCo/OzY9CDeRWPkHNN1bN8Gf35cz8IPX+TL6PvGh8X1sroU1jb+4NvFQy9eeWXfy/9DPxqzb/Nb/Lsqa+hr+Wrm14Ktx+umfurSgQvff+a2p37o4MWb8Add+L5AexSiRUIaLVzpaIE4EdzM8Qydz97VuLfShKmVzA5KjHJa5baDGBucptM4BiCWnU9Y1WIYBqqh8rKTVIDpyWu2TG5aa+HmtV7Jz/xrgy7ZOX0txevJyha+CwA4hhEbjlqHFIG4ZLBRX+ORC0Yk5OMgWi0gFzZ9vYlrEA8IhLO6VS3lqc04TpI3PZm2lXLodXK3mZOgZPTp3hGOGUPlXMBmGO0PY/acW0gSKnzmPWLxw9FMhz23sZ4BJL90iRyGaWO9PEzKOaq0xU3iOaLEqtsRi0ylWpYS96ix1zZ2WlDJkXrKz2FCdCWc42w4Cj86kJSvyDqHR7B0GINg9KNNmHwJ0NGDGXZ+2SQCGvRQGAZvVMbqgU+QITAV28DD6OvmaG0DApnrMebbxYKJZos1czlf3xYbVxkboZkM6eo84BVkN3wSKMeCrFCAy9he/iXWOeINM5nVbwWJirPMuIbAMAaWN3K9nD7uf9TYxsWnJ7h4dfrSoRd/9+Szd3/84OVDnwbh8ffs+NEYxK7ZWtXXxO4E6Ma+b9+psyee+msv3nTuLxx58Zj+nrpv7JhQz6L5xdEnC3kefMM1jMobDnH4p4OVfYW/o11ylbjyVYJF6NppQwiSmktfYis9T/T+4GEFsu1a6q8sEiHUVR+FFVxC7CWrzWLdr8EbGsUdYxqvhlvYUQfHHEQD9rioU3vZlvmLjzUeKpEidTiXOgmyB0G4pXbF2O1sC87IN9WlqQXWa9u7uPWM0o9Yh8yEe2DFDr/mTcQWPZgV+nAVqUPl2nIMxjBm14nhbQaFuk5CW4Um0PC7uIEuNZhnzUd8/GuY6PV+UXMfRkpwDHKjHtcGgIVHbIaNPoONF7ewPVEC7FeFOgD2gjuGxd0pUfXM1AZ5kbv7Q6BwNNJXTMNdnPCXfTR6v8T08crEQh2w1BCsx3kiiz+A9ij/BCq+i/4xUHAjf/UvsY9UZSTj0v+axn7Gvk+fhMez7h/A++tv1TN2fgAgTXPbmnmi6JclZccRkoVp8D3NpRbASg2dvUoYNfR8Xav79yqgc4hL3qV/h4ZglUsdHTWORA2tEOdSbwZqwabXvDtNyWMjuV2aZO+qY5fyXlpLvcKq9F151vR2YVluwzdzVKtcY0SCB+qKsHy2J0QXAzh5hrt0uvQ4RmbOlQG5Q2gl3l1LbM+71Fhiuw7tcJe84BLPmD2xa/6GGQ9c4wtnJc8ocaEpjfDTD3Ac1Yfb9eNbQF/zMNrRzTiCS3/GibeeoUGnMXNg2Lh7PajNAwHyhWu8pFtdxwTTJ/8KP4UGsqxVEp03JoZI/Gs+Eruf4+Bpo+UcG/Oz27jijroSIw//ZtIruqtxOju2g7p/+szYhSMvPIL32z95Gz7BDvS39Yy8zUDmPOMy+hrHubGfu/nMX8SjkO9/5YZX3nHg0uGbt16On69gZeslZXHgW3Ov8teK7mTGsxN6H94aNjH2PZ76Ek9szb/0LbWisdavccPvseTvGj3e/eHHtxcumLV+Leca7lq+a+XflYe8ZWyX1hKXmnbhEydvDRP/mu4aPnq9X3BzQdqiL3CS6CDECZm9crXkEN99nZ+aJFK4XXFi12L0d32Or7PpJrKL23J1yHCXk93wMS8HW04GFi2YZU8YfWzR8uj6trNirkFJniWs513T67xg13BL3Ywz54yvp+85O77yjzDGO0spkLqOCznEjJEnDzSay69eLmoYD266bsdcy54lYOIipCYO13wFax0/EM5n5JcPXPwWPgfxMF69/jT+UtqvA/IdvZEnZarK+Dva87fgIXgK/+7B19fee/nGi+/e98oN91298fKt+Q7e7P32sUgpgwuIElPlWM/y5yRTHL4RJz+kaO3oVy+gnTsTbSLE9FjnENZjjUZzSd2qtXO3wE1sLfYq6uh5sw5U7+lbtm1zLVf3NaG46aI9e0bbcLMkAs482/t1B3fkSDwFLOQ0DGYtBp60VjAjR+et4CzQQbvtXuaQ6s5ODaDiueANyAqPrtAmYzBWDs4WozkTaLGVXCPKhNeI5yI8ahvkZuwK7tLehW+SMq9nTpnDsl9q9fFa/tTaY/F1Lu2OWcYyDjd1xc/+evgdD3vXUixg6/uzakhJzL9awgCU6hLU48vYssaOXRa5wl1CrmucHGt6jE1+vy/uz4Xtv3LgOXzQ7isHrhz6HF5W/wyA+KDbK6/LjTzTSKUZv279Z/nDNHVzxw/THLx48PwP4mdk34Ub+pumpFmc9BXhyT6tGZwctNIHvINafE6euOMmVljRlxp9XPXs7KAzailQcowbGPSWmKG3FqCv2tYFO4HeN7zcK/UrTXIVPrS9Xq4baQKGIzIjV4v1de9uYvt6iLvcbBEK0P0rc4sMYSPHgioaN2taIkbFGMEqV0+5laMHm8T1mrmpZd2W9S91UqrqYxD5ZyWMwMQUp4MiEshyHH/664kHyzxrePpa0zlSvl5ag8hcPf4XWkuOxnuJErBWY/e3HDmfGd5z/yCnrlvL3NHq/vgomtbj8S37ziO+j4ndQ4PQtfBqzdRatmWuFk9o9VqSIPGtgFk9OzAtxdwMufMW+jNCcC3/LN4HXZv4jDumbITwza3Hruy//NuHLh3+1QOXD19ChJ9Wf11v4r2S/wclSGsr0/sHfgAAAABJRU5ErkJggg==;" vertex="1" parent="1">
          <mxGeometry x="520" y="30" width="500" height="680" as="geometry" />
        </mxCell>
        <mxCell id="ZEncfQJvW__wTIcyIxCx-5" value="&lt;font style=&quot;font-size: 30px;&quot;&gt;Quickstep&lt;/font&gt;" style="text;html=1;align=center;verticalAlign=middle;whiteSpace=wrap;rounded=0;" parent="1" vertex="1">
          <mxGeometry x="550" y="440" width="140" height="30" as="geometry" />
        </mxCell>
        <mxCell id="ZEncfQJvW__wTIcyIxCx-7" value="&lt;font style=&quot;font-size: 30px;&quot;&gt;All of you cats move faster&lt;/font&gt;" style="text;html=1;align=center;verticalAlign=middle;whiteSpace=wrap;rounded=0;fontSize=24;" parent="1" vertex="1">
          <mxGeometry x="595" y="560" width="350" height="30" as="geometry" />
        </mxCell>
        <mxCell id="bbfO3gm2OM-8f7Ye4NYt-1" value="&lt;font style=&quot;font-size: 30px;&quot;&gt;Status Card&lt;/font&gt;" style="text;html=1;align=center;verticalAlign=middle;whiteSpace=wrap;rounded=0;fontSize=24;" parent="1" vertex="1">
          <mxGeometry x="595" y="60" width="350" height="30" as="geometry" />
        </mxCell>
        <mxCell id="gbtMxrxYGxtrsKbIETWU-6" value="" style="shape=image;verticalLabelPosition=bottom;labelBackgroundColor=default;verticalAlign=top;aspect=fixed;imageAspect=0;image=data:image/png,iVBORw0KGgoAAAANSUhEUgAAAgAAAAIACAYAAAD0eNT6AAAABHNCSVQICAgIfAhkiAAAAAlwSFlzAAAN1wAADdcBQiibeAAAABl0RVh0U29mdHdhcmUAd3d3Lmlua3NjYXBlLm9yZ5vuPBoAACAASURBVHic7N13lFzHfSf6b917O07OOWBmMMg5EsyZIkUxiZJWTvKasuW4jsdPu15Lu5bfPp19si3v2k+S15K9shK1yhJFioIIBpAgEkGARM6TMHkwOXT3fX/0gAAGM5iZe6v6pu/nnDmKXf3jhK7f/VXVr4RpmiAKEiFEKYCtADYB2Dz9Ve5oUERqJQEcBbAfwL7pfz1kmuaUo1GRowQTAAoKIUQIwH8E8J8AhBwOh8hpxwF8zDTNN50OhJzBBIACQQixFsC/ANjgcChEbpIE8DkAf2ma5oTTwVBmMQEg3xNCPAPgH8GnfqK5HAVwr2mal5wOhDKHCQD5mhBiJYCDACJOx0Lkcj8yTfMDTgdBmaM5HQCRKkIIA8C/gpM/0UI8KoT4mNNBUOYwASA/+yTSO/yJaGH+TghR43QQlBlcAiBfEkLkAugB1/2JFutLpmn+ltNBkHqsAJBfrQcnfyIrtjkdAGUGEwDyq41OB0DkUauEEDGngyD1mACQX21yOgAijzIArHM6CFKPCQD5FRv+EFnHzbMBwASA/KrY6QCIPIx/PwHABICIiCiAmAAQEREFkOF0AERuc+I7H0NpYVzaeJoRRTSHvVUos/7qC8/jM194wekwyMVYASAiIgogJgBEREQBxASAiIgogJgAEBERBRATACIiogBiAkBERBRATACIiIgCiAkAERFRADEBICIiCiAmAERERAHEBICIiCiAmAAQEREFEBMAIiKiAGICQEREFEBMAIiIiAKICQAREVEAMQEgIiIKICYAREREAcQEgIiIKICYABAREQUQEwAiIqIAYgJAREQUQEwAiIiIAogJABERUQAxASAiIgogJgBEREQBxASAiIgogAynAyCi4JmYTODQ8TYcPHoRB95twYGjLThxrgvJVMrp0CjtU0KITzkdhA91ANh/zdde0zR7nAqGCQARZdQrB87g43/5DZxv63U6FKJMqwDw6PQXAEwKIf4LgM+appnMdDBcAiCijBibmMKf/Pfv4YFn/oGTP1FaGMBfA3hDCLEy02/OCgARKdfWOYAHf/MfcepCt9OhELnRFgAHhRAfN03zq5l6U1YAiEi5j3/qm5z8iW4uAuALQojGTL0hEwAiUupL334dO/eccDoMIi+IA/iKEEJk4s2YABCRMudae/HJv/2h02EQecntAP4gE2/EBICIlPnMF1/A8OiE02EQec1fCyFCqt+ECQARKbP3yAWnQyDyoiwAq1S/CRMAIlJicGScG/+IrNus+g2YABCREoeOtcI0TafDIPIqJgBE5E0H3m1xOgQiL1OeALARENEMf/Q3LyMa1uUNqOnQjbi88TziyMl2p0Mg8rJi1W8gWKIjPxJCXAJQ5nQcREQWXTBNs17lG3AJgIiIKIC4BEBErvOpj2/HH350o7TxwvFSGJE8aeMRLcSF9j40P/xXTocxJ1YAiIiIAogJABERUQAxASAiIgogJgBEREQBxASAiIgogJgAEBERBRATACIiogBiAkBERBRATACIiIgCiAkAERFRADEBICIiCiDeBUA0w2c/sQk58ZC08YSuIxwN3nXA/2fnKfz09fNOh0FEc2ACQDTDA1srUZoflTaeZoQQzcmXNp5XHDndwwSAyMW4BEBERBRATACIiIgCiAkAERFRADEBICIiCiAmAERERAHEBICIiCiAmAAQEREFEBMAIiKiAGICQEREFEBMAIiIiAKICQAREVEAMQEgIiIKICYAREREAcQEgIiIKICYABAREQUQEwAiIqIAMpwOgMhtnvns6wgbEnNjIaDpwftTO98x6HQIRHQTwftUIprHgRO9TodARKQclwCIiIgCiAkA+dWo0wEQEbkZEwDyq7edDoCIyM2YAJBfHXQ6ACIiN2MCQH7FBICI6CaYAJBfMQEgIroJJgDkS6ZpdgB41uk4iIjcigkA+dnvAOh0OggiIjdiIyDyLdM0e4UQvwngB07HQovzzZ+dwL6j8nI3TY9AaHI+7orys7BhZQ02razBhhXVMPTMPkeda+3F3iMXcOBoC8619sI0zYy+Py3c2MSUnZcr/8EK/vKQ3wkh/gnAM07HQf6zcWUNvvLXv4TlS8qUv9fo+CQ++bc/whef3c1JPxgumKZZr/INmACQ7wkhBIDfAvDfAWQ7HA75TDRi4B/+4kP45Ue3KHuPsy09ePR3v4TTF7uVvQe5DhMAIlmEEPUAvgzgbmcjIb+JRgzs+9afobm+VPrYyVQK93zsf2DP4fPSxyZXU54AcBMgBYZpmucB3AvgSQCfA7ALAK+sI9vGJxJ45i+/jlRK/gPV3/zLS5z8g4l7AIhUml4eaAZQMcf/ZS2Az1sZu7wgD49s3mA1tDlpuo5QKCx9XNn2HDuBg6fPOh1GRu179s+wtrlS6pjND/8VLrT3SR2TPEF5BYCnACjQzHQGfGL66wZCiAmrY4cNA0vKSqy+fE66biASjUkfV7bjLW1Oh5BxB969KDUB6L08wsmflGECQHRzk1ZfmEimZMZBHnDw3XP4lUdWShvvwOEz0sYimokJANHNWT7ImzJVJQBctnOrnGgSkyPy+hdkhXirNanDTYBEN2c5AUgq2BAGcPp3sw3L5J4CWNVYjLDBj2lSg79ZRDdneQkgmVJUAWAG4EqaENi4XG4CEDY0rGkqljomeYbyv3QmAEQ3Z30JQFUCQK70W0+tRUVxlvRx/+tv74AmhPRxyfWU/9CZABDdnOUEIKEsAWAJwG2aqvPxl89sUzL2jrWV+O0PrlUyNgUbEwCim7O8BMAKQDBsWVWOZz/7CKIRdXuq//I3b8HvPr2OlQCSigkA0c1xEyDdQAigviIXn/r4dvz075/Akso8pe8XNjR85nduxY/+7jFsXlGGSEhX+n4UDDwGSHRz3ATogA/eWYf3ba+SNp4RiUGX1D2xIDeC1Y3FyM3KfDfGHWsr8eI/PoWpRAonLvTh4qUhsJmre3UPjOGPPrfL6TDmxASA6OZcuAnQ/5/4S2ty8dA2eQlAOJ4NI+L+7okLFTI0rG4sxupGnhBws4uXhpwO4aa4BEB0E6ZpJmFxxk2ZJu9tJyLXYgJAND8bywBMAIjInZgAEM3PVe2AWVQgIhmYABDNz8ZJABX7AJgBEJF9TACI5ue+kwBERDYxASCan42TAHxaJyJ3YgJAND/LFQB17YCJiOxhAkA0P9f1AuDxQiKyiwkA0fxctgmQiMg+JgBE8+MmQCLyHSYARPPjJkAi8h0mAETzs5wAqNsEyMSCiOxhAkA0P8tLAOo2ASoZlogChAkA0fy4CZCIfIcJANH8uAmQiHyHCQDR/Fy4CZBrAERkj+F0AEQe4L5NgD6f/7/24lnseuuStPGEpkNofN6hzJqYTDodwk0xASCan/s2ASoZVS5Dtz7hXuwcwcXOEYnRENFMTImJ5ufCTYDuTwEioZDTIRDRTTABIJqfCxMA94uGw06HQORlyktgTACI5md9CSDAB/ZZASCy5ZDqN2ACQDQ/bgK0IBZhBYDIhv2q34AJANH83HcdsAcygIbyMlYBiKxjAkDkAmwEZEEkFMKGxiVOh0HkRSkAb6l+EyYARPPjJkCLtq1Y5nQIRF70z6ZpDqt+EyYARPOz0QdAUane/SsAAIC60hLUl5U6HQaRl1wE8CeZeCM2AiKan+UKwPD4OLoHh2TGAgAIhSZgGLOvr+dnZyFsuOdP+9cfvBef/96P0Dek/IGGyA9+wzRN+R8asxBmgI8pEc1FCKEDuB/ArwB4HEDc2YgWThMCZQX5qCstwX0b16EwJ8fpkNA1cBmf//6PMTYx4XQoRG72P03T/P1MvRkTAKIZhBBZAL4D4EGnY7ErbBh4/7bNuHX1SgiHYzl3qRNf/fkuDIywxS/RDIMA/tg0zX/O5JsyASC6hhAiB8DPAGx3OhaZHty8AQ9u2uB0GJhMJPCLQ4fx0ttHMJVw90UpRBnyMwDPmKbZkuk3ZgJAdA0hxKcBfMrpOGTTNQ1/9OQHUFlU6HQoAID+4WG8cuQo2np60dHXh5FxLg1QYFwGcBDpc/6vmab5Q6cCYQJANE0IkQ/gPIA8h0NRorGiHL/7gYedDmNWg6Oj6Lk8hJQ5+7HJb+x6Ff0WNxE+snEdcuMxO+HdIBIOQdd1qWOSe1weHcX/2b3X6stbkd47NJt2AKdMl0y87tkqTOS8u+HTyR8Aznd2IZlKQdfcd/o3Nx5HbnzufZaxcBj9Fscuy89FSW6uxVfPEU80AsNgAuBX7X1Wf9sAAF2mae6SFIpS7vskIHJOo9MBqJRMpdDR2+d0GJZoNpKWpIJeDK54fCNlxqcsn/wF0iV+T2ACQHRVhdMBqNY/7M0d+HaqFmqaMTEF8LPxSSYAREFzxukAVHPLJsDF0jXrhxiTc+wrsIXzv6/ZTAAGZMWhGhMAoquOOB2ASrFIBEW5zjcFssJeBSDY9zHQ4k1wCYAocN4AcNzpIFRZ31DvdAiW6Zr1DXfcA0CLxT0ARAFjmmYCwJ86HYcKeVlxPLp9i9NhWGarAqBiCYApgK9xDwBRAJmm+RMA/83pOGQKGTo+ctftiIbDTodimes2AXL+97WgVADYB4BoBtM0/6MQ4iSAf4CHLgGazZLyMnzkrttRkif3HHymaW7bBEi+FpQKABMAolmYpvkvQohvA3gEwC8DeNTKOJoQKMzJlhobAAgBCDH7U3FhTg5qSopRV1aCFTXVEMLpa4Dsc1sFgAUAfwvKJkAmAERzME1zBMCzQoiDsJgAZMei+MMPPCQ3MACariMa9XRxYlHsJABJngKgRQpKBYB7AIjmN2n1hWqa0ASPvU2A3ANAixOUPQBMAIjmZzkBUPb0GbAJyM7FO2r6AATsBxAwrAAQ0RWWPw3UHEEDgjYB2esEyD0AtDisABDRFe6rAAQM9wBQpiRTKSSSSasvnzJNc0xmPCoxASCan+XHARVd6IDgPYHauQ2QfQBoMYJS/geYABAthOUKgGmaMLkJzTZ2AqRMCUr5H2ACQDQv0zRTACzPImqqAMGagOwtAXAPAC1cUHoAAEwAiBbK+lFAdqKzjbcBUqYE5SpggAkA0UJxI6CD2AeAMoVLAEQ0k42NgPITgKDNPzwFQJnCTYBENJO7ugGqeKp1MbctAQTrux8srAAQ0UyuqgAEja0KgJJkiSmAX7ECQEQzcQ+Ag+z1AeD3nxaOFQAimsl6O2BeCGSb2zYBBmwFJlAmWAEgohncVwEI0CzETYCUKawAENFM1vcAKOoDEJzpH9B1l7UCDtR3P1iYABDRTO6rAASIvU2A/P7TwnETIBHN5K5jgAFj7xgg9wDQwgWpFbDhdABEHmH5ftDh8XEMj43LjAUAkIAGIWZMjALIikahCSH9/ZzkvsuAyK/GJi3n+gATACJ/EELcDeBDAO4D0GR1nG+9ukdaTAsRNgxUFBWitqQY96xfi7yseEbfXwU7xwBVXclM/sQKAFGACSFCAP4fAH/sdCxWTCYSuNDZhQudXdh/8jSeuHU7Njdbzl9cgacAKBMSyRQSScu/L1OmaY7JjEc1JgBE1xBCCADPIf3U73ljk5P4+kuvYGhsDHevW+N0OJa5bw8Aqwp+FKSnf4CbAIlm+jh8Mvlf66f7DqKz31M3lV6HewAoE2weAfTcHxgTAKJpQog8AJ91Og4VEskkvrs7s3sRZLK3BMCndVqYIB0BBJgAEF1rM4B8p4NQ5dylTs+uh7MCQJkQpCZAABMAomttcDoAlRLJJC719TsdhiVu3ATIbQD+E6R7AABuAiS6Vp3TAajWOzSEquIip8NYNHvHAFPoHRqWGE3aWDIBcZN+C1mRMOKRiPT3JXWCVgFgAkB01btOB6BaRWGB0yEsWu/gEF448Jbl109MJfC/dr4sMaKFy8+Ko6qoENuWNaKhrNSRGGjhmAAQBdcBpwNQKRoOozgvz+kwFuWn+w5i56HDSHl078LAyCgGRkZx9GIrtjQ34qGNaxE2+LHrVuMB6gIIcA8A0bXeBnDG6SBUWV1fCy81CH5u7wG8ePCQZyf/a5kA9p48g397aTfvEXQxngIgCijTNCcBPAMf3vWaE4vhsVu2OR3Ggp1sa8fP33rb6TCkO9vZhX0nfZtjel7QlgCYABBdwzTNXfBZLwBd0/DhO29DVtQ7G9J2+nDyv+L5g4cxmUg4HQbNggkAUcCZpvlJAE8C6HU6Fruqiovwx089hpV1NU6HsmBDo2M41dbhdBjKTCYSaOv15nFMv+MxQCKCaZrfE0LsBvB+ALch3R7Y0iwa0nVEQiGZ4aUJQMxc1RdAYU4OakqKUVdagvWNS2ydoXdC39CQ0yEo19bXjyVlJU6HQTMErQLABIBoDqZpdgH4MoAvCyGeAfBPVsZZt6QWj2/fLDU2AAiHIzBCYenjOm14bNzpEJS7PDLqdAg0C24CJKLZWP5kUNWL3nc7FacV5uY4HYJy5fneOo4ZFEGrADABIFoYy58MfjjGlkklebmeW7ZYrKoi7zVkCgJeB0xEs7FeAVB1GY1Pm9Ebuo6ty5Y6HYYyJXm5KGUFwHUSySQSSct/q5OmaY7JjCcTmAAQLYzrlgD87P5N6xEydKfDkE4TAk/dsgXaTe4QIGcErfwPMAEgWijLPUK9egWvk/KzsvAbD93vu7a5d69dieriQqfDoFkEbQMgwASAaKFctwfA73WF5qpK/NYjD6KyyPsTZl48jl+753bcvWal06HQHIK2/g/wGCDRQtlYAlBVAfB7CgAsKS/Dn37wcZxqa8c3dr2KgeERS+PkxmIwdLnPO0KIm18HHI2gsrAA1UWFWF5doaYXBEkTxAoAEwCihbFRAVA0Uft//n/P0qpKlOblWU4AHt64FnUlxVJjikbCCIX4EeoX3ANARHNxYQUgWHQbT/DciEnzYQJARHPhJkCH2ekNkFJwFJMphb8E7R4AgAkA0UK5rg+AGbApSNesHwtkEkbzYQWAiObCPQAOs1MBULIE4NNGTEE1xgoAEc2BewAcZmcPANsx03yCeAyQCQDRwjABcJi9CgD3ANDNBfEYIBMAooVx3xJAwKYgw9YmwGB9r2jxuAeAiObiulMAQZvSNJdVAAL3A/A5VgCIaC7uWwII2ARkp5Ofmj4AAfsB+Bz3ABDRXKwvAai6DjhgE5CdCoCKTYDB+u77XxCXANjHkmhhLH/eJ1Om3fLirDRNg6lfvzIhAETDYenv5QaGnT4AypIw8gubf6MDsuLIJCYARHMQQqwB8JsAtgBYZ3Uc0zTxmWe/Ly2u+cQiEdQUF6GurBR3rFmFrGgkY++tkq7NffHOfNgKmG4mkUzaWaqbNE1zXGY8mcIEgGgGIYQO4M8BfAqA5x6nxyYmcLKtHSfb2rHn2Ak8fcetWF1f63RYtum69QqAkj4AzCl8I4gbAAHuASCazdcA/DU8OPnPNDQ2hi+/8HO8fvS406HYZqsPgJK7AJgB+EUQ1/8BJgBE1xFCfAjAh52OQ7YfvrEXvYNDTodhi63LgLgEQDfBBIAo4IQQMQD/4HQcKkwmEvju7jecDsMWt3UCJP/gEgARbQBQ7HQQqpxu7/B0T3zXJQAsKvhGEHsAAEwAiK612ekAVJpKJHGp35OnlQC4bwmA879/BLUCwFMARFc1OR2Aaj2Dg6gsKnQ6DEvs3AY4mUhgZHxCYjTpeFI3SQOi4RAMGycXKHOCugeACQDRVcecDkC1svx8p0NYtIHhEbx54iTePH7S8hhnOrvwP5//ucSo5qcJgZK8XFQU5mPr0kbUlhRl9P1p4VgBIKL9TgegUiQUQml+ntNhLMrLh9/BD/fsg+nB2/xSponOgcvoHLiMt89dxG0rmnHvutW27jQgNYJaAeBvItFVbwNodToIVZbXVEMI6930Mu0new/gB2/s9eTkP5Npmnj16Al845XXnQ6FZsFNgEQBZ5rmJIBnnI5DhXgkgidv3e50GAt2vrMLO9962+kwpDvR1oGDZ847HQbNMBbQJQAmAETXME3zBfisF4AmBD54+w7kxGNOh7JgLx445HQIyjy3/xAmEwmnw6BrTDABICIAME3z9wD8GoB+p2Oxq6wgH7//+PuxvnGJ06Es2PjkFI61+HYlBuNTU2jv8+5xTD8K6h4AbgIkmoVpmv9bCPEigI8ifRvgJgB1AEJWxgsZOnShIN+esaYvABTmZKOmpBh1ZaXYtLTRc0fRegYHnQ5BufbePtSX+rbnlOfYTAA8m80xASCag2maHQA+d+U/CyG+A+BJK2M9vWMbVtZWyQrtPbFYFoSNBjludHlkxOkQlOsb9v8/o5cE9Rigvz45iNSatPrChKIWvN7fH3+jwpwcp0NQrsxjxzH9jqcAiGg+lj8lvNyDP9NK8/Nstf31gqqiAqdDoGlTyaSduyImTdMclxlPJvn7r4xILssJgIr76NP8VwPQNQ0bmhqcDkOZwpxsVgBcJKgnAAAmAESLYaMC4L+JWqX3bd7ouc2LCyEAPHnLFt9XOLwkqCcAACYARIthvQKgagnAp3lFQU42PnTHrb6bKO9YvZy7/10mqBsAAZ4CIFoMy5sAVSUAPp3/AQCbm5uQn52Ff33xJYyMe3aZFQCQFY3gsa2blJwEIXuCXAFgAkC0cO6rAPg6BQCaKivw6V/5CE62tuOtM2ex/+Rpy2NlRSISI0u72d0KWdEIKgsLUF1UgNV1NciKyn9/so8VACJaCO4BcICuaVhRW41l1ZWWEwBNCPze++6THBmQnRXz1AVLdKMgVwD8tcBGpJb7KgAByis0TYPVqTblgxsFSQ0mAES0ENYrAMqOAQaLbuNkgIokjGmF9/EYIBEthI0KgJqpwgzYFGTnVICSKkywvv2+xAoAES2E604BBI2dBEDNMgAzAK8L8iZAJgBEC+e+PQAB47oKAHkeKwBEtBDuuwsgYA+gum6jAqBgGSZg335fGp+0XNgDPHwVMMAEgGgxXLcHIGhTkOsqAMH69vsSKwBEtBCuqwAEbf5xXQJAnsdTAES0EJZrhQlOPlJwEyDJxgoAES2E+/oABKzBDfsAkGw8BUBEC+HCPQDBYtipAKj4GfDH6mlTiaSdytCkaZqevqWKdwEQzUEI0QjgYwC2ANgEwPI9rifbOvAX//ZtSZHdXGFONmpKilFXVopbVixDJBTKyPtmgq09AOzGSDMEufwPMAEguoEQQgPwewD+G4C4w+EsWt/QMPqGhvH22fN49Z2j+PAdt6K52h/X0HITIMkU9ASASwBEN/oKgM/Dg5P/TP1Dw/jCT17A3hOnnA5FClubAJX0AeAagJcF+QQAwASA6DpCiCcA/KrTccj2/df3YGB4xOkwbLPTCIh9AGimMXtNgJgAEPmFECIK4AtOx6HC+OQUvvf6HqfDsM3eMUAuAdD1uARARFesB1DqdBCqnGhpg+nxY4O6ZucYoLf/2Um+CSYARDRts9MBqDSZSKBzwNOty23uAWAfALpekHsAADwFQHStZqcDUK1r4DLKCwqcDsMyXROWXzs+NWX3ie8Gppi7w2A4ZEAT1uMl9YK+BMAEgOiqE04HoFppfp7TISzawMgIDpw6g6MXWnChs8vyODuPHMXOI0clRnZzhq6jvCAP1UWF2LK0AWUe/N77HSsARHTFfqcDUClsGCjLz3c6jEV55/xFfOOlV+zu1nZEIplEa08fWnv6sO/UWdyzdiVuX7WcVQEXsVkR8vZ6GrgHgOhahwB0OB2EKstqqiA8NPm8cuRdfPmFn3ty8p8pmUrhxUPv4Nuvvel0KHSNoC8BMAEgmmaa5gSATzgdhwrRcAhP7NjudBgL1js4hB+/6b+CzJELLThyocXpMGha0JcAmAAQXcM0zR8C+N9OxyHb4zu2Iz87y+kwFux7u/cgkUw6HYYSP9r7FqZ8+s/mNawAENFMvw7gPwAYdToQuwpysvGJRx7E1mVLnQ5lwZKpFE60tjkdhjKjExPo6PP88rEvBL0CwE2ARDOYppkC8PdCiJ9A0m2AmeT12wAv9fX7/uKett4+1JYUOR1G4DEBIKJZmaZ5BsB/vva/E0KMwOIlQZ/+d0/BsNHLfjaapiEa805pfyF6B4ecDkG53qFhp0MgsBMglwCIFsfylnQVG/D92ImurMBbRxWtKM3LdTqEwJtMJOZs4rSQl5umOS4zHicwASBaHMuPDEqO4PkwAyjNz0PY8HdxsqrIu90Y/SLoT/8AEwCixbJRAVBxBt9/GYAQAqvqa50OQ5nceAzlAahyuF3Q1/8BJgBEiyW3mTzN6vEd2xCPRJwOQ4kntm+2dakRyRH0I4AAEwCixbJcAZicSsiMw9dyYjE8fccO302U25Y1YWlludNhEFgBAHgKgGixLH9qTExNIRKS+ydnfQ+T+61rWIKinBx8decudF8edDocW2LhMB7evB4bGuqcDoWmsQLABIBosSxXANKbjmISQwH8uAfgWtUlxfjjpx7DkXMXcKq9A6da2zEwMmJpLE0IhAxdcoQCc+3syIpGUFlYgKriQqyrr0VOLCr5vckOVgCYABAtlo0KAJcArIiEQtjc3ITNzU042dqGL/zkBUvj1JYU4cM7tkmNTdc1xDmxexIrANwDQLRYlisANj9wCICuW3+CT6YUVEv8XYDxtQlWAJgAEC2SrT0AZI+dTYEpBe2FOf97l82E3BeXOTABIFoc66cAEmqWAEw/7wScQbOTAATo+0Tz4xIAEwCixbL8qeH3C24ywU4FQM33n0mFV3ETIBMAosWyXAFIqViDDhhds95NUcn3nz9Sz2IrYCYARIvlwgpAcGYhXbOxCdDkHgC6ihUAJgBEi2W5ApBUtQYdoFnIbZsAybu4B4AJANFiWf7UUDUBBWj+t5kABOk7RfNhBYAJANFicQ+Ag2xtAlSwBBCs9MtfuAeACQDRYnEPgIPctgmQJwu9yTRNO9dzT5qmOS4zHqcwASBaHOsVAM4WtrEPAMkghEB+Vtzqy8/I4vb55wAAIABJREFUjMVJTACIFsdyBcDQFf25BWheM2y1AuYmQLqqMCfb6kt/ITMOJzEBIFocywlAPByWGcd7AjT/26oAMAGgazVXllt96U6ZcTiJCQDR4li+zzcWUZMABCkFEEhf62uVirbJQWrF7CfbljWhLD9vsS/bA+DHCsJxBBMAosXJt/rCmKIKQNDYqwJwsqY0TQg8unXjYpaVegB8yDRN39zqxQSAaHEKrL4wrqwCECy2egEoOQpIXlVfWozfevAeFGZnzfd/PQLgYdM0WzIQVsYwASBaHPdVAAL2UGtnMyX3AdBMFYX5+J2H78c9a1eirrQYmhBXfkmGAbwN4A8BbDRNc59zUaphOB0AkcdYrgAo2wNgfUnck2wdBVTUC8DGtgRygWg4hHvWrsI9a1dhdGLyi//3t3/wadM0u5yOSzVWAIgWp9DKi4QQiCrbAxCs2YfdAEmleCTcE4TJH2AFgGjBhBBxALVWXhsNhZRN035/+pyYmsIbx07gQmcXWrp7MDA8Ynms/++FzB3hjkciqCoqQFVRATY21Ns5d06Z5Ys2vwvBBIBo4VbBYtUsKxqRHMpVwscVgJOtbfjWK7vRPzTsdCiLNjoxgVPtl3Cq/RJ2HzuJB9avwfZlTXZa0FJmMAEgohustfrC0vxcmXFcz6cTypvHT+JbL7/mdBhSTCWS+Mn+Q2jv68dTO7Y6HQ7d3KDTAWQK9wAQLZzlBKC6yNLWgQXx4xNl/9Awvv/6m06HId1bZy/gaEub02HQzQWmAsAEgGjhLCcAVQoTAD/67ut77F7X6lo/ePMAEsmk02HQ3JgAENFVQogQgI2WXgugqsjy6cGbsnMkzq1SpolTre1Oh6HMyPgEOvoHnA6D5sYEgIiucycASwv5Rbk5iIZCksNJEz5MADr7BzCZSDgdhlJtvf1Oh0BzYwJARNf5gNUXqnr6BwBNs349rlt1X/b/52/P4JDTIdDc/P8LOI0JANHCWE4AVG4A9OMSQOnib2jznJLcHKdDoNkl/9NXn7XeaMJj/PfpQSSZEGIdgDqrr69kBWBRyvLzETb8fUKZm0JdKzBHAAEmAEQL8aTVF2pCoLJATQIghPDlEUAhBJbXVDsdhjI5sSjKCyzfKUVqBab8DzABILopIUQYwG9afX1pfi5ChpqndD8+/V/xxK3b1d2e6LDHtm2ydaMhKcUEgIje8xEA5VZfXF9aIjGU6+m6fxOAvKw4nrztFt81Od7QUIfl1ZVOh0FzC1QC4O+FNiL7/tDOi1fX1ciK4wa6z9fJNy1tRG48jm+9/Cr6PHgXwLVChv7eXQDkakwAiAgQQtwFYIPV1+fGY6grLZYX0DU0TYMQ/i/gLa2qwJ89/cR1twF6JRngbYCexASAiAAAf2rnxavrapSVsHU9OH+6kVAId61d/d5//sEbe/Hy4XcsjXXP6hXY0tQgKzQAQCQcQjisptETZRxPARAFnRDiPgCP2Bljrcryf4ASgJl0G70PkqYpMRLyoUBVAJgAEM0ghDAAfN7OGAXZWaguVnPWWwgBzccbAOdjJwFIpeQnAEwpfCVQCUBwHyOI5va7AFbaGeAWhZu9DCPY5WZbFYBUSmIk5AddA4N452IL+odHca6z6zf+QogNAH4M4HnTNHucjk8lJgBE1xBClAD4tJ0xoqEQNkleZ76WEfLn+fiF0m2coU+ZChIALit40sj4BH7+9js4cPocUld/hkunvz4MICGE+HPTNP/GsSAVYwJAdL3PA7DVpm1LcwMiITV/Wrph+LL732K4bQmAvGd8cgpfeuEX6L35iRIDwOeEEFsAfMw0zYnMRJc53ANANE0I8QyAf2dnDF3TsGP5UkkR3ShkBPvpH7C7CVB+BYAphbeYAL69+835Jv9rfQQ2TwS5FRMAIgBCiDUA/t7uOGvra5ETi0mI6EaapgV6898VrACQHUfOX8SJto7Fvuz/EkKUqYjHSUwAKPCEEFkAngVga+bWNQ13rVkhJ6hZBH3t/wo7VyAr2QTInMJTTrQuevIHgGwAn5AciuOYAFCgifSC+j8BWG53rB0rlqJIUbc3TdMCv/v/Cl2zvgdCTQWAGYBXmKaJUx2XrL7cd32cmQBQ0P0NbK77A+krXu9eY+vk4E2FwlFlY3uNrSUA7gEItOHxCYxOTFp9ubrOXg5hAkCBJYT4FGxe9nPFgxvXIqzoch5dN3x9899i6TauQU5yD0Cg2UwA1V3t6RAmABRIQoj/AJvn/a+oLSnCuiV1MoaaVTgcUTa2F7mtAsASgHfYTACnZMXhFkwAKHCEEL8N4G9ljKVrGh7dulHZpT+hUBjCxoTnR27rBMj53ztS9n7+ltcO3IqfLBQYQghNCPH/AvhHQM6c/cCGNagosNU3aE5C0xDizv8bcBMgWZWy17XRdwkAOwFmmEhf4p4FIAIgOv0189+nAHQB6ATQZ5rsNWqXECIO4GsAHpc15rKqCuxY0SxruBtEIlEg4F3/ZmPrGCD/lALNZgLIBIDmN320rArpntLNuNpfuhlAA4DFPNYlhBDduJoQdAG4BOAIgP0AjpumioVN/xBCVAL4IYBNssbMjcfw1I6tykr/4XAEmo3Nbn5mrxEQ9wAEmc09IEwA6EZCiBiA2wDcB+AeAKtgs6nMNQwAFdNfsxkWQhxEOhnYB2C/aZqnJb235wkhngDwRUjcwasJgQ/dtg3xiJryvK4bbPpzE/Y2AfI64CDjEsD1mABYMF3G3wjgfqQn/VuRLt07IRvAHdNfAAAhRD+AvQB+DuBFAIeDtowghMhDurXvr8oe+561q1BfquZEkBAC4QjP/N+M2zYBknfY/PkzAQiq6bL+nQB+A8AjAAqcjeimCgA8OP0FAF1CiCvJwIumabY5FlkGCCHuBfAVKGjcsblpicJ2vwKRaCzwt/3Nx9Z1wEoSgEDl1p5mcw+A724DZAIwj+n1448B+PcAGp2NxrJSAB+d/oIQ4himkwEAu0zTXPC1WG4mhFgF4DOQuNHvWqvrqvHYNmnbCG4QiUa57r8A9m4D5GQdZDaXAHxXPmICMAshhAHg/QCeAfAQAL99Kq+Y/voDAFNCiD24mhDsM00z6WRwiyWEWIJ0U59fhqKjrUsry/H0rduUPZ2HI1HoOv8cF8JttwEyp/AOmyuhRbLicAt+4lxDCBFF+sanPwdQ7nA4mRICcPv0138FMCCEeAlXlwtcu6FQCLEWwG8jXZ1RtmuutqQIH71jh62J52ZC4Qgv+lmEqYT1/DRkY/mAvC87amurlu+uA2YCAEAIEUJ6EvkLANUOh+O0fABPTH9BCHEeV6sDO03T7HMuNEAIkQ3gIwA+DmCr6vcrL8jHr959O0KGmiJQKBRms59FGpu0vhfL4J0KgZYbj9t5eamsONwi0AmAEEIH8EsAPoX0+Xy6UT3Sk+3HAaSmjxxeSQh2m6apfGesEKIQwL0A3gfgaaRPPijXUF6Kj96xA9GwmqfzUDjCyd+CcRsJQEjJhU1cA/CKeCQMQ9eRSFqqIvnuMqDAJgBCiKeRLnnbvgc+QDQAm6e/PglgVAixD+n+A/sA7DVN87zdNxFCFAFYh/QRy/uRPnKZ0drtpqYl+MDWjcrK/pFIDLqi2wP9bnzS+p0sYRUVAM7/npIXj6F3yNK+54gQIs80zcuyY3JK4D6BhBDVAP4J6c19ZE8c6aORd175L4QQPQAOAGhFunPhle6FnQAGke6XEEO67XFs+qsG6S6JzQCWASjM2D/BDALAAxvW4vZVy9SMLwQikRg0lqIts7MEoGQph8c2PSXXegIApJcBmAB4kRDiNwD8DYBcp2PxsWJc7T/gKSFdx9O3bsPK2iol4wuhIRKN2eplT8DYhPXj2Cr2AHD+95Y8+/sATkkKxXGBSACEEDVIP/V7cmIi9XJiMfzyXTtQVaSm+GAYIYTCETb5kaBzwPoDWEhFAqDsRghSITduq0u7rzaJ+z4BEEI8A+Bz4FM/zWFtfQ0e3boRsbD8DXlCCITDUa73S9Te02v5tTkxBW2WmdR5Sp69BGA9gG9JCsVxvv1UEkLkAvg60m17XSc7GkU4ZEAXApqmQdc0aJqArmlIpUyMjI9jeHwCk4mE06H6VjwSxqNbN2JNnfSOwQDSl/qEI1E+9UuUTKVwqX/A8uuLc+QfIOGP11tsHgVU1wrUAb5MAIQQTUhf/6qqafuCREIhVBcVoCg3B4XZWSjMyUZRTjYKsrMQXuAT4WQigeHxCQyPjWNkYhI9g0No7e3Dxe4eDI2OKf4n8K9lVRV4YvtmZCt4IhRCsLmPIl0Dl21d6FKUkyMxmjQuAXhLXpatCgATADebvgjmWTiwkzwaCqGutBhLykqwpKwUFYX50Gw+HoSNEErzY6goDkGfsX45MDyCi13duNjdjQud3Tjf2cXbzuYRCYXw8OZ12NS4RMHoAqFQCEYozKd+Rdp7rfeh0jUNBVm2nv5mxR+1t9jcA1AohKiXcdzZDXyVAAghfhfA3yGD/1x58TjWN9RiVW01KgrypX3wa5oGIxSGrhtzjpmfnYX87CysbagHkK4WnGm/hBOtbTjZ2o5L/f1SYvEDQ9extbkRd65ajix77UBnH5+b/DLiQmeX5dcWZmcr+fnwVIe3ZEWjiEfCGJ2wfJx0E4Dz8iJyji8SgOnLe/4H0n38lQsbBlbWVmFDQz0aykqkfqhomo5QOGzpYpiwYWBFbTVW1KY3qg6OjuJka3s6IWhrD+SSgSYENjUtwd1rVtrN/GchYBgGQqEwBCeBjHj3Qovl1xbnqmkgqfF+AU8RAOpKi3Gspd3qEJsAfEdeRM7xfAIghIgB+AHSHeOUKs3PxW0rlmF1XfWC1/AXys7EP5fceBybm5uwubkJANDR14+TrW040dqOsx2XfL3BUAiBtXU1uGfdKhRJ3vilaRoMIwzdmLs6Q/K19fahf9j6zdUqNgAC9m4nJGfUlZbYSQBukRmLkzydAAghIgC+D8WTf1l+Hu5esxKr6qqlb/cRmoZwOJKRq2ArCgtQUViAO9euRjKVwrlLnTjR2o6TrW1o7em1e1WmK0TDIayrr8W25iaU5ss7+SmEgK4bMIwQu/g55N3zF229vqIgX1IkV7H87031JcV2Xn6bECLfNE3rx1FcwrMJgBAiDOC7AB5Q9R7lBfm4Z81KrKitUrLPNxQKIxSWvx69ELqmoamyAk2VFXhk6yaMTkzgVFv7ewlBn/VWmRknANSXlWBT0xKsqq2W1uxF03XougFd16FpnPSd9s4F6wlASNdRWyz/OndNYwXIiyoK8xEydKtXSxtIX0z2DblRZZ4nE4Dp63ufBfCwivGzY1E8snk9VtfVKJn4dd1AOBxx1bpxPBLBuoYlWNeQ3h3fc3kQJ9vS+wdOt3XY6r+uSl5WHBsa6rGpsR4F2Vm2xtI0DULToAkN2vSEz/K+e/QPDaO1u8fy6+tKipWU6ln+9yZd01BTXISzlyxvKn0UTAAyb3rD3zcAPKZi/E1NS/DQxrXKusJ55Xx4cV4uivNysWPlcqRMEy1d3TjR1o6zHZ1o6ep2JCHIikbRVFmOpVWVaKqsQGl+3nv/m2magGnCvO4rBRMm3jupPT2hX/n3YroJkxD8EHe73UeP23p9U7maq9xnHs0l76gvLbaTALxPCGGYpunpjVSeSgCEEDqArwJ4SvbYRTnZeGz7JjSUqfmg0DQdkWjUk5ONJgTqykpRN/29MZGuELR0d+NiVw8udnWjrbfXajltVpFQCEW5OSjJy8WS8jI0VVagoqhwzoqMECI9qUuLgNxiMpHAnmMnbI3RqCABSO8L8d7fM6XVlZbYeXk+gNsBvCQnGmd4KgEA8FkAH5E5oABw68pluHfdKiUXhQDOrvWrIACU5OWiJC8XG5saAQCpVAq9Q0MYHB3D8NgYBkfHMDQ2huHRMQyNjWNkfHy63bEGQ9Og6el/1TUNhq6jIDsbRbk56cpDbq6SDn3kTQdOncGojRsAy/JykR2V//uk4mZBypya4kJoQiBlffPzU2ACkBlCiA8D+BOZY0ZCBj64YytW1Ki6/lUgHIlmZIe/0zRNQ0leHkry8ub/PxMtwitH3rX1+sbyMkmRXM8wmAB4WdgwUFFYgDbr3SU/KoT4U9M0x2XGlUmeqF8JIVYD+GeZYxbn5uATD92rbvLXNERj8UBM/kSqHG9pRaeNy38AYGV1paRorsfyv/fVl9o6DlgA4IOSQnGE63+DhRB5AL4HwN4272ssq6rAJ953L0ry1NwQrGk6otG4J9f7idwilUrhR3v22RqjrqRYeiMoIL35j6dEvG9pZbndIT4uIw6nuPrxVKT/wv4NQJOsMe9YtRz3b1ijbLOYrhuIRKMAt6MR2bL76HF09Nm7z2LT9D0ZsoVY/veFhvJS5MRiGBqz3Cb9DiFEs2maJ2XGlSluf0T9zwDeL2uwe9etwgMKJ3/DCCESjYGTP5E9w+PjeH7fQVtj5MZjSo7/CZG+A4K8TxMCGxrq7A7j2SqAaxMAIcTtAD4ta7z71q3G3WtWyhruBoYRQjjCnetEMjy394DtXhMbl9QpKdOHDJ1XAPuIhATg16ab03mOKxOA6W/mFyDpUfr+9atx15oVMoaaFSd/InnOdFzCm8ftVVQNXcPauhpJEV0vFPLkZz3NoSQvF9VFhbaGgKLGdKq5MgEA8GcApDyu379+De5crW7y13WDkz+RJMPj4/jqzl22L6ZaVVOtpJunYejs/+9DGxvr7Q7hyWUA1yUAQogGAH8hY6wdy5fiztXLZQw1K13Xp9f8icguE8DXdr6MwZFRW+OEdB23LV8qJ6gZwiGu/fvRmvoaGPaOdd4nhKiXE03muC4BAPAPAGzPqo0VZXho0zoJ4cxO0zREIpz8iWTZefBtnGhtsz3OLc1NSjr/6brG3v8+FQuHsdxevwgNwL+XFE7GuCoBEEJ8CMBDdscpzMnGR27fDk3RTh0hRHry504gIilOtrXj+f32dv0DQF48hi1NDRIiulFEwZICucdG+0dGf014rPmLa4IVQuQC+Du740RCBn75rluVrP9dEY5EXXWVL5GXXejqxlde2GmnJ/t77l69wm4pd1Yhw2DnP59rqixHjr07SGoB3CMpnIxw02/0nwCosDOAAPD0rdtQqqjDH5C+2IftfYnk6Ojrx5ee+xkmpqZsj1VTXIRllbY+QmYlAEQi3Pnvd5oQWL/E9pHAX5cRS6a4YiYTQuQA+H2742xpbrS7jnNTuq776lY/Iid1Xx7EF378PMZs3PR3hRAC9ynq8xEKh9j216dGxifQ2tuH1p4+tPb2oaWn1+6QTwgh8kzTvCwjPtVckQAA+B2kL1awLDcew4Mb1koK50bpm/246Y9Ihu7Ll/GFH79gpwXrdW5b3qyk8qcJgXCYT/9+MTQ2jmMtbTjf1Y2Wnj70D4/IfosYgAcBPCt7YBUcTwCEEDEAf2R3nMe2bUJE4RGdUDjCpwAiCc50XMJXXtiJUQlP/gBQW1yEW5obpYw1UzQaYWNvj+sdGsbRljYca2lDS3cv7O80mde9YAKwYM8AsHVh95q6Giyrkr/2d4Wu6zAMPgX4zcTUFIZGxzA8Po5kKgVNCIhrvjSkKz+xSAR5WXHo3Php276Tp/Dsy7uRTKWkjBcLh/H+zeuVJOeRcIgb/zxqYGQUB8+cw7sX29A5kPFq/H2ZfkOrHE0Aplv+/pmdMWLhMN6/ZYOkiGYXDrPTnxdNJZJo7+tDW08vOvr6cXlkBENj4xgaHcPQ2CimEskFjyWEQE4shvzsLBRkZyE/Owv5Wdkoys1BbUkxcrPiCv9JvM8E8NN9B/Dzg29LHffhjWuRo+jMP0v/3nO+qxuvHz+F4y3tUk6VWNQghFhimuY5pwJYKKcrAL8KwFbD7vvXr0ZWVN3GvFA4wiN/HpBMpXDuUidae3rR1tOL1p5edA9clvYhYJomBkdHMTg6iotd3Tf87/nZWagrLUFtaQnqSktRXVKEMG+MAwD0Dw/jm7tew6m2dqnjbmyoQ1O5reLhrIQQiCn8TCG5EskUDp+/iDeOn0JH/4DT4VxxKwAmAPP4Azsvzo3HsKlpiaxYbqBpGkIhNv9wq8HRURy72IqjF1twsrVdylEyqwaGRzAwPIK3z54HkN48VlFYgKaqCjRXV6GxojyQCcHeE6fw/df3YHxS7s+mPD8Pd69Ss+s/Gglzv48HJJJJvHH8NF47dgIj43L2k0ikphuVZI59IgkhVgGwtW3/zlXLla7LhkJ8CnCbtp5eHDl/AUcvtqKtuycTG3osSZkm2nr70Nbbh5cPvwtd07CkvAzN1ZVorq5CTXGRryeZodExfOuV13D0Qov0sQuzs/D0LVuVNPyJRMIwDLb7dTMTwOFzF/HioSMYsHlvhEL1TgewEE4+knzUzovTT//qkixN06EH8InNjSYTCbx1+ixeP3ocLd09TodjSTKVwun2Dpxu78Bzew8gFomgebo60FxViaLcHKdDlGJ8cgovH34Huw6/o6QikxON4sM7tiEekV+ZC4dDvOzH5c51duOnB95Ge1+/06HMp97pABZC2L120/IbC3EWgOX6/fu3bMD2ZU0SI7peJBrnxR8O6+jrxxtHj2P/qdPSS8huU5Sbg+bqKiyrqsTSqgrEIt6qPiWSSbz27jHsfOttZeXYaCiEX7rjFhTnyE+WQiEDUQVJBcnRPzyCH+97CyfaOpwOZaGOm6ap7h56SRxJAIQQtwB43errc2JR/MnjD8NQNEGnr/nlrm6nvHvhIna+dRjnO7ucDsURQgjUlBSjuboSy6qrUF9W6tojiCPjE9h/8jR2HT6CywrLsSFdx4dv3YaqQlv9wmZlGDo3/bnY/tPn8Nz+Q5hMJJwOZTHOmKap7glVEqfqXbbK/1uWNiib/AGw3a9DTrV14Ll9B3AhoBP/FaZp4mJXNy52dePnB99G2DDQWFmOZdVVaK6uRHmB/ElwUfEBON3WgTePn8DhcxeQSC78OKUVhq7h8a2b1Ez+Oid/txoeH8f39xzA8Va5p0cyxBPl44wnAEIIHcCH7Iwh4cKGOWmaDk3zxM/ON853duGn+w7glHfKexk1mUjg2MVWHLvYCgDIjcffqw40V1UiJ66+RXUylcKFzm6caG3DwdNn0Ds4pPw9ASAaDuGpbZtRXVQofWyW/d3raEsbvr/ngLRukQ7wxGYSJ4K8B0Cp1RfXlRSjMCdbYjjXM0Js/pEpnf0D+NGb+5TsFPezwdFR7D95GvtPngYAlBXko7akBDWlxagtLUFVUaHtJYNEMomugcs403EJJ1rbcKb9UsaPWebF4/jQjq0ozM6SPnYkHGKjHxdKJFP40d6DOHDG9Ufo5+OJp0gnEoC77bx4fYO6p38hBAzu/FcumUph56HDePHAIWktYYOss38Anf0D2HfyFABA1zRUFRWiJD8P2bEYcmJR5MRiyI7HkBWNwjRNTCUSSCSTmEokMZVMYHR8At2XB9F9+TK6Bi6jf3gETm0QBoCKgnx8cPsWJbv9o9EwQvw7d52R8Ql87eXduNht+0Y+2zQhUJCVhd7hYatDeOIXzIkgb7H6QkPXsKbOVuPAm9KNEMCrP5Rq7e7BN19+De29fU6H4lvJVAoXu3tw0aNHJpvKy/CBLRsQkrzP50qHP/b3d5+ugUF8dddrKm7nm5cmBMryclGck4Pi7GwU5WSjMB6Hpmn4wi92WR2WFYCZptf/t1h9/fLqSkQVlu144Y86iWQSz+8/iF1vv+Nkj25yMSEEti1twB0rlklvkmQYOjv8udSp9kv45qt7MrrEFDYM1BYVor64GLVFhSq6dLICMIs1ACwv6K2sqZIYyvXSm//4ZKDCxe4efG3nLnRfHnQ6FHKpvHgM79+0XvpmPyEEIpEQS/4utefEaTy3/1BGHgp0TUNTWSmay8tQkZ8PTW0yyArALCyX/wGgvrREVhw3YNc/Nd48fhLfee0N5UfFrNA1DTmxKAxNh6ZNXwF8zddUMomR8QmMTEywaqHQ6tpq3Ld2FSKS/wZ1XUcsyqd+t3rt6Ak8f/Cw8vfJikSwqqoSK6sqEc3cJm8mALOwnAAUZGchV+FxJ0NnAiBTMpXCd3fvwRtHjzsahxACJbk5qCjIR348htx4HHnxGPLiMWRFIgueHEYnJjGWmML45BSGJ8bR1tuP1p4+dEq8cTBoYuEwHly/Bssqy6WOq2kC4TCf+t3sjeOnlE/+JTk52FBXi/qSYtVP+7PxxC+fZxKAutJimXFcR9M0Xvkr0eWRUfzLi79wpKGPrmkoz89DTVEhqosLUV1YiIiN/u6apiFk6MjOil2XLGye7vE1lUiira8frT29aOnpw/mubjfeTOY6K6srcffqlciW2IRHCMF+/h7w5onT+Mn+Q8rGz43FsK1hCRrLLJ82l4EVgGsJIQoBWG6NWK8wAdD59C/N2Y5O/OuLv8DQ2FjG3lPXNDSWlWJVbRUaSkukdIk0dB3hcGjeHeMhQ0d9afF7v58mgEv9AzjT0YnTHZ240NWDKRcufzhlSWkJ7ly1HGV5uVLHvTLxs9zvbvtOncWP972lZOxoKIRNS+qwqqrKiSf+mYQQQjNN09XnnDM589k6v1fH9X/Xe/fCRfzriy9lbL2/uqgAq2qqsbyqQtranmHoCIfmn/jnIpA+w15RkI/bVi5DIpnEhe7e9xKCjr5+115hrFJ5fh7uWrUcdSXyEnlNEwiFDIQMTvxecOjsBfzwzQNKfv9XVVVhW+MSFbv57dABMAGYVmn1hbFwGCWKrksVQrD1rwRvnz2Hf9v5svLGPiFdx/r6WmxsqEd+lrwLmwxDRyQckn4SxNB1NJaXorG8FA9sWIPRiQmcudSF0x2dONPR6eb7zKUozM7CbcubsaLa8p//DdJJmsHbOj2kpacX39uzX/rknxWJ4K4Vy1BTKL9VtASuX1fOZAJQYfWFKlv/cvK3b//J0/jmrldjCI+lAAAb/klEQVSVboYLGwY2LKnD1qYGqd3hNE1DNBLK2GQSj0Swpq7mvYZWPYND6erApU6cvdSd8Xa7KmhCoKmiDBuX1El54hdI7+jXDR0hQ+fTvscMjY3h6y+/Lv3hoKmsFLcva5Z+eiRIPFEBKMhWdzUvz/7bs+fYCXz71deVtY2NhAxsaqjH5sYliIXltoV1Qz/44twcFOfmYNuyJqRME609fThzKb1c0NLd66kTBtnRKNbV12BdfS1yolFbY+maBt3QYegan/Q9LJFM4Wsvv46hsXFpYxqahjtXLMPSsjJpYwaVJyoABVnyLwO5QuOHi2WvvnMU39+9R9ma9oYldbhz5TJEJJ/dNXQdkUgYmuauJ0lNCNSWFKG2pAh3r1mJiakEznVeXS7oztANfIsRj4TRUFaK5VUVWFpZDmGmrzNeSOIiBCCEBk0T0LRr/lVo4EO+P/xw7wG09shr+x0Lh/G+tatRmit3E2lQeaICkK/gNrAruARgzaEz55RN/kU52Xho/RolV8BGI2GEPHJMLBIysLy6Esun188HR8dwuqMTZy91obW3D72DQxnfUKgJgZriIjRVlqG5shyVhQVzluTN6WQgfTZCvDeps4QfDHtOnMbBM+eljVeYlYWH161Bts3q0kJo0x0k/c4jFQA1SwBCCH4YWXC+swtff+kV6ZOPrmnY3tyIW5qbbF9nO5OmaYhFw55e8smNx7CxsR4bG+sBABNTU2jr60dbbz/aevvQ1tsv9TIVXdNQlJuNktzcdDOlwnw0lpct+D6O9BO+AC/YCp7uy4N4/uDb0sarKSrEA6tXSb8gajbRSAiRgFwV7YkEQFUFgE//i9c7OIR/fv7n0o/6VRTk4+GN61CsYMNnKGQgEgn7bhqKhEJoKCtFwzUNT0YnJtEzOITRiYn32hiPjF/996MTE9BEurlRSNen/9V47z9nx6Ioyc1BSV4uCrKz3HCemjwmZZr4zuv7kEjK2fRXX1yMB9asUv67qAmBeCxYt0VmMgGwfI4vN6amBTC7/y3O6MQEvvTczzAyLm9DDwCsr6/FfWtXSX/qB4J393s8EkZtSZHTYVCA7T56Eq2SrvuuKSzEA6tXKp/8DUNHPID3RmTyk9HyLB4y1DypB+2HbUcylcJXXtiJ7suXpY2paxoeWLcaa+ts9YiaFe9+J8q87sEh7Dz8rpSxKvPz8eDa1cqX7YJU8p8pIwmASM+0lnZuCCGUPBleGZsW5gevv4kzHZekjZcbi+GJbZtQnp8nbcwrNCEQi0U8vd5P5DXp0v9eKcuDZbm5eN+6NTAU/g0LIRCPhaW0DveqTFUALG/bVLnpQxOcIBbieEsrXnv3mLTxSvNy8eEd26Q29LlC0zTEYwu/5Y+I5HjzxGkpR/6yo1E8tG6N0s9+Q9cRjwWv5D9TphIAy+V/Q2EJV7jsHLgbjYxP4Ju7XpM2XkVBPj60Y6uSe7l1XUMsysmfKNMmphJ46Yj9hwRd0/DgmlWIKfh8uCISDiEagCN+C+GBBEBdFihYAZjXt1/djcFROf3qq4sK8fQtW5Rc2MHJn8g5u4+dxOiE/Wuw71jWjJIcNfe+AJz8Z3J9AqCqDMSJYn77T57G4bPnpYxVX1KMJ7dvVvLzTJ/x5+RP5ITRiQnsPnbC9jirq6uwrKJcQkSzC4cMTv4zuD4BCPIGDSf1Dw3ju7vfkDJWVWEBntq+RclyjqYJrvkTOWjXO8cxMZWwNUZRdjZ2LG2SFNGNQiEdsaj8PUfzcP1FHpmqgbuuAsDuZDf3nd1vYHzS/s10efE4nty2WcnkL4RALBbl5E/kkMujo9h78rStMYQQuGvFMmVn/dNn/CNKxva6TCUA1k8BKOsBoGRYXzjV1o6jF1psjxMJGfjgLVuU7PYHkD7qxx8kkWNefue47Y5/a2uqla37G3r6VBDNzvUVAHVLAJw4ZmOaJn7wxl7b42hC4PGtm5S09gXSl/qo6g9BRPObmJrCobMXbI2RG4thy5J6KfHMpE9P/vykn1twEwD+Vsxq74lTaJfQxvOe1StRX1IsIaIbhUKGZ270I/Krt85ewGTC3tr/HcualXzGa5qGLO4NmpfrEwBlpwCUjOptE1NTeG7fAdvjLCktwabpG+tk0zQNUUVLCkS0cG+ePGPr9bVFRaguLJAUzfU4+S+M6xMAdY2A+Msx0y8OHcHQ6JitMWLhMB7euE5SRNe70t+fiJx1trML3ZcHbY2xpaFeTjAzRCMhaGzytiCuTwCUnQLg78d1hsfHsevwEdvjPLh+DbIVTdKRMP+widzgzRP2nv6XlBQr2fina1pgL/axIrAJgGAGcJ3Xjx7HVMLeJR6ra6uxrFJNIw9d17juT+QCw2PjONbSZmuMLUuWSIrmeg6c9fc01ycAbASkXjKVwm6bl/1EQyHcs3qFpIhmGT/C0j+RGxxva0fKtN7jprG0BIXZWRIjSguHDF7/vUjuTwAU9QFgI4Cr3jp91vba/47lSxELq8m+Wfonco9jLe22Xr+qqkpSJFdpQrDNrwXubwTEUwDKvXzkXVuvL8jKwqYl9VJimUnTNIS5pkfkClPJJM5e6rL8+txYDJUF+RIjSotGebWvFe6vAHAJQKkzHZfQ1tNra4y7Vy9X9oTOrJ7IPc50dGIqaX2vkIrLfkKGrqxjrN+5PgFQdwqA2SIAvHLY3tN/TXERliq6wUvXdehMAIlc43hrh+XXCiGwrFz+Z0WUG/8sc30CoKoPAKd/YGR8HO9euGhrjB3N6m7w4nEeIvcwAZxos77+X11QIP2IcMjQ3XwfCG8DnMYKgAu9e6HF1m7ektxc1JeqafdrGDp39BK5SPflQQyNjVt+vYrW4GEeDbbF9QkA9wCoc+ScvYs8tjapOcsL8OmfyG3a+/ptvb62sFBSJGmaEOpOiQVEYBOAoDcCmpiawolW6808sqNRrKiulBjRVYahQ+NNf0Su0t43YPm1efEYcmKWD4PNio3B7HN9AqBsd2ew538cb2lFwsZu3k0Ndcqu42VZj8h9OmxUAGokP/0D/JyQwf0JAJcAlLBb/l9VWy0pkutpmsad/0QuYwLosFEBqCmSmwCkq4QBf4qTwPWNgLgEIF8ylcLRiy2WX19dVIicqNxy3hUs6xG5T//QMManpiy/vjJfbvMfPv3LkanvouUKwBef/4WSYx5XukbFImFUFxehqrgI6xuXoCA7W/p7zSWZSuHgqTO42N2Dtp5e9A4NZeTgSMo0MT5p/Y95eVWFxGiux4YeRO5jZ/0/OxqRWskVQvBzQhLXJwCjExMy47jB0NgYugYu4+Dps/jZgUN4bMc2bF/erPQ9gfR62td/8TLaevuUv5dMQggsq1STAIQMg+08iVyob3jY8msL4nIv/gmFOPnL4voEIJMmpqbw7Muv4UJnFz58523K3udkWzv+109ftLUJzynVRYXSm3lcYfAPm8iVhm2c/y/IikuMhEfDZVK+B0AIoQHwVK/GN4+ftL1Jbi7jk1P45q5XPTn5A0BjWYmScYUQ/MMmcqnhcTsJgNwKgKrusEGUie+kJ57+Z/r2q7sxYWPTy1x+/OY+DAyPSB83U6oUHOcBwK5/RC5mpwOgzAqApgkuE0rEBGAOw2PjuNjVLX3coxes7753mq5pKM/PUzI2O3oRuZedBCAWllcAVtV7JKiYANxES3eP1PGGxsYwMOLdp//y/Dxl5TeW/4ncy84egIghb6sZK4VyZWIToJoD4xnQOjSK0Sx5Je8LvfZu3nNaVWGBknF1XWNZj8ilEsmkrR4AYYkJgMdahLv+NsBMJACerQDEy2oxkF8jbTwdcjfDZFpFgdxmHlfw6Z/IvZKplOXXGrrc63pdfPWvJ3EJ4CbKKmuljpeXX4iY5DOxmZQbU/Oj1FjWI3ItO9W5sOTknu1/5WICMIdQOIzKmnrp49Y2qG8ypIqq8//c2EPkXnYSALkdAO3FQjdiAjCHO+7/gJKn9bseehyRqCe/JYhH5CcAPNZD5G527k1J2Fg+uCEOfk5IxwRgFrUNzdiwVU0nwJzcfNzz8JNKxlYpEgopOQHgsU09RIFjZ96d8mjDs6DgJsBrCCGwacdduO3eR+z91s9j1fqtiMbieOEH38To8JCy95FJWfmf6/9ErmbnyVtuAsAKgGyBTwCEpqGouAzlVbVYs2k7qmobMvK+jctW49d/75PY99pOdLReQGdHCyYVX3xkR5aC8j/ACgCR29nZeW+aJhLJJE/6uJSrE4CG5tXYctt9MmMBAEQiUWTlpNf3w5Ho/9/enQbJVZ1nHP+fXqRZJcBmN8IIs9mIRbYQZQx2IKwKFME4YAx24nIldsWpSsqplFOVfPAHVzkVZ6lU4qRwmTiOYskCjCQWsUsGbSMLJKEFNJJGQvtIo1k0M93TM9198qHHMBIjaXT7nj739n1+VVMzPXP7nneql/v2ezayWT9bFTQ2NXPLHfdVblhLbnAA63Dq6KplL7F+zfJA93VVAdC0HpHoa5w0ifzwcKD7joSUAOidInyRXghockMjjU0tYcYCQENjI80t4Z+3KsbQ1NLquIngL6HmBjfrOVX2ihKRKJvS1Bg4AciPjISyHHDkV9WJoUgPAkyHuILUWEn90FmsYjUvF10AxpjEPhYicTK1ig19enO5UGKwVilA2KKdAKRdJQDJvOoUi8ETABddAEl9HETiZmpT8KFcvYNKAKIq0glAJpMNM44xknnhqaYC0JAN/7FQ/79IPFRTAegJqQIAUC4rCQhTpBMAdQGEq5oKgIs1AIyW9RSJhalNVSQAIVUAQFWAsEU6Acg4SwCSeeGppgKQToU/jaeaFcZEpHaq6gIIswKgBCBUkZ4GmFYXQKiiVgFI6MMgHh3N5dl16DB7urrpz+fJDQ2TGy5QGCnq0+VJVLMjYLFUYu7K1eG83OO1H0Dkn1CRTgBcjQGI0RMoVNVUAFws5JHMR0Fq7Uj/AG3tO9iye29oA9Lk9AwMDfkOQcYR6QTA1RiApF55qqoAuFixL6GJmNRG+/6DrHi3nY4DndH/KCbiQaQXAspoGmCoqqsAOBgEGPoZRaC7f4Dn1q6nfd8B36GIRFrEKwCOugASeumpbgyA1vKWaCuVyyzb+C5vbnmPYim8bWhF6lWkKwDqAghXVRUAB10ASa3ESPi6jvbz5Io29h3p8R2KSGzUIgEIvB+kBgGGSxUAqUdrt3fwwtoNDBeLvkMRiZVaJACBrzrOFgJKYAmgVCoFnuaUdrVlb/IeBglRrjDMM6vX8u6efb5DEYmlWiQAgdNydQGEpzgSbCcvcLQGAMlMxCQc2w908vTKNfTnNb1MJKhIVwAyaXUBhKW6KYAq/0s0FEtlXl6/kVXvtmtqn0iVIl0BKJWKZBxsQpPIBCBiUwBBywDI6TnUe5QFK1ZzsKfPdygidSHSFYDh4SEmNwRfg1o+VKxigJS7AYDKAGRiVm/dzotvv0OxFHhMsYgcJ9IJwKH9e2idcmaYsQCVi2HWQWUhyqrpAtAgQPElVyjw9MrfslWL+oiELtJdAKvfeInBwX4unn4l6XSa1O++UmnSqcrPQcr5pSQmAFUMAsw6qgDo+i8ns7PzMAuWt9Gfz/sORaQu1SIB2B/0jiPDBd5etZS3Vy094THGGFIT/IQ6dtDQiS4+ExpYNIHpdDU9zwTPFZSzCoDIOKy1LN34Lss2btH2rxJnkX/y1iIBeAX4U1cnt9ZSUr+gU+4GAaoGIMfqz+dZsLyNnZ2HnbYzZeqZXHrl1Zx34cVks1nSmezo9wyZ7CQymSyZTIZMNks6nfnIc3Wia2pM5Ljxj7EnvVn51bi/PO1jxj1uwu1F/hpXlcf/+Qe+Q3CqFgnA60AZ0MfImNIqgFIL7fsO8NTK35IrFJy1YVIpbrjpVj5/6z2k9byWhHOeAFhru40xa4EbXLclbrjZByD0U0pM5YeHeXX9Jta073BaM516xlnc8+BjXDhtusNWROKjFhUAgLkoAYgtNxUAZQBJV7aWtds6eHXDJnKF4INUJ+Iz183itjkPMmly4L3JROpOrRKA/wK+C1xeo/YkRBoEKGHb2XmY59euc76oT0NjE7ff+0dccfX1TtsRiaOaJADW2hFjzN8AC2vRnoTLxTRAdQEkR2FkhIO9fXT29HGwt48D3b3s6TrivN1p0y/n7ge+RuuUM5y3JXXKmLoe6FirCgDW2kXGmGeBe2vVpoTjrY5dbHh/d8hn1VZASTFUxTLUQaQzGW6+7Q/43Oe/pExT5CRqlgCM+hqwHLimxu1KFUrlMqVy2XcYIqf08XPOY85XvsHZ517gOxSRyKtpAmCt7TfGzAHaAL1CRSQcxjDzxlu45fZ7yWSStcqnSFC1rgBgrd1rjLkT+DVwWa3bF5H60tTcwt0PPMoll13lOxSpM4YYLOdXhZonAADW2k3GmJnAT4DHfMQgIvE3bfrlzPnyYzS3TvEdikjseEkAAKy1A8DXjTEvAz8EpvmKRUTixaRS3PR7dzP7ltu1pLRIQN4neFtr5wLTgYeA1Z7DEZGIa516Bg9/8y+48Yt36OIvUgVvFYCxrLUlYAGwwBhzLZVVA68BZgBXA61UumNSY76LSMJ86qoZ3HX/IzQ0NvkOReRUIj98IBIJwFjW2g3AhlMdZyqpf5CkYCIPSq2OCaUdO4Etx4wxy4GbJtCeSOSkMxm+dOf9XD/7Zt+hcLSvh4P7djPYf5TcYD+DA/2UisVQzp3JZjnnvAs594KLOPvcC0hnIvcWnSxaCCiaRi96lspOg3JqWgRdYumCiz7JHfc9xMc9zu3fs2s7m9etYc/ObfT1dtekzVQ6zdnnnM91s29mxswba9KmJEtsEwA5bY2+AxA5HY1Nzdxyx33MuH62txX99u7awcqlS9i9c1vN2y6XSnQe2MtLC+fRvnkDd97/MC2tU2seh9QvJQDJoQqAxEI6k2HGzBv5wm1zvPX173u/gxVLl7C7o91L+8fbuW0LP//3H3HbnAe56prP+g5H6oQSgORQBUAirbGpmWtnfYGZs2+mqaXVSwzFkRFefe5JNq1r89L+yQzlczz/1C9oam7h4kuv8B2O1AElAMmhCoBETnbSZC765KVcesXVfPq6WWSzk7zF0tvdxaL5T3D44D5vMUzEiwt/yR//+feZ3KCc3jWtBCj1Qu8W4ocxNDQ00tTcQmNzC01NLZx7wSeYdsnlnPeJi0ml/M/q3f7eRpb8+v8oDOV9h3JK/X29LF3yDHf94SO+Q5GYUwKQAKNTJicHvf9Xv/W90BdcaT1jKpOy2rQlCSZNmoyJwEV+PLZc5s3XnmfN8tdiNd1r07o2LrvqWqZNvzzQ/Y2BdDod2cdFakMJQDJMplLNOm2pVMpJqbGxoZGMEgDxKDfYz3ML/sfLCP8wvLdpHVPPOif4CYwhnUoxuaGBxuamYG8QEmtKAJIh8BXc1UIkWsJVfNq3u4Nnf/VzBvr7fIcSWNeh/dWdwFpKpRK5wUEKhQJTprRq4aHj1fn7lB7tZAg8ADCddvQpvc5fWBJdb61axm9eXky5VPIdSlW6uzopl8uhjKEoFYsc7e3jzI+dpddmgigBSIbIVQD0JiO1NjJc4MVnfsnWzet9hxKKUrFIX08XZ36sim6AsecrlxkYGKCl1c8UTKk9JQDJELgCkHHVBeDkrCLjO3L4IIvmPUF3V6fvUELV13MktAQAYCg/RHNLi7roEkIJQDIErwCk3TxFUnqDkRp5b+NbvLRoPiPDw75DCZ214W+FUioWNUA3BBPZpM03JQDJEHwMgLoAJKbKpRJLX3yGdW1v+g4lVorFkhKAUfX+LqUEIBmqGAOgNwKJn/6jvSz+1X9zYM8ul83sB1aOfvVUcZ7vADeEElEIyg6qChJNSgCSIfgYAAddAOpfFJfe37GV55/6BbnBAVdNDAN/B/w4jDKvMeYuIpQASHIoAUiGSM0CUAIgTljL6jdeYcXrL+Cw+3Ur8Ii19m1XDYjUihKAZIjUGABd/iVsQ/kcLzw9l472zS6b+Snwl9banMtGJELq/MOKEoBkCFwByLhYCKjOX1RSW50H9rJ4/hP09Rxx1UQO+La19n9dNSDigxKAZIhUBUAJgIRl41ureO35pykWR1w1sR34srX2HVcNiPiiBCAZNAZA6kqxOMKrzz7JpnVtLptZDHzdWhvfDQNETkIJQDJEaiEgbUAq1ejrOcKieT/j0MF9rpooAX8P/CgOi7mIBKUEIBmqWArYwRiAlCoAEsyOrZt44em5FIbyrpo4DHzVWvuaqwYkPmy5vtdEUAKQDJHqAtA8ADld5VKJFUuX0Pbmq+DuQ3kb8KC1dq+rBiQ+yuUyZSUAkmQjw4XQz+li/XKpX+1bNvDGy4vp7e5y2cxPgL+y1tbfhgESSHHE2cDSyFACkAyBt0Br37yOGZ+9KZQ9x3+nVIz3PuziXm6gn/c72lnX9gb73S7nmwP+zFo712UjEj/FkfrPBZUAJMOBoHccHDjKsiVP8enrZnPehRcf87fjx0cdc3v05w9/Yz/4VgIKQ3lS6fSYA+yYyq499fmPu/3hz/a4bye+feK/HRf7uO2M3+5H/4cT/38nbMeYSieJSWFMZdZEZeaE+fDn0WOMSY3eHj2O0b+N+eKD4/jwb4w5z5jjasJaCoUhhvI58rlBhvI5hvKD5HM5eru7eL+jna7O/bWIZDvwgLV2Yy0ak3jp6+2u5u5DYcXhktEg1/o3utb4Et9xSPQdkxTw0QRjbBIyNjHBANZix3yVy+Uxvysf87cIWAR8IwpT/Iwx84GHfMchodplrb3EdxCnogpAMqwBiujxllOw1lYu2h/8pu66a0pUNvL5B03xE4cO+g5gIjQlOwGstd2ANkWXpDsM3GGt1fx+cW2L7wAmQglAciz0HYCIR6uBmdba130HMg4lI/UnFl2uSgCSYz7gbIN0kQj7D+CLEZ7fv9t3ABKqIvCK7yAmQglAQlhrDwH/6DsOkRrKAY9Za78b8fn9a30HIKGaF4XBpROhWQAJYoxpBrYB5/uORcSxbVR28Yv8FD9jzCVAh+84JBRF4Epr7Q7fgUyEKgAJYq0dBL6N+hylvi0EZsXh4g9grd0JHPEdh4Ti8bhc/EEJQOJYaxdT2elMpN6UgL+lsrhPLEqwY8z3HYBUbRPw176DOB3qAkgoY8w84GHfcYiEZBXwHWvtBt+BBGGMaQHeASK/eIyMqx+4wVr7nu9ATocqAMn1KPAvvoMQqdIR4FvATXG9+ANYaweAb6LuuTg6DNwat4s/qAKQeMaYPwH+E5jsOxaR07AN+Cnws9GFruqCMebHwPd8xyETtg2YY63d5juQIJQACMaYTwE/BL5CZVV3kSgqAM8AjwPL6nU1P2PMo8C/AWf6jkVOqAj8E/ADa23edzBBKQGQDxhjZgHfB+4CmjyHI1IC1gNvUFnK+jf19Gn/ZIwx51OpcMzxHYscYxCYB/yrtXaz72CqpQRAPsIY0wj8PnAPcClw4ejXVJ9xSV3qATqBQ6PfO6lsX70WWDnaN55YxpiZwCzgc6NfnwGyYw45/g08zNtxPXeYbZWprNHwNpXn5EJr7VHqxP8D3reA2flInlQAAAAASUVORK5CYII=;" vertex="1" parent="1">
          <mxGeometry x="650" y="140" width="240" height="240" as="geometry" />
        </mxCell>
      </root>
    </mxGraphModel>
  </diagram>
</mxfile>
